<svg width="695" height="512" viewBox="0 0 695 512" fill="none" xmlns="http://www.w3.org/2000/svg">
<rect width="695" height="512" fill="white"/>
<rect x="85.5" y="78.5" width="257" height="355" rx="3.5" fill="#ECECEC" stroke="#0F2645" stroke-width="5"/>
<rect x="240" y="144" width="100" height="100" fill="#5081FF"/>
<rect x="353.5" y="78.5" width="257" height="355" rx="3.5" fill="#ECECEC" stroke="#0F2645" stroke-width="5"/>
<rect x="88" y="330" width="252" height="100" fill="#FF5EC8"/>
<rect x="88" y="81" width="252" height="63" fill="white" fill-opacity="0.99"/>
<rect x="356" y="81" width="252" height="63" fill="white" fill-opacity="0.99"/>
<rect x="569" y="87" width="14" height="14" rx="3" fill="#C8DFFC"/>
<rect x="588" y="87" width="14" height="14" rx="3" fill="#C8DFFC"/>
<path d="M122 113C122 109.686 124.686 107 128 107H340V138H128C124.686 138 122 135.314 122 132V113Z" fill="#0E71F2" fill-opacity="0.22"/>
<path d="M356 107H596C599.314 107 602 109.686 602 113V132C602 135.314 599.314 138 596 138H356V107Z" fill="#0E71F2" fill-opacity="0.22"/>
<path d="M103.2 128.6L96.3999 121.8L103.2 115" stroke="#C8DFFC" stroke-width="2"/>
<path d="M111.8 121.8H96.3999" stroke="#C8DFFC" stroke-width="2"/>
<rect x="356" y="330" width="100" height="100" fill="#17FF58"/>
<path d="M404.104 374.6H409.604V384.324H411.848V387.096H409.604V390H406.7V387.096H399.836V383.092L404.104 374.6ZM402.344 383.928V384.324H406.7V376.052H406.304L402.344 383.928Z" fill="#0F0F0F"/>
<rect x="356" y="144" width="252" height="100" fill="#FFDF34"/>
<path d="M288.808 199.228V188.052H288.412L286.96 193.332H284.188V193.068L286.036 186.6H291.712V199.228H295.54V202H284.452V199.228H288.808Z" fill="white"/>
<path d="M487.254 199.228V202H476.43V198.964C476.43 198.157 476.547 197.468 476.782 196.896C477.031 196.324 477.376 195.84 477.816 195.444C478.271 195.048 478.813 194.725 479.444 194.476C480.075 194.212 480.786 193.992 481.578 193.816C482.165 193.684 482.641 193.537 483.008 193.376C483.389 193.2 483.69 193.009 483.91 192.804C484.13 192.584 484.277 192.349 484.35 192.1C484.438 191.836 484.482 191.543 484.482 191.22C484.482 190.604 484.255 190.091 483.8 189.68C483.36 189.269 482.744 189.064 481.952 189.064C481.116 189.064 480.449 189.321 479.95 189.834C479.451 190.333 479.202 191.029 479.202 191.924V192.892H476.298V191.66C476.298 190.941 476.423 190.259 476.672 189.614C476.936 188.954 477.303 188.382 477.772 187.898C478.256 187.399 478.843 187.011 479.532 186.732C480.221 186.439 480.999 186.292 481.864 186.292C482.788 186.292 483.595 186.431 484.284 186.71C484.973 186.974 485.545 187.326 486 187.766C486.469 188.206 486.814 188.719 487.034 189.306C487.269 189.878 487.386 190.472 487.386 191.088V191.352C487.386 192.643 487.019 193.713 486.286 194.564C485.567 195.415 484.387 196.031 482.744 196.412C482.055 196.573 481.483 196.742 481.028 196.918C480.588 197.079 480.243 197.263 479.994 197.468C479.745 197.673 479.569 197.901 479.466 198.15C479.378 198.385 479.334 198.656 479.334 198.964V199.228H487.254Z" fill="#0F0F0F"/>
<path d="M212.236 383.4V378.824L216.064 377.768V377.372H208.408V374.6H218.44V379.44L214.348 380.628V381.024H214.876C215.419 381.024 215.954 381.112 216.482 381.288C217.01 381.449 217.472 381.706 217.868 382.058C218.279 382.41 218.609 382.85 218.858 383.378C219.107 383.891 219.232 384.5 219.232 385.204V385.468C219.232 386.157 219.115 386.795 218.88 387.382C218.66 387.969 218.323 388.482 217.868 388.922C217.428 389.347 216.878 389.685 216.218 389.934C215.558 390.183 214.803 390.308 213.952 390.308C213.087 390.308 212.302 390.169 211.598 389.89C210.894 389.611 210.293 389.23 209.794 388.746C209.31 388.262 208.936 387.705 208.672 387.074C208.408 386.443 208.276 385.776 208.276 385.072V384.148H211.18V384.94C211.18 385.644 211.407 386.253 211.862 386.766C212.317 387.279 212.999 387.536 213.908 387.536C214.685 387.536 215.279 387.338 215.69 386.942C216.115 386.546 216.328 386.025 216.328 385.38C216.328 384.691 216.101 384.192 215.646 383.884C215.206 383.561 214.641 383.4 213.952 383.4H212.236Z" fill="black"/>
</svg>
