<svg id="Layer_1" data-name="Layer 1" xmlns="http://www.w3.org/2000/svg" viewBox="0 0 1200.9 629.3"><defs><style>.cls-1,.cls-5{fill:#0e71f2;}.cls-1{stroke:#0f2645;stroke-width:8px;}.cls-2,.cls-6,.cls-9{fill:none;}.cls-2{stroke:#fd94ff;stroke-width:4px;}.cls-3{fill:#fff;fill-opacity:0.99;}.cls-4{fill:#c8dffc;}.cls-5{fill-opacity:0.22;}.cls-6{stroke:#c8dffc;stroke-width:2px;}.cls-7{fill:#f2f2f2;stroke:#000;stroke-dasharray:4 4;}.cls-8{fill:#fd94ff;}.cls-10{isolation:isolate;font-size:10px;font-family:Monaco;}</style></defs><path class="cls-1" d="M1074,29.6v268a6,6,0,0,1-6,6H720a6,6,0,0,1-6-6V29.6a6,6,0,0,1,6-6h348A6,6,0,0,1,1074,29.6Z"/><path class="cls-1" d="M1074,331.7v268a6,6,0,0,1-6,6H720a6,6,0,0,1-6-6v-268a6,6,0,0,1,6-6h348A6,6,0,0,1,1074,331.7Z"/><line class="cls-2" x1="747.4" y1="102.5" x2="727.4" y2="102.5"/><line class="cls-2" x1="747.4" y1="286.6" x2="727.4" y2="286.6"/><path class="cls-2" d="M737.4,101.4V287.6"/><line class="cls-2" x1="747.4" y1="342.9" x2="727.4" y2="342.9"/><line class="cls-2" x1="747.4" y1="589.7" x2="727.4" y2="589.7"/><path class="cls-2" d="M737.4,341.5V591.1"/><rect class="cls-3" x="724.8" y="34.1" width="340.2" height="62"/><path class="cls-4" d="M1028,38.1h8a3,3,0,0,1,3,3v8a3,3,0,0,1-3,3h-8a3,3,0,0,1-3-3v-8A3,3,0,0,1,1028,38.1Z"/><path class="cls-4" d="M1047,38.1h8a3,3,0,0,1,3,3v8a3,3,0,0,1-3,3h-8a3,3,0,0,1-3-3v-8A3,3,0,0,1,1047,38.1Z"/><path class="cls-5" d="M757.1,65.1c0-3.3,3.5-6,7.8-6H1058v31H764.9c-4.3,0-7.8-2.7-7.8-6v-19Z"/><path class="cls-6" d="M736.5,80.7l-6.8-6.8,6.8-6.8"/><path class="cls-6" d="M745.1,73.9H729.7"/><rect class="cls-7" x="355.08" y="150.35" width="29" height="61"/><path class="cls-1" d="M82.58,139.85h268a6,6,0,0,1,6,6v348a6,6,0,0,1-6,6h-268a6,6,0,0,1-6-6v-348A6,6,0,0,1,82.58,139.85Z"/><path class="cls-1" d="M386.58,139.85h268a6,6,0,0,1,6,6v348a6,6,0,0,1-6,6h-268a6,6,0,0,1-6-6v-348A6,6,0,0,1,386.58,139.85Z"/><line class="cls-2" x1="416.28" y1="299.85" x2="416.28" y2="244.85"/><path class="cls-8" d="M415.38,235.15a1,1,0,0,1,1.7,0l5.1,8.3a1,1,0,0,1-.9,1.5H411a1,1,0,0,1-.9-1.5Z"/><line class="cls-2" x1="111.78" y1="299.85" x2="111.78" y2="244.85"/><path class="cls-8" d="M110.88,235.15a1,1,0,0,1,1.7,0l5.1,8.3a1,1,0,0,1-.9,1.5h-10.2a1,1,0,0,1-.9-1.5Z"/><path class="cls-8" d="M110,280.35H320c1.4,0,2.6.73,2.6,1.61v25c0,.89-1.2,1.61-2.6,1.61H110c-1.4,0-2.6-.72-2.6-1.61V282C107.38,281.08,108.58,280.35,110,280.35Z"/><path class="cls-8" d="M110,321.29H320c1.4,0,2.6,1.85,2.6,4.11v63.79c0,2.26-1.2,4.11-2.6,4.11H110c-1.4,0-2.6-1.85-2.6-4.11V325.4C107.38,323.14,108.58,321.29,110,321.29Z"/><line class="cls-2" x1="855.5" y1="122.5" x2="752.5" y2="122.5"/><path class="cls-8" d="M742.9,123.4a1,1,0,0,1,0-1.7l8.3-5.1a1,1,0,0,1,1.5.9v10.3a1,1,0,0,1-1.5.9Z"/><path class="cls-8" d="M801.17,120.5h210.56c1.39,0,2.57.75,2.57,1.7v26c0,.95-1.18,1.7-2.57,1.7H801.17c-1.39,0-2.57-.75-2.57-1.7V122.2C798.49,121.25,799.67,120.5,801.17,120.5Z"/><rect class="cls-3" x="86.58" y="149.85" width="260" height="62"/><rect class="cls-3" x="390.58" y="149.85" width="260" height="62"/><path class="cls-4" d="M614.58,153.85h8a3,3,0,0,1,3,3v8a3,3,0,0,1-3,3h-8a3,3,0,0,1-3-3v-8A3,3,0,0,1,614.58,153.85Z"/><path class="cls-4" d="M633.58,153.85h8a3,3,0,0,1,3,3v8a3,3,0,0,1-3,3h-8a3,3,0,0,1-3-3v-8A3,3,0,0,1,633.58,153.85Z"/><path class="cls-5" d="M114.58,180.85a6,6,0,0,1,6-6h226v31h-226a6,6,0,0,1-6-6Z"/><path class="cls-5" d="M390.58,174.85h248a6,6,0,0,1,6,6v19a6,6,0,0,1-6,6h-248Z"/><path class="cls-6" d="M98.78,196.45l-6.8-6.8,6.8-6.8"/><path class="cls-6" d="M107.38,189.65H92"/><rect class="cls-9" x="113.78" y="299.85" width="196.5" height="10.1"/><text class="cls-10" transform="translate(114.58 297.85)">env(viewport-segment-width 0 0)</text><rect class="cls-9" x="113.78" y="286.15" width="196.5" height="10.1"/><path class="cls-8" d="M415.58,280.35h210c1.4,0,2.6.73,2.6,1.61v25c0,.89-1.2,1.61-2.6,1.61h-210c-1.4,0-2.6-.72-2.6-1.61V282C413,281.08,414.18,280.35,415.58,280.35Z"/><rect class="cls-9" x="419.38" y="299.85" width="196.5" height="10.1"/><text class="cls-10" transform="translate(420.02 297.85)">env(viewport-segment-width 1 0)</text><rect class="cls-9" x="419.38" y="286.15" width="196.5" height="10.1"/><text class="cls-10" transform="translate(113.78 335.13)">env(viewport-segment-right 0 0)</text><text class="cls-10" transform="translate(113.78 351.69)">env(viewport-segment-left 0 0)</text><text class="cls-10" transform="translate(113.78 368.24)">env(viewport-segment-top 0 0)</text><text class="cls-10" transform="translate(113.78 384.8)">env(viewport-segment-bottom 0 0)</text><path class="cls-8" d="M801.55,160.44h210c1.4,0,2.6,1.86,2.6,4.12v63.78c0,2.26-1.2,4.12-2.6,4.12h-210c-1.4,0-2.6-1.86-2.6-4.12V164.56C799,162.3,800.15,160.44,801.55,160.44Z"/><text class="cls-10" transform="translate(805.35 174.29)">env(viewport-segment-right 0 0)</text><text class="cls-10" transform="translate(805.35 190.84)">env(viewport-segment-left 0 0)</text><text class="cls-10" transform="translate(805.35 207.4)">env(viewport-segment-top 0 0)</text><text class="cls-10" transform="translate(805.35 223.95)">env(viewport-segment-bottom 0 0)</text><path class="cls-8" d="M801.55,397.59h210c1.4,0,2.6,1.86,2.6,4.12v63.78c0,2.26-1.2,4.12-2.6,4.12h-210c-1.4,0-2.6-1.86-2.6-4.12V401.71C799,399.45,800.15,397.59,801.55,397.59Z"/><text class="cls-10" transform="translate(805.35 411.43)">env(viewport-segment-right 0 1)</text><text class="cls-10" transform="translate(805.35 427.99)">env(viewport-segment-left 0 1)</text><text class="cls-10" transform="translate(805.35 444.55)">env(viewport-segment-top 0 1)</text><text class="cls-10" transform="translate(805.35 461.1)">env(viewport-segment-bottom 0 1)</text><path class="cls-8" d="M415.58,321.29h210c1.4,0,2.6,1.85,2.6,4.11v63.79c0,2.26-1.2,4.11-2.6,4.11h-210c-1.4,0-2.6-1.85-2.6-4.11V325.4C413,323.14,414.18,321.29,415.58,321.29Z"/><text class="cls-10" transform="translate(419.38 335.13)">env(viewport-segment-right 1 0)</text><text class="cls-10" transform="translate(419.38 351.69)">env(viewport-segment-left 1 0)</text><text class="cls-10" transform="translate(419.38 368.24)">env(viewport-segment-top 1 0)</text><text class="cls-10" transform="translate(419.38 384.8)">env(viewport-segment-bottom 1 0)</text><rect class="cls-9" x="804.1" y="128.5" width="154" height="16"/><rect class="cls-9" x="804.1" y="147.6" width="210.2" height="16"/><text class="cls-10" transform="translate(804.11 138.85)">env(viewport-segment-height 0 0)</text><line class="cls-2" x1="855.5" y1="364.9" x2="752.5" y2="364.9"/><path class="cls-8" d="M742.9,365.7a1,1,0,0,1,0-1.7l8.3-5.1a1,1,0,0,1,1.5.9v10.3a1,1,0,0,1-1.5.9Z"/><path class="cls-8" d="M801.19,362.9h210.52c1.45,0,2.59.62,2.59,1.36V385.7c0,.75-1.14,1.37-2.59,1.37H801.19c-1.45,0-2.59-.62-2.59-1.37V364.26C798.5,363.52,799.74,362.9,801.19,362.9Z"/><rect class="cls-9" x="804.1" y="370.8" width="172" height="10.1"/><text class="cls-10" transform="translate(804.11 380.9)">env(viewport-segment-height 0 1)</text><line class="cls-2" x1="340.28" y1="238.95" x2="340.28" y2="218.95"/><line class="cls-2" x1="93.28" y1="238.95" x2="93.28" y2="218.95"/><path class="cls-2" d="M341.68,229H92"/><line class="cls-2" x1="643.98" y1="238.95" x2="643.98" y2="218.95"/><line class="cls-2" x1="397.08" y1="238.95" x2="397.08" y2="218.95"/><path class="cls-2" d="M645.48,229H395.68"/></svg>