<svg width="765" height="609" viewBox="0 0 765 609" fill="none" xmlns="http://www.w3.org/2000/svg">
<rect width="765" height="609" fill="white"/>
<rect x="369.5" y="113.5" width="29" height="61" fill="#F2F2F2" stroke="black" stroke-dasharray="4 4"/>
<mask id="path-2-inside-1" fill="white">
<rect x="91" y="103" width="280" height="360" rx="6"/>
</mask>
<rect x="91" y="103" width="280" height="360" rx="6" fill="#0E71F2" stroke="#0F2645" stroke-width="20" mask="url(#path-2-inside-1)"/>
<mask id="path-3-inside-2" fill="white">
<rect x="395" y="103" width="280" height="360" rx="6"/>
</mask>
<rect x="395" y="103" width="280" height="360" rx="6" fill="#0E71F2" stroke="#0F2645" stroke-width="20" mask="url(#path-3-inside-2)"/>
<line x1="532" y1="228" x2="429" y2="228" stroke="#FD94FF" stroke-width="4"/>
<path d="M419.383 228.851C418.748 228.461 418.748 227.539 419.383 227.149L427.726 222.011C428.392 221.6 429.25 222.08 429.25 222.862L429.25 233.138C429.25 233.92 428.392 234.4 427.726 233.989L419.383 228.851Z" fill="#FD94FF"/>
<line x1="428" y1="448" x2="408" y2="448" stroke="#FD94FF" stroke-width="4"/>
<line x1="428" y1="180" x2="408" y2="180" stroke="#FD94FF" stroke-width="4"/>
<path d="M418 182L418 449" stroke="#FD94FF" stroke-width="4"/>
<line x1="396" y1="487" x2="396" y2="467" stroke="#FD94FF" stroke-width="4"/>
<line x1="370" y1="487" x2="370" y2="467" stroke="#FD94FF" stroke-width="4"/>
<path d="M394 477L372 477" stroke="#FD94FF" stroke-width="4"/>
<rect x="475" y="226" width="165" height="35" rx="2" fill="#FD94FF"/>
<path d="M480.304 246.416C480.336 247.205 480.581 247.84 481.04 248.32C481.499 248.8 482.139 249.04 482.96 249.04C483.333 249.04 483.659 248.997 483.936 248.912C484.213 248.827 484.448 248.709 484.64 248.56C484.843 248.411 485.003 248.24 485.12 248.048C485.248 247.845 485.349 247.632 485.424 247.408L486.608 247.728C486.384 248.464 485.968 249.067 485.36 249.536C484.763 249.995 483.952 250.224 482.928 250.224C482.363 250.224 481.84 250.128 481.36 249.936C480.891 249.733 480.485 249.451 480.144 249.088C479.803 248.725 479.536 248.293 479.344 247.792C479.152 247.291 479.056 246.736 479.056 246.128V245.744C479.056 245.189 479.152 244.672 479.344 244.192C479.547 243.712 479.824 243.301 480.176 242.96C480.528 242.608 480.939 242.336 481.408 242.144C481.888 241.941 482.405 241.84 482.96 241.84C483.611 241.84 484.171 241.963 484.64 242.208C485.12 242.443 485.509 242.736 485.808 243.088C486.117 243.44 486.341 243.824 486.48 244.24C486.629 244.656 486.704 245.04 486.704 245.392V246.416H480.304ZM482.96 243.024C482.608 243.024 482.277 243.083 481.968 243.2C481.669 243.307 481.403 243.461 481.168 243.664C480.944 243.867 480.757 244.107 480.608 244.384C480.469 244.651 480.379 244.944 480.336 245.264H485.456C485.435 244.923 485.349 244.613 485.2 244.336C485.061 244.059 484.875 243.824 484.64 243.632C484.416 243.44 484.155 243.291 483.856 243.184C483.568 243.077 483.269 243.024 482.96 243.024ZM490.437 250H489.189V242.064H490.437V243.408H490.629C491.12 242.363 491.973 241.84 493.189 241.84C494.106 241.84 494.837 242.128 495.381 242.704C495.925 243.269 496.197 244.123 496.197 245.264V250H494.949V245.52C494.949 244.688 494.762 244.064 494.389 243.648C494.016 243.232 493.509 243.024 492.869 243.024C492.112 243.024 491.514 243.285 491.077 243.808C490.65 244.32 490.437 245.008 490.437 245.872V250ZM503.706 250H501.242L498.474 242.064H499.946L502.378 249.424H502.57L505.002 242.064H506.474L503.706 250ZM516.127 251.312V252.496H515.551C514.804 252.496 514.089 252.357 513.407 252.08C512.724 251.803 512.121 251.397 511.599 250.864C511.076 250.341 510.66 249.707 510.351 248.96C510.041 248.213 509.887 247.365 509.887 246.416V242.384C509.887 241.445 510.041 240.603 510.351 239.856C510.66 239.099 511.076 238.459 511.599 237.936C512.121 237.403 512.724 236.997 513.407 236.72C514.089 236.443 514.804 236.304 515.551 236.304H516.127V237.488H515.551C514.975 237.488 514.42 237.605 513.887 237.84C513.353 238.064 512.884 238.389 512.479 238.816C512.073 239.243 511.748 239.765 511.503 240.384C511.257 240.992 511.135 241.68 511.135 242.448V246.352C511.135 247.12 511.257 247.813 511.503 248.432C511.748 249.04 512.073 249.557 512.479 249.984C512.884 250.411 513.353 250.736 513.887 250.96C514.42 251.195 514.975 251.312 515.551 251.312H516.127ZM518.5 242.064H520.948V240.048C520.948 239.685 521.06 239.387 521.284 239.152C521.518 238.917 521.817 238.8 522.18 238.8H525.316V239.952H522.628C522.34 239.952 522.196 240.112 522.196 240.432V242.064H525.508V243.216H522.196V250H520.948V243.216H518.5V242.064ZM535.864 246.128C535.864 246.789 535.752 247.376 535.528 247.888C535.315 248.389 535.027 248.816 534.664 249.168C534.302 249.509 533.875 249.771 533.384 249.952C532.904 250.133 532.403 250.224 531.88 250.224C531.347 250.224 530.84 250.133 530.36 249.952C529.88 249.771 529.459 249.509 529.096 249.168C528.734 248.816 528.44 248.389 528.216 247.888C528.003 247.376 527.896 246.789 527.896 246.128V245.936C527.896 245.285 528.003 244.709 528.216 244.208C528.44 243.696 528.734 243.264 529.096 242.912C529.47 242.56 529.896 242.293 530.376 242.112C530.856 241.931 531.358 241.84 531.88 241.84C532.403 241.84 532.904 241.931 533.384 242.112C533.864 242.293 534.286 242.56 534.648 242.912C535.022 243.264 535.315 243.696 535.528 244.208C535.752 244.709 535.864 245.285 535.864 245.936V246.128ZM531.88 249.04C532.264 249.04 532.616 248.976 532.936 248.848C533.267 248.709 533.555 248.512 533.8 248.256C534.046 248 534.238 247.696 534.376 247.344C534.515 246.981 534.584 246.576 534.584 246.128V245.936C534.584 245.509 534.515 245.12 534.376 244.768C534.238 244.405 534.046 244.096 533.8 243.84C533.555 243.584 533.267 243.387 532.936 243.248C532.606 243.099 532.254 243.024 531.88 243.024C531.507 243.024 531.155 243.099 530.824 243.248C530.494 243.387 530.206 243.584 529.96 243.84C529.715 244.096 529.523 244.405 529.384 244.768C529.246 245.12 529.176 245.509 529.176 245.936V246.128C529.176 246.576 529.246 246.981 529.384 247.344C529.523 247.696 529.715 248 529.96 248.256C530.206 248.512 530.488 248.709 530.808 248.848C531.139 248.976 531.496 249.04 531.88 249.04ZM538.173 248.848H541.053V239.952H538.269V238.8H542.301V248.848H545.181V250H538.173V248.848ZM554.114 248.784H553.922C553.794 249.029 553.629 249.243 553.426 249.424C553.234 249.605 553.021 249.755 552.786 249.872C552.562 249.989 552.322 250.075 552.066 250.128C551.81 250.192 551.565 250.224 551.33 250.224C550.797 250.224 550.301 250.133 549.842 249.952C549.383 249.771 548.978 249.509 548.626 249.168C548.285 248.827 548.013 248.405 547.81 247.904C547.618 247.392 547.522 246.811 547.522 246.16V245.904C547.522 245.264 547.623 244.693 547.826 244.192C548.029 243.68 548.301 243.253 548.642 242.912C548.983 242.56 549.383 242.293 549.842 242.112C550.301 241.931 550.786 241.84 551.298 241.84C551.842 241.84 552.349 241.963 552.818 242.208C553.298 242.443 553.666 242.811 553.922 243.312H554.114V238.8H555.362V250H554.114V248.784ZM551.458 249.04C551.831 249.04 552.178 248.971 552.498 248.832C552.818 248.693 553.095 248.496 553.33 248.24C553.575 247.984 553.767 247.68 553.906 247.328C554.045 246.965 554.114 246.565 554.114 246.128V245.936C554.114 245.509 554.045 245.12 553.906 244.768C553.767 244.405 553.575 244.096 553.33 243.84C553.095 243.584 552.813 243.387 552.482 243.248C552.162 243.099 551.821 243.024 551.458 243.024C551.085 243.024 550.733 243.093 550.402 243.232C550.082 243.371 549.799 243.568 549.554 243.824C549.319 244.08 549.133 244.384 548.994 244.736C548.866 245.088 548.802 245.477 548.802 245.904V246.16C548.802 246.608 548.866 247.008 548.994 247.36C549.133 247.712 549.319 248.016 549.554 248.272C549.799 248.517 550.082 248.709 550.402 248.848C550.722 248.976 551.074 249.04 551.458 249.04ZM558.871 245.264H563.671V246.416H558.871V245.264ZM568.812 250H567.564V238.8H568.812V243.504H569.004C569.249 242.992 569.591 242.587 570.028 242.288C570.476 241.989 571.02 241.84 571.66 241.84C572.524 241.84 573.223 242.128 573.756 242.704C574.3 243.269 574.572 244.123 574.572 245.264V250H573.324V245.52C573.324 244.688 573.137 244.064 572.764 243.648C572.391 243.232 571.884 243.024 571.244 243.024C570.487 243.024 569.889 243.285 569.452 243.808C569.025 244.32 568.812 245.008 568.812 245.872V250ZM578.273 246.416C578.305 247.205 578.55 247.84 579.009 248.32C579.467 248.8 580.107 249.04 580.929 249.04C581.302 249.04 581.627 248.997 581.905 248.912C582.182 248.827 582.417 248.709 582.609 248.56C582.811 248.411 582.971 248.24 583.089 248.048C583.217 247.845 583.318 247.632 583.393 247.408L584.577 247.728C584.353 248.464 583.937 249.067 583.329 249.536C582.731 249.995 581.921 250.224 580.897 250.224C580.331 250.224 579.809 250.128 579.329 249.936C578.859 249.733 578.454 249.451 578.113 249.088C577.771 248.725 577.505 248.293 577.313 247.792C577.121 247.291 577.025 246.736 577.025 246.128V245.744C577.025 245.189 577.121 244.672 577.313 244.192C577.515 243.712 577.793 243.301 578.145 242.96C578.497 242.608 578.907 242.336 579.377 242.144C579.857 241.941 580.374 241.84 580.929 241.84C581.579 241.84 582.139 241.963 582.609 242.208C583.089 242.443 583.478 242.736 583.777 243.088C584.086 243.44 584.31 243.824 584.449 244.24C584.598 244.656 584.673 245.04 584.673 245.392V246.416H578.273ZM580.929 243.024C580.577 243.024 580.246 243.083 579.937 243.2C579.638 243.307 579.371 243.461 579.137 243.664C578.913 243.867 578.726 244.107 578.577 244.384C578.438 244.651 578.347 244.944 578.305 245.264H583.425C583.403 244.923 583.318 244.613 583.169 244.336C583.03 244.059 582.843 243.824 582.609 243.632C582.385 243.44 582.123 243.291 581.825 243.184C581.537 243.077 581.238 243.024 580.929 243.024ZM589.622 239.696C589.622 239.387 589.728 239.125 589.942 238.912C590.166 238.688 590.432 238.576 590.742 238.576C591.051 238.576 591.312 238.688 591.526 238.912C591.75 239.125 591.862 239.387 591.862 239.696C591.862 240.005 591.75 240.272 591.526 240.496C591.312 240.709 591.051 240.816 590.742 240.816C590.432 240.816 590.166 240.709 589.942 240.496C589.728 240.272 589.622 240.005 589.622 239.696ZM587.35 248.848H590.134V243.216H587.638V242.064H591.382V248.848H593.974V250H587.35V248.848ZM602.987 248.784H602.795C602.539 249.264 602.187 249.627 601.739 249.872C601.301 250.107 600.821 250.224 600.299 250.224C599.765 250.224 599.264 250.133 598.795 249.952C598.325 249.771 597.909 249.509 597.547 249.168C597.195 248.827 596.912 248.405 596.699 247.904C596.496 247.392 596.395 246.811 596.395 246.16V245.904C596.395 245.264 596.501 244.693 596.715 244.192C596.928 243.68 597.211 243.253 597.562 242.912C597.915 242.56 598.325 242.293 598.795 242.112C599.264 241.931 599.755 241.84 600.266 241.84C600.843 241.84 601.344 241.968 601.771 242.224C602.208 242.469 602.549 242.832 602.795 243.312H602.987V242.064H604.235V251.952C604.235 252.315 604.117 252.613 603.883 252.848C603.659 253.083 603.365 253.2 603.003 253.2H597.835V252.048H602.555C602.843 252.048 602.987 251.888 602.987 251.568V248.784ZM600.331 249.04C600.704 249.04 601.051 248.971 601.371 248.832C601.691 248.693 601.968 248.496 602.203 248.24C602.448 247.984 602.64 247.68 602.779 247.328C602.917 246.965 602.987 246.565 602.987 246.128V245.936C602.987 245.509 602.917 245.12 602.779 244.768C602.64 244.405 602.448 244.096 602.203 243.84C601.968 243.584 601.685 243.387 601.355 243.248C601.035 243.099 600.693 243.024 600.331 243.024C599.957 243.024 599.605 243.093 599.275 243.232C598.955 243.371 598.672 243.568 598.427 243.824C598.192 244.08 598.005 244.384 597.867 244.736C597.739 245.088 597.674 245.477 597.674 245.904V246.16C597.674 246.608 597.739 247.008 597.867 247.36C598.005 247.712 598.192 248.016 598.427 248.272C598.672 248.517 598.955 248.709 599.275 248.848C599.595 248.976 599.947 249.04 600.331 249.04ZM607.999 250H606.751V238.8H607.999V243.504H608.191C608.437 242.992 608.778 242.587 609.215 242.288C609.663 241.989 610.207 241.84 610.847 241.84C611.711 241.84 612.41 242.128 612.943 242.704C613.487 243.269 613.759 244.123 613.759 245.264V250H612.511V245.52C612.511 244.688 612.325 244.064 611.951 243.648C611.578 243.232 611.071 243.024 610.431 243.024C609.674 243.024 609.077 243.285 608.639 243.808C608.213 244.32 607.999 245.008 607.999 245.872V250ZM616.276 242.064H618.772V238.8H620.02V242.064H623.092V243.216H620.02V248.368C620.02 248.688 620.164 248.848 620.452 248.848H622.708V250H620.004C619.642 250 619.343 249.883 619.108 249.648C618.884 249.413 618.772 249.115 618.772 248.752V243.216H616.276V242.064ZM626.585 251.312C627.161 251.312 627.716 251.195 628.249 250.96C628.782 250.736 629.252 250.411 629.657 249.984C630.062 249.557 630.388 249.04 630.633 248.432C630.878 247.813 631.001 247.12 631.001 246.352V242.448C631.001 241.68 630.878 240.992 630.633 240.384C630.388 239.765 630.062 239.243 629.657 238.816C629.252 238.389 628.782 238.064 628.249 237.84C627.716 237.605 627.161 237.488 626.585 237.488H626.009V236.304H626.585C627.332 236.304 628.046 236.443 628.729 236.72C629.412 236.997 630.014 237.403 630.537 237.936C631.06 238.459 631.476 239.099 631.785 239.856C632.094 240.603 632.249 241.445 632.249 242.384V246.416C632.249 247.365 632.094 248.213 631.785 248.96C631.476 249.707 631.06 250.341 630.537 250.864C630.014 251.397 629.412 251.803 628.729 252.08C628.046 252.357 627.332 252.496 626.585 252.496H626.009V251.312H626.585Z" fill="black"/>
<rect x="101" y="113" width="260" height="62" fill="white" fill-opacity="0.99"/>
<rect x="405" y="113" width="260" height="62" fill="white" fill-opacity="0.99"/>
<rect x="626" y="117" width="14" height="14" rx="3" fill="#C8DFFC"/>
<rect x="645" y="117" width="14" height="14" rx="3" fill="#C8DFFC"/>
<path d="M129 144C129 140.686 131.686 138 135 138H361V169H135C131.686 169 129 166.314 129 163V144Z" fill="#0E71F2" fill-opacity="0.22"/>
<path d="M405 138H653C656.314 138 659 140.686 659 144V163C659 166.314 656.314 169 653 169H405V138Z" fill="#0E71F2" fill-opacity="0.22"/>
<path d="M113.2 159.6L106.4 152.8L113.2 146" stroke="#C8DFFC" stroke-width="2"/>
<path d="M121.8 152.8H106.4" stroke="#C8DFFC" stroke-width="2"/>
<rect x="357" y="22" width="140" height="35" rx="2" fill="#FD94FF"/>
<path d="M365.304 42.416C365.336 43.2053 365.581 43.84 366.04 44.32C366.499 44.8 367.139 45.04 367.96 45.04C368.333 45.04 368.659 44.9973 368.936 44.912C369.213 44.8267 369.448 44.7093 369.64 44.56C369.843 44.4107 370.003 44.24 370.12 44.048C370.248 43.8453 370.349 43.632 370.424 43.408L371.608 43.728C371.384 44.464 370.968 45.0667 370.36 45.536C369.763 45.9947 368.952 46.224 367.928 46.224C367.363 46.224 366.84 46.128 366.36 45.936C365.891 45.7333 365.485 45.4507 365.144 45.088C364.803 44.7253 364.536 44.2933 364.344 43.792C364.152 43.2907 364.056 42.736 364.056 42.128V41.744C364.056 41.1893 364.152 40.672 364.344 40.192C364.547 39.712 364.824 39.3013 365.176 38.96C365.528 38.608 365.939 38.336 366.408 38.144C366.888 37.9413 367.405 37.84 367.96 37.84C368.611 37.84 369.171 37.9627 369.64 38.208C370.12 38.4427 370.509 38.736 370.808 39.088C371.117 39.44 371.341 39.824 371.48 40.24C371.629 40.656 371.704 41.04 371.704 41.392V42.416H365.304ZM367.96 39.024C367.608 39.024 367.277 39.0827 366.968 39.2C366.669 39.3067 366.403 39.4613 366.168 39.664C365.944 39.8667 365.757 40.1067 365.608 40.384C365.469 40.6507 365.379 40.944 365.336 41.264H370.456C370.435 40.9227 370.349 40.6133 370.2 40.336C370.061 40.0587 369.875 39.824 369.64 39.632C369.416 39.44 369.155 39.2907 368.856 39.184C368.568 39.0773 368.269 39.024 367.96 39.024ZM375.437 46H374.189V38.064H375.437V39.408H375.629C376.12 38.3627 376.973 37.84 378.189 37.84C379.106 37.84 379.837 38.128 380.381 38.704C380.925 39.2693 381.197 40.1227 381.197 41.264V46H379.949V41.52C379.949 40.688 379.762 40.064 379.389 39.648C379.016 39.232 378.509 39.024 377.869 39.024C377.112 39.024 376.514 39.2853 376.077 39.808C375.65 40.32 375.437 41.008 375.437 41.872V46ZM388.706 46H386.242L383.474 38.064H384.946L387.378 45.424H387.57L390.002 38.064H391.474L388.706 46ZM401.127 47.312V48.496H400.551C399.804 48.496 399.089 48.3573 398.407 48.08C397.724 47.8027 397.121 47.3973 396.599 46.864C396.076 46.3413 395.66 45.7067 395.351 44.96C395.041 44.2133 394.887 43.3653 394.887 42.416V38.384C394.887 37.4453 395.041 36.6027 395.351 35.856C395.66 35.0987 396.076 34.4587 396.599 33.936C397.121 33.4027 397.724 32.9973 398.407 32.72C399.089 32.4427 399.804 32.304 400.551 32.304H401.127V33.488H400.551C399.975 33.488 399.42 33.6053 398.887 33.84C398.353 34.064 397.884 34.3893 397.479 34.816C397.073 35.2427 396.748 35.7653 396.503 36.384C396.257 36.992 396.135 37.68 396.135 38.448V42.352C396.135 43.12 396.257 43.8133 396.503 44.432C396.748 45.04 397.073 45.5573 397.479 45.984C397.884 46.4107 398.353 46.736 398.887 46.96C399.42 47.1947 399.975 47.312 400.551 47.312H401.127ZM403.5 38.064H405.948V36.048C405.948 35.6853 406.06 35.3867 406.284 35.152C406.518 34.9173 406.817 34.8 407.18 34.8H410.316V35.952H407.628C407.34 35.952 407.196 36.112 407.196 36.432V38.064H410.508V39.216H407.196V46H405.948V39.216H403.5V38.064ZM420.864 42.128C420.864 42.7893 420.752 43.376 420.528 43.888C420.315 44.3893 420.027 44.816 419.664 45.168C419.302 45.5093 418.875 45.7707 418.384 45.952C417.904 46.1333 417.403 46.224 416.88 46.224C416.347 46.224 415.84 46.1333 415.36 45.952C414.88 45.7707 414.459 45.5093 414.096 45.168C413.734 44.816 413.44 44.3893 413.216 43.888C413.003 43.376 412.896 42.7893 412.896 42.128V41.936C412.896 41.2853 413.003 40.7093 413.216 40.208C413.44 39.696 413.734 39.264 414.096 38.912C414.47 38.56 414.896 38.2933 415.376 38.112C415.856 37.9307 416.358 37.84 416.88 37.84C417.403 37.84 417.904 37.9307 418.384 38.112C418.864 38.2933 419.286 38.56 419.648 38.912C420.022 39.264 420.315 39.696 420.528 40.208C420.752 40.7093 420.864 41.2853 420.864 41.936V42.128ZM416.88 45.04C417.264 45.04 417.616 44.976 417.936 44.848C418.267 44.7093 418.555 44.512 418.8 44.256C419.046 44 419.238 43.696 419.376 43.344C419.515 42.9813 419.584 42.576 419.584 42.128V41.936C419.584 41.5093 419.515 41.12 419.376 40.768C419.238 40.4053 419.046 40.096 418.8 39.84C418.555 39.584 418.267 39.3867 417.936 39.248C417.606 39.0987 417.254 39.024 416.88 39.024C416.507 39.024 416.155 39.0987 415.824 39.248C415.494 39.3867 415.206 39.584 414.96 39.84C414.715 40.096 414.523 40.4053 414.384 40.768C414.246 41.12 414.176 41.5093 414.176 41.936V42.128C414.176 42.576 414.246 42.9813 414.384 43.344C414.523 43.696 414.715 44 414.96 44.256C415.206 44.512 415.488 44.7093 415.808 44.848C416.139 44.976 416.496 45.04 416.88 45.04ZM423.173 44.848H426.053V35.952H423.269V34.8H427.301V44.848H430.181V46H423.173V44.848ZM439.114 44.784H438.922C438.794 45.0293 438.629 45.2427 438.426 45.424C438.234 45.6053 438.021 45.7547 437.786 45.872C437.562 45.9893 437.322 46.0747 437.066 46.128C436.81 46.192 436.565 46.224 436.33 46.224C435.797 46.224 435.301 46.1333 434.842 45.952C434.383 45.7707 433.978 45.5093 433.626 45.168C433.285 44.8267 433.013 44.4053 432.81 43.904C432.618 43.392 432.522 42.8107 432.522 42.16V41.904C432.522 41.264 432.623 40.6933 432.826 40.192C433.029 39.68 433.301 39.2533 433.642 38.912C433.983 38.56 434.383 38.2933 434.842 38.112C435.301 37.9307 435.786 37.84 436.298 37.84C436.842 37.84 437.349 37.9627 437.818 38.208C438.298 38.4427 438.666 38.8107 438.922 39.312H439.114V34.8H440.362V46H439.114V44.784ZM436.458 45.04C436.831 45.04 437.178 44.9707 437.498 44.832C437.818 44.6933 438.095 44.496 438.33 44.24C438.575 43.984 438.767 43.68 438.906 43.328C439.045 42.9653 439.114 42.5653 439.114 42.128V41.936C439.114 41.5093 439.045 41.12 438.906 40.768C438.767 40.4053 438.575 40.096 438.33 39.84C438.095 39.584 437.813 39.3867 437.482 39.248C437.162 39.0987 436.821 39.024 436.458 39.024C436.085 39.024 435.733 39.0933 435.402 39.232C435.082 39.3707 434.799 39.568 434.554 39.824C434.319 40.08 434.133 40.384 433.994 40.736C433.866 41.088 433.802 41.4773 433.802 41.904V42.16C433.802 42.608 433.866 43.008 433.994 43.36C434.133 43.712 434.319 44.016 434.554 44.272C434.799 44.5173 435.082 44.7093 435.402 44.848C435.722 44.976 436.074 45.04 436.458 45.04ZM443.871 41.264H448.671V42.416H443.871V41.264ZM452.292 38.064H454.788V34.8H456.036V38.064H459.108V39.216H456.036V44.368C456.036 44.688 456.18 44.848 456.468 44.848H458.724V46H456.02C455.657 46 455.359 45.8827 455.124 45.648C454.9 45.4133 454.788 45.1147 454.788 44.752V39.216H452.292V38.064ZM469.849 42.128C469.849 42.7893 469.737 43.376 469.513 43.888C469.299 44.3893 469.011 44.816 468.649 45.168C468.286 45.5093 467.859 45.7707 467.369 45.952C466.889 46.1333 466.387 46.224 465.865 46.224C465.331 46.224 464.825 46.1333 464.345 45.952C463.865 45.7707 463.443 45.5093 463.081 45.168C462.718 44.816 462.425 44.3893 462.201 43.888C461.987 43.376 461.881 42.7893 461.881 42.128V41.936C461.881 41.2853 461.987 40.7093 462.201 40.208C462.425 39.696 462.718 39.264 463.081 38.912C463.454 38.56 463.881 38.2933 464.361 38.112C464.841 37.9307 465.342 37.84 465.865 37.84C466.387 37.84 466.889 37.9307 467.369 38.112C467.849 38.2933 468.27 38.56 468.633 38.912C469.006 39.264 469.299 39.696 469.513 40.208C469.737 40.7093 469.849 41.2853 469.849 41.936V42.128ZM465.865 45.04C466.249 45.04 466.601 44.976 466.921 44.848C467.251 44.7093 467.539 44.512 467.785 44.256C468.03 44 468.222 43.696 468.361 43.344C468.499 42.9813 468.569 42.576 468.569 42.128V41.936C468.569 41.5093 468.499 41.12 468.361 40.768C468.222 40.4053 468.03 40.096 467.785 39.84C467.539 39.584 467.251 39.3867 466.921 39.248C466.59 39.0987 466.238 39.024 465.865 39.024C465.491 39.024 465.139 39.0987 464.809 39.248C464.478 39.3867 464.19 39.584 463.945 39.84C463.699 40.096 463.507 40.4053 463.369 40.768C463.23 41.12 463.161 41.5093 463.161 41.936V42.128C463.161 42.576 463.23 42.9813 463.369 43.344C463.507 43.696 463.699 44 463.945 44.256C464.19 44.512 464.473 44.7093 464.793 44.848C465.123 44.976 465.481 45.04 465.865 45.04ZM473.118 49.2H471.87V38.064H473.118V39.312H473.31C473.587 38.832 473.971 38.4693 474.462 38.224C474.952 37.968 475.486 37.84 476.062 37.84C476.552 37.84 477.016 37.9307 477.454 38.112C477.891 38.2933 478.275 38.5547 478.606 38.896C478.947 39.2373 479.214 39.6587 479.406 40.16C479.608 40.6613 479.71 41.232 479.71 41.872V42.192C479.71 42.8427 479.614 43.4187 479.422 43.92C479.23 44.4213 478.963 44.8427 478.622 45.184C478.291 45.5253 477.902 45.7867 477.454 45.968C477.006 46.1387 476.531 46.224 476.03 46.224C475.774 46.224 475.512 46.192 475.246 46.128C474.979 46.0747 474.723 45.9893 474.478 45.872C474.243 45.744 474.024 45.5947 473.822 45.424C473.619 45.2427 473.448 45.0293 473.31 44.784H473.118V49.2ZM475.774 45.04C476.158 45.04 476.51 44.976 476.83 44.848C477.15 44.7093 477.427 44.5173 477.662 44.272C477.907 44.0267 478.094 43.728 478.222 43.376C478.36 43.024 478.43 42.6293 478.43 42.192V41.872C478.43 41.4453 478.36 41.0613 478.222 40.72C478.094 40.368 477.907 40.0693 477.662 39.824C477.427 39.568 477.144 39.3707 476.814 39.232C476.494 39.0933 476.147 39.024 475.774 39.024C475.4 39.024 475.054 39.0987 474.734 39.248C474.414 39.3867 474.131 39.584 473.886 39.84C473.651 40.096 473.464 40.4053 473.326 40.768C473.187 41.12 473.118 41.5093 473.118 41.936V42.128C473.118 42.5653 473.187 42.9653 473.326 43.328C473.464 43.68 473.651 43.984 473.886 44.24C474.131 44.496 474.414 44.6933 474.734 44.832C475.054 44.9707 475.4 45.04 475.774 45.04ZM482.195 47.312C482.771 47.312 483.325 47.1947 483.859 46.96C484.392 46.736 484.861 46.4107 485.266 45.984C485.672 45.5573 485.997 45.04 486.243 44.432C486.488 43.8133 486.611 43.12 486.611 42.352V38.448C486.611 37.68 486.488 36.992 486.243 36.384C485.997 35.7653 485.672 35.2427 485.266 34.816C484.861 34.3893 484.392 34.064 483.859 33.84C483.325 33.6053 482.771 33.488 482.195 33.488H481.618V32.304H482.195C482.941 32.304 483.656 32.4427 484.339 32.72C485.021 32.9973 485.624 33.4027 486.147 33.936C486.669 34.4587 487.085 35.0987 487.395 35.856C487.704 36.6027 487.859 37.4453 487.859 38.384V42.416C487.859 43.3653 487.704 44.2133 487.395 44.96C487.085 45.7067 486.669 46.3413 486.147 46.864C485.624 47.3973 485.021 47.8027 484.339 48.08C483.656 48.3573 482.941 48.496 482.195 48.496H481.618V47.312H482.195Z" fill="black"/>
<rect x="382" y="531" width="158" height="35" rx="2" fill="#FD94FF"/>
<path d="M390.304 551.416C390.336 552.205 390.581 552.84 391.04 553.32C391.499 553.8 392.139 554.04 392.96 554.04C393.333 554.04 393.659 553.997 393.936 553.912C394.213 553.827 394.448 553.709 394.64 553.56C394.843 553.411 395.003 553.24 395.12 553.048C395.248 552.845 395.349 552.632 395.424 552.408L396.608 552.728C396.384 553.464 395.968 554.067 395.36 554.536C394.763 554.995 393.952 555.224 392.928 555.224C392.363 555.224 391.84 555.128 391.36 554.936C390.891 554.733 390.485 554.451 390.144 554.088C389.803 553.725 389.536 553.293 389.344 552.792C389.152 552.291 389.056 551.736 389.056 551.128V550.744C389.056 550.189 389.152 549.672 389.344 549.192C389.547 548.712 389.824 548.301 390.176 547.96C390.528 547.608 390.939 547.336 391.408 547.144C391.888 546.941 392.405 546.84 392.96 546.84C393.611 546.84 394.171 546.963 394.64 547.208C395.12 547.443 395.509 547.736 395.808 548.088C396.117 548.44 396.341 548.824 396.48 549.24C396.629 549.656 396.704 550.04 396.704 550.392V551.416H390.304ZM392.96 548.024C392.608 548.024 392.277 548.083 391.968 548.2C391.669 548.307 391.403 548.461 391.168 548.664C390.944 548.867 390.757 549.107 390.608 549.384C390.469 549.651 390.379 549.944 390.336 550.264H395.456C395.435 549.923 395.349 549.613 395.2 549.336C395.061 549.059 394.875 548.824 394.64 548.632C394.416 548.44 394.155 548.291 393.856 548.184C393.568 548.077 393.269 548.024 392.96 548.024ZM400.437 555H399.189V547.064H400.437V548.408H400.629C401.12 547.363 401.973 546.84 403.189 546.84C404.106 546.84 404.837 547.128 405.381 547.704C405.925 548.269 406.197 549.123 406.197 550.264V555H404.949V550.52C404.949 549.688 404.762 549.064 404.389 548.648C404.016 548.232 403.509 548.024 402.869 548.024C402.112 548.024 401.514 548.285 401.077 548.808C400.65 549.32 400.437 550.008 400.437 550.872V555ZM413.706 555H411.242L408.474 547.064H409.946L412.378 554.424H412.57L415.002 547.064H416.474L413.706 555ZM426.127 556.312V557.496H425.551C424.804 557.496 424.089 557.357 423.407 557.08C422.724 556.803 422.121 556.397 421.599 555.864C421.076 555.341 420.66 554.707 420.351 553.96C420.041 553.213 419.887 552.365 419.887 551.416V547.384C419.887 546.445 420.041 545.603 420.351 544.856C420.66 544.099 421.076 543.459 421.599 542.936C422.121 542.403 422.724 541.997 423.407 541.72C424.089 541.443 424.804 541.304 425.551 541.304H426.127V542.488H425.551C424.975 542.488 424.42 542.605 423.887 542.84C423.353 543.064 422.884 543.389 422.479 543.816C422.073 544.243 421.748 544.765 421.503 545.384C421.257 545.992 421.135 546.68 421.135 547.448V551.352C421.135 552.12 421.257 552.813 421.503 553.432C421.748 554.04 422.073 554.557 422.479 554.984C422.884 555.411 423.353 555.736 423.887 555.96C424.42 556.195 424.975 556.312 425.551 556.312H426.127ZM428.5 547.064H430.948V545.048C430.948 544.685 431.06 544.387 431.284 544.152C431.518 543.917 431.817 543.8 432.18 543.8H435.316V544.952H432.628C432.34 544.952 432.196 545.112 432.196 545.432V547.064H435.508V548.216H432.196V555H430.948V548.216H428.5V547.064ZM445.864 551.128C445.864 551.789 445.752 552.376 445.528 552.888C445.315 553.389 445.027 553.816 444.664 554.168C444.302 554.509 443.875 554.771 443.384 554.952C442.904 555.133 442.403 555.224 441.88 555.224C441.347 555.224 440.84 555.133 440.36 554.952C439.88 554.771 439.459 554.509 439.096 554.168C438.734 553.816 438.44 553.389 438.216 552.888C438.003 552.376 437.896 551.789 437.896 551.128V550.936C437.896 550.285 438.003 549.709 438.216 549.208C438.44 548.696 438.734 548.264 439.096 547.912C439.47 547.56 439.896 547.293 440.376 547.112C440.856 546.931 441.358 546.84 441.88 546.84C442.403 546.84 442.904 546.931 443.384 547.112C443.864 547.293 444.286 547.56 444.648 547.912C445.022 548.264 445.315 548.696 445.528 549.208C445.752 549.709 445.864 550.285 445.864 550.936V551.128ZM441.88 554.04C442.264 554.04 442.616 553.976 442.936 553.848C443.267 553.709 443.555 553.512 443.8 553.256C444.046 553 444.238 552.696 444.376 552.344C444.515 551.981 444.584 551.576 444.584 551.128V550.936C444.584 550.509 444.515 550.12 444.376 549.768C444.238 549.405 444.046 549.096 443.8 548.84C443.555 548.584 443.267 548.387 442.936 548.248C442.606 548.099 442.254 548.024 441.88 548.024C441.507 548.024 441.155 548.099 440.824 548.248C440.494 548.387 440.206 548.584 439.96 548.84C439.715 549.096 439.523 549.405 439.384 549.768C439.246 550.12 439.176 550.509 439.176 550.936V551.128C439.176 551.576 439.246 551.981 439.384 552.344C439.523 552.696 439.715 553 439.96 553.256C440.206 553.512 440.488 553.709 440.808 553.848C441.139 553.976 441.496 554.04 441.88 554.04ZM448.173 553.848H451.053V544.952H448.269V543.8H452.301V553.848H455.181V555H448.173V553.848ZM464.114 553.784H463.922C463.794 554.029 463.629 554.243 463.426 554.424C463.234 554.605 463.021 554.755 462.786 554.872C462.562 554.989 462.322 555.075 462.066 555.128C461.81 555.192 461.565 555.224 461.33 555.224C460.797 555.224 460.301 555.133 459.842 554.952C459.383 554.771 458.978 554.509 458.626 554.168C458.285 553.827 458.013 553.405 457.81 552.904C457.618 552.392 457.522 551.811 457.522 551.16V550.904C457.522 550.264 457.623 549.693 457.826 549.192C458.029 548.68 458.301 548.253 458.642 547.912C458.983 547.56 459.383 547.293 459.842 547.112C460.301 546.931 460.786 546.84 461.298 546.84C461.842 546.84 462.349 546.963 462.818 547.208C463.298 547.443 463.666 547.811 463.922 548.312H464.114V543.8H465.362V555H464.114V553.784ZM461.458 554.04C461.831 554.04 462.178 553.971 462.498 553.832C462.818 553.693 463.095 553.496 463.33 553.24C463.575 552.984 463.767 552.68 463.906 552.328C464.045 551.965 464.114 551.565 464.114 551.128V550.936C464.114 550.509 464.045 550.12 463.906 549.768C463.767 549.405 463.575 549.096 463.33 548.84C463.095 548.584 462.813 548.387 462.482 548.248C462.162 548.099 461.821 548.024 461.458 548.024C461.085 548.024 460.733 548.093 460.402 548.232C460.082 548.371 459.799 548.568 459.554 548.824C459.319 549.08 459.133 549.384 458.994 549.736C458.866 550.088 458.802 550.477 458.802 550.904V551.16C458.802 551.608 458.866 552.008 458.994 552.36C459.133 552.712 459.319 553.016 459.554 553.272C459.799 553.517 460.082 553.709 460.402 553.848C460.722 553.976 461.074 554.04 461.458 554.04ZM468.871 550.264H473.671V551.416H468.871V550.264ZM484.428 555H482.124L481.164 547.64H480.972L480.012 555H477.708L476.46 547.064H477.74L478.796 554.424H478.988L479.916 547.064H482.22L483.148 554.424H483.34L484.396 547.064H485.676L484.428 555ZM489.825 544.696C489.825 544.387 489.931 544.125 490.145 543.912C490.369 543.688 490.635 543.576 490.945 543.576C491.254 543.576 491.515 543.688 491.729 543.912C491.953 544.125 492.065 544.387 492.065 544.696C492.065 545.005 491.953 545.272 491.729 545.496C491.515 545.709 491.254 545.816 490.945 545.816C490.635 545.816 490.369 545.709 490.145 545.496C489.931 545.272 489.825 545.005 489.825 544.696ZM487.553 553.848H490.337V548.216H487.841V547.064H491.585V553.848H494.177V555H487.553V553.848ZM503.302 553.784H503.11C502.982 554.029 502.816 554.243 502.614 554.424C502.422 554.605 502.208 554.755 501.974 554.872C501.75 554.989 501.51 555.075 501.254 555.128C500.998 555.192 500.752 555.224 500.518 555.224C499.984 555.224 499.488 555.133 499.03 554.952C498.571 554.771 498.166 554.509 497.814 554.168C497.472 553.827 497.2 553.405 496.998 552.904C496.806 552.392 496.71 551.811 496.71 551.16V550.904C496.71 550.264 496.811 549.693 497.014 549.192C497.216 548.68 497.488 548.253 497.83 547.912C498.171 547.56 498.571 547.293 499.03 547.112C499.488 546.931 499.974 546.84 500.486 546.84C501.03 546.84 501.536 546.963 502.006 547.208C502.486 547.443 502.854 547.811 503.11 548.312H503.302V543.8H504.55V555H503.302V553.784ZM500.646 554.04C501.019 554.04 501.366 553.971 501.686 553.832C502.006 553.693 502.283 553.496 502.518 553.24C502.763 552.984 502.955 552.68 503.094 552.328C503.232 551.965 503.302 551.565 503.302 551.128V550.936C503.302 550.509 503.232 550.12 503.094 549.768C502.955 549.405 502.763 549.096 502.518 548.84C502.283 548.584 502 548.387 501.67 548.248C501.35 548.099 501.008 548.024 500.646 548.024C500.272 548.024 499.92 548.093 499.59 548.232C499.27 548.371 498.987 548.568 498.742 548.824C498.507 549.08 498.32 549.384 498.182 549.736C498.054 550.088 497.99 550.477 497.99 550.904V551.16C497.99 551.608 498.054 552.008 498.182 552.36C498.32 552.712 498.507 553.016 498.742 553.272C498.987 553.517 499.27 553.709 499.59 553.848C499.91 553.976 500.262 554.04 500.646 554.04ZM506.683 547.064H509.179V543.8H510.427V547.064H513.499V548.216H510.427V553.368C510.427 553.688 510.571 553.848 510.859 553.848H513.115V555H510.411C510.048 555 509.749 554.883 509.515 554.648C509.291 554.413 509.179 554.115 509.179 553.752V548.216H506.683V547.064ZM517.999 555H516.751V543.8H517.999V548.504H518.191C518.437 547.992 518.778 547.587 519.215 547.288C519.663 546.989 520.207 546.84 520.847 546.84C521.711 546.84 522.41 547.128 522.943 547.704C523.487 548.269 523.759 549.123 523.759 550.264V555H522.511V550.52C522.511 549.688 522.325 549.064 521.951 548.648C521.578 548.232 521.071 548.024 520.431 548.024C519.674 548.024 519.077 548.285 518.639 548.808C518.213 549.32 517.999 550.008 517.999 550.872V555ZM526.788 556.312C527.364 556.312 527.919 556.195 528.452 555.96C528.986 555.736 529.455 555.411 529.86 554.984C530.266 554.557 530.591 554.04 530.836 553.432C531.082 552.813 531.204 552.12 531.204 551.352V547.448C531.204 546.68 531.082 545.992 530.836 545.384C530.591 544.765 530.266 544.243 529.86 543.816C529.455 543.389 528.986 543.064 528.452 542.84C527.919 542.605 527.364 542.488 526.788 542.488H526.212V541.304H526.788C527.535 541.304 528.25 541.443 528.932 541.72C529.615 541.997 530.218 542.403 530.74 542.936C531.263 543.459 531.679 544.099 531.988 544.856C532.298 545.603 532.452 546.445 532.452 547.384V551.416C532.452 552.365 532.298 553.213 531.988 553.96C531.679 554.707 531.263 555.341 530.74 555.864C530.218 556.397 529.615 556.803 528.932 557.08C528.25 557.357 527.535 557.496 526.788 557.496H526.212V556.312H526.788Z" fill="black"/>
<rect x="106" y="173" width="142" height="35" rx="2" fill="#FD94FF"/>
<path d="M111.304 193.416C111.336 194.205 111.581 194.84 112.04 195.32C112.499 195.8 113.139 196.04 113.96 196.04C114.333 196.04 114.659 195.997 114.936 195.912C115.213 195.827 115.448 195.709 115.64 195.56C115.843 195.411 116.003 195.24 116.12 195.048C116.248 194.845 116.349 194.632 116.424 194.408L117.608 194.728C117.384 195.464 116.968 196.067 116.36 196.536C115.763 196.995 114.952 197.224 113.928 197.224C113.363 197.224 112.84 197.128 112.36 196.936C111.891 196.733 111.485 196.451 111.144 196.088C110.803 195.725 110.536 195.293 110.344 194.792C110.152 194.291 110.056 193.736 110.056 193.128V192.744C110.056 192.189 110.152 191.672 110.344 191.192C110.547 190.712 110.824 190.301 111.176 189.96C111.528 189.608 111.939 189.336 112.408 189.144C112.888 188.941 113.405 188.84 113.96 188.84C114.611 188.84 115.171 188.963 115.64 189.208C116.12 189.443 116.509 189.736 116.808 190.088C117.117 190.44 117.341 190.824 117.48 191.24C117.629 191.656 117.704 192.04 117.704 192.392V193.416H111.304ZM113.96 190.024C113.608 190.024 113.277 190.083 112.968 190.2C112.669 190.307 112.403 190.461 112.168 190.664C111.944 190.867 111.757 191.107 111.608 191.384C111.469 191.651 111.379 191.944 111.336 192.264H116.456C116.435 191.923 116.349 191.613 116.2 191.336C116.061 191.059 115.875 190.824 115.64 190.632C115.416 190.44 115.155 190.291 114.856 190.184C114.568 190.077 114.269 190.024 113.96 190.024ZM121.437 197H120.189V189.064H121.437V190.408H121.629C122.12 189.363 122.973 188.84 124.189 188.84C125.106 188.84 125.837 189.128 126.381 189.704C126.925 190.269 127.197 191.123 127.197 192.264V197H125.949V192.52C125.949 191.688 125.762 191.064 125.389 190.648C125.016 190.232 124.509 190.024 123.869 190.024C123.112 190.024 122.514 190.285 122.077 190.808C121.65 191.32 121.437 192.008 121.437 192.872V197ZM134.706 197H132.242L129.474 189.064H130.946L133.378 196.424H133.57L136.002 189.064H137.474L134.706 197ZM147.127 198.312V199.496H146.551C145.804 199.496 145.089 199.357 144.407 199.08C143.724 198.803 143.121 198.397 142.599 197.864C142.076 197.341 141.66 196.707 141.351 195.96C141.041 195.213 140.887 194.365 140.887 193.416V189.384C140.887 188.445 141.041 187.603 141.351 186.856C141.66 186.099 142.076 185.459 142.599 184.936C143.121 184.403 143.724 183.997 144.407 183.72C145.089 183.443 145.804 183.304 146.551 183.304H147.127V184.488H146.551C145.975 184.488 145.42 184.605 144.887 184.84C144.353 185.064 143.884 185.389 143.479 185.816C143.073 186.243 142.748 186.765 142.503 187.384C142.257 187.992 142.135 188.68 142.135 189.448V193.352C142.135 194.12 142.257 194.813 142.503 195.432C142.748 196.04 143.073 196.557 143.479 196.984C143.884 197.411 144.353 197.736 144.887 197.96C145.42 198.195 145.975 198.312 146.551 198.312H147.127ZM149.5 189.064H151.948V187.048C151.948 186.685 152.06 186.387 152.284 186.152C152.518 185.917 152.817 185.8 153.18 185.8H156.316V186.952H153.628C153.34 186.952 153.196 187.112 153.196 187.432V189.064H156.508V190.216H153.196V197H151.948V190.216H149.5V189.064ZM166.864 193.128C166.864 193.789 166.752 194.376 166.528 194.888C166.315 195.389 166.027 195.816 165.664 196.168C165.302 196.509 164.875 196.771 164.384 196.952C163.904 197.133 163.403 197.224 162.88 197.224C162.347 197.224 161.84 197.133 161.36 196.952C160.88 196.771 160.459 196.509 160.096 196.168C159.734 195.816 159.44 195.389 159.216 194.888C159.003 194.376 158.896 193.789 158.896 193.128V192.936C158.896 192.285 159.003 191.709 159.216 191.208C159.44 190.696 159.734 190.264 160.096 189.912C160.47 189.56 160.896 189.293 161.376 189.112C161.856 188.931 162.358 188.84 162.88 188.84C163.403 188.84 163.904 188.931 164.384 189.112C164.864 189.293 165.286 189.56 165.648 189.912C166.022 190.264 166.315 190.696 166.528 191.208C166.752 191.709 166.864 192.285 166.864 192.936V193.128ZM162.88 196.04C163.264 196.04 163.616 195.976 163.936 195.848C164.267 195.709 164.555 195.512 164.8 195.256C165.046 195 165.238 194.696 165.376 194.344C165.515 193.981 165.584 193.576 165.584 193.128V192.936C165.584 192.509 165.515 192.12 165.376 191.768C165.238 191.405 165.046 191.096 164.8 190.84C164.555 190.584 164.267 190.387 163.936 190.248C163.606 190.099 163.254 190.024 162.88 190.024C162.507 190.024 162.155 190.099 161.824 190.248C161.494 190.387 161.206 190.584 160.96 190.84C160.715 191.096 160.523 191.405 160.384 191.768C160.246 192.12 160.176 192.509 160.176 192.936V193.128C160.176 193.576 160.246 193.981 160.384 194.344C160.523 194.696 160.715 195 160.96 195.256C161.206 195.512 161.488 195.709 161.808 195.848C162.139 195.976 162.496 196.04 162.88 196.04ZM169.173 195.848H172.053V186.952H169.269V185.8H173.301V195.848H176.181V197H169.173V195.848ZM185.114 195.784H184.922C184.794 196.029 184.629 196.243 184.426 196.424C184.234 196.605 184.021 196.755 183.786 196.872C183.562 196.989 183.322 197.075 183.066 197.128C182.81 197.192 182.565 197.224 182.33 197.224C181.797 197.224 181.301 197.133 180.842 196.952C180.383 196.771 179.978 196.509 179.626 196.168C179.285 195.827 179.013 195.405 178.81 194.904C178.618 194.392 178.522 193.811 178.522 193.16V192.904C178.522 192.264 178.623 191.693 178.826 191.192C179.029 190.68 179.301 190.253 179.642 189.912C179.983 189.56 180.383 189.293 180.842 189.112C181.301 188.931 181.786 188.84 182.298 188.84C182.842 188.84 183.349 188.963 183.818 189.208C184.298 189.443 184.666 189.811 184.922 190.312H185.114V185.8H186.362V197H185.114V195.784ZM182.458 196.04C182.831 196.04 183.178 195.971 183.498 195.832C183.818 195.693 184.095 195.496 184.33 195.24C184.575 194.984 184.767 194.68 184.906 194.328C185.045 193.965 185.114 193.565 185.114 193.128V192.936C185.114 192.509 185.045 192.12 184.906 191.768C184.767 191.405 184.575 191.096 184.33 190.84C184.095 190.584 183.813 190.387 183.482 190.248C183.162 190.099 182.821 190.024 182.458 190.024C182.085 190.024 181.733 190.093 181.402 190.232C181.082 190.371 180.799 190.568 180.554 190.824C180.319 191.08 180.133 191.384 179.994 191.736C179.866 192.088 179.802 192.477 179.802 192.904V193.16C179.802 193.608 179.866 194.008 179.994 194.36C180.133 194.712 180.319 195.016 180.554 195.272C180.799 195.517 181.082 195.709 181.402 195.848C181.722 195.976 182.074 196.04 182.458 196.04ZM189.871 192.264H194.671V193.416H189.871V192.264ZM198.564 195.848H201.444V186.952H198.66V185.8H202.692V195.848H205.572V197H198.564V195.848ZM209.273 193.416C209.305 194.205 209.55 194.84 210.009 195.32C210.467 195.8 211.107 196.04 211.929 196.04C212.302 196.04 212.627 195.997 212.905 195.912C213.182 195.827 213.417 195.709 213.609 195.56C213.811 195.411 213.971 195.24 214.089 195.048C214.217 194.845 214.318 194.632 214.393 194.408L215.577 194.728C215.353 195.464 214.937 196.067 214.329 196.536C213.731 196.995 212.921 197.224 211.897 197.224C211.331 197.224 210.809 197.128 210.329 196.936C209.859 196.733 209.454 196.451 209.113 196.088C208.771 195.725 208.505 195.293 208.313 194.792C208.121 194.291 208.025 193.736 208.025 193.128V192.744C208.025 192.189 208.121 191.672 208.313 191.192C208.515 190.712 208.793 190.301 209.145 189.96C209.497 189.608 209.907 189.336 210.377 189.144C210.857 188.941 211.374 188.84 211.929 188.84C212.579 188.84 213.139 188.963 213.609 189.208C214.089 189.443 214.478 189.736 214.777 190.088C215.086 190.44 215.31 190.824 215.449 191.24C215.598 191.656 215.673 192.04 215.673 192.392V193.416H209.273ZM211.929 190.024C211.577 190.024 211.246 190.083 210.937 190.2C210.638 190.307 210.371 190.461 210.137 190.664C209.913 190.867 209.726 191.107 209.577 191.384C209.438 191.651 209.347 191.944 209.305 192.264H214.425C214.403 191.923 214.318 191.613 214.169 191.336C214.03 191.059 213.843 190.824 213.609 190.632C213.385 190.44 213.123 190.291 212.825 190.184C212.537 190.077 212.238 190.024 211.929 190.024ZM218.078 189.064H220.526V187.048C220.526 186.685 220.638 186.387 220.862 186.152C221.096 185.917 221.395 185.8 221.758 185.8H224.894V186.952H222.206C221.918 186.952 221.774 187.112 221.774 187.432V189.064H225.086V190.216H221.774V197H220.526V190.216H218.078V189.064ZM227.683 189.064H230.179V185.8H231.427V189.064H234.499V190.216H231.427V195.368C231.427 195.688 231.571 195.848 231.859 195.848H234.115V197H231.411C231.048 197 230.749 196.883 230.515 196.648C230.291 196.413 230.179 196.115 230.179 195.752V190.216H227.683V189.064ZM237.991 198.312C238.567 198.312 239.122 198.195 239.655 197.96C240.189 197.736 240.658 197.411 241.063 196.984C241.469 196.557 241.794 196.04 242.039 195.432C242.285 194.813 242.407 194.12 242.407 193.352V189.448C242.407 188.68 242.285 187.992 242.039 187.384C241.794 186.765 241.469 186.243 241.063 185.816C240.658 185.389 240.189 185.064 239.655 184.84C239.122 184.605 238.567 184.488 237.991 184.488H237.415V183.304H237.991C238.738 183.304 239.453 183.443 240.135 183.72C240.818 183.997 241.421 184.403 241.943 184.936C242.466 185.459 242.882 186.099 243.191 186.856C243.501 187.603 243.655 188.445 243.655 189.384V193.416C243.655 194.365 243.501 195.213 243.191 195.96C242.882 196.707 242.466 197.341 241.943 197.864C241.421 198.397 240.818 198.803 240.135 199.08C239.453 199.357 238.738 199.496 237.991 199.496H237.415V198.312H237.991Z" fill="black"/>
<line x1="359" y1="54" x2="359" y2="157" stroke="#FD94FF" stroke-width="4"/>
<path d="M359.851 166.617C359.461 167.252 358.539 167.252 358.149 166.617L353.011 158.274C352.6 157.608 353.08 156.75 353.862 156.75L364.138 156.75C364.92 156.75 365.4 157.608 364.989 158.274L359.851 166.617Z" fill="#FD94FF"/>
<line x1="384" y1="533" x2="384" y2="500" stroke="#FD94FF" stroke-width="4"/>
<path d="M383.149 490.383C383.539 489.748 384.461 489.748 384.851 490.383L389.989 498.726C390.4 499.392 389.92 500.25 389.138 500.25H378.862C378.08 500.25 377.6 499.392 378.011 498.726L383.149 490.383Z" fill="#FD94FF"/>
<line x1="239" y1="175" x2="342" y2="175" stroke="#FD94FF" stroke-width="4"/>
<path d="M351.617 174.149C352.252 174.539 352.252 175.461 351.617 175.851L343.274 180.989C342.608 181.4 341.75 180.92 341.75 180.138L341.75 169.862C341.75 169.08 342.608 168.6 343.274 169.011L351.617 174.149Z" fill="#FD94FF"/>
<circle cx="359.5" cy="175.5" r="4.5" fill="#FD94FF"/>
<rect x="371" y="138" width="24" height="31" fill="#C8DFFC" fill-opacity="0.56"/>
</svg>
