<svg width="1339" height="512" viewBox="0 0 1339 512" fill="none" xmlns="http://www.w3.org/2000/svg">
<rect width="1339" height="512" fill="white"/>
<rect x="738.5" y="43.5" width="257" height="355" rx="3.5" fill="#ECECEC" stroke="#0F2645" stroke-width="5"/>
<rect x="1006.5" y="43.5" width="257" height="355" rx="3.5" fill="#ECECEC" stroke="#0F2645" stroke-width="5"/>
<rect x="741" y="46" width="252" height="63" fill="white" fill-opacity="0.99"/>
<rect x="1009" y="46" width="252" height="63" fill="white" fill-opacity="0.99"/>
<rect x="749" y="51" width="14" height="14" rx="3" fill="#C8DFFC"/>
<rect x="768" y="51" width="14" height="14" rx="3" fill="#C8DFFC"/>
<path d="M749 78C749 74.6863 751.686 72 755 72H993V103H755C751.686 103 749 100.314 749 97V78Z" fill="#0E71F2" fill-opacity="0.22"/>
<path d="M1009 72H1210C1213.31 72 1216 74.6863 1216 78V97C1216 100.314 1213.31 103 1210 103H1009V72Z" fill="#0E71F2" fill-opacity="0.22"/>
<path d="M1236.8 80.4L1243.6 87.2L1236.8 94" stroke="#C8DFFC" stroke-width="2"/>
<path d="M1228.2 87.2L1243.6 87.2" stroke="#C8DFFC" stroke-width="2"/>
<path d="M1009 109H1261V396H1009V109Z" fill="#FFDF34"/>
<path d="M1116.82 230.218C1116.82 230.511 1116.76 230.79 1116.65 231.054C1116.54 231.303 1116.4 231.523 1116.21 231.714C1116.02 231.89 1115.79 232.029 1115.52 232.132C1115.27 232.249 1115.01 232.308 1114.73 232.308C1114.44 232.308 1114.17 232.249 1113.92 232.132C1113.67 232.029 1113.45 231.89 1113.26 231.714C1113.07 231.523 1112.91 231.303 1112.8 231.054C1112.69 230.79 1112.64 230.511 1112.64 230.218C1112.64 229.925 1112.69 229.653 1112.8 229.404C1112.91 229.14 1113.07 228.92 1113.26 228.744C1113.45 228.553 1113.67 228.407 1113.92 228.304C1114.17 228.187 1114.44 228.128 1114.73 228.128C1115.01 228.128 1115.27 228.187 1115.52 228.304C1115.79 228.407 1116.02 228.553 1116.21 228.744C1116.4 228.92 1116.54 229.14 1116.65 229.404C1116.76 229.653 1116.82 229.925 1116.82 230.218ZM1133.83 227.996C1133.59 229.287 1132.99 230.328 1132.05 231.12C1131.13 231.912 1129.89 232.308 1128.33 232.308C1127.53 232.308 1126.77 232.183 1126.07 231.934C1125.38 231.685 1124.78 231.325 1124.26 230.856C1123.75 230.387 1123.35 229.807 1123.05 229.118C1122.76 228.429 1122.61 227.644 1122.61 226.764V226.5C1122.61 225.62 1122.76 224.828 1123.05 224.124C1123.35 223.42 1123.75 222.819 1124.26 222.32C1124.79 221.821 1125.4 221.44 1126.09 221.176C1126.79 220.912 1127.54 220.78 1128.33 220.78C1129.86 220.78 1131.09 221.176 1132.03 221.968C1132.98 222.76 1133.59 223.801 1133.83 225.092L1131.11 225.796C1131.02 225.151 1130.74 224.593 1130.27 224.124C1129.8 223.655 1129.14 223.42 1128.29 223.42C1127.89 223.42 1127.52 223.493 1127.17 223.64C1126.82 223.787 1126.51 223.999 1126.24 224.278C1125.98 224.542 1125.77 224.872 1125.61 225.268C1125.46 225.649 1125.39 226.082 1125.39 226.566V226.698C1125.39 227.182 1125.46 227.615 1125.61 227.996C1125.77 228.363 1125.98 228.671 1126.24 228.92C1126.51 229.169 1126.82 229.36 1127.17 229.492C1127.52 229.609 1127.89 229.668 1128.29 229.668C1129.14 229.668 1129.79 229.455 1130.23 229.03C1130.68 228.605 1130.97 228.033 1131.11 227.314L1133.83 227.996ZM1147.35 226.676C1147.35 227.585 1147.2 228.392 1146.89 229.096C1146.58 229.785 1146.16 230.372 1145.63 230.856C1145.11 231.325 1144.5 231.685 1143.81 231.934C1143.13 232.183 1142.42 232.308 1141.67 232.308C1140.93 232.308 1140.21 232.183 1139.52 231.934C1138.84 231.685 1138.24 231.325 1137.71 230.856C1137.19 230.372 1136.77 229.785 1136.46 229.096C1136.15 228.392 1136 227.585 1136 226.676V226.412C1136 225.517 1136.15 224.725 1136.46 224.036C1136.77 223.332 1137.19 222.738 1137.71 222.254C1138.24 221.77 1138.84 221.403 1139.52 221.154C1140.21 220.905 1140.93 220.78 1141.67 220.78C1142.42 220.78 1143.13 220.905 1143.81 221.154C1144.5 221.403 1145.11 221.77 1145.63 222.254C1146.16 222.738 1146.58 223.332 1146.89 224.036C1147.2 224.725 1147.35 225.517 1147.35 226.412V226.676ZM1141.67 229.668C1142.07 229.668 1142.44 229.602 1142.8 229.47C1143.15 229.338 1143.46 229.147 1143.72 228.898C1143.98 228.649 1144.19 228.348 1144.34 227.996C1144.5 227.629 1144.58 227.219 1144.58 226.764V226.324C1144.58 225.869 1144.5 225.466 1144.34 225.114C1144.19 224.747 1143.98 224.439 1143.72 224.19C1143.46 223.941 1143.15 223.75 1142.8 223.618C1142.44 223.486 1142.07 223.42 1141.67 223.42C1141.28 223.42 1140.9 223.486 1140.55 223.618C1140.2 223.75 1139.89 223.941 1139.63 224.19C1139.36 224.439 1139.15 224.747 1138.99 225.114C1138.84 225.466 1138.77 225.869 1138.77 226.324V226.764C1138.77 227.219 1138.84 227.629 1138.99 227.996C1139.15 228.348 1139.36 228.649 1139.63 228.898C1139.89 229.147 1140.2 229.338 1140.55 229.47C1140.9 229.602 1141.28 229.668 1141.67 229.668ZM1150.06 229.36H1153.89V219.24H1150.19V216.6H1156.66V229.36H1160.23V232H1150.06V229.36Z" fill="#0F0F0F"/>
<path d="M957.548 461.416H957.152C957.035 461.665 956.888 461.907 956.712 462.142C956.551 462.362 956.331 462.56 956.052 462.736C955.788 462.912 955.465 463.051 955.084 463.154C954.717 463.257 954.27 463.308 953.742 463.308C953.067 463.308 952.437 463.191 951.85 462.956C951.278 462.707 950.772 462.347 950.332 461.878C949.907 461.394 949.569 460.807 949.32 460.118C949.085 459.429 948.968 458.637 948.968 457.742V457.346C948.968 456.466 949.093 455.681 949.342 454.992C949.606 454.303 949.958 453.723 950.398 453.254C950.853 452.77 951.373 452.403 951.96 452.154C952.561 451.905 953.192 451.78 953.852 451.78C954.732 451.78 955.429 451.949 955.942 452.286C956.455 452.609 956.859 453.071 957.152 453.672H957.548V447.6H960.32V463H957.548V461.416ZM954.644 460.668C955.509 460.668 956.206 460.397 956.734 459.854C957.277 459.297 957.548 458.571 957.548 457.676V457.412C957.548 456.517 957.277 455.799 956.734 455.256C956.206 454.699 955.509 454.42 954.644 454.42C953.779 454.42 953.075 454.691 952.532 455.234C952.004 455.762 951.74 456.488 951.74 457.412V457.676C951.74 458.6 952.004 459.333 952.532 459.876C953.075 460.404 953.779 460.668 954.644 460.668ZM963.385 460.36H967.081V454.728H963.649V452.088H969.853V460.36H973.021V463H963.385V460.36ZM970.535 448.854C970.535 449.147 970.476 449.426 970.359 449.69C970.256 449.939 970.109 450.159 969.919 450.35C969.728 450.526 969.501 450.673 969.237 450.79C968.987 450.893 968.723 450.944 968.445 450.944C968.151 450.944 967.88 450.893 967.631 450.79C967.381 450.673 967.161 450.526 966.971 450.35C966.78 450.159 966.626 449.939 966.509 449.69C966.406 449.426 966.355 449.147 966.355 448.854C966.355 448.561 966.406 448.289 966.509 448.04C966.626 447.776 966.78 447.556 966.971 447.38C967.161 447.189 967.381 447.043 967.631 446.94C967.88 446.823 968.151 446.764 968.445 446.764C968.723 446.764 968.987 446.823 969.237 446.94C969.501 447.043 969.728 447.189 969.919 447.38C970.109 447.556 970.256 447.776 970.359 448.04C970.476 448.289 970.535 448.561 970.535 448.854ZM976.129 452.088H980.749V453.672H981.145C981.351 453.071 981.695 452.609 982.179 452.286C982.678 451.949 983.272 451.78 983.961 451.78C985.047 451.78 985.919 452.125 986.579 452.814C987.239 453.489 987.569 454.523 987.569 455.916V456.4L984.709 456.664V456.356C984.709 455.755 984.555 455.278 984.247 454.926C983.939 454.559 983.477 454.376 982.861 454.376C982.245 454.376 981.761 454.589 981.409 455.014C981.057 455.439 980.881 456.048 980.881 456.84V460.36H983.389V463H975.865V460.36H978.109V454.728H976.129V452.088ZM990.546 452.132H999.742V454.64H990.546V452.132ZM990.546 455.96H999.742V458.468H990.546V455.96ZM1004.04 449.36C1004.04 449.081 1004.09 448.817 1004.19 448.568C1004.31 448.304 1004.46 448.084 1004.65 447.908C1004.85 447.717 1005.07 447.571 1005.31 447.468C1005.56 447.351 1005.84 447.292 1006.13 447.292C1006.41 447.292 1006.67 447.351 1006.92 447.468C1007.18 447.571 1007.41 447.717 1007.6 447.908C1007.79 448.084 1007.94 448.304 1008.04 448.568C1008.16 448.817 1008.22 449.081 1008.22 449.36V452.044C1008.22 452.601 1008.03 453.071 1007.65 453.452C1007.28 453.833 1006.82 454.024 1006.26 454.024H1004.85V452.308H1005.91C1006.3 452.308 1006.5 452.088 1006.5 451.648V451.384C1006.39 451.428 1006.26 451.45 1006.13 451.45C1005.84 451.45 1005.56 451.399 1005.31 451.296C1005.07 451.179 1004.85 451.025 1004.65 450.834C1004.46 450.643 1004.31 450.423 1004.19 450.174C1004.09 449.925 1004.04 449.653 1004.04 449.36ZM1009.01 449.36C1009.01 449.081 1009.06 448.817 1009.16 448.568C1009.28 448.304 1009.44 448.084 1009.63 447.908C1009.82 447.717 1010.04 447.571 1010.29 447.468C1010.54 447.351 1010.81 447.292 1011.1 447.292C1011.38 447.292 1011.64 447.351 1011.89 447.468C1012.16 447.571 1012.38 447.717 1012.57 447.908C1012.77 448.084 1012.91 448.304 1013.01 448.568C1013.13 448.817 1013.19 449.081 1013.19 449.36V452.044C1013.19 452.601 1013 453.071 1012.62 453.452C1012.25 453.833 1011.79 454.024 1011.23 454.024H1009.82V452.308H1010.88C1011.28 452.308 1011.47 452.088 1011.47 451.648V451.384C1011.36 451.428 1011.23 451.45 1011.1 451.45C1010.81 451.45 1010.54 451.399 1010.29 451.296C1010.04 451.179 1009.82 451.025 1009.63 450.834C1009.44 450.643 1009.28 450.423 1009.16 450.174C1009.06 449.925 1009.01 449.653 1009.01 449.36ZM1016.54 452.088H1021.16V453.672H1021.56C1021.76 453.071 1022.11 452.609 1022.59 452.286C1023.09 451.949 1023.68 451.78 1024.37 451.78C1025.46 451.78 1026.33 452.125 1026.99 452.814C1027.65 453.489 1027.98 454.523 1027.98 455.916V456.4L1025.12 456.664V456.356C1025.12 455.755 1024.97 455.278 1024.66 454.926C1024.35 454.559 1023.89 454.376 1023.27 454.376C1022.66 454.376 1022.17 454.589 1021.82 455.014C1021.47 455.439 1021.29 456.048 1021.29 456.84V460.36H1023.8V463H1016.28V460.36H1018.52V454.728H1016.54V452.088ZM1030.23 452.088H1033.47V447.6H1036.24V452.088H1040.18V454.728H1036.24V459.7C1036.24 460.14 1036.44 460.36 1036.83 460.36H1039.78V463H1035.16C1034.66 463 1034.25 462.839 1033.93 462.516C1033.62 462.193 1033.47 461.783 1033.47 461.284V454.728H1030.23V452.088ZM1043.94 460.36H1047.77V450.24H1044.08V447.6H1050.54V460.36H1054.11V463H1043.94V460.36ZM1057.92 449.36C1057.92 449.081 1057.97 448.817 1058.08 448.568C1058.19 448.304 1058.35 448.084 1058.54 447.908C1058.73 447.717 1058.95 447.571 1059.2 447.468C1059.45 447.351 1059.72 447.292 1060.01 447.292C1060.29 447.292 1060.55 447.351 1060.8 447.468C1061.07 447.571 1061.29 447.717 1061.49 447.908C1061.68 448.084 1061.82 448.304 1061.93 448.568C1062.04 448.817 1062.1 449.081 1062.1 449.36V452.044C1062.1 452.601 1061.91 453.071 1061.53 453.452C1061.16 453.833 1060.7 454.024 1060.14 454.024H1058.74V452.308H1059.79C1060.19 452.308 1060.39 452.088 1060.39 451.648V451.384C1060.27 451.428 1060.14 451.45 1060.01 451.45C1059.72 451.45 1059.45 451.399 1059.2 451.296C1058.95 451.179 1058.73 451.025 1058.54 450.834C1058.35 450.643 1058.19 450.423 1058.08 450.174C1057.97 449.925 1057.92 449.653 1057.92 449.36ZM1062.89 449.36C1062.89 449.081 1062.94 448.817 1063.05 448.568C1063.16 448.304 1063.32 448.084 1063.51 447.908C1063.7 447.717 1063.92 447.571 1064.17 447.468C1064.42 447.351 1064.69 447.292 1064.98 447.292C1065.26 447.292 1065.53 447.351 1065.78 447.468C1066.04 447.571 1066.27 447.717 1066.46 447.908C1066.65 448.084 1066.79 448.304 1066.9 448.568C1067.01 448.817 1067.07 449.081 1067.07 449.36V452.044C1067.07 452.601 1066.88 453.071 1066.5 453.452C1066.13 453.833 1065.67 454.024 1065.12 454.024H1063.71V452.308H1064.76C1065.16 452.308 1065.36 452.088 1065.36 451.648V451.384C1065.24 451.428 1065.12 451.45 1064.98 451.45C1064.69 451.45 1064.42 451.399 1064.17 451.296C1063.92 451.179 1063.7 451.025 1063.51 450.834C1063.32 450.643 1063.16 450.423 1063.05 450.174C1062.94 449.925 1062.89 449.653 1062.89 449.36Z" fill="black"/>
<rect x="81.5" y="43.5" width="257" height="355" rx="3.5" fill="#ECECEC" stroke="#0F2645" stroke-width="5"/>
<rect x="349.5" y="43.5" width="257" height="355" rx="3.5" fill="#ECECEC" stroke="#0F2645" stroke-width="5"/>
<rect x="84" y="46" width="252" height="63" fill="white" fill-opacity="0.99"/>
<rect x="352" y="46" width="252" height="63" fill="white" fill-opacity="0.99"/>
<rect x="565" y="52" width="14" height="14" rx="3" fill="#C8DFFC"/>
<rect x="584" y="52" width="14" height="14" rx="3" fill="#C8DFFC"/>
<path d="M118 78C118 74.6863 120.686 72 124 72H336V103H124C120.686 103 118 100.314 118 97V78Z" fill="#0E71F2" fill-opacity="0.22"/>
<path d="M352 72H592C595.314 72 598 74.6863 598 78V97C598 100.314 595.314 103 592 103H352V72Z" fill="#0E71F2" fill-opacity="0.22"/>
<path d="M99.2004 93.6L92.4004 86.8L99.2004 80" stroke="#C8DFFC" stroke-width="2"/>
<path d="M107.8 86.8H92.4004" stroke="#C8DFFC" stroke-width="2"/>
<rect x="84" y="109" width="252" height="286" fill="#FFDF34"/>
<path d="M181.822 239.218C181.822 239.511 181.763 239.79 181.646 240.054C181.543 240.303 181.397 240.523 181.206 240.714C181.015 240.89 180.788 241.029 180.524 241.132C180.275 241.249 180.011 241.308 179.732 241.308C179.439 241.308 179.167 241.249 178.918 241.132C178.669 241.029 178.449 240.89 178.258 240.714C178.067 240.523 177.913 240.303 177.796 240.054C177.693 239.79 177.642 239.511 177.642 239.218C177.642 238.925 177.693 238.653 177.796 238.404C177.913 238.14 178.067 237.92 178.258 237.744C178.449 237.553 178.669 237.407 178.918 237.304C179.167 237.187 179.439 237.128 179.732 237.128C180.011 237.128 180.275 237.187 180.524 237.304C180.788 237.407 181.015 237.553 181.206 237.744C181.397 237.92 181.543 238.14 181.646 238.404C181.763 238.653 181.822 238.925 181.822 239.218ZM198.835 236.996C198.585 238.287 197.991 239.328 197.053 240.12C196.129 240.912 194.889 241.308 193.335 241.308C192.528 241.308 191.773 241.183 191.069 240.934C190.379 240.685 189.778 240.325 189.265 239.856C188.751 239.387 188.348 238.807 188.055 238.118C187.761 237.429 187.615 236.644 187.615 235.764V235.5C187.615 234.62 187.761 233.828 188.055 233.124C188.348 232.42 188.751 231.819 189.265 231.32C189.793 230.821 190.401 230.44 191.091 230.176C191.795 229.912 192.543 229.78 193.335 229.78C194.86 229.78 196.092 230.176 197.031 230.968C197.984 231.76 198.585 232.801 198.835 234.092L196.107 234.796C196.019 234.151 195.74 233.593 195.271 233.124C194.801 232.655 194.141 232.42 193.291 232.42C192.895 232.42 192.521 232.493 192.169 232.64C191.817 232.787 191.509 232.999 191.245 233.278C190.981 233.542 190.768 233.872 190.607 234.268C190.46 234.649 190.387 235.082 190.387 235.566V235.698C190.387 236.182 190.46 236.615 190.607 236.996C190.768 237.363 190.981 237.671 191.245 237.92C191.509 238.169 191.817 238.36 192.169 238.492C192.521 238.609 192.895 238.668 193.291 238.668C194.141 238.668 194.787 238.455 195.227 238.03C195.681 237.605 195.975 237.033 196.107 236.314L198.835 236.996ZM212.349 235.676C212.349 236.585 212.195 237.392 211.887 238.096C211.579 238.785 211.161 239.372 210.633 239.856C210.105 240.325 209.497 240.685 208.807 240.934C208.133 241.183 207.421 241.308 206.673 241.308C205.925 241.308 205.207 241.183 204.517 240.934C203.843 240.685 203.241 240.325 202.713 239.856C202.185 239.372 201.767 238.785 201.459 238.096C201.151 237.392 200.997 236.585 200.997 235.676V235.412C200.997 234.517 201.151 233.725 201.459 233.036C201.767 232.332 202.185 231.738 202.713 231.254C203.241 230.77 203.843 230.403 204.517 230.154C205.207 229.905 205.925 229.78 206.673 229.78C207.421 229.78 208.133 229.905 208.807 230.154C209.497 230.403 210.105 230.77 210.633 231.254C211.161 231.738 211.579 232.332 211.887 233.036C212.195 233.725 212.349 234.517 212.349 235.412V235.676ZM206.673 238.668C207.069 238.668 207.443 238.602 207.795 238.47C208.147 238.338 208.455 238.147 208.719 237.898C208.983 237.649 209.189 237.348 209.335 236.996C209.497 236.629 209.577 236.219 209.577 235.764V235.324C209.577 234.869 209.497 234.466 209.335 234.114C209.189 233.747 208.983 233.439 208.719 233.19C208.455 232.941 208.147 232.75 207.795 232.618C207.443 232.486 207.069 232.42 206.673 232.42C206.277 232.42 205.903 232.486 205.551 232.618C205.199 232.75 204.891 232.941 204.627 233.19C204.363 233.439 204.151 233.747 203.989 234.114C203.843 234.466 203.769 234.869 203.769 235.324V235.764C203.769 236.219 203.843 236.629 203.989 236.996C204.151 237.348 204.363 237.649 204.627 237.898C204.891 238.147 205.199 238.338 205.551 238.47C205.903 238.602 206.277 238.668 206.673 238.668ZM215.062 238.36H218.89V228.24H215.194V225.6H221.662V238.36H225.226V241H215.062V238.36Z" fill="#0F0F0F"/>
<path d="M272.548 459.416H272.152C272.035 459.665 271.888 459.907 271.712 460.142C271.551 460.362 271.331 460.56 271.052 460.736C270.788 460.912 270.465 461.051 270.084 461.154C269.717 461.257 269.27 461.308 268.742 461.308C268.067 461.308 267.437 461.191 266.85 460.956C266.278 460.707 265.772 460.347 265.332 459.878C264.907 459.394 264.569 458.807 264.32 458.118C264.085 457.429 263.968 456.637 263.968 455.742V455.346C263.968 454.466 264.093 453.681 264.342 452.992C264.606 452.303 264.958 451.723 265.398 451.254C265.853 450.77 266.373 450.403 266.96 450.154C267.561 449.905 268.192 449.78 268.852 449.78C269.732 449.78 270.429 449.949 270.942 450.286C271.455 450.609 271.859 451.071 272.152 451.672H272.548V445.6H275.32V461H272.548V459.416ZM269.644 458.668C270.509 458.668 271.206 458.397 271.734 457.854C272.277 457.297 272.548 456.571 272.548 455.676V455.412C272.548 454.517 272.277 453.799 271.734 453.256C271.206 452.699 270.509 452.42 269.644 452.42C268.779 452.42 268.075 452.691 267.532 453.234C267.004 453.762 266.74 454.488 266.74 455.412V455.676C266.74 456.6 267.004 457.333 267.532 457.876C268.075 458.404 268.779 458.668 269.644 458.668ZM278.385 458.36H282.081V452.728H278.649V450.088H284.853V458.36H288.021V461H278.385V458.36ZM285.535 446.854C285.535 447.147 285.476 447.426 285.359 447.69C285.256 447.939 285.109 448.159 284.919 448.35C284.728 448.526 284.501 448.673 284.237 448.79C283.987 448.893 283.723 448.944 283.445 448.944C283.151 448.944 282.88 448.893 282.631 448.79C282.381 448.673 282.161 448.526 281.971 448.35C281.78 448.159 281.626 447.939 281.509 447.69C281.406 447.426 281.355 447.147 281.355 446.854C281.355 446.561 281.406 446.289 281.509 446.04C281.626 445.776 281.78 445.556 281.971 445.38C282.161 445.189 282.381 445.043 282.631 444.94C282.88 444.823 283.151 444.764 283.445 444.764C283.723 444.764 283.987 444.823 284.237 444.94C284.501 445.043 284.728 445.189 284.919 445.38C285.109 445.556 285.256 445.776 285.359 446.04C285.476 446.289 285.535 446.561 285.535 446.854ZM291.129 450.088H295.749V451.672H296.145C296.351 451.071 296.695 450.609 297.179 450.286C297.678 449.949 298.272 449.78 298.961 449.78C300.047 449.78 300.919 450.125 301.579 450.814C302.239 451.489 302.569 452.523 302.569 453.916V454.4L299.709 454.664V454.356C299.709 453.755 299.555 453.278 299.247 452.926C298.939 452.559 298.477 452.376 297.861 452.376C297.245 452.376 296.761 452.589 296.409 453.014C296.057 453.439 295.881 454.048 295.881 454.84V458.36H298.389V461H290.865V458.36H293.109V452.728H291.129V450.088ZM305.546 450.132H314.742V452.64H305.546V450.132ZM305.546 453.96H314.742V456.468H305.546V453.96ZM319.039 447.36C319.039 447.081 319.09 446.817 319.193 446.568C319.31 446.304 319.464 446.084 319.655 445.908C319.845 445.717 320.065 445.571 320.315 445.468C320.564 445.351 320.835 445.292 321.129 445.292C321.407 445.292 321.671 445.351 321.921 445.468C322.185 445.571 322.412 445.717 322.603 445.908C322.793 446.084 322.94 446.304 323.043 446.568C323.16 446.817 323.219 447.081 323.219 447.36V450.044C323.219 450.601 323.028 451.071 322.647 451.452C322.28 451.833 321.818 452.024 321.261 452.024H319.853V450.308H320.909C321.305 450.308 321.503 450.088 321.503 449.648V449.384C321.385 449.428 321.261 449.45 321.129 449.45C320.835 449.45 320.564 449.399 320.315 449.296C320.065 449.179 319.845 449.025 319.655 448.834C319.464 448.643 319.31 448.423 319.193 448.174C319.09 447.925 319.039 447.653 319.039 447.36ZM324.011 447.36C324.011 447.081 324.062 446.817 324.165 446.568C324.282 446.304 324.436 446.084 324.627 445.908C324.817 445.717 325.037 445.571 325.287 445.468C325.536 445.351 325.807 445.292 326.101 445.292C326.379 445.292 326.643 445.351 326.893 445.468C327.157 445.571 327.384 445.717 327.575 445.908C327.765 446.084 327.912 446.304 328.015 446.568C328.132 446.817 328.191 447.081 328.191 447.36V450.044C328.191 450.601 328 451.071 327.619 451.452C327.252 451.833 326.79 452.024 326.233 452.024H324.825V450.308H325.881C326.277 450.308 326.475 450.088 326.475 449.648V449.384C326.357 449.428 326.233 449.45 326.101 449.45C325.807 449.45 325.536 449.399 325.287 449.296C325.037 449.179 324.817 449.025 324.627 448.834C324.436 448.643 324.282 448.423 324.165 448.174C324.062 447.925 324.011 447.653 324.011 447.36ZM332.004 458.36H335.832V448.24H332.136V445.6H338.604V458.36H342.168V461H332.004V458.36ZM345.232 450.088H348.466V445.6H351.238V450.088H355.176V452.728H351.238V457.7C351.238 458.14 351.436 458.36 351.832 458.36H354.78V461H350.16C349.662 461 349.251 460.839 348.928 460.516C348.62 460.193 348.466 459.783 348.466 459.284V452.728H345.232V450.088ZM358.483 450.088H363.103V451.672H363.499C363.704 451.071 364.049 450.609 364.533 450.286C365.032 449.949 365.626 449.78 366.315 449.78C367.4 449.78 368.273 450.125 368.933 450.814C369.593 451.489 369.923 452.523 369.923 453.916V454.4L367.063 454.664V454.356C367.063 453.755 366.909 453.278 366.601 452.926C366.293 452.559 365.831 452.376 365.215 452.376C364.599 452.376 364.115 452.589 363.763 453.014C363.411 453.439 363.235 454.048 363.235 454.84V458.36H365.743V461H358.219V458.36H360.463V452.728H358.483V450.088ZM372.922 447.36C372.922 447.081 372.973 446.817 373.076 446.568C373.193 446.304 373.347 446.084 373.538 445.908C373.728 445.717 373.948 445.571 374.198 445.468C374.447 445.351 374.718 445.292 375.012 445.292C375.29 445.292 375.554 445.351 375.804 445.468C376.068 445.571 376.295 445.717 376.486 445.908C376.676 446.084 376.823 446.304 376.926 446.568C377.043 446.817 377.102 447.081 377.102 447.36V450.044C377.102 450.601 376.911 451.071 376.53 451.452C376.163 451.833 375.701 452.024 375.144 452.024H373.736V450.308H374.792C375.188 450.308 375.386 450.088 375.386 449.648V449.384C375.268 449.428 375.144 449.45 375.012 449.45C374.718 449.45 374.447 449.399 374.198 449.296C373.948 449.179 373.728 449.025 373.538 448.834C373.347 448.643 373.193 448.423 373.076 448.174C372.973 447.925 372.922 447.653 372.922 447.36ZM377.894 447.36C377.894 447.081 377.945 446.817 378.048 446.568C378.165 446.304 378.319 446.084 378.51 445.908C378.7 445.717 378.92 445.571 379.17 445.468C379.419 445.351 379.69 445.292 379.984 445.292C380.262 445.292 380.526 445.351 380.776 445.468C381.04 445.571 381.267 445.717 381.458 445.908C381.648 446.084 381.795 446.304 381.898 446.568C382.015 446.817 382.074 447.081 382.074 447.36V450.044C382.074 450.601 381.883 451.071 381.502 451.452C381.135 451.833 380.673 452.024 380.116 452.024H378.708V450.308H379.764C380.16 450.308 380.358 450.088 380.358 449.648V449.384C380.24 449.428 380.116 449.45 379.984 449.45C379.69 449.45 379.419 449.399 379.17 449.296C378.92 449.179 378.7 449.025 378.51 448.834C378.319 448.643 378.165 448.423 378.048 448.174C377.945 447.925 377.894 447.653 377.894 447.36Z" fill="black"/>
</svg>
