<svg width="960" height="512" viewBox="0 0 960 512" fill="none" xmlns="http://www.w3.org/2000/svg">
<rect width="960" height="512" fill="white"/>
<rect x="224.5" y="64.5" width="257" height="355" rx="3.5" fill="#0E71F2" stroke="#0F2645" stroke-width="5"/>
<rect x="492.5" y="64.5" width="257" height="355" rx="3.5" fill="#0E71F2" stroke="#0F2645" stroke-width="5"/>
<rect x="227" y="67" width="252" height="63" fill="white" fill-opacity="0.99"/>
<rect x="495" y="67" width="252" height="63" fill="white" fill-opacity="0.99"/>
<rect x="708" y="73" width="14" height="14" rx="3" fill="#C8DFFC"/>
<rect x="727" y="73" width="14" height="14" rx="3" fill="#C8DFFC"/>
<path d="M261 99C261 95.6863 263.686 93 267 93H479V124H267C263.686 124 261 121.314 261 118V99Z" fill="#0E71F2" fill-opacity="0.22"/>
<path d="M495 93H735C738.314 93 741 95.6863 741 99V118C741 121.314 738.314 124 735 124H495V93Z" fill="#0E71F2" fill-opacity="0.22"/>
<path d="M242.2 114.6L235.4 107.8L242.2 101" stroke="#C8DFFC" stroke-width="2"/>
<path d="M250.8 107.8H235.4" stroke="#C8DFFC" stroke-width="2"/>
<g clip-path="url(#clip0)">
<rect x="228" y="130" width="252" height="94" fill="#F6F6F6" fill-opacity="0.11"/>
<path fill-rule="evenodd" clip-rule="evenodd" d="M297 147C295.343 147 294 148.343 294 150V154C294 155.657 295.343 157 297 157H359.9C361.557 157 362.9 155.657 362.9 154V150C362.9 148.343 361.557 147 359.9 147H297Z" fill="white" fill-opacity="0.75"/>
<path fill-rule="evenodd" clip-rule="evenodd" d="M297 170C295.343 170 294 171.343 294 173V177C294 178.657 295.343 180 297 180H428.8C430.457 180 431.8 178.657 431.8 177V173C431.8 171.343 430.457 170 428.8 170H297Z" fill="white" fill-opacity="0.62"/>
<path fill-rule="evenodd" clip-rule="evenodd" d="M297 190C295.343 190 294 191.343 294 193V197C294 198.657 295.343 200 297 200H386.8C388.457 200 389.8 198.657 389.8 197V193C389.8 191.343 388.457 190 386.8 190H297Z" fill="white" fill-opacity="0.3"/>
<path fill-rule="evenodd" clip-rule="evenodd" d="M440 147C438.343 147 437 148.343 437 150V154C437 155.657 438.343 157 440 157H452.6C454.257 157 455.6 155.657 455.6 154V150C455.6 148.343 454.257 147 452.6 147H440Z" fill="white" fill-opacity="0.3"/>
<rect x="228" y="227" width="252" height="94" fill="#F6F6F6" fill-opacity="0.11"/>
<path fill-rule="evenodd" clip-rule="evenodd" d="M297 244C295.343 244 294 245.343 294 247V251C294 252.657 295.343 254 297 254H359.9C361.557 254 362.9 252.657 362.9 251V247C362.9 245.343 361.557 244 359.9 244H297Z" fill="white" fill-opacity="0.75"/>
<path fill-rule="evenodd" clip-rule="evenodd" d="M297 267C295.343 267 294 268.343 294 270V274C294 275.657 295.343 277 297 277H428.8C430.457 277 431.8 275.657 431.8 274V270C431.8 268.343 430.457 267 428.8 267H297Z" fill="white" fill-opacity="0.62"/>
<path fill-rule="evenodd" clip-rule="evenodd" d="M297 287C295.343 287 294 288.343 294 290V294C294 295.657 295.343 297 297 297H386.8C388.457 297 389.8 295.657 389.8 294V290C389.8 288.343 388.457 287 386.8 287H297Z" fill="white" fill-opacity="0.3"/>
<path fill-rule="evenodd" clip-rule="evenodd" d="M440 244C438.343 244 437 245.343 437 247V251C437 252.657 438.343 254 440 254H452.6C454.257 254 455.6 252.657 455.6 251V247C455.6 245.343 454.257 244 452.6 244H440Z" fill="white" fill-opacity="0.3"/>
<circle cx="253.5" cy="271.5" r="19.5" fill="#F1F1F1" fill-opacity="0.71"/>
<rect x="228" y="324" width="252" height="94" fill="#F6F6F6" fill-opacity="0.11"/>
<path fill-rule="evenodd" clip-rule="evenodd" d="M297 341C295.343 341 294 342.343 294 344V348C294 349.657 295.343 351 297 351H359.9C361.557 351 362.9 349.657 362.9 348V344C362.9 342.343 361.557 341 359.9 341H297Z" fill="white" fill-opacity="0.75"/>
<path fill-rule="evenodd" clip-rule="evenodd" d="M297 364C295.343 364 294 365.343 294 367V371C294 372.657 295.343 374 297 374H428.8C430.457 374 431.8 372.657 431.8 371V367C431.8 365.343 430.457 364 428.8 364H297Z" fill="white" fill-opacity="0.62"/>
<path fill-rule="evenodd" clip-rule="evenodd" d="M297 384C295.343 384 294 385.343 294 387V391C294 392.657 295.343 394 297 394H386.8C388.457 394 389.8 392.657 389.8 391V387C389.8 385.343 388.457 384 386.8 384H297Z" fill="white" fill-opacity="0.3"/>
<path fill-rule="evenodd" clip-rule="evenodd" d="M440 341C438.343 341 437 342.343 437 344V348C437 349.657 438.343 351 440 351H452.6C454.257 351 455.6 349.657 455.6 348V344C455.6 342.343 454.257 341 452.6 341H440Z" fill="white" fill-opacity="0.3"/>
<circle cx="253.5" cy="370.5" r="19.5" fill="#F1F1F1" fill-opacity="0.71"/>
<circle cx="253.5" cy="175.5" r="19.5" fill="#F1F1F1" fill-opacity="0.71"/>
</g>
<path fill-rule="evenodd" clip-rule="evenodd" d="M500 136V410C500 411.657 501.343 413 503 413H738.339C739.996 413 741.339 411.657 741.339 410V136H500Z" fill="white" fill-opacity="0.12"/>
<path opacity="0.75" fill-rule="evenodd" clip-rule="evenodd" d="M518 283C516.343 283 515 284.343 515 286V290C515 291.657 516.343 293 518 293H717.66C719.317 293 720.66 291.657 720.66 290V286C720.66 284.343 719.317 283 717.66 283H518Z" fill="#ADCFFA"/>
<path opacity="0.5" fill-rule="evenodd" clip-rule="evenodd" d="M518 306C516.343 306 515 307.343 515 309V313C515 314.657 516.343 316 518 316H694.548C696.205 316 697.548 314.657 697.548 313V309C697.548 307.343 696.205 306 694.548 306H518Z" fill="#68A6F6"/>
<path opacity="0.25" fill-rule="evenodd" clip-rule="evenodd" d="M518 329C516.343 329 515 330.343 515 332V336C515 337.657 516.343 339 518 339H625.113C626.77 339 628.113 337.657 628.113 336V332C628.113 330.343 626.77 329 625.113 329H518Z" fill="#68A6F6"/>
<path opacity="0.25" fill-rule="evenodd" clip-rule="evenodd" d="M503 136C501.343 136 500 137.343 500 139V176H741.339V139C741.339 137.343 739.996 136 738.339 136H503Z" fill="#F1F2F2"/>
<path fill-rule="evenodd" clip-rule="evenodd" d="M718 150C716.343 150 715 151.343 715 153V157C715 158.657 716.343 160 718 160H730.6C732.257 160 733.6 158.657 733.6 157V153C733.6 151.343 732.257 150 730.6 150H718Z" fill="white" fill-opacity="0.3"/>
<circle cx="523" cy="155" r="15" fill="#F1F1F1" fill-opacity="0.71"/>
<path fill-rule="evenodd" clip-rule="evenodd" d="M519 191C517.343 191 516 192.343 516 194V198C516 199.657 517.343 201 519 201H699.66C701.317 201 702.66 199.657 702.66 198V194C702.66 192.343 701.317 191 699.66 191H519Z" fill="#C9DFFC"/>
<path opacity="0.75" fill-rule="evenodd" clip-rule="evenodd" d="M519 214C517.343 214 516 215.343 516 217V221C516 222.657 517.343 224 519 224H718.66C720.317 224 721.66 222.657 721.66 221V217C721.66 215.343 720.317 214 718.66 214H519Z" fill="#ADCFFA"/>
<path fill-rule="evenodd" clip-rule="evenodd" d="M519 237C517.343 237 516 238.343 516 240V244C516 245.657 517.343 247 519 247H695.548C697.205 247 698.548 245.657 698.548 244V240C698.548 238.343 697.205 237 695.548 237H519Z" fill="#8CBCF8"/>
<path fill-rule="evenodd" clip-rule="evenodd" d="M519 260C517.343 260 516 261.343 516 263V267C516 268.657 517.343 270 519 270H626.113C627.77 270 629.113 268.657 629.113 267V263C629.113 261.343 627.77 260 626.113 260H519Z" fill="#8CBCF8"/>
<line x1="246" y1="451" x2="246" y2="418" stroke="#FD94FF" stroke-width="4"/>
<path d="M245.149 408.383C245.539 407.748 246.461 407.748 246.851 408.383L251.989 416.726C252.4 417.392 251.92 418.25 251.138 418.25H240.862C240.08 418.25 239.6 417.392 240.011 416.726L245.149 408.383Z" fill="#FD94FF"/>
<rect x="244" y="448" width="155" height="35" rx="2" fill="#FD94FF"/>
<path d="M253.776 471.104C253.776 470.795 253.883 470.533 254.096 470.32C254.32 470.096 254.587 469.984 254.896 469.984C255.205 469.984 255.467 470.096 255.68 470.32C255.904 470.533 256.016 470.795 256.016 471.104C256.016 471.413 255.904 471.68 255.68 471.904C255.467 472.117 255.205 472.224 254.896 472.224C254.587 472.224 254.32 472.117 254.096 471.904C253.883 471.68 253.776 471.413 253.776 471.104ZM268.821 472H267.573V466.304C267.573 465.931 267.488 465.627 267.317 465.392C267.146 465.147 266.874 465.024 266.501 465.024C266.149 465.024 265.861 465.157 265.637 465.424C265.424 465.68 265.317 466.08 265.317 466.624V472H264.069V466.24C264.069 465.888 263.973 465.6 263.781 465.376C263.589 465.141 263.333 465.024 263.013 465.024C262.629 465.024 262.33 465.163 262.117 465.44C261.914 465.717 261.813 466.08 261.813 466.528V472H260.565V464.064H261.813V464.928H262.005C262.144 464.555 262.346 464.283 262.613 464.112C262.88 463.931 263.194 463.84 263.557 463.84C263.941 463.84 264.256 463.941 264.501 464.144C264.757 464.347 264.933 464.608 265.029 464.928H265.221C265.584 464.203 266.16 463.84 266.949 463.84C267.546 463.84 268.005 464.032 268.325 464.416C268.656 464.789 268.821 465.28 268.821 465.888V472ZM271.898 468.416C271.93 469.205 272.175 469.84 272.634 470.32C273.092 470.8 273.732 471.04 274.554 471.04C274.927 471.04 275.252 470.997 275.53 470.912C275.807 470.827 276.042 470.709 276.234 470.56C276.436 470.411 276.596 470.24 276.714 470.048C276.842 469.845 276.943 469.632 277.018 469.408L278.202 469.728C277.978 470.464 277.562 471.067 276.954 471.536C276.356 471.995 275.546 472.224 274.522 472.224C273.956 472.224 273.434 472.128 272.954 471.936C272.484 471.733 272.079 471.451 271.738 471.088C271.396 470.725 271.13 470.293 270.938 469.792C270.746 469.291 270.65 468.736 270.65 468.128V467.744C270.65 467.189 270.746 466.672 270.938 466.192C271.14 465.712 271.418 465.301 271.77 464.96C272.122 464.608 272.532 464.336 273.002 464.144C273.482 463.941 273.999 463.84 274.554 463.84C275.204 463.84 275.764 463.963 276.234 464.208C276.714 464.443 277.103 464.736 277.402 465.088C277.711 465.44 277.935 465.824 278.074 466.24C278.223 466.656 278.298 467.04 278.298 467.392V468.416H271.898ZM274.554 465.024C274.202 465.024 273.871 465.083 273.562 465.2C273.263 465.307 272.996 465.461 272.762 465.664C272.538 465.867 272.351 466.107 272.202 466.384C272.063 466.651 271.972 466.944 271.93 467.264H277.05C277.028 466.923 276.943 466.613 276.794 466.336C276.655 466.059 276.468 465.824 276.234 465.632C276.01 465.44 275.748 465.291 275.45 465.184C275.162 465.077 274.863 465.024 274.554 465.024ZM282.431 466.112C282.431 466.496 282.591 466.789 282.911 466.992C283.241 467.195 283.839 467.328 284.703 467.392C285.631 467.467 286.335 467.691 286.815 468.064C287.305 468.427 287.551 468.96 287.551 469.664V469.76C287.551 470.144 287.471 470.491 287.311 470.8C287.161 471.099 286.948 471.355 286.671 471.568C286.404 471.781 286.073 471.941 285.679 472.048C285.295 472.165 284.873 472.224 284.415 472.224C283.796 472.224 283.263 472.144 282.815 471.984C282.377 471.813 282.009 471.595 281.711 471.328C281.423 471.051 281.204 470.741 281.055 470.4C280.905 470.048 280.82 469.696 280.799 469.344L281.983 469.056C282.036 469.664 282.271 470.155 282.687 470.528C283.103 470.891 283.657 471.072 284.351 471.072C284.937 471.072 285.407 470.96 285.759 470.736C286.121 470.501 286.303 470.176 286.303 469.76C286.303 469.312 286.127 468.992 285.775 468.8C285.423 468.608 284.852 468.485 284.063 468.432C283.145 468.368 282.441 468.155 281.951 467.792C281.46 467.429 281.215 466.901 281.215 466.208V466.112C281.215 465.739 281.295 465.413 281.455 465.136C281.615 464.848 281.828 464.608 282.095 464.416C282.372 464.224 282.681 464.08 283.023 463.984C283.364 463.888 283.721 463.84 284.095 463.84C284.617 463.84 285.076 463.915 285.471 464.064C285.865 464.203 286.196 464.389 286.463 464.624C286.729 464.848 286.932 465.109 287.071 465.408C287.22 465.707 287.316 466.005 287.359 466.304L286.175 466.592C286.121 466.08 285.913 465.68 285.551 465.392C285.199 465.104 284.735 464.96 284.159 464.96C283.935 464.96 283.716 464.987 283.503 465.04C283.3 465.083 283.119 465.152 282.959 465.248C282.799 465.344 282.671 465.467 282.575 465.616C282.479 465.755 282.431 465.92 282.431 466.112ZM292.228 466.112C292.228 466.496 292.388 466.789 292.708 466.992C293.038 467.195 293.636 467.328 294.5 467.392C295.428 467.467 296.132 467.691 296.612 468.064C297.102 468.427 297.348 468.96 297.348 469.664V469.76C297.348 470.144 297.268 470.491 297.108 470.8C296.958 471.099 296.745 471.355 296.468 471.568C296.201 471.781 295.87 471.941 295.476 472.048C295.092 472.165 294.67 472.224 294.212 472.224C293.593 472.224 293.06 472.144 292.612 471.984C292.174 471.813 291.806 471.595 291.508 471.328C291.22 471.051 291.001 470.741 290.852 470.4C290.702 470.048 290.617 469.696 290.596 469.344L291.78 469.056C291.833 469.664 292.068 470.155 292.484 470.528C292.9 470.891 293.454 471.072 294.148 471.072C294.734 471.072 295.204 470.96 295.556 470.736C295.918 470.501 296.1 470.176 296.1 469.76C296.1 469.312 295.924 468.992 295.572 468.8C295.22 468.608 294.649 468.485 293.86 468.432C292.942 468.368 292.238 468.155 291.748 467.792C291.257 467.429 291.012 466.901 291.012 466.208V466.112C291.012 465.739 291.092 465.413 291.252 465.136C291.412 464.848 291.625 464.608 291.892 464.416C292.169 464.224 292.478 464.08 292.82 463.984C293.161 463.888 293.518 463.84 293.891 463.84C294.414 463.84 294.873 463.915 295.268 464.064C295.662 464.203 295.993 464.389 296.26 464.624C296.526 464.848 296.729 465.109 296.868 465.408C297.017 465.707 297.113 466.005 297.156 466.304L295.972 466.592C295.918 466.08 295.71 465.68 295.348 465.392C294.996 465.104 294.532 464.96 293.956 464.96C293.732 464.96 293.513 464.987 293.299 465.04C293.097 465.083 292.916 465.152 292.756 465.248C292.596 465.344 292.468 465.467 292.372 465.616C292.276 465.755 292.228 465.92 292.228 466.112ZM306.136 470.656H305.944C305.688 471.189 305.331 471.584 304.872 471.84C304.424 472.096 303.95 472.224 303.448 472.224C302.926 472.224 302.44 472.139 301.992 471.968C301.544 471.787 301.15 471.525 300.808 471.184C300.478 470.832 300.216 470.405 300.024 469.904C299.832 469.403 299.736 468.821 299.736 468.16V467.904C299.736 467.253 299.832 466.677 300.024 466.176C300.216 465.675 300.478 465.253 300.808 464.912C301.15 464.56 301.544 464.293 301.992 464.112C302.44 463.931 302.915 463.84 303.416 463.84C303.96 463.84 304.451 463.963 304.888 464.208C305.336 464.443 305.688 464.811 305.944 465.312H306.136V464.064H307.384V470.368C307.384 470.688 307.528 470.848 307.816 470.848H308.216V472H307.368C307.006 472 306.707 471.883 306.472 471.648C306.248 471.413 306.136 471.115 306.136 470.752V470.656ZM303.576 471.04C303.95 471.04 304.291 470.971 304.6 470.832C304.92 470.693 305.192 470.496 305.416 470.24C305.64 469.984 305.816 469.68 305.944 469.328C306.072 468.965 306.136 468.565 306.136 468.128V467.936C306.136 467.509 306.072 467.12 305.944 466.768C305.816 466.405 305.635 466.096 305.4 465.84C305.176 465.584 304.904 465.387 304.584 465.248C304.275 465.099 303.939 465.024 303.576 465.024C303.203 465.024 302.862 465.093 302.552 465.232C302.243 465.371 301.971 465.568 301.736 465.824C301.512 466.069 301.336 466.373 301.208 466.736C301.08 467.088 301.016 467.477 301.016 467.904V468.16C301.016 469.067 301.251 469.776 301.72 470.288C302.2 470.789 302.819 471.04 303.576 471.04ZM316.205 470.784H316.013C315.757 471.264 315.405 471.627 314.957 471.872C314.52 472.107 314.04 472.224 313.517 472.224C312.984 472.224 312.483 472.133 312.013 471.952C311.544 471.771 311.128 471.509 310.765 471.168C310.413 470.827 310.131 470.405 309.917 469.904C309.715 469.392 309.613 468.811 309.613 468.16V467.904C309.613 467.264 309.72 466.693 309.933 466.192C310.147 465.68 310.429 465.253 310.781 464.912C311.133 464.56 311.544 464.293 312.013 464.112C312.483 463.931 312.973 463.84 313.485 463.84C314.061 463.84 314.563 463.968 314.989 464.224C315.427 464.469 315.768 464.832 316.013 465.312H316.205V464.064H317.453V473.952C317.453 474.315 317.336 474.613 317.101 474.848C316.877 475.083 316.584 475.2 316.221 475.2H311.053V474.048H315.773C316.061 474.048 316.205 473.888 316.205 473.568V470.784ZM313.549 471.04C313.923 471.04 314.269 470.971 314.589 470.832C314.909 470.693 315.187 470.496 315.421 470.24C315.667 469.984 315.859 469.68 315.997 469.328C316.136 468.965 316.205 468.565 316.205 468.128V467.936C316.205 467.509 316.136 467.12 315.997 466.768C315.859 466.405 315.667 466.096 315.421 465.84C315.187 465.584 314.904 465.387 314.573 465.248C314.253 465.099 313.912 465.024 313.549 465.024C313.176 465.024 312.824 465.093 312.493 465.232C312.173 465.371 311.891 465.568 311.645 465.824C311.411 466.08 311.224 466.384 311.085 466.736C310.957 467.088 310.893 467.477 310.893 467.904V468.16C310.893 468.608 310.957 469.008 311.085 469.36C311.224 469.712 311.411 470.016 311.645 470.272C311.891 470.517 312.173 470.709 312.493 470.848C312.813 470.976 313.165 471.04 313.549 471.04ZM320.882 468.416C320.914 469.205 321.159 469.84 321.618 470.32C322.077 470.8 322.717 471.04 323.538 471.04C323.911 471.04 324.237 470.997 324.514 470.912C324.791 470.827 325.026 470.709 325.218 470.56C325.421 470.411 325.581 470.24 325.698 470.048C325.826 469.845 325.927 469.632 326.002 469.408L327.186 469.728C326.962 470.464 326.546 471.067 325.938 471.536C325.341 471.995 324.53 472.224 323.506 472.224C322.941 472.224 322.418 472.128 321.938 471.936C321.469 471.733 321.063 471.451 320.722 471.088C320.381 470.725 320.114 470.293 319.922 469.792C319.73 469.291 319.634 468.736 319.634 468.128V467.744C319.634 467.189 319.73 466.672 319.922 466.192C320.125 465.712 320.402 465.301 320.754 464.96C321.106 464.608 321.517 464.336 321.986 464.144C322.466 463.941 322.983 463.84 323.538 463.84C324.189 463.84 324.749 463.963 325.218 464.208C325.698 464.443 326.087 464.736 326.386 465.088C326.695 465.44 326.919 465.824 327.058 466.24C327.207 466.656 327.282 467.04 327.282 467.392V468.416H320.882ZM323.538 465.024C323.186 465.024 322.855 465.083 322.546 465.2C322.247 465.307 321.981 465.461 321.746 465.664C321.522 465.867 321.335 466.107 321.186 466.384C321.047 466.651 320.957 466.944 320.914 467.264H326.034C326.013 466.923 325.927 466.613 325.778 466.336C325.639 466.059 325.453 465.824 325.218 465.632C324.994 465.44 324.733 465.291 324.434 465.184C324.146 465.077 323.847 465.024 323.538 465.024ZM331.415 466.112C331.415 466.496 331.575 466.789 331.895 466.992C332.226 467.195 332.823 467.328 333.687 467.392C334.615 467.467 335.319 467.691 335.799 468.064C336.29 468.427 336.535 468.96 336.535 469.664V469.76C336.535 470.144 336.455 470.491 336.295 470.8C336.146 471.099 335.932 471.355 335.655 471.568C335.388 471.781 335.058 471.941 334.663 472.048C334.279 472.165 333.858 472.224 333.399 472.224C332.78 472.224 332.247 472.144 331.799 471.984C331.362 471.813 330.994 471.595 330.695 471.328C330.407 471.051 330.188 470.741 330.039 470.4C329.89 470.048 329.804 469.696 329.783 469.344L330.967 469.056C331.02 469.664 331.255 470.155 331.671 470.528C332.087 470.891 332.642 471.072 333.335 471.072C333.922 471.072 334.391 470.96 334.743 470.736C335.106 470.501 335.287 470.176 335.287 469.76C335.287 469.312 335.111 468.992 334.759 468.8C334.407 468.608 333.836 468.485 333.047 468.432C332.13 468.368 331.426 468.155 330.935 467.792C330.444 467.429 330.199 466.901 330.199 466.208V466.112C330.199 465.739 330.279 465.413 330.439 465.136C330.599 464.848 330.812 464.608 331.079 464.416C331.356 464.224 331.666 464.08 332.007 463.984C332.348 463.888 332.706 463.84 333.079 463.84C333.602 463.84 334.06 463.915 334.455 464.064C334.85 464.203 335.18 464.389 335.447 464.624C335.714 464.848 335.916 465.109 336.055 465.408C336.204 465.707 336.3 466.005 336.343 466.304L335.159 466.592C335.106 466.08 334.898 465.68 334.535 465.392C334.183 465.104 333.719 464.96 333.143 464.96C332.919 464.96 332.7 464.987 332.487 465.04C332.284 465.083 332.103 465.152 331.943 465.248C331.783 465.344 331.655 465.467 331.559 465.616C331.463 465.755 331.415 465.92 331.415 466.112ZM340.668 467.264H345.468V468.416H340.668V467.264ZM349.361 470.848H352.241V461.952H349.457V460.8H353.489V470.848H356.369V472H349.361V470.848ZM361.622 461.696C361.622 461.387 361.728 461.125 361.942 460.912C362.166 460.688 362.432 460.576 362.742 460.576C363.051 460.576 363.312 460.688 363.526 460.912C363.75 461.125 363.862 461.387 363.862 461.696C363.862 462.005 363.75 462.272 363.526 462.496C363.312 462.709 363.051 462.816 362.742 462.816C362.432 462.816 362.166 462.709 361.942 462.496C361.728 462.272 361.622 462.005 361.622 461.696ZM359.35 470.848H362.134V465.216H359.638V464.064H363.382V470.848H365.974V472H359.35V470.848ZM370.603 466.112C370.603 466.496 370.763 466.789 371.083 466.992C371.413 467.195 372.011 467.328 372.875 467.392C373.803 467.467 374.507 467.691 374.987 468.064C375.477 468.427 375.723 468.96 375.723 469.664V469.76C375.723 470.144 375.643 470.491 375.483 470.8C375.333 471.099 375.12 471.355 374.843 471.568C374.576 471.781 374.245 471.941 373.851 472.048C373.467 472.165 373.045 472.224 372.587 472.224C371.968 472.224 371.435 472.144 370.987 471.984C370.549 471.813 370.181 471.595 369.883 471.328C369.595 471.051 369.376 470.741 369.227 470.4C369.077 470.048 368.992 469.696 368.971 469.344L370.155 469.056C370.208 469.664 370.443 470.155 370.859 470.528C371.275 470.891 371.829 471.072 372.523 471.072C373.109 471.072 373.579 470.96 373.931 470.736C374.293 470.501 374.475 470.176 374.475 469.76C374.475 469.312 374.299 468.992 373.947 468.8C373.595 468.608 373.024 468.485 372.235 468.432C371.317 468.368 370.613 468.155 370.123 467.792C369.632 467.429 369.387 466.901 369.387 466.208V466.112C369.387 465.739 369.467 465.413 369.627 465.136C369.787 464.848 370 464.608 370.267 464.416C370.544 464.224 370.853 464.08 371.195 463.984C371.536 463.888 371.893 463.84 372.266 463.84C372.789 463.84 373.248 463.915 373.643 464.064C374.037 464.203 374.368 464.389 374.635 464.624C374.901 464.848 375.104 465.109 375.243 465.408C375.392 465.707 375.488 466.005 375.531 466.304L374.347 466.592C374.293 466.08 374.085 465.68 373.723 465.392C373.371 465.104 372.907 464.96 372.331 464.96C372.107 464.96 371.888 464.987 371.674 465.04C371.472 465.083 371.291 465.152 371.131 465.248C370.971 465.344 370.843 465.467 370.747 465.616C370.651 465.755 370.603 465.92 370.603 466.112ZM378.479 464.064H380.975V460.8H382.223V464.064H385.295V465.216H382.223V470.368C382.223 470.688 382.367 470.848 382.655 470.848H384.911V472H382.207C381.845 472 381.546 471.883 381.311 471.648C381.087 471.413 380.975 471.115 380.975 470.752V465.216H378.479V464.064Z" fill="black"/>
<line x1="512" y1="451" x2="512" y2="418" stroke="#FD94FF" stroke-width="4"/>
<path d="M511.149 408.383C511.539 407.748 512.461 407.748 512.851 408.383L517.989 416.726C518.4 417.392 517.92 418.25 517.138 418.25H506.862C506.08 418.25 505.6 417.392 506.011 416.726L511.149 408.383Z" fill="#FD94FF"/>
<rect x="510" y="448" width="171" height="35" rx="2" fill="#FD94FF"/>
<path d="M519.776 471.104C519.776 470.795 519.883 470.533 520.096 470.32C520.32 470.096 520.587 469.984 520.896 469.984C521.205 469.984 521.467 470.096 521.68 470.32C521.904 470.533 522.016 470.795 522.016 471.104C522.016 471.413 521.904 471.68 521.68 471.904C521.467 472.117 521.205 472.224 520.896 472.224C520.587 472.224 520.32 472.117 520.096 471.904C519.883 471.68 519.776 471.413 519.776 471.104ZM534.821 472H533.573V466.304C533.573 465.931 533.488 465.627 533.317 465.392C533.146 465.147 532.874 465.024 532.501 465.024C532.149 465.024 531.861 465.157 531.637 465.424C531.424 465.68 531.317 466.08 531.317 466.624V472H530.069V466.24C530.069 465.888 529.973 465.6 529.781 465.376C529.589 465.141 529.333 465.024 529.013 465.024C528.629 465.024 528.33 465.163 528.117 465.44C527.914 465.717 527.813 466.08 527.813 466.528V472H526.565V464.064H527.813V464.928H528.005C528.144 464.555 528.346 464.283 528.613 464.112C528.88 463.931 529.194 463.84 529.557 463.84C529.941 463.84 530.256 463.941 530.501 464.144C530.757 464.347 530.933 464.608 531.029 464.928H531.221C531.584 464.203 532.16 463.84 532.949 463.84C533.546 463.84 534.005 464.032 534.325 464.416C534.656 464.789 534.821 465.28 534.821 465.888V472ZM537.898 468.416C537.93 469.205 538.175 469.84 538.634 470.32C539.092 470.8 539.732 471.04 540.554 471.04C540.927 471.04 541.252 470.997 541.53 470.912C541.807 470.827 542.042 470.709 542.234 470.56C542.436 470.411 542.596 470.24 542.714 470.048C542.842 469.845 542.943 469.632 543.018 469.408L544.202 469.728C543.978 470.464 543.562 471.067 542.954 471.536C542.356 471.995 541.546 472.224 540.522 472.224C539.956 472.224 539.434 472.128 538.954 471.936C538.484 471.733 538.079 471.451 537.738 471.088C537.396 470.725 537.13 470.293 536.938 469.792C536.746 469.291 536.65 468.736 536.65 468.128V467.744C536.65 467.189 536.746 466.672 536.938 466.192C537.14 465.712 537.418 465.301 537.77 464.96C538.122 464.608 538.532 464.336 539.002 464.144C539.482 463.941 539.999 463.84 540.554 463.84C541.204 463.84 541.764 463.963 542.234 464.208C542.714 464.443 543.103 464.736 543.402 465.088C543.711 465.44 543.935 465.824 544.074 466.24C544.223 466.656 544.298 467.04 544.298 467.392V468.416H537.898ZM540.554 465.024C540.202 465.024 539.871 465.083 539.562 465.2C539.263 465.307 538.996 465.461 538.762 465.664C538.538 465.867 538.351 466.107 538.202 466.384C538.063 466.651 537.972 466.944 537.93 467.264H543.05C543.028 466.923 542.943 466.613 542.794 466.336C542.655 466.059 542.468 465.824 542.234 465.632C542.01 465.44 541.748 465.291 541.45 465.184C541.162 465.077 540.863 465.024 540.554 465.024ZM548.431 466.112C548.431 466.496 548.591 466.789 548.911 466.992C549.241 467.195 549.839 467.328 550.703 467.392C551.631 467.467 552.335 467.691 552.815 468.064C553.305 468.427 553.551 468.96 553.551 469.664V469.76C553.551 470.144 553.471 470.491 553.311 470.8C553.161 471.099 552.948 471.355 552.671 471.568C552.404 471.781 552.073 471.941 551.679 472.048C551.295 472.165 550.873 472.224 550.415 472.224C549.796 472.224 549.263 472.144 548.815 471.984C548.377 471.813 548.009 471.595 547.711 471.328C547.423 471.051 547.204 470.741 547.055 470.4C546.905 470.048 546.82 469.696 546.799 469.344L547.983 469.056C548.036 469.664 548.271 470.155 548.687 470.528C549.103 470.891 549.657 471.072 550.351 471.072C550.937 471.072 551.407 470.96 551.759 470.736C552.121 470.501 552.303 470.176 552.303 469.76C552.303 469.312 552.127 468.992 551.775 468.8C551.423 468.608 550.852 468.485 550.063 468.432C549.145 468.368 548.441 468.155 547.951 467.792C547.46 467.429 547.215 466.901 547.215 466.208V466.112C547.215 465.739 547.295 465.413 547.455 465.136C547.615 464.848 547.828 464.608 548.095 464.416C548.372 464.224 548.681 464.08 549.023 463.984C549.364 463.888 549.721 463.84 550.095 463.84C550.617 463.84 551.076 463.915 551.471 464.064C551.865 464.203 552.196 464.389 552.463 464.624C552.729 464.848 552.932 465.109 553.071 465.408C553.22 465.707 553.316 466.005 553.359 466.304L552.175 466.592C552.121 466.08 551.913 465.68 551.551 465.392C551.199 465.104 550.735 464.96 550.159 464.96C549.935 464.96 549.716 464.987 549.503 465.04C549.3 465.083 549.119 465.152 548.959 465.248C548.799 465.344 548.671 465.467 548.575 465.616C548.479 465.755 548.431 465.92 548.431 466.112ZM558.228 466.112C558.228 466.496 558.388 466.789 558.708 466.992C559.038 467.195 559.636 467.328 560.5 467.392C561.428 467.467 562.132 467.691 562.612 468.064C563.102 468.427 563.348 468.96 563.348 469.664V469.76C563.348 470.144 563.268 470.491 563.108 470.8C562.958 471.099 562.745 471.355 562.468 471.568C562.201 471.781 561.87 471.941 561.476 472.048C561.092 472.165 560.67 472.224 560.212 472.224C559.593 472.224 559.06 472.144 558.612 471.984C558.174 471.813 557.806 471.595 557.508 471.328C557.22 471.051 557.001 470.741 556.852 470.4C556.702 470.048 556.617 469.696 556.596 469.344L557.78 469.056C557.833 469.664 558.068 470.155 558.484 470.528C558.9 470.891 559.454 471.072 560.148 471.072C560.734 471.072 561.204 470.96 561.556 470.736C561.918 470.501 562.1 470.176 562.1 469.76C562.1 469.312 561.924 468.992 561.572 468.8C561.22 468.608 560.649 468.485 559.86 468.432C558.942 468.368 558.238 468.155 557.748 467.792C557.257 467.429 557.012 466.901 557.012 466.208V466.112C557.012 465.739 557.092 465.413 557.252 465.136C557.412 464.848 557.625 464.608 557.892 464.416C558.169 464.224 558.478 464.08 558.82 463.984C559.161 463.888 559.518 463.84 559.891 463.84C560.414 463.84 560.873 463.915 561.268 464.064C561.662 464.203 561.993 464.389 562.26 464.624C562.526 464.848 562.729 465.109 562.868 465.408C563.017 465.707 563.113 466.005 563.156 466.304L561.972 466.592C561.918 466.08 561.71 465.68 561.348 465.392C560.996 465.104 560.532 464.96 559.956 464.96C559.732 464.96 559.513 464.987 559.299 465.04C559.097 465.083 558.916 465.152 558.756 465.248C558.596 465.344 558.468 465.467 558.372 465.616C558.276 465.755 558.228 465.92 558.228 466.112ZM572.136 470.656H571.944C571.688 471.189 571.331 471.584 570.872 471.84C570.424 472.096 569.95 472.224 569.448 472.224C568.926 472.224 568.44 472.139 567.992 471.968C567.544 471.787 567.15 471.525 566.808 471.184C566.478 470.832 566.216 470.405 566.024 469.904C565.832 469.403 565.736 468.821 565.736 468.16V467.904C565.736 467.253 565.832 466.677 566.024 466.176C566.216 465.675 566.478 465.253 566.808 464.912C567.15 464.56 567.544 464.293 567.992 464.112C568.44 463.931 568.915 463.84 569.416 463.84C569.96 463.84 570.451 463.963 570.888 464.208C571.336 464.443 571.688 464.811 571.944 465.312H572.136V464.064H573.384V470.368C573.384 470.688 573.528 470.848 573.816 470.848H574.216V472H573.368C573.006 472 572.707 471.883 572.472 471.648C572.248 471.413 572.136 471.115 572.136 470.752V470.656ZM569.576 471.04C569.95 471.04 570.291 470.971 570.6 470.832C570.92 470.693 571.192 470.496 571.416 470.24C571.64 469.984 571.816 469.68 571.944 469.328C572.072 468.965 572.136 468.565 572.136 468.128V467.936C572.136 467.509 572.072 467.12 571.944 466.768C571.816 466.405 571.635 466.096 571.4 465.84C571.176 465.584 570.904 465.387 570.584 465.248C570.275 465.099 569.939 465.024 569.576 465.024C569.203 465.024 568.862 465.093 568.552 465.232C568.243 465.371 567.971 465.568 567.736 465.824C567.512 466.069 567.336 466.373 567.208 466.736C567.08 467.088 567.016 467.477 567.016 467.904V468.16C567.016 469.067 567.251 469.776 567.72 470.288C568.2 470.789 568.819 471.04 569.576 471.04ZM582.205 470.784H582.013C581.757 471.264 581.405 471.627 580.957 471.872C580.52 472.107 580.04 472.224 579.517 472.224C578.984 472.224 578.483 472.133 578.013 471.952C577.544 471.771 577.128 471.509 576.765 471.168C576.413 470.827 576.131 470.405 575.917 469.904C575.715 469.392 575.613 468.811 575.613 468.16V467.904C575.613 467.264 575.72 466.693 575.933 466.192C576.147 465.68 576.429 465.253 576.781 464.912C577.133 464.56 577.544 464.293 578.013 464.112C578.483 463.931 578.973 463.84 579.485 463.84C580.061 463.84 580.563 463.968 580.989 464.224C581.427 464.469 581.768 464.832 582.013 465.312H582.205V464.064H583.453V473.952C583.453 474.315 583.336 474.613 583.101 474.848C582.877 475.083 582.584 475.2 582.221 475.2H577.053V474.048H581.773C582.061 474.048 582.205 473.888 582.205 473.568V470.784ZM579.549 471.04C579.923 471.04 580.269 470.971 580.589 470.832C580.909 470.693 581.187 470.496 581.421 470.24C581.667 469.984 581.859 469.68 581.997 469.328C582.136 468.965 582.205 468.565 582.205 468.128V467.936C582.205 467.509 582.136 467.12 581.997 466.768C581.859 466.405 581.667 466.096 581.421 465.84C581.187 465.584 580.904 465.387 580.573 465.248C580.253 465.099 579.912 465.024 579.549 465.024C579.176 465.024 578.824 465.093 578.493 465.232C578.173 465.371 577.891 465.568 577.645 465.824C577.411 466.08 577.224 466.384 577.085 466.736C576.957 467.088 576.893 467.477 576.893 467.904V468.16C576.893 468.608 576.957 469.008 577.085 469.36C577.224 469.712 577.411 470.016 577.645 470.272C577.891 470.517 578.173 470.709 578.493 470.848C578.813 470.976 579.165 471.04 579.549 471.04ZM586.882 468.416C586.914 469.205 587.159 469.84 587.618 470.32C588.077 470.8 588.717 471.04 589.538 471.04C589.911 471.04 590.237 470.997 590.514 470.912C590.791 470.827 591.026 470.709 591.218 470.56C591.421 470.411 591.581 470.24 591.698 470.048C591.826 469.845 591.927 469.632 592.002 469.408L593.186 469.728C592.962 470.464 592.546 471.067 591.938 471.536C591.341 471.995 590.53 472.224 589.506 472.224C588.941 472.224 588.418 472.128 587.938 471.936C587.469 471.733 587.063 471.451 586.722 471.088C586.381 470.725 586.114 470.293 585.922 469.792C585.73 469.291 585.634 468.736 585.634 468.128V467.744C585.634 467.189 585.73 466.672 585.922 466.192C586.125 465.712 586.402 465.301 586.754 464.96C587.106 464.608 587.517 464.336 587.986 464.144C588.466 463.941 588.983 463.84 589.538 463.84C590.189 463.84 590.749 463.963 591.218 464.208C591.698 464.443 592.087 464.736 592.386 465.088C592.695 465.44 592.919 465.824 593.058 466.24C593.207 466.656 593.282 467.04 593.282 467.392V468.416H586.882ZM589.538 465.024C589.186 465.024 588.855 465.083 588.546 465.2C588.247 465.307 587.981 465.461 587.746 465.664C587.522 465.867 587.335 466.107 587.186 466.384C587.047 466.651 586.957 466.944 586.914 467.264H592.034C592.013 466.923 591.927 466.613 591.778 466.336C591.639 466.059 591.453 465.824 591.218 465.632C590.994 465.44 590.733 465.291 590.434 465.184C590.146 465.077 589.847 465.024 589.538 465.024ZM596.871 467.264H601.671V468.416H596.871V467.264ZM606.524 475.2H605.276V464.064H606.524V465.312H606.716C606.993 464.832 607.377 464.469 607.868 464.224C608.359 463.968 608.892 463.84 609.468 463.84C609.959 463.84 610.423 463.931 610.86 464.112C611.297 464.293 611.681 464.555 612.012 464.896C612.353 465.237 612.62 465.659 612.812 466.16C613.015 466.661 613.116 467.232 613.116 467.872V468.192C613.116 468.843 613.02 469.419 612.828 469.92C612.636 470.421 612.369 470.843 612.028 471.184C611.697 471.525 611.308 471.787 610.86 471.968C610.412 472.139 609.937 472.224 609.436 472.224C609.18 472.224 608.919 472.192 608.652 472.128C608.385 472.075 608.129 471.989 607.884 471.872C607.649 471.744 607.431 471.595 607.228 471.424C607.025 471.243 606.855 471.029 606.716 470.784H606.524V475.2ZM609.18 471.04C609.564 471.04 609.916 470.976 610.236 470.848C610.556 470.709 610.833 470.517 611.068 470.272C611.313 470.027 611.5 469.728 611.628 469.376C611.767 469.024 611.836 468.629 611.836 468.192V467.872C611.836 467.445 611.767 467.061 611.628 466.72C611.5 466.368 611.313 466.069 611.068 465.824C610.833 465.568 610.551 465.371 610.22 465.232C609.9 465.093 609.553 465.024 609.18 465.024C608.807 465.024 608.46 465.099 608.14 465.248C607.82 465.387 607.537 465.584 607.292 465.84C607.057 466.096 606.871 466.405 606.732 466.768C606.593 467.12 606.524 467.509 606.524 467.936V468.128C606.524 468.565 606.593 468.965 606.732 469.328C606.871 469.68 607.057 469.984 607.292 470.24C607.537 470.496 607.82 470.693 608.14 470.832C608.46 470.971 608.807 471.04 609.18 471.04ZM614.913 464.064H617.793V465.12H617.985C618.187 464.683 618.475 464.363 618.849 464.16C619.222 463.947 619.649 463.84 620.129 463.84C620.929 463.84 621.574 464.101 622.065 464.624C622.555 465.147 622.817 465.909 622.849 466.912L621.537 467.104C621.537 466.368 621.361 465.84 621.009 465.52C620.657 465.189 620.225 465.024 619.713 465.024C619.382 465.024 619.094 465.088 618.849 465.216C618.614 465.344 618.417 465.52 618.257 465.744C618.097 465.968 617.979 466.229 617.905 466.528C617.83 466.827 617.793 467.147 617.793 467.488V470.848H619.809V472H614.721V470.848H616.545V465.216H614.913V464.064ZM626.07 468.416C626.102 469.205 626.347 469.84 626.806 470.32C627.264 470.8 627.904 471.04 628.726 471.04C629.099 471.04 629.424 470.997 629.702 470.912C629.979 470.827 630.214 470.709 630.406 470.56C630.608 470.411 630.768 470.24 630.886 470.048C631.014 469.845 631.115 469.632 631.19 469.408L632.374 469.728C632.15 470.464 631.734 471.067 631.126 471.536C630.528 471.995 629.718 472.224 628.694 472.224C628.128 472.224 627.606 472.128 627.126 471.936C626.656 471.733 626.251 471.451 625.91 471.088C625.568 470.725 625.302 470.293 625.11 469.792C624.918 469.291 624.822 468.736 624.822 468.128V467.744C624.822 467.189 624.918 466.672 625.11 466.192C625.312 465.712 625.59 465.301 625.942 464.96C626.294 464.608 626.704 464.336 627.174 464.144C627.654 463.941 628.171 463.84 628.726 463.84C629.376 463.84 629.936 463.963 630.406 464.208C630.886 464.443 631.275 464.736 631.574 465.088C631.883 465.44 632.107 465.824 632.246 466.24C632.395 466.656 632.47 467.04 632.47 467.392V468.416H626.07ZM628.726 465.024C628.374 465.024 628.043 465.083 627.734 465.2C627.435 465.307 627.168 465.461 626.934 465.664C626.71 465.867 626.523 466.107 626.374 466.384C626.235 466.651 626.144 466.944 626.102 467.264H631.222C631.2 466.923 631.115 466.613 630.966 466.336C630.827 466.059 630.64 465.824 630.406 465.632C630.182 465.44 629.92 465.291 629.622 465.184C629.334 465.077 629.035 465.024 628.726 465.024ZM639.675 472H637.211L634.443 464.064H635.914L638.347 471.424H638.539L640.971 464.064H642.443L639.675 472ZM647.215 461.696C647.215 461.387 647.322 461.125 647.535 460.912C647.759 460.688 648.026 460.576 648.335 460.576C648.645 460.576 648.906 460.688 649.119 460.912C649.343 461.125 649.455 461.387 649.455 461.696C649.455 462.005 649.343 462.272 649.119 462.496C648.906 462.709 648.645 462.816 648.335 462.816C648.026 462.816 647.759 462.709 647.535 462.496C647.322 462.272 647.215 462.005 647.215 461.696ZM644.943 470.848H647.727V465.216H645.231V464.064H648.975V470.848H651.567V472H644.943V470.848ZM655.46 468.416C655.492 469.205 655.738 469.84 656.196 470.32C656.655 470.8 657.295 471.04 658.116 471.04C658.49 471.04 658.815 470.997 659.092 470.912C659.37 470.827 659.604 470.709 659.796 470.56C659.999 470.411 660.159 470.24 660.276 470.048C660.404 469.845 660.506 469.632 660.58 469.408L661.764 469.728C661.54 470.464 661.124 471.067 660.516 471.536C659.919 471.995 659.108 472.224 658.084 472.224C657.519 472.224 656.996 472.128 656.516 471.936C656.047 471.733 655.642 471.451 655.3 471.088C654.959 470.725 654.692 470.293 654.5 469.792C654.308 469.291 654.212 468.736 654.212 468.128V467.744C654.212 467.189 654.308 466.672 654.5 466.192C654.703 465.712 654.98 465.301 655.332 464.96C655.684 464.608 656.095 464.336 656.564 464.144C657.044 463.941 657.562 463.84 658.116 463.84C658.767 463.84 659.327 463.963 659.796 464.208C660.276 464.443 660.666 464.736 660.964 465.088C661.274 465.44 661.498 465.824 661.636 466.24C661.786 466.656 661.86 467.04 661.86 467.392V468.416H655.46ZM658.116 465.024C657.764 465.024 657.434 465.083 657.124 465.2C656.826 465.307 656.559 465.461 656.324 465.664C656.1 465.867 655.914 466.107 655.764 466.384C655.626 466.651 655.535 466.944 655.492 467.264H660.612C660.591 466.923 660.506 466.613 660.356 466.336C660.218 466.059 660.031 465.824 659.796 465.632C659.572 465.44 659.311 465.291 659.012 465.184C658.724 465.077 658.426 465.024 658.116 465.024ZM671.209 472H668.905L667.945 464.64H667.753L666.793 472H664.489L663.241 464.064H664.521L665.577 471.424H665.769L666.697 464.064H669.001L669.929 471.424H670.121L671.177 464.064H672.457L671.209 472Z" fill="black"/>
<defs>
<clipPath id="clip0">
<rect width="252" height="287" fill="white" transform="translate(228 130)"/>
</clipPath>
</defs>
</svg>
