<svg width="960" height="512" viewBox="0 0 960 512" fill="none" xmlns="http://www.w3.org/2000/svg">
<rect width="960" height="512" fill="white"/>
<rect x="224.5" y="64.5" width="257" height="355" rx="3.5" fill="#0E71F2" stroke="#0F2645" stroke-width="5"/>
<rect x="492.5" y="64.5" width="257" height="355" rx="3.5" fill="#0E71F2" stroke="#0F2645" stroke-width="5"/>
<path fill-rule="evenodd" clip-rule="evenodd" d="M515 193C511.134 193 508 196.134 508 200V230.707C508 234.573 511.134 237.707 515 237.707H568.681C572.547 237.707 575.681 234.573 575.681 230.707V200C575.681 196.134 572.547 193 568.681 193H515Z" fill="white" fill-opacity="0.68"/>
<path fill-rule="evenodd" clip-rule="evenodd" d="M515 93C511.134 93 508 96.134 508 100V176.3C508 180.166 511.134 183.3 515 183.3H726.317C730.183 183.3 733.317 180.166 733.317 176.3V100C733.317 96.134 730.183 93 726.317 93H515Z" fill="white" fill-opacity="0.68"/>
<path fill-rule="evenodd" clip-rule="evenodd" d="M592 193C588.134 193 585 196.134 585 200V230.707C585 234.573 588.134 237.707 592 237.707H647.682C651.548 237.707 654.682 234.573 654.682 230.707V200C654.682 196.134 651.548 193 647.682 193H592Z" fill="white" fill-opacity="0.68"/>
<path fill-rule="evenodd" clip-rule="evenodd" d="M673 193C669.134 193 666 196.134 666 200V230.707C666 234.573 669.134 237.707 673 237.707H725.686C729.552 237.707 732.686 234.573 732.686 230.707V200C732.686 196.134 729.552 193 725.686 193H673Z" fill="white" fill-opacity="0.68"/>
<path fill-rule="evenodd" clip-rule="evenodd" d="M515 248C511.134 248 508 251.134 508 255V286.7C508 290.566 511.134 293.7 515 293.7H568.681C572.547 293.7 575.681 290.566 575.681 286.7V255C575.681 251.134 572.547 248 568.681 248H515Z" fill="white" fill-opacity="0.68"/>
<path fill-rule="evenodd" clip-rule="evenodd" d="M592 248C588.134 248 585 251.134 585 255V286.7C585 290.566 588.134 293.7 592 293.7H647.682C651.548 293.7 654.682 290.566 654.682 286.7V255C654.682 251.134 651.548 248 647.682 248H592Z" fill="white" fill-opacity="0.68"/>
<path fill-rule="evenodd" clip-rule="evenodd" d="M673 248C669.134 248 666 251.134 666 255V286.7C666 290.566 669.134 293.7 673 293.7H725.686C729.552 293.7 732.686 290.566 732.686 286.7V255C732.686 251.134 729.552 248 725.686 248H673Z" fill="white" fill-opacity="0.68"/>
<path fill-rule="evenodd" clip-rule="evenodd" d="M515 305C511.134 305 508 308.134 508 312V342.707C508 346.573 511.134 349.707 515 349.707H568.681C572.547 349.707 575.681 346.573 575.681 342.707V312C575.681 308.134 572.547 305 568.681 305H515Z" fill="white" fill-opacity="0.68"/>
<path fill-rule="evenodd" clip-rule="evenodd" d="M592 305C588.134 305 585 308.134 585 312V342.707C585 346.573 588.134 349.707 592 349.707H647.682C651.548 349.707 654.682 346.573 654.682 342.707V312C654.682 308.134 651.548 305 647.682 305H592Z" fill="white" fill-opacity="0.68"/>
<path fill-rule="evenodd" clip-rule="evenodd" d="M673 305C669.134 305 666 308.134 666 312V342.707C666 346.573 669.134 349.707 673 349.707H725.686C729.552 349.707 732.686 346.573 732.686 342.707V312C732.686 308.134 729.552 305 725.686 305H673Z" fill="white" fill-opacity="0.68"/>
<path fill-rule="evenodd" clip-rule="evenodd" d="M515 361C511.134 361 508 364.134 508 368V398.707C508 402.573 511.134 405.707 515 405.707H647.683C651.549 405.707 654.683 402.573 654.683 398.707V368C654.683 364.134 651.549 361 647.683 361H515Z" fill="white" fill-opacity="0.68"/>
<path fill-rule="evenodd" clip-rule="evenodd" d="M673 361C669.134 361 666 364.134 666 368V399C666 402.866 669.134 406 673 406H726C729.866 406 733 402.866 733 399V368C733 364.134 729.866 361 726 361H673Z" fill="#66A9FF"/>
<path fill-rule="evenodd" clip-rule="evenodd" d="M602 117C600.343 117 599 118.343 599 120V123C599 124.657 600.343 126 602 126H708.419C710.076 126 711.419 124.657 711.419 123V120C711.419 118.343 710.076 117 708.419 117H602Z" fill="#5CA5FF"/>
<path fill-rule="evenodd" clip-rule="evenodd" d="M657 136C655.343 136 654 137.343 654 139V143C654 144.657 655.343 146 657 146H707.683C709.34 146 710.683 144.657 710.683 143V139C710.683 137.343 709.34 136 707.683 136H657Z" fill="#81B9FF"/>
<rect x="227" y="67" width="252" height="63" fill="white" fill-opacity="0.99"/>
<rect x="438" y="73" width="14" height="14" rx="3" fill="#C8DFFC"/>
<rect x="457" y="73" width="14" height="14" rx="3" fill="#C8DFFC"/>
<rect x="700" y="73" width="14" height="14" rx="3" fill="#C8DFFC"/>
<rect x="719" y="73" width="14" height="14" rx="3" fill="#C8DFFC"/>
<path d="M261 99C261 95.6863 263.686 93 267 93H465C468.314 93 471 95.6863 471 99V118C471 121.314 468.314 124 465 124H267C263.686 124 261 121.314 261 118V99Z" fill="#0E71F2" fill-opacity="0.22"/>
<path d="M242.2 114.6L235.4 107.8L242.2 101" stroke="#C8DFFC" stroke-width="2"/>
<path d="M250.8 107.8H235.4" stroke="#C8DFFC" stroke-width="2"/>
<g clip-path="url(#clip0)">
<path fill-rule="evenodd" clip-rule="evenodd" d="M238.554 130.205L235.15 145.168L227.206 143.529V151.113L233.499 152.445L229.579 169.868L227.206 169.458V174.48L228.444 174.685L227.206 180.322V192.621L242.991 195.593L252.791 227.16L227.206 222.343V242.533L237.832 274.817L242.578 273.28L229.27 232.899L263.83 239.356L256.918 273.28L255.886 277.994L243.403 276.354L242.372 273.28L237.626 274.817L237.935 275.637L227.103 274.202V325.242L228.032 311.918L243.816 312.533C243.816 328.521 243.816 345.944 243.816 363.47L227.103 364.597V372.079L243.816 370.952C243.816 387.042 243.816 403.031 243.816 418.199L227.103 413.28V418.507L243.816 423.426C243.816 434.7 243.816 445.256 243.816 454.89L229.27 459.297L227 454.275V478.668L227.516 479.897H238.451L231.23 463.807L243.713 460.015C243.713 467.394 243.713 474.158 243.713 479.897H251.244C251.244 477.233 251.244 474.363 251.244 471.391L265.687 475.388L263.727 479.897H274.662L284.05 458.17L300.557 463.089C299.215 468.829 298.493 474.158 298.493 479.078C298.493 479.385 298.493 479.59 298.493 479.897H303.548C303.445 475.183 304.064 470.059 305.302 464.524L341.616 475.285L340.584 480H345.743L346.465 476.72L357.4 480H383.088L391.135 452.635L392.992 454.583L415.482 480H428.79L425.902 476.72L435.599 447.613L448.392 476.515C447.979 477.643 447.463 478.77 447.051 480H457.264L454.066 476.413L453.859 476.515V476.413C456.954 468.521 460.565 459.502 464.176 450.483L472.016 459.297L461.184 480H466.858L475.627 463.294L478 465.959V458.375L466.239 445.154C470.469 434.392 474.699 423.939 478 415.534V401.801C475.834 407.233 472.429 416.149 468.303 426.398L449.63 405.388L452.106 398.111L478 399.034V394.012L453.756 393.192L461.597 369.517L478 370.029V362.548L462.422 362.035L459.43 330.264L478 331.391V326.369L458.915 325.139L457.78 313.25L478 315.813V305.769L452.106 302.489L456.439 273.895L451.487 273.177L447.154 301.874L428.687 299.619L433.433 274.51L429.719 273.792L433.433 274.51L436.425 258.316L453.24 261.288L451.383 273.28L456.335 273.997L458.089 262.211L475.215 265.286L476.349 274.202L477.897 285.988V229.824L442.821 223.163L445.813 206.867L477.794 213.016V207.994L469.128 206.354L474.492 181.552L477.794 184.012V177.76L475.627 176.12L477.794 166.281V142.299L440.757 130.922L441.376 130.205H413.419L428.481 134.817L404.237 164.539L400.317 157.98L384.12 130.41V130.205H376.486L372.669 151.215L364.209 149.37L356.575 130.307H351.21L358.329 148.038L325.935 140.761L328.102 130.205H300.557C307.469 130.82 315.412 131.537 320.055 131.947L313.865 161.259L288.589 156.032L293.851 130.102H286.217L281.265 154.495L259.497 149.985C262.282 136.867 271.051 131.845 279.098 130H266.512C261.148 133.69 256.505 139.531 254.545 148.96L242.681 146.501L246.395 130H238.554V130.205ZM228.444 307.101L229.889 284.758L243.816 286.501C243.816 293.163 243.816 300.234 243.816 307.716L228.444 307.101ZM234.118 183.807L235.872 176.018L275.281 183.192L273.63 191.288L234.118 183.807ZM385.977 274.612L390.516 250.63L396.5 251.757L396.912 249.297L396.5 251.757L401.245 252.577L403.102 274.305L408.054 273.895L406.3 253.499L426.624 257.086L423.632 273.177L418.783 298.902L410.118 297.775L408.054 273.895L403.102 274.305L405.062 297.16L397.531 296.237L396.293 306.076L417.03 308.638L407.229 360.703L397.119 360.395L396.912 367.877L400.833 367.979L419.712 410.922L398.46 402.518L361.527 388.067L367.304 366.955L396.912 367.877L397.119 360.395L390.516 360.19C388.247 344.919 383.914 316.428 382.057 304.231L396.293 306.076L397.531 296.237L382.16 294.29L385.977 274.612L381.025 273.69L377.208 293.675L354.409 290.703L357.4 274.817L349.972 273.485L346.878 289.78L327.276 287.218L329.443 274.612L324.491 273.792L322.221 286.706L295.501 283.221L297.255 274.919L293.335 274.1L297.255 274.919L300.969 257.394L328.308 251.654C327.07 258.726 325.729 266.105 324.388 273.792L329.339 274.612C330.784 266.105 332.228 258.111 333.569 250.527L354.821 246.12L349.766 273.587L357.194 274.919L362.559 245.813L385.358 249.912L380.819 273.792L385.977 274.612ZM430.028 369.004L421.775 402.928L406.507 368.287L430.028 369.004ZM333.053 400.673L337.902 386.94L371.328 400.059L367.51 413.075L333.053 400.673ZM366.169 417.789L362.765 429.575L352.552 426.296L355.543 413.997L366.169 417.789ZM321.705 372.592L324.697 365.827L362.249 366.955L356.988 386.428L321.705 372.592ZM333.26 385.095L328.308 399.034L312.524 393.397L318.61 379.458L333.26 385.095ZM327.792 358.346L338.418 333.851H363.074L344.298 358.858L327.792 358.346ZM350.488 359.063L369.471 333.953H381.541C383.088 344.305 384.636 354.451 385.461 360.19L350.488 359.063ZM340.584 328.931L352.861 300.542L376.898 303.616C377.724 309.151 379.168 318.785 380.716 328.931H340.584ZM336.355 313.763L315.825 310.996C317.063 305.974 318.301 300.849 319.436 296.237L342.648 299.209L336.355 313.763ZM334.188 318.477L325.626 338.053L309.945 334.978C310.667 331.493 312.42 324.114 314.381 315.813L334.188 318.477ZM305.199 334.056L290.137 331.083L293.438 292.855L314.381 295.52C308.5 319.195 306.024 329.444 305.199 334.056ZM323.665 342.767L303.342 389.4L285.804 381.098L289.621 336.105L323.665 342.767ZM325.522 428.141L321.293 441.054L295.295 433.47L300.969 420.351L325.522 428.141ZM304.889 411.025L310.563 397.906L350.695 412.255L347.703 424.758L304.889 411.025ZM362.146 208.199L342.029 204.407C343.06 198.77 343.886 193.543 344.711 188.726L365.035 192.826L362.146 208.199ZM360.289 217.936L356.059 240.688L334.807 245.198C336.767 233.821 338.624 223.47 340.275 214.143L360.289 217.936ZM329.546 246.325L302.413 252.064L311.492 208.712L335.323 213.221C333.569 223.265 331.609 234.334 329.546 246.325ZM301.072 221.625L276.313 216.091L279.098 202.46L304.167 207.174L301.072 221.625ZM300.041 226.545L294.263 253.807L267.441 259.444L275.178 221.113L300.041 226.545ZM258.362 228.287L248.561 196.72L271.67 201.127L265.893 229.722L258.362 228.287ZM264.346 274.919L266.409 264.671L293.129 259.034L290.137 273.382L288.177 282.196L263.417 279.019L264.346 274.919L260.529 274.202L264.346 274.919ZM251.347 287.526L285.907 291.933L282.709 329.649L251.347 323.499C251.347 307.306 251.347 294.392 251.347 287.526ZM282.296 334.671L278.582 377.716L268.369 372.899L269.298 332.211L282.296 334.671ZM251.347 328.624L264.346 331.186L263.417 370.542L251.45 364.905C251.45 351.991 251.45 339.693 251.347 328.624ZM251.45 392.679C251.45 386.12 251.45 379.561 251.45 373.206L263.211 378.741L262.179 423.734L251.45 420.556C251.45 411.435 251.45 402.006 251.45 392.679ZM267.956 470.981L251.45 466.471C251.45 454.583 251.45 440.542 251.45 425.681L283.534 435.11L267.956 470.981ZM267.131 425.168L268.163 381.098L300.35 396.369L285.494 430.6L267.131 425.168ZM315.103 459.81L287.351 451.611L293.232 438.082L319.745 445.871L315.103 459.81ZM319.848 461.245L330.268 429.678L347.703 435.315L358.019 472.518L319.848 461.245ZM376.279 477.848L363.693 474.158L353.377 437.057L385.255 447.306L376.279 477.848ZM393.405 419.531L388.04 437.775L367.51 431.215L376.073 401.903L395.674 409.59L396.293 409.795L393.405 419.531ZM422.497 472.518L400.833 448.023L397.119 451.303L400.73 447.921L394.746 441.669L400.626 421.684L395.778 420.249L400.73 421.684L403.309 412.665L437.972 426.296L422.497 472.518ZM466.549 432.035C461.7 444.129 456.335 457.76 451.383 470.264L438.385 440.747L448.185 411.332L466.549 432.035ZM444.368 406.925L440.242 419.224L426.418 413.792L424.973 410.615L435.083 369.312L456.645 369.927L444.368 406.925ZM457.677 362.343L417.545 361.113L419.815 349.224H456.542L457.677 362.343ZM453.034 313.25L455.923 344.202H420.64L427.037 309.971L453.034 313.25ZM427.759 252.269L397.531 246.94L363.797 240.791L367.717 219.37L396.19 224.802L431.679 231.567L427.759 252.269ZM472.223 239.356L475.008 260.571L437.663 254.012L441.48 233.514L472.223 239.356ZM476.865 149.678L464.692 205.842L447.154 202.46L458.089 143.939L476.865 149.678ZM436.218 137.174L448.495 140.966L434.671 215.578L408.364 171.406L436.218 137.174ZM381.954 141.581L393.818 161.669L397.016 159.824L393.818 161.772L407.229 184.319L397.531 182.269L375.351 177.555L381.954 141.581ZM374.526 182.372L396.603 187.086L410.737 190.161L429.1 221.01L398.047 215.066L369.471 209.634L374.526 182.372ZM371.74 156.032L365.86 187.804L345.536 183.704C348.425 166.999 350.282 156.237 351.004 151.42L371.74 156.032ZM324.8 145.578L346.155 150.395C345.124 156.442 342.029 174.89 337.077 203.485L313.555 198.975L324.8 145.578ZM312.214 168.638L306.127 197.54L297.358 195.9L303.445 166.896L312.214 168.638ZM287.042 163.411L298.596 165.769L292.51 194.876L281.162 192.723L287.042 163.411ZM279.614 161.977L276.313 178.375L237.007 171.201L240.927 153.982L279.614 161.977Z" fill="white" fill-opacity="0.8"/>
<g clip-path="url(#clip1)">
<rect x="227" y="274" width="252" height="288" fill="#0E71F2"/>
<rect x="227" y="274" width="252" height="94" fill="#F6F6F6" fill-opacity="0.11"/>
<path fill-rule="evenodd" clip-rule="evenodd" d="M296 291C294.343 291 293 292.343 293 294V298C293 299.657 294.343 301 296 301H358.9C360.557 301 361.9 299.657 361.9 298V294C361.9 292.343 360.557 291 358.9 291H296Z" fill="white" fill-opacity="0.75"/>
<path fill-rule="evenodd" clip-rule="evenodd" d="M296 314C294.343 314 293 315.343 293 317V321C293 322.657 294.343 324 296 324H427.8C429.457 324 430.8 322.657 430.8 321V317C430.8 315.343 429.457 314 427.8 314H296Z" fill="white" fill-opacity="0.62"/>
<path fill-rule="evenodd" clip-rule="evenodd" d="M296 334C294.343 334 293 335.343 293 337V341C293 342.657 294.343 344 296 344H385.8C387.457 344 388.8 342.657 388.8 341V337C388.8 335.343 387.457 334 385.8 334H296Z" fill="white" fill-opacity="0.3"/>
<path fill-rule="evenodd" clip-rule="evenodd" d="M439 291C437.343 291 436 292.343 436 294V298C436 299.657 437.343 301 439 301H451.6C453.257 301 454.6 299.657 454.6 298V294C454.6 292.343 453.257 291 451.6 291H439Z" fill="white" fill-opacity="0.3"/>
<path fill-rule="evenodd" clip-rule="evenodd" d="M265.217 319.937C266.349 318.057 267 315.855 267 313.5C267 306.596 261.404 301 254.5 301C247.596 301 242 306.596 242 313.5C242 315.855 242.651 318.057 243.783 319.938L254.5 338.5L265.217 319.937Z" fill="white" fill-opacity="0.75"/>
<rect x="227" y="371" width="252" height="94" fill="#F6F6F6" fill-opacity="0.11"/>
<path fill-rule="evenodd" clip-rule="evenodd" d="M296 388C294.343 388 293 389.343 293 391V395C293 396.657 294.343 398 296 398H358.9C360.557 398 361.9 396.657 361.9 395V391C361.9 389.343 360.557 388 358.9 388H296Z" fill="white" fill-opacity="0.75"/>
<path fill-rule="evenodd" clip-rule="evenodd" d="M296 411C294.343 411 293 412.343 293 414V418C293 419.657 294.343 421 296 421H427.8C429.457 421 430.8 419.657 430.8 418V414C430.8 412.343 429.457 411 427.8 411H296Z" fill="white" fill-opacity="0.62"/>
<path fill-rule="evenodd" clip-rule="evenodd" d="M439 388C437.343 388 436 389.343 436 391V395C436 396.657 437.343 398 439 398H451.6C453.257 398 454.6 396.657 454.6 395V391C454.6 389.343 453.257 388 451.6 388H439Z" fill="white" fill-opacity="0.3"/>
<path fill-rule="evenodd" clip-rule="evenodd" d="M265.217 416.937C266.349 415.057 267 412.855 267 410.5C267 403.596 261.404 398 254.5 398C247.596 398 242 403.596 242 410.5C242 412.855 242.651 415.057 243.783 416.938L254.5 435.5L265.217 416.937Z" fill="white" fill-opacity="0.75"/>
</g>
</g>
<line x1="197" y1="347" x2="228" y2="347" stroke="#FFC602" stroke-width="4"/>
<path d="M237.617 346.149C238.252 346.539 238.252 347.461 237.617 347.851L229.274 352.989C228.608 353.4 227.75 352.92 227.75 352.138L227.75 341.862C227.75 341.08 228.608 340.6 229.274 341.011L237.617 346.149Z" fill="#FFC602"/>
<rect x="40" y="345" width="160" height="28" rx="2" fill="#FFC602"/>
<path d="M48.776 364.104C48.776 363.795 48.8827 363.533 49.096 363.32C49.32 363.096 49.5867 362.984 49.896 362.984C50.2053 362.984 50.4667 363.096 50.68 363.32C50.904 363.533 51.016 363.795 51.016 364.104C51.016 364.413 50.904 364.68 50.68 364.904C50.4667 365.117 50.2053 365.224 49.896 365.224C49.5867 365.224 49.32 365.117 49.096 364.904C48.8827 364.68 48.776 364.413 48.776 364.104ZM56.1889 363.848H59.0689V354.952H56.2849V353.8H60.3169V363.848H63.1969V365H56.1889V363.848ZM73.4738 361.128C73.4738 361.789 73.3618 362.376 73.1378 362.888C72.9244 363.389 72.6364 363.816 72.2738 364.168C71.9111 364.509 71.4844 364.771 70.9938 364.952C70.5138 365.133 70.0124 365.224 69.4898 365.224C68.9564 365.224 68.4498 365.133 67.9698 364.952C67.4898 364.771 67.0684 364.509 66.7057 364.168C66.3431 363.816 66.0498 363.389 65.8258 362.888C65.6124 362.376 65.5058 361.789 65.5058 361.128V360.936C65.5058 360.285 65.6124 359.709 65.8258 359.208C66.0498 358.696 66.3431 358.264 66.7057 357.912C67.0791 357.56 67.5058 357.293 67.9858 357.112C68.4658 356.931 68.9671 356.84 69.4898 356.84C70.0124 356.84 70.5138 356.931 70.9938 357.112C71.4738 357.293 71.8951 357.56 72.2578 357.912C72.6311 358.264 72.9244 358.696 73.1378 359.208C73.3618 359.709 73.4738 360.285 73.4738 360.936V361.128ZM69.4898 364.04C69.8738 364.04 70.2258 363.976 70.5458 363.848C70.8764 363.709 71.1644 363.512 71.4098 363.256C71.6551 363 71.8471 362.696 71.9858 362.344C72.1244 361.981 72.1938 361.576 72.1938 361.128V360.936C72.1938 360.509 72.1244 360.12 71.9858 359.768C71.8471 359.405 71.6551 359.096 71.4098 358.84C71.1644 358.584 70.8764 358.387 70.5458 358.248C70.2151 358.099 69.8631 358.024 69.4898 358.024C69.1164 358.024 68.7644 358.099 68.4338 358.248C68.1031 358.387 67.8151 358.584 67.5698 358.84C67.3244 359.096 67.1324 359.405 66.9938 359.768C66.8551 360.12 66.7858 360.509 66.7858 360.936V361.128C66.7858 361.576 66.8551 361.981 66.9938 362.344C67.1324 362.696 67.3244 363 67.5698 363.256C67.8151 363.512 68.0978 363.709 68.4178 363.848C68.7484 363.976 69.1058 364.04 69.4898 364.04ZM83.2066 362.184C83.1213 362.621 82.972 363.027 82.7586 363.4C82.556 363.773 82.2946 364.099 81.9746 364.376C81.6546 364.643 81.2813 364.851 80.8546 365C80.428 365.149 79.9533 365.224 79.4306 365.224C78.876 365.224 78.348 365.133 77.8466 364.952C77.356 364.771 76.924 364.509 76.5506 364.168C76.1773 363.816 75.8786 363.389 75.6546 362.888C75.4413 362.387 75.3346 361.811 75.3346 361.16V360.968C75.3346 360.328 75.4413 359.752 75.6546 359.24C75.8786 358.728 76.1773 358.296 76.5506 357.944C76.924 357.592 77.356 357.32 77.8466 357.128C78.348 356.936 78.876 356.84 79.4306 356.84C79.932 356.84 80.396 356.915 80.8226 357.064C81.2493 357.213 81.6226 357.427 81.9426 357.704C82.2733 357.971 82.54 358.291 82.7426 358.664C82.956 359.037 83.1 359.443 83.1746 359.88L81.9266 360.168C81.8946 359.891 81.8146 359.624 81.6866 359.368C81.5693 359.101 81.404 358.872 81.1906 358.68C80.988 358.477 80.7373 358.317 80.4386 358.2C80.14 358.083 79.7933 358.024 79.3986 358.024C79.0146 358.024 78.652 358.099 78.3106 358.248C77.98 358.387 77.6866 358.589 77.4306 358.856C77.1746 359.112 76.972 359.421 76.8226 359.784C76.684 360.147 76.6146 360.541 76.6146 360.968V361.16C76.6146 361.608 76.684 362.013 76.8226 362.376C76.972 362.728 77.1746 363.027 77.4306 363.272C77.6866 363.517 77.9853 363.709 78.3266 363.848C78.668 363.976 79.036 364.04 79.4306 364.04C79.8253 364.04 80.1666 363.981 80.4546 363.864C80.7533 363.736 81.004 363.576 81.2066 363.384C81.42 363.181 81.5853 362.952 81.7026 362.696C81.8306 362.44 81.916 362.173 81.9586 361.896L83.2066 362.184ZM91.3395 363.656H91.1475C90.8915 364.189 90.5342 364.584 90.0755 364.84C89.6275 365.096 89.1528 365.224 88.6515 365.224C88.1288 365.224 87.6435 365.139 87.1955 364.968C86.7475 364.787 86.3528 364.525 86.0115 364.184C85.6808 363.832 85.4195 363.405 85.2275 362.904C85.0355 362.403 84.9395 361.821 84.9395 361.16V360.904C84.9395 360.253 85.0355 359.677 85.2275 359.176C85.4195 358.675 85.6808 358.253 86.0115 357.912C86.3528 357.56 86.7475 357.293 87.1955 357.112C87.6435 356.931 88.1182 356.84 88.6195 356.84C89.1635 356.84 89.6542 356.963 90.0915 357.208C90.5395 357.443 90.8915 357.811 91.1475 358.312H91.3395V357.064H92.5875V363.368C92.5875 363.688 92.7315 363.848 93.0195 363.848H93.4195V365H92.5715C92.2088 365 91.9102 364.883 91.6755 364.648C91.4515 364.413 91.3395 364.115 91.3395 363.752V363.656ZM88.7795 364.04C89.1528 364.04 89.4942 363.971 89.8035 363.832C90.1235 363.693 90.3955 363.496 90.6195 363.24C90.8435 362.984 91.0195 362.68 91.1475 362.328C91.2755 361.965 91.3395 361.565 91.3395 361.128V360.936C91.3395 360.509 91.2755 360.12 91.1475 359.768C91.0195 359.405 90.8382 359.096 90.6035 358.84C90.3795 358.584 90.1075 358.387 89.7875 358.248C89.4782 358.099 89.1422 358.024 88.7795 358.024C88.4062 358.024 88.0648 358.093 87.7555 358.232C87.4462 358.371 87.1742 358.568 86.9395 358.824C86.7155 359.069 86.5395 359.373 86.4115 359.736C86.2835 360.088 86.2195 360.477 86.2195 360.904V361.16C86.2195 362.067 86.4542 362.776 86.9235 363.288C87.4035 363.789 88.0222 364.04 88.7795 364.04ZM95.1044 357.064H97.6004V353.8H98.8484V357.064H101.92V358.216H98.8484V363.368C98.8484 363.688 98.9924 363.848 99.2804 363.848H101.536V365H98.8324C98.4697 365 98.171 364.883 97.9364 364.648C97.7124 364.413 97.6004 364.115 97.6004 363.752V358.216H95.1044V357.064ZM107.637 354.696C107.637 354.387 107.744 354.125 107.957 353.912C108.181 353.688 108.448 353.576 108.757 353.576C109.067 353.576 109.328 353.688 109.541 353.912C109.765 354.125 109.877 354.387 109.877 354.696C109.877 355.005 109.765 355.272 109.541 355.496C109.328 355.709 109.067 355.816 108.757 355.816C108.448 355.816 108.181 355.709 107.957 355.496C107.744 355.272 107.637 355.005 107.637 354.696ZM105.365 363.848H108.149V358.216H105.653V357.064H109.397V363.848H111.989V365H105.365V363.848ZM122.458 361.128C122.458 361.789 122.346 362.376 122.122 362.888C121.909 363.389 121.621 363.816 121.258 364.168C120.895 364.509 120.469 364.771 119.978 364.952C119.498 365.133 118.997 365.224 118.474 365.224C117.941 365.224 117.434 365.133 116.954 364.952C116.474 364.771 116.053 364.509 115.69 364.168C115.327 363.816 115.034 363.389 114.81 362.888C114.597 362.376 114.49 361.789 114.49 361.128V360.936C114.49 360.285 114.597 359.709 114.81 359.208C115.034 358.696 115.327 358.264 115.69 357.912C116.063 357.56 116.49 357.293 116.97 357.112C117.45 356.931 117.951 356.84 118.474 356.84C118.997 356.84 119.498 356.931 119.978 357.112C120.458 357.293 120.879 357.56 121.242 357.912C121.615 358.264 121.909 358.696 122.122 359.208C122.346 359.709 122.458 360.285 122.458 360.936V361.128ZM118.474 364.04C118.858 364.04 119.21 363.976 119.53 363.848C119.861 363.709 120.149 363.512 120.394 363.256C120.639 363 120.831 362.696 120.97 362.344C121.109 361.981 121.178 361.576 121.178 361.128V360.936C121.178 360.509 121.109 360.12 120.97 359.768C120.831 359.405 120.639 359.096 120.394 358.84C120.149 358.584 119.861 358.387 119.53 358.248C119.199 358.099 118.847 358.024 118.474 358.024C118.101 358.024 117.749 358.099 117.418 358.248C117.087 358.387 116.799 358.584 116.554 358.84C116.309 359.096 116.117 359.405 115.978 359.768C115.839 360.12 115.77 360.509 115.77 360.936V361.128C115.77 361.576 115.839 361.981 115.978 362.344C116.117 362.696 116.309 363 116.554 363.256C116.799 363.512 117.082 363.709 117.402 363.848C117.733 363.976 118.09 364.04 118.474 364.04ZM126.015 365H124.767V357.064H126.015V358.408H126.207C126.698 357.363 127.551 356.84 128.767 356.84C129.684 356.84 130.415 357.128 130.959 357.704C131.503 358.269 131.775 359.123 131.775 360.264V365H130.527V360.52C130.527 359.688 130.34 359.064 129.967 358.648C129.594 358.232 129.087 358.024 128.447 358.024C127.69 358.024 127.092 358.285 126.655 358.808C126.228 359.32 126.015 360.008 126.015 360.872V365ZM136.212 359.112C136.212 359.496 136.372 359.789 136.692 359.992C137.023 360.195 137.62 360.328 138.484 360.392C139.412 360.467 140.116 360.691 140.596 361.064C141.087 361.427 141.332 361.96 141.332 362.664V362.76C141.332 363.144 141.252 363.491 141.092 363.8C140.943 364.099 140.729 364.355 140.452 364.568C140.185 364.781 139.855 364.941 139.46 365.048C139.076 365.165 138.655 365.224 138.196 365.224C137.577 365.224 137.044 365.144 136.596 364.984C136.159 364.813 135.791 364.595 135.492 364.328C135.204 364.051 134.985 363.741 134.836 363.4C134.687 363.048 134.601 362.696 134.58 362.344L135.764 362.056C135.817 362.664 136.052 363.155 136.468 363.528C136.884 363.891 137.439 364.072 138.132 364.072C138.719 364.072 139.188 363.96 139.54 363.736C139.903 363.501 140.084 363.176 140.084 362.76C140.084 362.312 139.908 361.992 139.556 361.8C139.204 361.608 138.633 361.485 137.844 361.432C136.927 361.368 136.223 361.155 135.732 360.792C135.241 360.429 134.996 359.901 134.996 359.208V359.112C134.996 358.739 135.076 358.413 135.236 358.136C135.396 357.848 135.609 357.608 135.876 357.416C136.153 357.224 136.463 357.08 136.804 356.984C137.145 356.888 137.503 356.84 137.876 356.84C138.399 356.84 138.857 356.915 139.252 357.064C139.647 357.203 139.977 357.389 140.244 357.624C140.511 357.848 140.713 358.109 140.852 358.408C141.001 358.707 141.097 359.005 141.14 359.304L139.956 359.592C139.903 359.08 139.695 358.68 139.332 358.392C138.98 358.104 138.516 357.96 137.94 357.96C137.716 357.96 137.497 357.987 137.284 358.04C137.081 358.083 136.9 358.152 136.74 358.248C136.58 358.344 136.452 358.467 136.356 358.616C136.26 358.755 136.212 358.92 136.212 359.112ZM145.465 360.264H150.265V361.416H145.465V360.264ZM154.158 363.848H157.038V354.952H154.254V353.8H158.286V363.848H161.166V365H154.158V363.848ZM166.419 354.696C166.419 354.387 166.525 354.125 166.739 353.912C166.963 353.688 167.229 353.576 167.539 353.576C167.848 353.576 168.109 353.688 168.323 353.912C168.547 354.125 168.659 354.387 168.659 354.696C168.659 355.005 168.547 355.272 168.323 355.496C168.109 355.709 167.848 355.816 167.539 355.816C167.229 355.816 166.963 355.709 166.739 355.496C166.525 355.272 166.419 355.005 166.419 354.696ZM164.147 363.848H166.931V358.216H164.435V357.064H168.179V363.848H170.771V365H164.147V363.848ZM175.399 359.112C175.399 359.496 175.559 359.789 175.879 359.992C176.21 360.195 176.807 360.328 177.671 360.392C178.599 360.467 179.303 360.691 179.783 361.064C180.274 361.427 180.519 361.96 180.519 362.664V362.76C180.519 363.144 180.439 363.491 180.279 363.8C180.13 364.099 179.917 364.355 179.639 364.568C179.373 364.781 179.042 364.941 178.647 365.048C178.263 365.165 177.842 365.224 177.383 365.224C176.765 365.224 176.231 365.144 175.783 364.984C175.346 364.813 174.978 364.595 174.679 364.328C174.391 364.051 174.173 363.741 174.023 363.4C173.874 363.048 173.789 362.696 173.767 362.344L174.951 362.056C175.005 362.664 175.239 363.155 175.655 363.528C176.071 363.891 176.626 364.072 177.319 364.072C177.906 364.072 178.375 363.96 178.727 363.736C179.09 363.501 179.271 363.176 179.271 362.76C179.271 362.312 179.095 361.992 178.743 361.8C178.391 361.608 177.821 361.485 177.031 361.432C176.114 361.368 175.41 361.155 174.919 360.792C174.429 360.429 174.183 359.901 174.183 359.208V359.112C174.183 358.739 174.263 358.413 174.423 358.136C174.583 357.848 174.797 357.608 175.063 357.416C175.341 357.224 175.65 357.08 175.991 356.984C176.333 356.888 176.69 356.84 177.063 356.84C177.586 356.84 178.045 356.915 178.439 357.064C178.834 357.203 179.165 357.389 179.431 357.624C179.698 357.848 179.901 358.109 180.039 358.408C180.189 358.707 180.285 359.005 180.327 359.304L179.143 359.592C179.09 359.08 178.882 358.68 178.519 358.392C178.167 358.104 177.703 357.96 177.127 357.96C176.903 357.96 176.685 357.987 176.471 358.04C176.269 358.083 176.087 358.152 175.927 358.248C175.767 358.344 175.639 358.467 175.543 358.616C175.447 358.755 175.399 358.92 175.399 359.112ZM183.276 357.064H185.772V353.8H187.02V357.064H190.092V358.216H187.02V363.368C187.02 363.688 187.164 363.848 187.452 363.848H189.708V365H187.004C186.642 365 186.343 364.883 186.108 364.648C185.884 364.413 185.772 364.115 185.772 363.752V358.216H183.276V357.064Z" fill="black"/>
<line x1="200" y1="208" x2="231" y2="208" stroke="#FFC602" stroke-width="4"/>
<path d="M240.617 207.149C241.252 207.539 241.252 208.461 240.617 208.851L232.274 213.989C231.608 214.4 230.75 213.92 230.75 213.138L230.75 202.862C230.75 202.08 231.608 201.6 232.274 202.011L240.617 207.149Z" fill="#FFC602"/>
<rect x="159" y="206" width="43" height="28" rx="2" fill="#FFC602"/>
<path d="M162.776 225.104C162.776 224.795 162.883 224.533 163.096 224.32C163.32 224.096 163.587 223.984 163.896 223.984C164.205 223.984 164.467 224.096 164.68 224.32C164.904 224.533 165.016 224.795 165.016 225.104C165.016 225.413 164.904 225.68 164.68 225.904C164.467 226.117 164.205 226.224 163.896 226.224C163.587 226.224 163.32 226.117 163.096 225.904C162.883 225.68 162.776 225.413 162.776 225.104ZM177.821 226H176.573V220.304C176.573 219.931 176.488 219.627 176.317 219.392C176.146 219.147 175.874 219.024 175.501 219.024C175.149 219.024 174.861 219.157 174.637 219.424C174.424 219.68 174.317 220.08 174.317 220.624V226H173.069V220.24C173.069 219.888 172.973 219.6 172.781 219.376C172.589 219.141 172.333 219.024 172.013 219.024C171.629 219.024 171.33 219.163 171.117 219.44C170.914 219.717 170.813 220.08 170.813 220.528V226H169.565V218.064H170.813V218.928H171.005C171.144 218.555 171.346 218.283 171.613 218.112C171.88 217.931 172.194 217.84 172.557 217.84C172.941 217.84 173.256 217.941 173.501 218.144C173.757 218.347 173.933 218.608 174.029 218.928H174.221C174.584 218.203 175.16 217.84 175.949 217.84C176.546 217.84 177.005 218.032 177.325 218.416C177.656 218.789 177.821 219.28 177.821 219.888V226ZM185.746 224.656H185.554C185.298 225.189 184.94 225.584 184.482 225.84C184.034 226.096 183.559 226.224 183.058 226.224C182.535 226.224 182.05 226.139 181.602 225.968C181.154 225.787 180.759 225.525 180.418 225.184C180.087 224.832 179.826 224.405 179.634 223.904C179.442 223.403 179.346 222.821 179.346 222.16V221.904C179.346 221.253 179.442 220.677 179.634 220.176C179.826 219.675 180.087 219.253 180.418 218.912C180.759 218.56 181.154 218.293 181.602 218.112C182.05 217.931 182.524 217.84 183.026 217.84C183.57 217.84 184.06 217.963 184.498 218.208C184.946 218.443 185.298 218.811 185.554 219.312H185.746V218.064H186.994V224.368C186.994 224.688 187.138 224.848 187.426 224.848H187.826V226H186.978C186.615 226 186.316 225.883 186.082 225.648C185.858 225.413 185.746 225.115 185.746 224.752V224.656ZM183.186 225.04C183.559 225.04 183.9 224.971 184.21 224.832C184.53 224.693 184.802 224.496 185.026 224.24C185.25 223.984 185.426 223.68 185.554 223.328C185.682 222.965 185.746 222.565 185.746 222.128V221.936C185.746 221.509 185.682 221.12 185.554 220.768C185.426 220.405 185.244 220.096 185.01 219.84C184.786 219.584 184.514 219.387 184.194 219.248C183.884 219.099 183.548 219.024 183.186 219.024C182.812 219.024 182.471 219.093 182.162 219.232C181.852 219.371 181.58 219.568 181.346 219.824C181.122 220.069 180.946 220.373 180.818 220.736C180.69 221.088 180.626 221.477 180.626 221.904V222.16C180.626 223.067 180.86 223.776 181.33 224.288C181.81 224.789 182.428 225.04 183.186 225.04ZM190.743 229.2H189.495V218.064H190.743V219.312H190.935C191.212 218.832 191.596 218.469 192.087 218.224C192.577 217.968 193.111 217.84 193.687 217.84C194.177 217.84 194.641 217.931 195.079 218.112C195.516 218.293 195.9 218.555 196.231 218.896C196.572 219.237 196.839 219.659 197.031 220.16C197.233 220.661 197.335 221.232 197.335 221.872V222.192C197.335 222.843 197.239 223.419 197.047 223.92C196.855 224.421 196.588 224.843 196.247 225.184C195.916 225.525 195.527 225.787 195.079 225.968C194.631 226.139 194.156 226.224 193.655 226.224C193.399 226.224 193.137 226.192 192.871 226.128C192.604 226.075 192.348 225.989 192.103 225.872C191.868 225.744 191.649 225.595 191.447 225.424C191.244 225.243 191.073 225.029 190.935 224.784H190.743V229.2ZM193.399 225.04C193.783 225.04 194.135 224.976 194.455 224.848C194.775 224.709 195.052 224.517 195.287 224.272C195.532 224.027 195.719 223.728 195.847 223.376C195.985 223.024 196.055 222.629 196.055 222.192V221.872C196.055 221.445 195.985 221.061 195.847 220.72C195.719 220.368 195.532 220.069 195.287 219.824C195.052 219.568 194.769 219.371 194.439 219.232C194.119 219.093 193.772 219.024 193.399 219.024C193.025 219.024 192.679 219.099 192.359 219.248C192.039 219.387 191.756 219.584 191.511 219.84C191.276 220.096 191.089 220.405 190.951 220.768C190.812 221.12 190.743 221.509 190.743 221.936V222.128C190.743 222.565 190.812 222.965 190.951 223.328C191.089 223.68 191.276 223.984 191.511 224.24C191.756 224.496 192.039 224.693 192.359 224.832C192.679 224.971 193.025 225.04 193.399 225.04Z" fill="black"/>
<line x1="583" y1="450" x2="583" y2="417" stroke="#FD94FF" stroke-width="4"/>
<path d="M582.149 407.383C582.539 406.748 583.461 406.748 583.851 407.383L588.989 415.726C589.4 416.392 588.92 417.25 588.138 417.25H577.862C577.08 417.25 576.6 416.392 577.011 415.726L582.149 407.383Z" fill="#FD94FF"/>
<rect x="581" y="447" width="152" height="35" rx="2" fill="#FD94FF"/>
<path d="M591.96 469.976C592.419 469.976 592.808 469.901 593.128 469.752C593.459 469.592 593.725 469.384 593.928 469.128C594.141 468.861 594.296 468.563 594.392 468.232C594.499 467.891 594.552 467.533 594.552 467.16V466.968H595.896V467.16C595.896 467.725 595.811 468.259 595.64 468.76C595.469 469.251 595.219 469.683 594.888 470.056C594.557 470.419 594.147 470.707 593.656 470.92C593.165 471.123 592.6 471.224 591.96 471.224C590.723 471.224 589.757 470.835 589.064 470.056C588.371 469.277 588.024 468.141 588.024 466.648V464.152C588.024 462.701 588.371 461.576 589.064 460.776C589.757 459.976 590.723 459.576 591.96 459.576C592.6 459.576 593.165 459.683 593.656 459.896C594.147 460.099 594.557 460.387 594.888 460.76C595.219 461.123 595.469 461.555 595.64 462.056C595.811 462.547 595.896 463.075 595.896 463.64V463.832H594.552V463.64C594.541 463.277 594.483 462.925 594.376 462.584C594.28 462.243 594.125 461.944 593.912 461.688C593.709 461.421 593.448 461.213 593.128 461.064C592.808 460.904 592.419 460.824 591.96 460.824C591.096 460.824 590.445 461.139 590.008 461.768C589.581 462.397 589.368 463.224 589.368 464.248V466.552C589.368 467.651 589.581 468.499 590.008 469.096C590.445 469.683 591.096 469.976 591.96 469.976ZM603.949 469.656H603.757C603.501 470.189 603.144 470.584 602.685 470.84C602.237 471.096 601.762 471.224 601.261 471.224C600.738 471.224 600.253 471.139 599.805 470.968C599.357 470.787 598.962 470.525 598.621 470.184C598.29 469.832 598.029 469.405 597.837 468.904C597.645 468.403 597.549 467.821 597.549 467.16V466.904C597.549 466.253 597.645 465.677 597.837 465.176C598.029 464.675 598.29 464.253 598.621 463.912C598.962 463.56 599.357 463.293 599.805 463.112C600.253 462.931 600.728 462.84 601.229 462.84C601.773 462.84 602.264 462.963 602.701 463.208C603.149 463.443 603.501 463.811 603.757 464.312H603.949V463.064H605.197V469.368C605.197 469.688 605.341 469.848 605.629 469.848H606.029V471H605.181C604.818 471 604.52 470.883 604.285 470.648C604.061 470.413 603.949 470.115 603.949 469.752V469.656ZM601.389 470.04C601.762 470.04 602.104 469.971 602.413 469.832C602.733 469.693 603.005 469.496 603.229 469.24C603.453 468.984 603.629 468.68 603.757 468.328C603.885 467.965 603.949 467.565 603.949 467.128V466.936C603.949 466.509 603.885 466.12 603.757 465.768C603.629 465.405 603.448 465.096 603.213 464.84C602.989 464.584 602.717 464.387 602.397 464.248C602.088 464.099 601.752 464.024 601.389 464.024C601.016 464.024 600.674 464.093 600.365 464.232C600.056 464.371 599.784 464.568 599.549 464.824C599.325 465.069 599.149 465.373 599.021 465.736C598.893 466.088 598.829 466.477 598.829 466.904V467.16C598.829 468.067 599.064 468.776 599.533 469.288C600.013 469.789 600.632 470.04 601.389 470.04ZM607.986 469.848H610.866V460.952H608.082V459.8H612.114V469.848H614.994V471H607.986V469.848ZM625.207 468.184C625.121 468.621 624.972 469.027 624.759 469.4C624.556 469.773 624.295 470.099 623.975 470.376C623.655 470.643 623.281 470.851 622.855 471C622.428 471.149 621.953 471.224 621.431 471.224C620.876 471.224 620.348 471.133 619.847 470.952C619.356 470.771 618.924 470.509 618.551 470.168C618.177 469.816 617.879 469.389 617.655 468.888C617.441 468.387 617.335 467.811 617.335 467.16V466.968C617.335 466.328 617.441 465.752 617.655 465.24C617.879 464.728 618.177 464.296 618.551 463.944C618.924 463.592 619.356 463.32 619.847 463.128C620.348 462.936 620.876 462.84 621.431 462.84C621.932 462.84 622.396 462.915 622.823 463.064C623.249 463.213 623.623 463.427 623.943 463.704C624.273 463.971 624.54 464.291 624.743 464.664C624.956 465.037 625.1 465.443 625.175 465.88L623.927 466.168C623.895 465.891 623.815 465.624 623.687 465.368C623.569 465.101 623.404 464.872 623.191 464.68C622.988 464.477 622.737 464.317 622.439 464.2C622.14 464.083 621.793 464.024 621.399 464.024C621.015 464.024 620.652 464.099 620.311 464.248C619.98 464.387 619.687 464.589 619.431 464.856C619.175 465.112 618.972 465.421 618.823 465.784C618.684 466.147 618.615 466.541 618.615 466.968V467.16C618.615 467.608 618.684 468.013 618.823 468.376C618.972 468.728 619.175 469.027 619.431 469.272C619.687 469.517 619.985 469.709 620.327 469.848C620.668 469.976 621.036 470.04 621.431 470.04C621.825 470.04 622.167 469.981 622.455 469.864C622.753 469.736 623.004 469.576 623.207 469.384C623.42 469.181 623.585 468.952 623.703 468.696C623.831 468.44 623.916 468.173 623.959 467.896L625.207 468.184ZM633.244 463.064H634.492V471H633.244V469.56H633.052C632.796 470.072 632.46 470.477 632.044 470.776C631.628 471.075 631.1 471.224 630.46 471.224C630.022 471.224 629.617 471.149 629.244 471C628.881 470.861 628.566 470.648 628.299 470.36C628.044 470.072 627.841 469.715 627.692 469.288C627.553 468.861 627.484 468.365 627.484 467.8V463.064H628.732V467.64C628.732 468.472 628.902 469.08 629.244 469.464C629.585 469.848 630.108 470.04 630.812 470.04C631.569 470.04 632.161 469.784 632.588 469.272C633.025 468.749 633.244 468.056 633.244 467.192V463.064ZM637.376 469.848H640.256V460.952H637.472V459.8H641.504V469.848H644.384V471H637.376V469.848ZM652.933 469.656H652.741C652.485 470.189 652.128 470.584 651.669 470.84C651.221 471.096 650.747 471.224 650.245 471.224C649.723 471.224 649.237 471.139 648.789 470.968C648.341 470.787 647.947 470.525 647.605 470.184C647.275 469.832 647.013 469.405 646.821 468.904C646.629 468.403 646.533 467.821 646.533 467.16V466.904C646.533 466.253 646.629 465.677 646.821 465.176C647.013 464.675 647.275 464.253 647.605 463.912C647.947 463.56 648.341 463.293 648.789 463.112C649.237 462.931 649.712 462.84 650.213 462.84C650.757 462.84 651.248 462.963 651.685 463.208C652.133 463.443 652.485 463.811 652.741 464.312H652.933V463.064H654.181V469.368C654.181 469.688 654.325 469.848 654.613 469.848H655.013V471H654.165C653.803 471 653.504 470.883 653.269 470.648C653.045 470.413 652.933 470.115 652.933 469.752V469.656ZM650.373 470.04C650.747 470.04 651.088 469.971 651.397 469.832C651.717 469.693 651.989 469.496 652.213 469.24C652.437 468.984 652.613 468.68 652.741 468.328C652.869 467.965 652.933 467.565 652.933 467.128V466.936C652.933 466.509 652.869 466.12 652.741 465.768C652.613 465.405 652.432 465.096 652.197 464.84C651.973 464.584 651.701 464.387 651.381 464.248C651.072 464.099 650.736 464.024 650.373 464.024C650 464.024 649.659 464.093 649.349 464.232C649.04 464.371 648.768 464.568 648.533 464.824C648.309 465.069 648.133 465.373 648.005 465.736C647.877 466.088 647.813 466.477 647.813 466.904V467.16C647.813 468.067 648.048 468.776 648.517 469.288C648.997 469.789 649.616 470.04 650.373 470.04ZM656.698 463.064H659.194V459.8H660.442V463.064H663.514V464.216H660.442V469.368C660.442 469.688 660.586 469.848 660.874 469.848H663.13V471H660.426C660.063 471 659.765 470.883 659.53 470.648C659.306 470.413 659.194 470.115 659.194 469.752V464.216H656.698V463.064ZM674.255 467.128C674.255 467.789 674.143 468.376 673.919 468.888C673.706 469.389 673.418 469.816 673.055 470.168C672.692 470.509 672.266 470.771 671.775 470.952C671.295 471.133 670.794 471.224 670.271 471.224C669.738 471.224 669.231 471.133 668.751 470.952C668.271 470.771 667.85 470.509 667.487 470.168C667.124 469.816 666.831 469.389 666.607 468.888C666.394 468.376 666.287 467.789 666.287 467.128V466.936C666.287 466.285 666.394 465.709 666.607 465.208C666.831 464.696 667.124 464.264 667.487 463.912C667.86 463.56 668.287 463.293 668.767 463.112C669.247 462.931 669.748 462.84 670.271 462.84C670.794 462.84 671.295 462.931 671.775 463.112C672.255 463.293 672.676 463.56 673.039 463.912C673.412 464.264 673.706 464.696 673.919 465.208C674.143 465.709 674.255 466.285 674.255 466.936V467.128ZM670.271 470.04C670.655 470.04 671.007 469.976 671.327 469.848C671.658 469.709 671.946 469.512 672.191 469.256C672.436 469 672.628 468.696 672.767 468.344C672.906 467.981 672.975 467.576 672.975 467.128V466.936C672.975 466.509 672.906 466.12 672.767 465.768C672.628 465.405 672.436 465.096 672.191 464.84C671.946 464.584 671.658 464.387 671.327 464.248C670.996 464.099 670.644 464.024 670.271 464.024C669.898 464.024 669.546 464.099 669.215 464.248C668.884 464.387 668.596 464.584 668.351 464.84C668.106 465.096 667.914 465.405 667.775 465.768C667.636 466.12 667.567 466.509 667.567 466.936V467.128C667.567 467.576 667.636 467.981 667.775 468.344C667.914 468.696 668.106 469 668.351 469.256C668.596 469.512 668.879 469.709 669.199 469.848C669.53 469.976 669.887 470.04 670.271 470.04ZM676.116 463.064H678.996V464.12H679.188C679.391 463.683 679.679 463.363 680.052 463.16C680.425 462.947 680.852 462.84 681.332 462.84C682.132 462.84 682.777 463.101 683.268 463.624C683.759 464.147 684.02 464.909 684.052 465.912L682.74 466.104C682.74 465.368 682.564 464.84 682.212 464.52C681.86 464.189 681.428 464.024 680.916 464.024C680.585 464.024 680.297 464.088 680.052 464.216C679.817 464.344 679.62 464.52 679.46 464.744C679.3 464.968 679.183 465.229 679.108 465.528C679.033 465.827 678.996 466.147 678.996 466.488V469.848H681.012V471H675.924V469.848H677.748V464.216H676.116V463.064ZM702.062 468.216H697.262L696.446 471H695.006L698.398 459.8H700.926L704.318 471H702.878L702.062 468.216ZM699.566 460.376L697.63 466.968H701.694L699.758 460.376H699.566ZM706.914 474.2H705.667V463.064H706.914V464.312H707.107C707.384 463.832 707.768 463.469 708.259 463.224C708.749 462.968 709.283 462.84 709.859 462.84C710.349 462.84 710.813 462.931 711.251 463.112C711.688 463.293 712.072 463.555 712.403 463.896C712.744 464.237 713.011 464.659 713.203 465.16C713.405 465.661 713.507 466.232 713.507 466.872V467.192C713.507 467.843 713.411 468.419 713.219 468.92C713.027 469.421 712.76 469.843 712.419 470.184C712.088 470.525 711.699 470.787 711.251 470.968C710.803 471.139 710.328 471.224 709.827 471.224C709.571 471.224 709.309 471.192 709.043 471.128C708.776 471.075 708.52 470.989 708.275 470.872C708.04 470.744 707.821 470.595 707.619 470.424C707.416 470.243 707.245 470.029 707.107 469.784H706.914V474.2ZM709.571 470.04C709.955 470.04 710.307 469.976 710.627 469.848C710.947 469.709 711.224 469.517 711.459 469.272C711.704 469.027 711.891 468.728 712.019 468.376C712.157 468.024 712.227 467.629 712.227 467.192V466.872C712.227 466.445 712.157 466.061 712.019 465.72C711.891 465.368 711.704 465.069 711.459 464.824C711.224 464.568 710.941 464.371 710.611 464.232C710.291 464.093 709.944 464.024 709.571 464.024C709.197 464.024 708.851 464.099 708.531 464.248C708.211 464.387 707.928 464.584 707.683 464.84C707.448 465.096 707.261 465.405 707.123 465.768C706.984 466.12 706.914 466.509 706.914 466.936V467.128C706.914 467.565 706.984 467.965 707.123 468.328C707.261 468.68 707.448 468.984 707.683 469.24C707.928 469.496 708.211 469.693 708.531 469.832C708.851 469.971 709.197 470.04 709.571 470.04ZM716.711 474.2H715.463V463.064H716.711V464.312H716.903C717.181 463.832 717.565 463.469 718.055 463.224C718.546 462.968 719.079 462.84 719.655 462.84C720.146 462.84 720.61 462.931 721.047 463.112C721.485 463.293 721.869 463.555 722.199 463.896C722.541 464.237 722.807 464.659 722.999 465.16C723.202 465.661 723.303 466.232 723.303 466.872V467.192C723.303 467.843 723.207 468.419 723.015 468.92C722.823 469.421 722.557 469.843 722.215 470.184C721.885 470.525 721.495 470.787 721.047 470.968C720.599 471.139 720.125 471.224 719.623 471.224C719.367 471.224 719.106 471.192 718.839 471.128C718.573 471.075 718.317 470.989 718.071 470.872C717.837 470.744 717.618 470.595 717.415 470.424C717.213 470.243 717.042 470.029 716.903 469.784H716.711V474.2ZM719.367 470.04C719.751 470.04 720.103 469.976 720.423 469.848C720.743 469.709 721.021 469.517 721.255 469.272C721.501 469.027 721.687 468.728 721.815 468.376C721.954 468.024 722.023 467.629 722.023 467.192V466.872C722.023 466.445 721.954 466.061 721.815 465.72C721.687 465.368 721.501 465.069 721.255 464.824C721.021 464.568 720.738 464.371 720.407 464.232C720.087 464.093 719.741 464.024 719.367 464.024C718.994 464.024 718.647 464.099 718.327 464.248C718.007 464.387 717.725 464.584 717.479 464.84C717.245 465.096 717.058 465.405 716.919 465.768C716.781 466.12 716.711 466.509 716.711 466.936V467.128C716.711 467.565 716.781 467.965 716.919 468.328C717.058 468.68 717.245 468.984 717.479 469.24C717.725 469.496 718.007 469.693 718.327 469.832C718.647 469.971 718.994 470.04 719.367 470.04Z" fill="black"/>
<line x1="383" y1="450" x2="383" y2="417" stroke="#FD94FF" stroke-width="4"/>
<path d="M382.149 407.383C382.539 406.748 383.461 406.748 383.851 407.383L388.989 415.726C389.4 416.392 388.92 417.25 388.138 417.25H377.862C377.08 417.25 376.6 416.392 377.011 415.726L382.149 407.383Z" fill="#FD94FF"/>
<rect x="381" y="447" width="81" height="35" rx="2" fill="#FD94FF"/>
<path d="M387.912 469.752H388.872V461.048H387.912V459.8H392.44C392.973 459.8 393.443 459.875 393.848 460.024C394.264 460.173 394.611 460.376 394.888 460.632C395.176 460.888 395.389 461.197 395.528 461.56C395.677 461.912 395.752 462.296 395.752 462.712V462.904C395.752 463.213 395.704 463.496 395.608 463.752C395.512 464.008 395.379 464.237 395.208 464.44C395.037 464.643 394.835 464.819 394.6 464.968C394.376 465.107 394.131 465.213 393.864 465.288V465.48C394.397 465.629 394.845 465.917 395.208 466.344C395.571 466.76 395.752 467.272 395.752 467.88V468.072C395.752 468.488 395.677 468.877 395.528 469.24C395.389 469.592 395.176 469.901 394.888 470.168C394.611 470.424 394.264 470.627 393.848 470.776C393.443 470.925 392.973 471 392.44 471H387.912V469.752ZM390.216 469.752H392.344C392.973 469.752 393.485 469.597 393.88 469.288C394.275 468.968 394.472 468.531 394.472 467.976V467.88C394.472 467.304 394.285 466.851 393.912 466.52C393.539 466.179 393.032 466.008 392.392 466.008H390.216V469.752ZM390.216 464.76H392.392C393.032 464.76 393.539 464.595 393.912 464.264C394.285 463.933 394.472 463.48 394.472 462.904V462.808C394.472 462.264 394.275 461.837 393.88 461.528C393.485 461.208 392.973 461.048 392.344 461.048H390.216V464.76ZM397.741 463.064H400.621V464.12H400.813C401.016 463.683 401.304 463.363 401.677 463.16C402.05 462.947 402.477 462.84 402.957 462.84C403.757 462.84 404.402 463.101 404.893 463.624C405.384 464.147 405.645 464.909 405.677 465.912L404.365 466.104C404.365 465.368 404.189 464.84 403.837 464.52C403.485 464.189 403.053 464.024 402.541 464.024C402.21 464.024 401.922 464.088 401.677 464.216C401.442 464.344 401.245 464.52 401.085 464.744C400.925 464.968 400.808 465.229 400.733 465.528C400.658 465.827 400.621 466.147 400.621 466.488V469.848H402.637V471H397.549V469.848H399.373V464.216H397.741V463.064ZM415.474 467.128C415.474 467.789 415.362 468.376 415.138 468.888C414.924 469.389 414.636 469.816 414.274 470.168C413.911 470.509 413.484 470.771 412.994 470.952C412.514 471.133 412.012 471.224 411.49 471.224C410.956 471.224 410.45 471.133 409.97 470.952C409.49 470.771 409.068 470.509 408.706 470.168C408.343 469.816 408.05 469.389 407.826 468.888C407.612 468.376 407.506 467.789 407.506 467.128V466.936C407.506 466.285 407.612 465.709 407.826 465.208C408.05 464.696 408.343 464.264 408.706 463.912C409.079 463.56 409.506 463.293 409.986 463.112C410.466 462.931 410.967 462.84 411.49 462.84C412.012 462.84 412.514 462.931 412.994 463.112C413.474 463.293 413.895 463.56 414.258 463.912C414.631 464.264 414.924 464.696 415.138 465.208C415.362 465.709 415.474 466.285 415.474 466.936V467.128ZM411.49 470.04C411.874 470.04 412.226 469.976 412.546 469.848C412.876 469.709 413.164 469.512 413.41 469.256C413.655 469 413.847 468.696 413.986 468.344C414.124 467.981 414.194 467.576 414.194 467.128V466.936C414.194 466.509 414.124 466.12 413.986 465.768C413.847 465.405 413.655 465.096 413.41 464.84C413.164 464.584 412.876 464.387 412.546 464.248C412.215 464.099 411.863 464.024 411.49 464.024C411.116 464.024 410.764 464.099 410.434 464.248C410.103 464.387 409.815 464.584 409.57 464.84C409.324 465.096 409.132 465.405 408.994 465.768C408.855 466.12 408.786 466.509 408.786 466.936V467.128C408.786 467.576 408.855 467.981 408.994 468.344C409.132 468.696 409.324 469 409.57 469.256C409.815 469.512 410.098 469.709 410.418 469.848C410.748 469.976 411.106 470.04 411.49 470.04ZM424.647 471H422.343L421.383 463.64H421.191L420.231 471H417.927L416.679 463.064H417.959L419.015 470.424H419.207L420.135 463.064H422.439L423.367 470.424H423.559L424.615 463.064H425.895L424.647 471ZM429.228 465.112C429.228 465.496 429.388 465.789 429.708 465.992C430.038 466.195 430.636 466.328 431.5 466.392C432.428 466.467 433.132 466.691 433.612 467.064C434.102 467.427 434.348 467.96 434.348 468.664V468.76C434.348 469.144 434.268 469.491 434.108 469.8C433.958 470.099 433.745 470.355 433.468 470.568C433.201 470.781 432.87 470.941 432.476 471.048C432.092 471.165 431.67 471.224 431.212 471.224C430.593 471.224 430.06 471.144 429.612 470.984C429.174 470.813 428.806 470.595 428.508 470.328C428.22 470.051 428.001 469.741 427.852 469.4C427.702 469.048 427.617 468.696 427.596 468.344L428.78 468.056C428.833 468.664 429.068 469.155 429.484 469.528C429.9 469.891 430.454 470.072 431.148 470.072C431.734 470.072 432.204 469.96 432.556 469.736C432.918 469.501 433.1 469.176 433.1 468.76C433.1 468.312 432.924 467.992 432.572 467.8C432.22 467.608 431.649 467.485 430.86 467.432C429.942 467.368 429.238 467.155 428.748 466.792C428.257 466.429 428.012 465.901 428.012 465.208V465.112C428.012 464.739 428.092 464.413 428.252 464.136C428.412 463.848 428.625 463.608 428.892 463.416C429.169 463.224 429.478 463.08 429.82 462.984C430.161 462.888 430.518 462.84 430.891 462.84C431.414 462.84 431.873 462.915 432.268 463.064C432.662 463.203 432.993 463.389 433.26 463.624C433.526 463.848 433.729 464.109 433.868 464.408C434.017 464.707 434.113 465.005 434.156 465.304L432.972 465.592C432.918 465.08 432.71 464.68 432.348 464.392C431.996 464.104 431.532 463.96 430.956 463.96C430.732 463.96 430.513 463.987 430.299 464.04C430.097 464.083 429.916 464.152 429.756 464.248C429.596 464.344 429.468 464.467 429.372 464.616C429.276 464.755 429.228 464.92 429.228 465.112ZM438.288 467.416C438.32 468.205 438.566 468.84 439.024 469.32C439.483 469.8 440.123 470.04 440.944 470.04C441.318 470.04 441.643 469.997 441.92 469.912C442.198 469.827 442.432 469.709 442.624 469.56C442.827 469.411 442.987 469.24 443.104 469.048C443.232 468.845 443.334 468.632 443.408 468.408L444.592 468.728C444.368 469.464 443.952 470.067 443.344 470.536C442.747 470.995 441.936 471.224 440.912 471.224C440.347 471.224 439.824 471.128 439.344 470.936C438.875 470.733 438.47 470.451 438.128 470.088C437.787 469.725 437.52 469.293 437.328 468.792C437.136 468.291 437.04 467.736 437.04 467.128V466.744C437.04 466.189 437.136 465.672 437.328 465.192C437.531 464.712 437.808 464.301 438.16 463.96C438.512 463.608 438.923 463.336 439.392 463.144C439.872 462.941 440.39 462.84 440.944 462.84C441.595 462.84 442.155 462.963 442.624 463.208C443.104 463.443 443.494 463.736 443.792 464.088C444.102 464.44 444.326 464.824 444.464 465.24C444.614 465.656 444.688 466.04 444.688 466.392V467.416H438.288ZM440.944 464.024C440.592 464.024 440.262 464.083 439.952 464.2C439.654 464.307 439.387 464.461 439.152 464.664C438.928 464.867 438.742 465.107 438.592 465.384C438.454 465.651 438.363 465.944 438.32 466.264H443.44C443.419 465.923 443.334 465.613 443.184 465.336C443.046 465.059 442.859 464.824 442.624 464.632C442.4 464.44 442.139 464.291 441.84 464.184C441.552 464.077 441.254 464.024 440.944 464.024ZM446.725 463.064H449.605V464.12H449.797C450 463.683 450.288 463.363 450.661 463.16C451.035 462.947 451.461 462.84 451.941 462.84C452.741 462.84 453.387 463.101 453.877 463.624C454.368 464.147 454.629 464.909 454.661 465.912L453.349 466.104C453.349 465.368 453.173 464.84 452.821 464.52C452.469 464.189 452.037 464.024 451.525 464.024C451.195 464.024 450.907 464.088 450.661 464.216C450.427 464.344 450.229 464.52 450.069 464.744C449.909 464.968 449.792 465.229 449.717 465.528C449.643 465.827 449.605 466.147 449.605 466.488V469.848H451.621V471H446.533V469.848H448.357V464.216H446.725V463.064Z" fill="black"/>
<defs>
<clipPath id="clip0">
<rect width="252" height="287" fill="white" transform="translate(227 130)"/>
</clipPath>
<clipPath id="clip1">
<rect width="252" height="287" fill="white" transform="translate(227 274)"/>
</clipPath>
</defs>
</svg>
