<svg width="960" height="512" viewBox="0 0 960 512" fill="none" xmlns="http://www.w3.org/2000/svg">
<rect width="960" height="512" fill="white"/>
<rect x="224.5" y="64.5" width="257" height="355" rx="3.5" fill="#0E71F2" stroke="#0F2645" stroke-width="5"/>
<rect x="492.5" y="64.5" width="257" height="355" rx="3.5" fill="#0E71F2" stroke="#0F2645" stroke-width="5"/>
<rect x="227" y="67" width="252" height="63" fill="white" fill-opacity="0.99"/>
<rect x="495" y="67" width="252" height="63" fill="white" fill-opacity="0.99"/>
<rect x="708" y="73" width="14" height="14" rx="3" fill="#C8DFFC"/>
<rect x="727" y="73" width="14" height="14" rx="3" fill="#C8DFFC"/>
<path d="M261 99C261 95.6863 263.686 93 267 93H479V124H267C263.686 124 261 121.314 261 118V99Z" fill="#0E71F2" fill-opacity="0.22"/>
<path d="M495 93H735C738.314 93 741 95.6863 741 99V118C741 121.314 738.314 124 735 124H495V93Z" fill="#0E71F2" fill-opacity="0.22"/>
<path d="M242.2 114.6L235.4 107.8L242.2 101" stroke="#C8DFFC" stroke-width="2"/>
<path d="M250.8 107.8H235.4" stroke="#C8DFFC" stroke-width="2"/>
<g clip-path="url(#clip0)">
<rect x="495" y="130" width="252" height="94" fill="#F6F6F6" fill-opacity="0.11"/>
<path fill-rule="evenodd" clip-rule="evenodd" d="M564 147C562.343 147 561 148.343 561 150V154C561 155.657 562.343 157 564 157H626.9C628.557 157 629.9 155.657 629.9 154V150C629.9 148.343 628.557 147 626.9 147H564Z" fill="white" fill-opacity="0.75"/>
<path fill-rule="evenodd" clip-rule="evenodd" d="M564 170C562.343 170 561 171.343 561 173V177C561 178.657 562.343 180 564 180H695.8C697.457 180 698.8 178.657 698.8 177V173C698.8 171.343 697.457 170 695.8 170H564Z" fill="white" fill-opacity="0.62"/>
<path fill-rule="evenodd" clip-rule="evenodd" d="M564 190C562.343 190 561 191.343 561 193V197C561 198.657 562.343 200 564 200H653.8C655.457 200 656.8 198.657 656.8 197V193C656.8 191.343 655.457 190 653.8 190H564Z" fill="white" fill-opacity="0.3"/>
<path fill-rule="evenodd" clip-rule="evenodd" d="M707 147C705.343 147 704 148.343 704 150V154C704 155.657 705.343 157 707 157H719.6C721.257 157 722.6 155.657 722.6 154V150C722.6 148.343 721.257 147 719.6 147H707Z" fill="white" fill-opacity="0.3"/>
<path fill-rule="evenodd" clip-rule="evenodd" d="M533.217 175.937C534.349 174.057 535 171.855 535 169.5C535 162.596 529.404 157 522.5 157C515.596 157 510 162.596 510 169.5C510 171.855 510.651 174.057 511.783 175.938L522.5 194.5L533.217 175.937Z" fill="white" fill-opacity="0.75"/>
<rect x="495" y="227" width="252" height="94" fill="#F6F6F6" fill-opacity="0.11"/>
<path fill-rule="evenodd" clip-rule="evenodd" d="M564 244C562.343 244 561 245.343 561 247V251C561 252.657 562.343 254 564 254H626.9C628.557 254 629.9 252.657 629.9 251V247C629.9 245.343 628.557 244 626.9 244H564Z" fill="white" fill-opacity="0.75"/>
<path fill-rule="evenodd" clip-rule="evenodd" d="M564 267C562.343 267 561 268.343 561 270V274C561 275.657 562.343 277 564 277H695.8C697.457 277 698.8 275.657 698.8 274V270C698.8 268.343 697.457 267 695.8 267H564Z" fill="white" fill-opacity="0.62"/>
<path fill-rule="evenodd" clip-rule="evenodd" d="M564 287C562.343 287 561 288.343 561 290V294C561 295.657 562.343 297 564 297H653.8C655.457 297 656.8 295.657 656.8 294V290C656.8 288.343 655.457 287 653.8 287H564Z" fill="white" fill-opacity="0.3"/>
<path fill-rule="evenodd" clip-rule="evenodd" d="M707 244C705.343 244 704 245.343 704 247V251C704 252.657 705.343 254 707 254H719.6C721.257 254 722.6 252.657 722.6 251V247C722.6 245.343 721.257 244 719.6 244H707Z" fill="white" fill-opacity="0.3"/>
<path fill-rule="evenodd" clip-rule="evenodd" d="M533.217 272.937C534.349 271.057 535 268.855 535 266.5C535 259.596 529.404 254 522.5 254C515.596 254 510 259.596 510 266.5C510 268.855 510.651 271.057 511.783 272.938L522.5 291.5L533.217 272.937Z" fill="white" fill-opacity="0.75"/>
<rect x="495" y="324" width="252" height="94" fill="#F6F6F6" fill-opacity="0.11"/>
<path fill-rule="evenodd" clip-rule="evenodd" d="M564 341C562.343 341 561 342.343 561 344V348C561 349.657 562.343 351 564 351H626.9C628.557 351 629.9 349.657 629.9 348V344C629.9 342.343 628.557 341 626.9 341H564Z" fill="white" fill-opacity="0.75"/>
<path fill-rule="evenodd" clip-rule="evenodd" d="M564 364C562.343 364 561 365.343 561 367V371C561 372.657 562.343 374 564 374H695.8C697.457 374 698.8 372.657 698.8 371V367C698.8 365.343 697.457 364 695.8 364H564Z" fill="white" fill-opacity="0.62"/>
<path fill-rule="evenodd" clip-rule="evenodd" d="M564 384C562.343 384 561 385.343 561 387V391C561 392.657 562.343 394 564 394H653.8C655.457 394 656.8 392.657 656.8 391V387C656.8 385.343 655.457 384 653.8 384H564Z" fill="white" fill-opacity="0.3"/>
<path fill-rule="evenodd" clip-rule="evenodd" d="M707 341C705.343 341 704 342.343 704 344V348C704 349.657 705.343 351 707 351H719.6C721.257 351 722.6 349.657 722.6 348V344C722.6 342.343 721.257 341 719.6 341H707Z" fill="white" fill-opacity="0.3"/>
<path fill-rule="evenodd" clip-rule="evenodd" d="M533.217 369.937C534.349 368.057 535 365.855 535 363.5C535 356.596 529.404 351 522.5 351C515.596 351 510 356.596 510 363.5C510 365.855 510.651 368.057 511.783 369.938L522.5 388.5L533.217 369.937Z" fill="white" fill-opacity="0.75"/>
</g>
<line x1="508" y1="442" x2="508" y2="409" stroke="#FD94FF" stroke-width="4"/>
<path d="M507.149 399.383C507.539 398.748 508.461 398.748 508.851 399.383L513.989 407.726C514.4 408.392 513.92 409.25 513.138 409.25H502.862C502.08 409.25 501.6 408.392 502.011 407.726L507.149 399.383Z" fill="#FD94FF"/>
<rect x="506" y="439" width="151" height="28" rx="2" fill="#FD94FF"/>
<rect x="239" y="439" width="46" height="28" rx="2" fill="#FD94FF"/>
<g clip-path="url(#clip1)">
<path fill-rule="evenodd" clip-rule="evenodd" d="M238.554 130.205L235.15 145.168L227.206 143.529V151.113L233.499 152.445L229.579 169.868L227.206 169.458V174.48L228.444 174.685L227.206 180.322V192.621L242.991 195.593L252.791 227.16L227.206 222.343V242.533L237.832 274.817L242.578 273.28L229.27 232.899L263.83 239.356L256.918 273.28L255.886 277.994L243.403 276.354L242.372 273.28L237.626 274.817L237.935 275.637L227.103 274.202V325.242L228.032 311.918L243.816 312.533C243.816 328.521 243.816 345.944 243.816 363.47L227.103 364.597V372.079L243.816 370.952C243.816 387.042 243.816 403.031 243.816 418.199L227.103 413.28V418.507L243.816 423.426C243.816 434.7 243.816 445.256 243.816 454.89L229.27 459.297L227 454.275V478.668L227.516 479.897H238.451L231.23 463.807L243.713 460.015C243.713 467.394 243.713 474.158 243.713 479.897H251.244C251.244 477.233 251.244 474.363 251.244 471.391L265.687 475.388L263.727 479.897H274.662L284.05 458.17L300.557 463.089C299.215 468.829 298.493 474.158 298.493 479.078C298.493 479.385 298.493 479.59 298.493 479.897H303.548C303.445 475.183 304.064 470.059 305.302 464.524L341.616 475.285L340.584 480H345.743L346.465 476.72L357.4 480H383.088L391.135 452.635L392.992 454.583L415.482 480H428.79L425.902 476.72L435.599 447.613L448.392 476.515C447.979 477.643 447.463 478.77 447.051 480H457.264L454.066 476.413L453.859 476.515V476.413C456.954 468.521 460.565 459.502 464.176 450.483L472.016 459.297L461.184 480H466.858L475.627 463.294L478 465.959V458.375L466.239 445.154C470.469 434.392 474.699 423.939 478 415.534V401.801C475.834 407.233 472.429 416.149 468.303 426.398L449.63 405.388L452.106 398.111L478 399.034V394.012L453.756 393.192L461.597 369.517L478 370.029V362.548L462.422 362.035L459.43 330.264L478 331.391V326.369L458.915 325.139L457.78 313.25L478 315.813V305.769L452.106 302.489L456.439 273.895L451.487 273.177L447.154 301.874L428.687 299.619L433.433 274.51L436.425 258.316L453.24 261.288L451.383 273.28L456.335 273.997L458.089 262.211L475.215 265.286L476.349 274.202L477.897 285.988V229.824L442.821 223.163L445.813 206.867L477.794 213.016V207.994L469.128 206.354L474.492 181.552L477.794 184.012V177.76L475.627 176.12L477.794 166.281V142.299L440.757 130.922L441.376 130.205H413.419L428.481 134.817L404.237 164.539L400.317 157.98L384.12 130.41V130.205H376.486L372.669 151.215L364.209 149.37L356.575 130.307H351.21L358.329 148.038L325.935 140.761L328.102 130.205H300.557C307.469 130.82 315.412 131.537 320.055 131.947L313.865 161.259L288.589 156.032L293.851 130.102H286.217L281.265 154.495L259.497 149.985C262.282 136.867 271.051 131.845 279.098 130H266.512C261.148 133.69 256.505 139.531 254.545 148.96L242.681 146.501L246.395 130H238.554V130.205ZM228.444 307.101L229.889 284.758L243.816 286.501C243.816 293.163 243.816 300.234 243.816 307.716L228.444 307.101ZM234.118 183.807L235.872 176.018L275.281 183.192L273.63 191.288L234.118 183.807ZM385.977 274.612L390.516 250.63L396.5 251.757L401.245 252.577L403.102 274.305L408.054 273.895L406.3 253.499L426.624 257.086L423.632 273.177L418.783 298.902L410.118 297.775L408.054 273.895L403.102 274.305L405.062 297.16L397.531 296.237L396.293 306.076L417.03 308.638L407.229 360.703L397.119 360.395L396.912 367.877L400.833 367.979L419.712 410.922L398.46 402.518L361.527 388.067L367.304 366.955L396.912 367.877L397.119 360.395L390.516 360.19C388.247 344.919 383.914 316.428 382.057 304.231L396.293 306.076L397.531 296.237L382.16 294.29L385.977 274.612L381.025 273.69L377.208 293.675L354.409 290.703L357.4 274.817L349.972 273.485L346.878 289.78L327.276 287.218L329.443 274.612L324.491 273.792L322.221 286.706L295.501 283.221L297.255 274.919L300.969 257.394L328.308 251.654C327.07 258.726 325.729 266.105 324.388 273.792L329.339 274.612C330.784 266.105 332.228 258.111 333.569 250.527L354.821 246.12L349.766 273.587L357.194 274.919L362.559 245.813L385.358 249.912L380.819 273.792L385.977 274.612ZM430.028 369.004L421.775 402.928L406.507 368.287L430.028 369.004ZM333.053 400.674L337.902 386.94L371.328 400.059L367.51 413.075L333.053 400.674ZM366.169 417.789L362.765 429.575L352.552 426.296L355.543 413.997L366.169 417.789ZM321.705 372.592L324.697 365.827L362.249 366.955L356.988 386.428L321.705 372.592ZM333.26 385.095L328.308 399.034L312.524 393.397L318.61 379.458L333.26 385.095ZM327.792 358.346L338.418 333.851H363.074L344.298 358.858L327.792 358.346ZM350.488 359.063L369.471 333.953H381.541C383.088 344.305 384.636 354.451 385.461 360.19L350.488 359.063ZM340.584 328.931L352.861 300.542L376.898 303.616C377.724 309.151 379.168 318.785 380.716 328.931H340.584ZM336.355 313.763L315.825 310.996C317.063 305.974 318.301 300.849 319.436 296.237L342.648 299.209L336.355 313.763ZM334.188 318.477L325.626 338.053L309.945 334.978C310.667 331.493 312.42 324.114 314.381 315.813L334.188 318.477ZM305.199 334.056L290.137 331.083L293.438 292.855L314.381 295.52C308.5 319.195 306.024 329.444 305.199 334.056ZM323.665 342.767L303.342 389.4L285.804 381.098L289.621 336.105L323.665 342.767ZM325.522 428.141L321.293 441.054L295.295 433.47L300.969 420.351L325.522 428.141ZM304.889 411.025L310.563 397.906L350.695 412.255L347.703 424.758L304.889 411.025ZM362.146 208.199L342.029 204.407C343.06 198.77 343.886 193.543 344.711 188.726L365.035 192.826L362.146 208.199ZM360.289 217.936L356.059 240.688L334.807 245.198C336.767 233.821 338.624 223.47 340.275 214.143L360.289 217.936ZM329.546 246.325L302.413 252.064L311.492 208.712L335.323 213.221C333.569 223.265 331.609 234.334 329.546 246.325ZM301.072 221.625L276.313 216.091L279.098 202.46L304.167 207.174L301.072 221.625ZM300.041 226.545L294.263 253.807L267.441 259.444L275.178 221.113L300.041 226.545ZM258.362 228.287L248.561 196.72L271.67 201.127L265.893 229.722L258.362 228.287ZM264.346 274.919L266.409 264.671L293.129 259.034L290.137 273.382L288.177 282.196L263.417 279.019L264.346 274.919L260.529 274.202L264.346 274.919ZM251.347 287.526L285.907 291.933L282.709 329.649L251.347 323.499C251.347 307.306 251.347 294.392 251.347 287.526ZM282.296 334.671L278.582 377.716L268.369 372.899L269.298 332.211L282.296 334.671ZM251.347 328.624L264.346 331.186L263.417 370.542L251.45 364.905C251.45 351.991 251.45 339.693 251.347 328.624ZM251.45 392.679C251.45 386.12 251.45 379.561 251.45 373.206L263.211 378.741L262.179 423.734L251.45 420.556C251.45 411.435 251.45 402.006 251.45 392.679ZM267.956 470.981L251.45 466.471C251.45 454.583 251.45 440.542 251.45 425.681L283.534 435.11L267.956 470.981ZM267.131 425.168L268.163 381.098L300.35 396.369L285.494 430.6L267.131 425.168ZM315.103 459.81L287.351 451.611L293.232 438.082L319.745 445.871L315.103 459.81ZM319.848 461.245L330.268 429.678L347.703 435.315L358.019 472.518L319.848 461.245ZM376.279 477.848L363.693 474.158L353.377 437.057L385.255 447.306L376.279 477.848ZM393.405 419.531L388.04 437.775L367.51 431.215L376.073 401.903L395.674 409.59L396.293 409.795L393.405 419.531ZM422.497 472.518L400.833 448.023L397.119 451.303L400.73 447.921L394.746 441.669L400.626 421.684L395.778 420.249L400.73 421.684L403.309 412.665L437.972 426.296L422.497 472.518ZM466.549 432.035C461.7 444.129 456.335 457.76 451.383 470.264L438.385 440.747L448.185 411.332L466.549 432.035ZM444.368 406.925L440.242 419.224L426.418 413.792L424.973 410.615L435.083 369.312L456.645 369.927L444.368 406.925ZM457.677 362.343L417.545 361.113L419.815 349.224H456.542L457.677 362.343ZM453.034 313.25L455.923 344.202H420.64L427.037 309.971L453.034 313.25ZM427.759 252.269L397.531 246.94L363.797 240.791L367.717 219.37L396.19 224.802L431.679 231.567L427.759 252.269ZM472.223 239.356L475.008 260.571L437.663 254.012L441.48 233.514L472.223 239.356ZM476.865 149.678L464.692 205.842L447.154 202.46L458.089 143.939L476.865 149.678ZM436.218 137.174L448.495 140.966L434.671 215.578L408.364 171.406L436.218 137.174ZM381.954 141.581L393.818 161.669L397.016 159.824L393.818 161.772L407.229 184.319L397.531 182.269L375.351 177.555L381.954 141.581ZM374.526 182.372L396.603 187.086L410.737 190.161L429.1 221.01L398.047 215.066L369.471 209.634L374.526 182.372ZM371.74 156.032L365.86 187.804L345.536 183.704C348.425 166.999 350.282 156.237 351.004 151.42L371.74 156.032ZM312.214 168.638L306.127 197.54L297.358 195.9L303.445 166.896L312.214 168.638ZM287.042 163.411L298.596 165.769L292.51 194.876L281.162 192.723L287.042 163.411ZM279.614 161.977L276.313 178.375L237.007 171.201L240.927 153.982L279.614 161.977Z" fill="white" fill-opacity="0.8"/>
</g>
<path d="M509.776 458.104C509.776 457.795 509.883 457.533 510.096 457.32C510.32 457.096 510.587 456.984 510.896 456.984C511.205 456.984 511.467 457.096 511.68 457.32C511.904 457.533 512.016 457.795 512.016 458.104C512.016 458.413 511.904 458.68 511.68 458.904C511.467 459.117 511.205 459.224 510.896 459.224C510.587 459.224 510.32 459.117 510.096 458.904C509.883 458.68 509.776 458.413 509.776 458.104ZM517.189 457.848H520.069V448.952H517.285V447.8H521.317V457.848H524.197V459H517.189V457.848ZM534.474 455.128C534.474 455.789 534.362 456.376 534.138 456.888C533.924 457.389 533.636 457.816 533.274 458.168C532.911 458.509 532.484 458.771 531.994 458.952C531.514 459.133 531.012 459.224 530.49 459.224C529.956 459.224 529.45 459.133 528.97 458.952C528.49 458.771 528.068 458.509 527.706 458.168C527.343 457.816 527.05 457.389 526.826 456.888C526.612 456.376 526.506 455.789 526.506 455.128V454.936C526.506 454.285 526.612 453.709 526.826 453.208C527.05 452.696 527.343 452.264 527.706 451.912C528.079 451.56 528.506 451.293 528.986 451.112C529.466 450.931 529.967 450.84 530.49 450.84C531.012 450.84 531.514 450.931 531.994 451.112C532.474 451.293 532.895 451.56 533.258 451.912C533.631 452.264 533.924 452.696 534.138 453.208C534.362 453.709 534.474 454.285 534.474 454.936V455.128ZM530.49 458.04C530.874 458.04 531.226 457.976 531.546 457.848C531.876 457.709 532.164 457.512 532.41 457.256C532.655 457 532.847 456.696 532.986 456.344C533.124 455.981 533.194 455.576 533.194 455.128V454.936C533.194 454.509 533.124 454.12 532.986 453.768C532.847 453.405 532.655 453.096 532.41 452.84C532.164 452.584 531.876 452.387 531.546 452.248C531.215 452.099 530.863 452.024 530.49 452.024C530.116 452.024 529.764 452.099 529.434 452.248C529.103 452.387 528.815 452.584 528.57 452.84C528.324 453.096 528.132 453.405 527.994 453.768C527.855 454.12 527.786 454.509 527.786 454.936V455.128C527.786 455.576 527.855 455.981 527.994 456.344C528.132 456.696 528.324 457 528.57 457.256C528.815 457.512 529.098 457.709 529.418 457.848C529.748 457.976 530.106 458.04 530.49 458.04ZM544.207 456.184C544.121 456.621 543.972 457.027 543.759 457.4C543.556 457.773 543.295 458.099 542.975 458.376C542.655 458.643 542.281 458.851 541.855 459C541.428 459.149 540.953 459.224 540.431 459.224C539.876 459.224 539.348 459.133 538.847 458.952C538.356 458.771 537.924 458.509 537.551 458.168C537.177 457.816 536.879 457.389 536.655 456.888C536.441 456.387 536.335 455.811 536.335 455.16V454.968C536.335 454.328 536.441 453.752 536.655 453.24C536.879 452.728 537.177 452.296 537.551 451.944C537.924 451.592 538.356 451.32 538.847 451.128C539.348 450.936 539.876 450.84 540.431 450.84C540.932 450.84 541.396 450.915 541.823 451.064C542.249 451.213 542.623 451.427 542.943 451.704C543.273 451.971 543.54 452.291 543.743 452.664C543.956 453.037 544.1 453.443 544.175 453.88L542.927 454.168C542.895 453.891 542.815 453.624 542.687 453.368C542.569 453.101 542.404 452.872 542.191 452.68C541.988 452.477 541.737 452.317 541.439 452.2C541.14 452.083 540.793 452.024 540.399 452.024C540.015 452.024 539.652 452.099 539.311 452.248C538.98 452.387 538.687 452.589 538.431 452.856C538.175 453.112 537.972 453.421 537.823 453.784C537.684 454.147 537.615 454.541 537.615 454.968V455.16C537.615 455.608 537.684 456.013 537.823 456.376C537.972 456.728 538.175 457.027 538.431 457.272C538.687 457.517 538.985 457.709 539.327 457.848C539.668 457.976 540.036 458.04 540.431 458.04C540.825 458.04 541.167 457.981 541.455 457.864C541.753 457.736 542.004 457.576 542.207 457.384C542.42 457.181 542.585 456.952 542.703 456.696C542.831 456.44 542.916 456.173 542.959 455.896L544.207 456.184ZM552.34 457.656H552.148C551.892 458.189 551.534 458.584 551.076 458.84C550.628 459.096 550.153 459.224 549.652 459.224C549.129 459.224 548.644 459.139 548.196 458.968C547.748 458.787 547.353 458.525 547.012 458.184C546.681 457.832 546.42 457.405 546.228 456.904C546.036 456.403 545.94 455.821 545.94 455.16V454.904C545.94 454.253 546.036 453.677 546.228 453.176C546.42 452.675 546.681 452.253 547.012 451.912C547.353 451.56 547.748 451.293 548.196 451.112C548.644 450.931 549.118 450.84 549.62 450.84C550.164 450.84 550.654 450.963 551.092 451.208C551.54 451.443 551.892 451.811 552.148 452.312H552.34V451.064H553.588V457.368C553.588 457.688 553.732 457.848 554.02 457.848H554.42V459H553.572C553.209 459 552.91 458.883 552.676 458.648C552.452 458.413 552.34 458.115 552.34 457.752V457.656ZM549.78 458.04C550.153 458.04 550.494 457.971 550.804 457.832C551.124 457.693 551.396 457.496 551.62 457.24C551.844 456.984 552.02 456.68 552.148 456.328C552.276 455.965 552.34 455.565 552.34 455.128V454.936C552.34 454.509 552.276 454.12 552.148 453.768C552.02 453.405 551.838 453.096 551.604 452.84C551.38 452.584 551.108 452.387 550.788 452.248C550.478 452.099 550.142 452.024 549.78 452.024C549.406 452.024 549.065 452.093 548.756 452.232C548.446 452.371 548.174 452.568 547.94 452.824C547.716 453.069 547.54 453.373 547.412 453.736C547.284 454.088 547.22 454.477 547.22 454.904V455.16C547.22 456.067 547.454 456.776 547.924 457.288C548.404 457.789 549.022 458.04 549.78 458.04ZM556.104 451.064H558.6V447.8H559.848V451.064H562.92V452.216H559.848V457.368C559.848 457.688 559.992 457.848 560.28 457.848H562.536V459H559.832C559.47 459 559.171 458.883 558.936 458.648C558.712 458.413 558.6 458.115 558.6 457.752V452.216H556.104V451.064ZM568.637 448.696C568.637 448.387 568.744 448.125 568.957 447.912C569.181 447.688 569.448 447.576 569.757 447.576C570.067 447.576 570.328 447.688 570.541 447.912C570.765 448.125 570.877 448.387 570.877 448.696C570.877 449.005 570.765 449.272 570.541 449.496C570.328 449.709 570.067 449.816 569.757 449.816C569.448 449.816 569.181 449.709 568.957 449.496C568.744 449.272 568.637 449.005 568.637 448.696ZM566.365 457.848H569.149V452.216H566.653V451.064H570.397V457.848H572.989V459H566.365V457.848ZM583.458 455.128C583.458 455.789 583.346 456.376 583.122 456.888C582.909 457.389 582.621 457.816 582.258 458.168C581.895 458.509 581.469 458.771 580.978 458.952C580.498 459.133 579.997 459.224 579.474 459.224C578.941 459.224 578.434 459.133 577.954 458.952C577.474 458.771 577.053 458.509 576.69 458.168C576.327 457.816 576.034 457.389 575.81 456.888C575.597 456.376 575.49 455.789 575.49 455.128V454.936C575.49 454.285 575.597 453.709 575.81 453.208C576.034 452.696 576.327 452.264 576.69 451.912C577.063 451.56 577.49 451.293 577.97 451.112C578.45 450.931 578.951 450.84 579.474 450.84C579.997 450.84 580.498 450.931 580.978 451.112C581.458 451.293 581.879 451.56 582.242 451.912C582.615 452.264 582.909 452.696 583.122 453.208C583.346 453.709 583.458 454.285 583.458 454.936V455.128ZM579.474 458.04C579.858 458.04 580.21 457.976 580.53 457.848C580.861 457.709 581.149 457.512 581.394 457.256C581.639 457 581.831 456.696 581.97 456.344C582.109 455.981 582.178 455.576 582.178 455.128V454.936C582.178 454.509 582.109 454.12 581.97 453.768C581.831 453.405 581.639 453.096 581.394 452.84C581.149 452.584 580.861 452.387 580.53 452.248C580.199 452.099 579.847 452.024 579.474 452.024C579.101 452.024 578.749 452.099 578.418 452.248C578.087 452.387 577.799 452.584 577.554 452.84C577.309 453.096 577.117 453.405 576.978 453.768C576.839 454.12 576.77 454.509 576.77 454.936V455.128C576.77 455.576 576.839 455.981 576.978 456.344C577.117 456.696 577.309 457 577.554 457.256C577.799 457.512 578.082 457.709 578.402 457.848C578.733 457.976 579.09 458.04 579.474 458.04ZM587.015 459H585.767V451.064H587.015V452.408H587.207C587.698 451.363 588.551 450.84 589.767 450.84C590.684 450.84 591.415 451.128 591.959 451.704C592.503 452.269 592.775 453.123 592.775 454.264V459H591.527V454.52C591.527 453.688 591.34 453.064 590.967 452.648C590.594 452.232 590.087 452.024 589.447 452.024C588.69 452.024 588.092 452.285 587.655 452.808C587.228 453.32 587.015 454.008 587.015 454.872V459ZM597.212 453.112C597.212 453.496 597.372 453.789 597.692 453.992C598.023 454.195 598.62 454.328 599.484 454.392C600.412 454.467 601.116 454.691 601.596 455.064C602.087 455.427 602.332 455.96 602.332 456.664V456.76C602.332 457.144 602.252 457.491 602.092 457.8C601.943 458.099 601.729 458.355 601.452 458.568C601.185 458.781 600.855 458.941 600.46 459.048C600.076 459.165 599.655 459.224 599.196 459.224C598.577 459.224 598.044 459.144 597.596 458.984C597.159 458.813 596.791 458.595 596.492 458.328C596.204 458.051 595.985 457.741 595.836 457.4C595.687 457.048 595.601 456.696 595.58 456.344L596.764 456.056C596.817 456.664 597.052 457.155 597.468 457.528C597.884 457.891 598.439 458.072 599.132 458.072C599.719 458.072 600.188 457.96 600.54 457.736C600.903 457.501 601.084 457.176 601.084 456.76C601.084 456.312 600.908 455.992 600.556 455.8C600.204 455.608 599.633 455.485 598.844 455.432C597.927 455.368 597.223 455.155 596.732 454.792C596.241 454.429 595.996 453.901 595.996 453.208V453.112C595.996 452.739 596.076 452.413 596.236 452.136C596.396 451.848 596.609 451.608 596.876 451.416C597.153 451.224 597.463 451.08 597.804 450.984C598.145 450.888 598.503 450.84 598.876 450.84C599.399 450.84 599.857 450.915 600.252 451.064C600.647 451.203 600.977 451.389 601.244 451.624C601.511 451.848 601.713 452.109 601.852 452.408C602.001 452.707 602.097 453.005 602.14 453.304L600.956 453.592C600.903 453.08 600.695 452.68 600.332 452.392C599.98 452.104 599.516 451.96 598.94 451.96C598.716 451.96 598.497 451.987 598.284 452.04C598.081 452.083 597.9 452.152 597.74 452.248C597.58 452.344 597.452 452.467 597.356 452.616C597.26 452.755 597.212 452.92 597.212 453.112ZM606.465 454.264H611.265V455.416H606.465V454.264ZM615.158 457.848H618.038V448.952H615.254V447.8H619.286V457.848H622.166V459H615.158V457.848ZM627.419 448.696C627.419 448.387 627.525 448.125 627.739 447.912C627.963 447.688 628.229 447.576 628.539 447.576C628.848 447.576 629.109 447.688 629.323 447.912C629.547 448.125 629.659 448.387 629.659 448.696C629.659 449.005 629.547 449.272 629.323 449.496C629.109 449.709 628.848 449.816 628.539 449.816C628.229 449.816 627.963 449.709 627.739 449.496C627.525 449.272 627.419 449.005 627.419 448.696ZM625.147 457.848H627.931V452.216H625.435V451.064H629.179V457.848H631.771V459H625.147V457.848ZM636.399 453.112C636.399 453.496 636.559 453.789 636.879 453.992C637.21 454.195 637.807 454.328 638.671 454.392C639.599 454.467 640.303 454.691 640.783 455.064C641.274 455.427 641.519 455.96 641.519 456.664V456.76C641.519 457.144 641.439 457.491 641.279 457.8C641.13 458.099 640.917 458.355 640.639 458.568C640.373 458.781 640.042 458.941 639.647 459.048C639.263 459.165 638.842 459.224 638.383 459.224C637.765 459.224 637.231 459.144 636.783 458.984C636.346 458.813 635.978 458.595 635.679 458.328C635.391 458.051 635.173 457.741 635.023 457.4C634.874 457.048 634.789 456.696 634.767 456.344L635.951 456.056C636.005 456.664 636.239 457.155 636.655 457.528C637.071 457.891 637.626 458.072 638.319 458.072C638.906 458.072 639.375 457.96 639.727 457.736C640.09 457.501 640.271 457.176 640.271 456.76C640.271 456.312 640.095 455.992 639.743 455.8C639.391 455.608 638.821 455.485 638.031 455.432C637.114 455.368 636.41 455.155 635.919 454.792C635.429 454.429 635.183 453.901 635.183 453.208V453.112C635.183 452.739 635.263 452.413 635.423 452.136C635.583 451.848 635.797 451.608 636.063 451.416C636.341 451.224 636.65 451.08 636.991 450.984C637.333 450.888 637.69 450.84 638.063 450.84C638.586 450.84 639.045 450.915 639.439 451.064C639.834 451.203 640.165 451.389 640.431 451.624C640.698 451.848 640.901 452.109 641.039 452.408C641.189 452.707 641.285 453.005 641.327 453.304L640.143 453.592C640.09 453.08 639.882 452.68 639.519 452.392C639.167 452.104 638.703 451.96 638.127 451.96C637.903 451.96 637.685 451.987 637.471 452.04C637.269 452.083 637.087 452.152 636.927 452.248C636.767 452.344 636.639 452.467 636.543 452.616C636.447 452.755 636.399 452.92 636.399 453.112ZM644.276 451.064H646.772V447.8H648.02V451.064H651.092V452.216H648.02V457.368C648.02 457.688 648.164 457.848 648.452 457.848H650.708V459H648.004C647.642 459 647.343 458.883 647.108 458.648C646.884 458.413 646.772 458.115 646.772 457.752V452.216H644.276V451.064Z" fill="black"/>
<path d="M244.776 458.104C244.776 457.795 244.883 457.533 245.096 457.32C245.32 457.096 245.587 456.984 245.896 456.984C246.205 456.984 246.467 457.096 246.68 457.32C246.904 457.533 247.016 457.795 247.016 458.104C247.016 458.413 246.904 458.68 246.68 458.904C246.467 459.117 246.205 459.224 245.896 459.224C245.587 459.224 245.32 459.117 245.096 458.904C244.883 458.68 244.776 458.413 244.776 458.104ZM259.821 459H258.573V453.304C258.573 452.931 258.488 452.627 258.317 452.392C258.146 452.147 257.874 452.024 257.501 452.024C257.149 452.024 256.861 452.157 256.637 452.424C256.424 452.68 256.317 453.08 256.317 453.624V459H255.069V453.24C255.069 452.888 254.973 452.6 254.781 452.376C254.589 452.141 254.333 452.024 254.013 452.024C253.629 452.024 253.33 452.163 253.117 452.44C252.914 452.717 252.813 453.08 252.813 453.528V459H251.565V451.064H252.813V451.928H253.005C253.144 451.555 253.346 451.283 253.613 451.112C253.88 450.931 254.194 450.84 254.557 450.84C254.941 450.84 255.256 450.941 255.501 451.144C255.757 451.347 255.933 451.608 256.029 451.928H256.221C256.584 451.203 257.16 450.84 257.949 450.84C258.546 450.84 259.005 451.032 259.325 451.416C259.656 451.789 259.821 452.28 259.821 452.888V459ZM267.746 457.656H267.554C267.298 458.189 266.94 458.584 266.482 458.84C266.034 459.096 265.559 459.224 265.058 459.224C264.535 459.224 264.05 459.139 263.602 458.968C263.154 458.787 262.759 458.525 262.418 458.184C262.087 457.832 261.826 457.405 261.634 456.904C261.442 456.403 261.346 455.821 261.346 455.16V454.904C261.346 454.253 261.442 453.677 261.634 453.176C261.826 452.675 262.087 452.253 262.418 451.912C262.759 451.56 263.154 451.293 263.602 451.112C264.05 450.931 264.524 450.84 265.026 450.84C265.57 450.84 266.06 450.963 266.498 451.208C266.946 451.443 267.298 451.811 267.554 452.312H267.746V451.064H268.994V457.368C268.994 457.688 269.138 457.848 269.426 457.848H269.826V459H268.978C268.615 459 268.316 458.883 268.082 458.648C267.858 458.413 267.746 458.115 267.746 457.752V457.656ZM265.186 458.04C265.559 458.04 265.9 457.971 266.21 457.832C266.53 457.693 266.802 457.496 267.026 457.24C267.25 456.984 267.426 456.68 267.554 456.328C267.682 455.965 267.746 455.565 267.746 455.128V454.936C267.746 454.509 267.682 454.12 267.554 453.768C267.426 453.405 267.244 453.096 267.01 452.84C266.786 452.584 266.514 452.387 266.194 452.248C265.884 452.099 265.548 452.024 265.186 452.024C264.812 452.024 264.471 452.093 264.162 452.232C263.852 452.371 263.58 452.568 263.346 452.824C263.122 453.069 262.946 453.373 262.818 453.736C262.69 454.088 262.626 454.477 262.626 454.904V455.16C262.626 456.067 262.86 456.776 263.33 457.288C263.81 457.789 264.428 458.04 265.186 458.04ZM272.743 462.2H271.495V451.064H272.743V452.312H272.935C273.212 451.832 273.596 451.469 274.087 451.224C274.577 450.968 275.111 450.84 275.687 450.84C276.177 450.84 276.641 450.931 277.079 451.112C277.516 451.293 277.9 451.555 278.231 451.896C278.572 452.237 278.839 452.659 279.031 453.16C279.233 453.661 279.335 454.232 279.335 454.872V455.192C279.335 455.843 279.239 456.419 279.047 456.92C278.855 457.421 278.588 457.843 278.247 458.184C277.916 458.525 277.527 458.787 277.079 458.968C276.631 459.139 276.156 459.224 275.655 459.224C275.399 459.224 275.137 459.192 274.871 459.128C274.604 459.075 274.348 458.989 274.103 458.872C273.868 458.744 273.649 458.595 273.447 458.424C273.244 458.243 273.073 458.029 272.935 457.784H272.743V462.2ZM275.399 458.04C275.783 458.04 276.135 457.976 276.455 457.848C276.775 457.709 277.052 457.517 277.287 457.272C277.532 457.027 277.719 456.728 277.847 456.376C277.985 456.024 278.055 455.629 278.055 455.192V454.872C278.055 454.445 277.985 454.061 277.847 453.72C277.719 453.368 277.532 453.069 277.287 452.824C277.052 452.568 276.769 452.371 276.439 452.232C276.119 452.093 275.772 452.024 275.399 452.024C275.025 452.024 274.679 452.099 274.359 452.248C274.039 452.387 273.756 452.584 273.511 452.84C273.276 453.096 273.089 453.405 272.951 453.768C272.812 454.12 272.743 454.509 272.743 454.936V455.128C272.743 455.565 272.812 455.965 272.951 456.328C273.089 456.68 273.276 456.984 273.511 457.24C273.756 457.496 274.039 457.693 274.359 457.832C274.679 457.971 275.025 458.04 275.399 458.04Z" fill="black"/>
<line x1="241" y1="442" x2="241" y2="409" stroke="#FD94FF" stroke-width="4"/>
<path d="M240.149 399.383C240.539 398.748 241.461 398.748 241.851 399.383L246.989 407.726C247.4 408.392 246.92 409.25 246.138 409.25H235.862C235.08 409.25 234.6 408.392 235.011 407.726L240.149 399.383Z" fill="#FD94FF"/>
<defs>
<clipPath id="clip0">
<rect width="252" height="287" fill="white" transform="translate(495 130)"/>
</clipPath>
<clipPath id="clip1">
<rect width="252" height="287" fill="white" transform="translate(227 130)"/>
</clipPath>
</defs>
</svg>
