<svg width="1069" height="652" viewBox="0 0 1069 652" fill="none" xmlns="http://www.w3.org/2000/svg">
<rect width="1069" height="652" fill="white"/>
<rect x="27.5" y="74.5" width="257" height="355" rx="3.5" fill="#0E71F2" stroke="#0F2645" stroke-width="5"/>
<rect x="295.5" y="74.5" width="257" height="355" rx="3.5" fill="#0E71F2" stroke="#0F2645" stroke-width="5"/>
<path d="M410.61 277C410.357 277 410.129 276.911 409.926 276.734C409.749 276.531 409.66 276.303 409.66 276.05V251.35C409.66 251.071 409.749 250.843 409.926 250.666C410.129 250.489 410.357 250.4 410.61 250.4H422.2C425.392 250.4 427.761 251.059 429.306 252.376C430.877 253.668 431.662 255.517 431.662 257.924C431.662 259.191 431.333 260.267 430.674 261.154C430.041 262.015 429.319 262.649 428.508 263.054C429.547 263.535 430.421 264.308 431.13 265.372C431.839 266.436 432.194 267.627 432.194 268.944C432.194 271.477 431.358 273.453 429.686 274.872C428.014 276.291 425.633 277 422.542 277H410.61ZM421.44 260.964C422.453 260.964 423.226 260.711 423.758 260.204C424.29 259.672 424.556 258.975 424.556 258.114C424.556 257.278 424.29 256.607 423.758 256.1C423.226 255.593 422.453 255.34 421.44 255.34H416.5V260.964H421.44ZM421.782 272.06C422.821 272.06 423.631 271.756 424.214 271.148C424.797 270.54 425.088 269.805 425.088 268.944C425.088 268.032 424.797 267.285 424.214 266.702C423.631 266.094 422.821 265.79 421.782 265.79H416.5V272.06H421.782Z" fill="white"/>
<rect x="30" y="77" width="252" height="63" fill="white" fill-opacity="0.99"/>
<rect x="298" y="77" width="252" height="63" fill="white" fill-opacity="0.99"/>
<rect x="511" y="83" width="14" height="14" rx="3" fill="#C8DFFC"/>
<rect x="530" y="83" width="14" height="14" rx="3" fill="#C8DFFC"/>
<path d="M64 109C64 105.686 66.6863 103 70 103H282V134H70C66.6863 134 64 131.314 64 128V109Z" fill="#0E71F2" fill-opacity="0.22"/>
<path d="M298 103H538C541.314 103 544 105.686 544 109V128C544 131.314 541.314 134 538 134H298V103Z" fill="#0E71F2" fill-opacity="0.22"/>
<path d="M45.2 124.6L38.4 117.8L45.2 111" stroke="#C8DFFC" stroke-width="2"/>
<path d="M53.8 117.8H38.4" stroke="#C8DFFC" stroke-width="2"/>
<path d="M143.14 277C142.937 277 142.747 276.924 142.57 276.772C142.418 276.595 142.342 276.405 142.342 276.202C142.342 276.05 142.355 275.936 142.38 275.86L151.31 251.464C151.386 251.16 151.551 250.907 151.804 250.704C152.057 250.501 152.387 250.4 152.792 250.4H158.416C158.821 250.4 159.151 250.501 159.404 250.704C159.657 250.907 159.822 251.16 159.898 251.464L168.79 275.86L168.866 276.202C168.866 276.405 168.777 276.595 168.6 276.772C168.448 276.924 168.258 277 168.03 277H163.356C162.748 277 162.343 276.734 162.14 276.202L160.658 272.326H150.512L149.068 276.202C148.865 276.734 148.447 277 147.814 277H143.14ZM159.138 266.854L155.604 256.822L152.07 266.854H159.138Z" fill="white"/>
<rect x="1037.5" y="30.5" width="228" height="345" rx="3.5" transform="rotate(90 1037.5 30.5)" fill="#0E71F2" stroke="#0F2645" stroke-width="5"/>
<rect x="695" y="33" width="341" height="63" fill="white" fill-opacity="0.99"/>
<rect x="997" y="39" width="14" height="14" rx="3" fill="#C8DFFC"/>
<rect x="1016" y="39" width="14" height="14" rx="3" fill="#C8DFFC"/>
<path d="M731 65C731 61.6863 733.686 59 737 59H1024C1027.31 59 1030 61.6863 1030 65V84C1030 87.3137 1027.31 90 1024 90H737C733.686 90 731 87.3137 731 84V65Z" fill="#0E71F2" fill-opacity="0.22"/>
<path d="M712.2 80.6L705.4 73.8L712.2 67" stroke="#C8DFFC" stroke-width="2"/>
<path d="M720.8 73.8H705.4" stroke="#C8DFFC" stroke-width="2"/>
<rect x="1037.5" y="268.5" width="228" height="345" rx="3.5" transform="rotate(90 1037.5 268.5)" fill="#0E71F2" stroke="#0F2645" stroke-width="5"/>
<path d="M854.61 396C854.357 396 854.129 395.911 853.926 395.734C853.749 395.531 853.66 395.303 853.66 395.05V370.35C853.66 370.071 853.749 369.843 853.926 369.666C854.129 369.489 854.357 369.4 854.61 369.4H866.2C869.392 369.4 871.761 370.059 873.306 371.376C874.877 372.668 875.662 374.517 875.662 376.924C875.662 378.191 875.333 379.267 874.674 380.154C874.041 381.015 873.319 381.649 872.508 382.054C873.547 382.535 874.421 383.308 875.13 384.372C875.839 385.436 876.194 386.627 876.194 387.944C876.194 390.477 875.358 392.453 873.686 393.872C872.014 395.291 869.633 396 866.542 396H854.61ZM865.44 379.964C866.453 379.964 867.226 379.711 867.758 379.204C868.29 378.672 868.556 377.975 868.556 377.114C868.556 376.278 868.29 375.607 867.758 375.1C867.226 374.593 866.453 374.34 865.44 374.34H860.5V379.964H865.44ZM865.782 391.06C866.821 391.06 867.631 390.756 868.214 390.148C868.797 389.54 869.088 388.805 869.088 387.944C869.088 387.032 868.797 386.285 868.214 385.702C867.631 385.094 866.821 384.79 865.782 384.79H860.5V391.06H865.782Z" fill="white"/>
<path d="M852.14 188C851.937 188 851.747 187.924 851.57 187.772C851.418 187.595 851.342 187.405 851.342 187.202C851.342 187.05 851.355 186.936 851.38 186.86L860.31 162.464C860.386 162.16 860.551 161.907 860.804 161.704C861.057 161.501 861.387 161.4 861.792 161.4H867.416C867.821 161.4 868.151 161.501 868.404 161.704C868.657 161.907 868.822 162.16 868.898 162.464L877.79 186.86L877.866 187.202C877.866 187.405 877.777 187.595 877.6 187.772C877.448 187.924 877.258 188 877.03 188H872.356C871.748 188 871.343 187.734 871.14 187.202L869.658 183.326H859.512L858.068 187.202C857.865 187.734 857.447 188 856.814 188H852.14ZM868.138 177.854L864.604 167.822L861.07 177.854H868.138Z" fill="white"/>
<rect x="279.5" y="70.5" width="21" height="363" stroke="#FC70FF" stroke-width="3" stroke-linejoin="round" stroke-dasharray="7 7"/>
<rect x="33.5" y="144.5" width="512" height="278" stroke="#FFC602" stroke-width="3" stroke-linejoin="round" stroke-dasharray="7 7"/>
<rect x="698.5" y="101.5" width="333" height="389" stroke="#FFC602" stroke-width="3" stroke-linejoin="round" stroke-dasharray="7 7"/>
<rect x="1041.5" y="253.5" width="21" height="354" transform="rotate(90 1041.5 253.5)" stroke="#FD94FF" stroke-width="3" stroke-linejoin="round" stroke-dasharray="7 7"/>
<line x1="662" y1="264" x2="662" y2="515" stroke="#FD94FF" stroke-width="4"/>
<line x1="660" y1="265" x2="676" y2="265" stroke="#FD94FF" stroke-width="4"/>
<path d="M685.617 264.149C686.252 264.539 686.252 265.461 685.617 265.851L677.274 270.989C676.608 271.4 675.75 270.92 675.75 270.138L675.75 259.862C675.75 259.08 676.608 258.6 677.274 259.011L685.617 264.149Z" fill="#FD94FF"/>
<rect x="660" y="514" width="331" height="35" rx="2" fill="#FD94FF"/>
<path d="M670.04 531.112C670.04 531.496 670.2 531.789 670.52 531.992C670.851 532.195 671.448 532.328 672.312 532.392C673.24 532.467 673.944 532.691 674.424 533.064C674.915 533.427 675.16 533.96 675.16 534.664V534.76C675.16 535.144 675.08 535.491 674.92 535.8C674.771 536.099 674.557 536.355 674.28 536.568C674.013 536.781 673.683 536.941 673.288 537.048C672.904 537.165 672.483 537.224 672.024 537.224C671.405 537.224 670.872 537.144 670.424 536.984C669.987 536.813 669.619 536.595 669.32 536.328C669.032 536.051 668.813 535.741 668.664 535.4C668.515 535.048 668.429 534.696 668.408 534.344L669.592 534.056C669.645 534.664 669.88 535.155 670.296 535.528C670.712 535.891 671.267 536.072 671.96 536.072C672.547 536.072 673.016 535.96 673.368 535.736C673.731 535.501 673.912 535.176 673.912 534.76C673.912 534.312 673.736 533.992 673.384 533.8C673.032 533.608 672.461 533.485 671.672 533.432C670.755 533.368 670.051 533.155 669.56 532.792C669.069 532.429 668.824 531.901 668.824 531.208V531.112C668.824 530.739 668.904 530.413 669.064 530.136C669.224 529.848 669.437 529.608 669.704 529.416C669.981 529.224 670.291 529.08 670.632 528.984C670.973 528.888 671.331 528.84 671.704 528.84C672.227 528.84 672.685 528.915 673.08 529.064C673.475 529.203 673.805 529.389 674.072 529.624C674.339 529.848 674.541 530.109 674.68 530.408C674.829 530.707 674.925 531.005 674.968 531.304L673.784 531.592C673.731 531.08 673.523 530.68 673.16 530.392C672.808 530.104 672.344 529.96 671.768 529.96C671.544 529.96 671.325 529.987 671.112 530.04C670.909 530.083 670.728 530.152 670.568 530.248C670.408 530.344 670.28 530.467 670.184 530.616C670.088 530.755 670.04 530.92 670.04 531.112ZM679.149 540.2H677.901V529.064H679.149V530.312H679.341C679.618 529.832 680.002 529.469 680.493 529.224C680.984 528.968 681.517 528.84 682.093 528.84C682.584 528.84 683.048 528.931 683.485 529.112C683.922 529.293 684.306 529.555 684.637 529.896C684.978 530.237 685.245 530.659 685.437 531.16C685.64 531.661 685.741 532.232 685.741 532.872V533.192C685.741 533.843 685.645 534.419 685.453 534.92C685.261 535.421 684.994 535.843 684.653 536.184C684.322 536.525 683.933 536.787 683.485 536.968C683.037 537.139 682.562 537.224 682.061 537.224C681.805 537.224 681.544 537.192 681.277 537.128C681.01 537.075 680.754 536.989 680.509 536.872C680.274 536.744 680.056 536.595 679.853 536.424C679.65 536.243 679.48 536.029 679.341 535.784H679.149V540.2ZM681.805 536.04C682.189 536.04 682.541 535.976 682.861 535.848C683.181 535.709 683.458 535.517 683.693 535.272C683.938 535.027 684.125 534.728 684.253 534.376C684.392 534.024 684.461 533.629 684.461 533.192V532.872C684.461 532.445 684.392 532.061 684.253 531.72C684.125 531.368 683.938 531.069 683.693 530.824C683.458 530.568 683.176 530.371 682.845 530.232C682.525 530.093 682.178 530.024 681.805 530.024C681.432 530.024 681.085 530.099 680.765 530.248C680.445 530.387 680.162 530.584 679.917 530.84C679.682 531.096 679.496 531.405 679.357 531.768C679.218 532.12 679.149 532.509 679.149 532.936V533.128C679.149 533.565 679.218 533.965 679.357 534.328C679.496 534.68 679.682 534.984 679.917 535.24C680.162 535.496 680.445 535.693 680.765 535.832C681.085 535.971 681.432 536.04 681.805 536.04ZM693.746 535.656H693.554C693.298 536.189 692.94 536.584 692.482 536.84C692.034 537.096 691.559 537.224 691.058 537.224C690.535 537.224 690.05 537.139 689.602 536.968C689.154 536.787 688.759 536.525 688.418 536.184C688.087 535.832 687.826 535.405 687.634 534.904C687.442 534.403 687.346 533.821 687.346 533.16V532.904C687.346 532.253 687.442 531.677 687.634 531.176C687.826 530.675 688.087 530.253 688.418 529.912C688.759 529.56 689.154 529.293 689.602 529.112C690.05 528.931 690.524 528.84 691.026 528.84C691.57 528.84 692.06 528.963 692.498 529.208C692.946 529.443 693.298 529.811 693.554 530.312H693.746V529.064H694.994V535.368C694.994 535.688 695.138 535.848 695.426 535.848H695.826V537H694.978C694.615 537 694.316 536.883 694.082 536.648C693.858 536.413 693.746 536.115 693.746 535.752V535.656ZM691.186 536.04C691.559 536.04 691.9 535.971 692.21 535.832C692.53 535.693 692.802 535.496 693.026 535.24C693.25 534.984 693.426 534.68 693.554 534.328C693.682 533.965 693.746 533.565 693.746 533.128V532.936C693.746 532.509 693.682 532.12 693.554 531.768C693.426 531.405 693.244 531.096 693.01 530.84C692.786 530.584 692.514 530.387 692.194 530.248C691.884 530.099 691.548 530.024 691.186 530.024C690.812 530.024 690.471 530.093 690.162 530.232C689.852 530.371 689.58 530.568 689.346 530.824C689.122 531.069 688.946 531.373 688.818 531.736C688.69 532.088 688.626 532.477 688.626 532.904V533.16C688.626 534.067 688.86 534.776 689.33 535.288C689.81 535.789 690.428 536.04 691.186 536.04ZM699.031 537H697.783V529.064H699.031V530.408H699.223C699.713 529.363 700.567 528.84 701.783 528.84C702.7 528.84 703.431 529.128 703.975 529.704C704.519 530.269 704.791 531.123 704.791 532.264V537H703.543V532.52C703.543 531.688 703.356 531.064 702.983 530.648C702.609 530.232 702.103 530.024 701.463 530.024C700.705 530.024 700.108 530.285 699.671 530.808C699.244 531.32 699.031 532.008 699.031 532.872V537ZM708.828 537H707.58V529.064H708.828V530.408H709.02C709.51 529.363 710.364 528.84 711.58 528.84C712.497 528.84 713.228 529.128 713.772 529.704C714.316 530.269 714.588 531.123 714.588 532.264V537H713.34V532.52C713.34 531.688 713.153 531.064 712.78 530.648C712.406 530.232 711.9 530.024 711.26 530.024C710.502 530.024 709.905 530.285 709.468 530.808C709.041 531.32 708.828 532.008 708.828 532.872V537ZM719.84 526.696C719.84 526.387 719.947 526.125 720.16 525.912C720.384 525.688 720.651 525.576 720.96 525.576C721.27 525.576 721.531 525.688 721.744 525.912C721.968 526.125 722.08 526.387 722.08 526.696C722.08 527.005 721.968 527.272 721.744 527.496C721.531 527.709 721.27 527.816 720.96 527.816C720.651 527.816 720.384 527.709 720.16 527.496C719.947 527.272 719.84 527.005 719.84 526.696ZM717.568 535.848H720.352V530.216H717.856V529.064H721.6V535.848H724.192V537H717.568V535.848ZM728.421 537H727.173V529.064H728.421V530.408H728.613C729.104 529.363 729.957 528.84 731.173 528.84C732.091 528.84 732.821 529.128 733.365 529.704C733.909 530.269 734.181 531.123 734.181 532.264V537H732.933V532.52C732.933 531.688 732.747 531.064 732.373 530.648C732 530.232 731.493 530.024 730.853 530.024C730.096 530.024 729.499 530.285 729.061 530.808C728.635 531.32 728.421 532.008 728.421 532.872V537ZM743.002 535.784H742.81C742.554 536.264 742.202 536.627 741.754 536.872C741.317 537.107 740.837 537.224 740.314 537.224C739.781 537.224 739.279 537.133 738.81 536.952C738.341 536.771 737.925 536.509 737.562 536.168C737.21 535.827 736.927 535.405 736.714 534.904C736.511 534.392 736.41 533.811 736.41 533.16V532.904C736.41 532.264 736.517 531.693 736.73 531.192C736.943 530.68 737.226 530.253 737.578 529.912C737.93 529.56 738.341 529.293 738.81 529.112C739.279 528.931 739.77 528.84 740.282 528.84C740.858 528.84 741.359 528.968 741.786 529.224C742.223 529.469 742.565 529.832 742.81 530.312H743.002V529.064H744.25V538.952C744.25 539.315 744.133 539.613 743.898 539.848C743.674 540.083 743.381 540.2 743.018 540.2H737.85V539.048H742.57C742.858 539.048 743.002 538.888 743.002 538.568V535.784ZM740.346 536.04C740.719 536.04 741.066 535.971 741.386 535.832C741.706 535.693 741.983 535.496 742.218 535.24C742.463 534.984 742.655 534.68 742.794 534.328C742.933 533.965 743.002 533.565 743.002 533.128V532.936C743.002 532.509 742.933 532.12 742.794 531.768C742.655 531.405 742.463 531.096 742.218 530.84C741.983 530.584 741.701 530.387 741.37 530.248C741.05 530.099 740.709 530.024 740.346 530.024C739.973 530.024 739.621 530.093 739.29 530.232C738.97 530.371 738.687 530.568 738.442 530.824C738.207 531.08 738.021 531.384 737.882 531.736C737.754 532.088 737.69 532.477 737.69 532.904V533.16C737.69 533.608 737.754 534.008 737.882 534.36C738.021 534.712 738.207 535.016 738.442 535.272C738.687 535.517 738.97 535.709 739.29 535.848C739.61 535.976 739.962 536.04 740.346 536.04ZM749.151 536.104C749.151 535.795 749.258 535.533 749.471 535.32C749.695 535.096 749.962 534.984 750.271 534.984C750.58 534.984 750.842 535.096 751.055 535.32C751.279 535.533 751.391 535.795 751.391 536.104C751.391 536.413 751.279 536.68 751.055 536.904C750.842 537.117 750.58 537.224 750.271 537.224C749.962 537.224 749.695 537.117 749.471 536.904C749.258 536.68 749.151 536.413 749.151 536.104ZM749.151 529.96C749.151 529.651 749.258 529.389 749.471 529.176C749.695 528.952 749.962 528.84 750.271 528.84C750.58 528.84 750.842 528.952 751.055 529.176C751.279 529.389 751.391 529.651 751.391 529.96C751.391 530.269 751.279 530.536 751.055 530.76C750.842 530.973 750.58 531.08 750.271 531.08C749.962 531.08 749.695 530.973 749.471 530.76C749.258 530.536 749.151 530.269 749.151 529.96ZM768.009 531.112C768.009 531.496 768.169 531.789 768.489 531.992C768.819 532.195 769.417 532.328 770.281 532.392C771.209 532.467 771.913 532.691 772.393 533.064C772.883 533.427 773.129 533.96 773.129 534.664V534.76C773.129 535.144 773.049 535.491 772.889 535.8C772.739 536.099 772.526 536.355 772.249 536.568C771.982 536.781 771.651 536.941 771.257 537.048C770.873 537.165 770.451 537.224 769.993 537.224C769.374 537.224 768.841 537.144 768.393 536.984C767.955 536.813 767.587 536.595 767.289 536.328C767.001 536.051 766.782 535.741 766.633 535.4C766.483 535.048 766.398 534.696 766.377 534.344L767.561 534.056C767.614 534.664 767.849 535.155 768.265 535.528C768.681 535.891 769.235 536.072 769.929 536.072C770.515 536.072 770.985 535.96 771.337 535.736C771.699 535.501 771.881 535.176 771.881 534.76C771.881 534.312 771.705 533.992 771.353 533.8C771.001 533.608 770.43 533.485 769.641 533.432C768.723 533.368 768.019 533.155 767.529 532.792C767.038 532.429 766.793 531.901 766.793 531.208V531.112C766.793 530.739 766.873 530.413 767.033 530.136C767.193 529.848 767.406 529.608 767.673 529.416C767.95 529.224 768.259 529.08 768.601 528.984C768.942 528.888 769.299 528.84 769.673 528.84C770.195 528.84 770.654 528.915 771.049 529.064C771.443 529.203 771.774 529.389 772.041 529.624C772.307 529.848 772.51 530.109 772.649 530.408C772.798 530.707 772.894 531.005 772.937 531.304L771.753 531.592C771.699 531.08 771.491 530.68 771.129 530.392C770.777 530.104 770.313 529.96 769.737 529.96C769.513 529.96 769.294 529.987 769.081 530.04C768.878 530.083 768.697 530.152 768.537 530.248C768.377 530.344 768.249 530.467 768.153 530.616C768.057 530.755 768.009 530.92 768.009 531.112ZM778.622 526.696C778.622 526.387 778.728 526.125 778.942 525.912C779.166 525.688 779.432 525.576 779.742 525.576C780.051 525.576 780.312 525.688 780.526 525.912C780.75 526.125 780.862 526.387 780.862 526.696C780.862 527.005 780.75 527.272 780.526 527.496C780.312 527.709 780.051 527.816 779.742 527.816C779.432 527.816 779.166 527.709 778.942 527.496C778.728 527.272 778.622 527.005 778.622 526.696ZM776.35 535.848H779.134V530.216H776.638V529.064H780.382V535.848H782.974V537H776.35V535.848ZM787.203 537H785.955V529.064H787.203V530.408H787.395C787.885 529.363 788.739 528.84 789.955 528.84C790.872 528.84 791.603 529.128 792.147 529.704C792.691 530.269 792.963 531.123 792.963 532.264V537H791.715V532.52C791.715 531.688 791.528 531.064 791.155 530.648C790.781 530.232 790.275 530.024 789.635 530.024C788.877 530.024 788.28 530.285 787.843 530.808C787.416 531.32 787.203 532.008 787.203 532.872V537ZM801.783 535.784H801.591C801.335 536.264 800.983 536.627 800.535 536.872C800.098 537.107 799.618 537.224 799.095 537.224C798.562 537.224 798.061 537.133 797.591 536.952C797.122 536.771 796.706 536.509 796.343 536.168C795.991 535.827 795.709 535.405 795.495 534.904C795.293 534.392 795.191 533.811 795.191 533.16V532.904C795.191 532.264 795.298 531.693 795.511 531.192C795.725 530.68 796.007 530.253 796.359 529.912C796.711 529.56 797.122 529.293 797.591 529.112C798.061 528.931 798.551 528.84 799.063 528.84C799.639 528.84 800.141 528.968 800.567 529.224C801.005 529.469 801.346 529.832 801.591 530.312H801.783V529.064H803.031V538.952C803.031 539.315 802.914 539.613 802.679 539.848C802.455 540.083 802.162 540.2 801.799 540.2H796.631V539.048H801.351C801.639 539.048 801.783 538.888 801.783 538.568V535.784ZM799.127 536.04C799.501 536.04 799.847 535.971 800.167 535.832C800.487 535.693 800.765 535.496 800.999 535.24C801.245 534.984 801.437 534.68 801.575 534.328C801.714 533.965 801.783 533.565 801.783 533.128V532.936C801.783 532.509 801.714 532.12 801.575 531.768C801.437 531.405 801.245 531.096 800.999 530.84C800.765 530.584 800.482 530.387 800.151 530.248C799.831 530.099 799.49 530.024 799.127 530.024C798.754 530.024 798.402 530.093 798.071 530.232C797.751 530.371 797.469 530.568 797.223 530.824C796.989 531.08 796.802 531.384 796.663 531.736C796.535 532.088 796.471 532.477 796.471 532.904V533.16C796.471 533.608 796.535 534.008 796.663 534.36C796.802 534.712 796.989 535.016 797.223 535.272C797.469 535.517 797.751 535.709 798.071 535.848C798.391 535.976 798.743 536.04 799.127 536.04ZM805.548 535.848H808.428V526.952H805.644V525.8H809.676V535.848H812.556V537H805.548V535.848ZM816.257 533.416C816.289 534.205 816.534 534.84 816.993 535.32C817.452 535.8 818.092 536.04 818.913 536.04C819.286 536.04 819.612 535.997 819.889 535.912C820.166 535.827 820.401 535.709 820.593 535.56C820.796 535.411 820.956 535.24 821.073 535.048C821.201 534.845 821.302 534.632 821.377 534.408L822.561 534.728C822.337 535.464 821.921 536.067 821.313 536.536C820.716 536.995 819.905 537.224 818.881 537.224C818.316 537.224 817.793 537.128 817.313 536.936C816.844 536.733 816.438 536.451 816.097 536.088C815.756 535.725 815.489 535.293 815.297 534.792C815.105 534.291 815.009 533.736 815.009 533.128V532.744C815.009 532.189 815.105 531.672 815.297 531.192C815.5 530.712 815.777 530.301 816.129 529.96C816.481 529.608 816.892 529.336 817.361 529.144C817.841 528.941 818.358 528.84 818.913 528.84C819.564 528.84 820.124 528.963 820.593 529.208C821.073 529.443 821.462 529.736 821.761 530.088C822.07 530.44 822.294 530.824 822.433 531.24C822.582 531.656 822.657 532.04 822.657 532.392V533.416H816.257ZM818.913 530.024C818.561 530.024 818.23 530.083 817.921 530.2C817.622 530.307 817.356 530.461 817.121 530.664C816.897 530.867 816.71 531.107 816.561 531.384C816.422 531.651 816.332 531.944 816.289 532.264H821.409C821.388 531.923 821.302 531.613 821.153 531.336C821.014 531.059 820.828 530.824 820.593 530.632C820.369 530.44 820.108 530.291 819.809 530.184C819.521 530.077 819.222 530.024 818.913 530.024ZM826.246 532.264H831.046V533.416H826.246V532.264ZM834.859 529.064H837.307V527.048C837.307 526.685 837.419 526.387 837.643 526.152C837.878 525.917 838.176 525.8 838.539 525.8H841.675V526.952H838.987C838.699 526.952 838.555 527.112 838.555 527.432V529.064H841.867V530.216H838.555V537H837.307V530.216H834.859V529.064ZM852.224 533.128C852.224 533.789 852.112 534.376 851.888 534.888C851.674 535.389 851.386 535.816 851.024 536.168C850.661 536.509 850.234 536.771 849.744 536.952C849.264 537.133 848.762 537.224 848.24 537.224C847.706 537.224 847.2 537.133 846.72 536.952C846.24 536.771 845.818 536.509 845.456 536.168C845.093 535.816 844.8 535.389 844.576 534.888C844.362 534.376 844.256 533.789 844.256 533.128V532.936C844.256 532.285 844.362 531.709 844.576 531.208C844.8 530.696 845.093 530.264 845.456 529.912C845.829 529.56 846.256 529.293 846.736 529.112C847.216 528.931 847.717 528.84 848.24 528.84C848.762 528.84 849.264 528.931 849.744 529.112C850.224 529.293 850.645 529.56 851.008 529.912C851.381 530.264 851.674 530.696 851.888 531.208C852.112 531.709 852.224 532.285 852.224 532.936V533.128ZM848.24 536.04C848.624 536.04 848.976 535.976 849.296 535.848C849.626 535.709 849.914 535.512 850.16 535.256C850.405 535 850.597 534.696 850.736 534.344C850.874 533.981 850.944 533.576 850.944 533.128V532.936C850.944 532.509 850.874 532.12 850.736 531.768C850.597 531.405 850.405 531.096 850.16 530.84C849.914 530.584 849.626 530.387 849.296 530.248C848.965 530.099 848.613 530.024 848.24 530.024C847.866 530.024 847.514 530.099 847.184 530.248C846.853 530.387 846.565 530.584 846.32 530.84C846.074 531.096 845.882 531.405 845.744 531.768C845.605 532.12 845.536 532.509 845.536 532.936V533.128C845.536 533.576 845.605 533.981 845.744 534.344C845.882 534.696 846.074 535 846.32 535.256C846.565 535.512 846.848 535.709 847.168 535.848C847.498 535.976 847.856 536.04 848.24 536.04ZM854.533 535.848H857.413V526.952H854.629V525.8H858.661V535.848H861.541V537H854.533V535.848ZM870.474 535.784H870.282C870.154 536.029 869.988 536.243 869.786 536.424C869.594 536.605 869.38 536.755 869.146 536.872C868.922 536.989 868.682 537.075 868.426 537.128C868.17 537.192 867.924 537.224 867.69 537.224C867.156 537.224 866.66 537.133 866.202 536.952C865.743 536.771 865.338 536.509 864.986 536.168C864.644 535.827 864.372 535.405 864.17 534.904C863.978 534.392 863.882 533.811 863.882 533.16V532.904C863.882 532.264 863.983 531.693 864.186 531.192C864.388 530.68 864.66 530.253 865.002 529.912C865.343 529.56 865.743 529.293 866.202 529.112C866.66 528.931 867.146 528.84 867.658 528.84C868.202 528.84 868.708 528.963 869.178 529.208C869.658 529.443 870.026 529.811 870.282 530.312H870.474V525.8H871.722V537H870.474V535.784ZM867.818 536.04C868.191 536.04 868.538 535.971 868.858 535.832C869.178 535.693 869.455 535.496 869.69 535.24C869.935 534.984 870.127 534.68 870.266 534.328C870.404 533.965 870.474 533.565 870.474 533.128V532.936C870.474 532.509 870.404 532.12 870.266 531.768C870.127 531.405 869.935 531.096 869.69 530.84C869.455 530.584 869.172 530.387 868.842 530.248C868.522 530.099 868.18 530.024 867.818 530.024C867.444 530.024 867.092 530.093 866.762 530.232C866.442 530.371 866.159 530.568 865.914 530.824C865.679 531.08 865.492 531.384 865.354 531.736C865.226 532.088 865.162 532.477 865.162 532.904V533.16C865.162 533.608 865.226 534.008 865.354 534.36C865.492 534.712 865.679 535.016 865.914 535.272C866.159 535.517 866.442 535.709 866.762 535.848C867.082 535.976 867.434 536.04 867.818 536.04ZM875.23 532.264H880.03V533.416H875.23V532.264ZM885.171 537H883.923V525.8H885.171V530.504H885.363C885.609 529.992 885.95 529.587 886.387 529.288C886.835 528.989 887.379 528.84 888.019 528.84C888.883 528.84 889.582 529.128 890.115 529.704C890.659 530.269 890.931 531.123 890.931 532.264V537H889.683V532.52C889.683 531.688 889.497 531.064 889.123 530.648C888.75 530.232 888.243 530.024 887.603 530.024C886.846 530.024 886.249 530.285 885.811 530.808C885.385 531.32 885.171 532.008 885.171 532.872V537ZM901.208 533.128C901.208 533.789 901.096 534.376 900.872 534.888C900.659 535.389 900.371 535.816 900.008 536.168C899.645 536.509 899.219 536.771 898.728 536.952C898.248 537.133 897.747 537.224 897.224 537.224C896.691 537.224 896.184 537.133 895.704 536.952C895.224 536.771 894.803 536.509 894.44 536.168C894.077 535.816 893.784 535.389 893.56 534.888C893.347 534.376 893.24 533.789 893.24 533.128V532.936C893.24 532.285 893.347 531.709 893.56 531.208C893.784 530.696 894.077 530.264 894.44 529.912C894.813 529.56 895.24 529.293 895.72 529.112C896.2 528.931 896.701 528.84 897.224 528.84C897.747 528.84 898.248 528.931 898.728 529.112C899.208 529.293 899.629 529.56 899.992 529.912C900.365 530.264 900.659 530.696 900.872 531.208C901.096 531.709 901.208 532.285 901.208 532.936V533.128ZM897.224 536.04C897.608 536.04 897.96 535.976 898.28 535.848C898.611 535.709 898.899 535.512 899.144 535.256C899.389 535 899.581 534.696 899.72 534.344C899.859 533.981 899.928 533.576 899.928 533.128V532.936C899.928 532.509 899.859 532.12 899.72 531.768C899.581 531.405 899.389 531.096 899.144 530.84C898.899 530.584 898.611 530.387 898.28 530.248C897.949 530.099 897.597 530.024 897.224 530.024C896.851 530.024 896.499 530.099 896.168 530.248C895.837 530.387 895.549 530.584 895.304 530.84C895.059 531.096 894.867 531.405 894.728 531.768C894.589 532.12 894.52 532.509 894.52 532.936V533.128C894.52 533.576 894.589 533.981 894.728 534.344C894.867 534.696 895.059 535 895.304 535.256C895.549 535.512 895.832 535.709 896.152 535.848C896.483 535.976 896.84 536.04 897.224 536.04ZM903.069 529.064H905.949V530.12H906.141C906.344 529.683 906.632 529.363 907.005 529.16C907.378 528.947 907.805 528.84 908.285 528.84C909.085 528.84 909.73 529.101 910.221 529.624C910.712 530.147 910.973 530.909 911.005 531.912L909.693 532.104C909.693 531.368 909.517 530.84 909.165 530.52C908.813 530.189 908.381 530.024 907.869 530.024C907.538 530.024 907.25 530.088 907.005 530.216C906.77 530.344 906.573 530.52 906.413 530.744C906.253 530.968 906.136 531.229 906.061 531.528C905.986 531.827 905.949 532.147 905.949 532.488V535.848H907.965V537H902.877V535.848H904.701V530.216H903.069V529.064ZM915.778 526.696C915.778 526.387 915.885 526.125 916.098 525.912C916.322 525.688 916.589 525.576 916.898 525.576C917.207 525.576 917.469 525.688 917.682 525.912C917.906 526.125 918.018 526.387 918.018 526.696C918.018 527.005 917.906 527.272 917.682 527.496C917.469 527.709 917.207 527.816 916.898 527.816C916.589 527.816 916.322 527.709 916.098 527.496C915.885 527.272 915.778 527.005 915.778 526.696ZM913.506 535.848H916.29V530.216H913.794V529.064H917.538V535.848H920.13V537H913.506V535.848ZM930.087 535.848V537H923.175V535.016L928.839 530.408V530.216H923.271V529.064H929.895V530.984L924.199 535.656V535.848H930.087ZM940.396 533.128C940.396 533.789 940.284 534.376 940.06 534.888C939.846 535.389 939.558 535.816 939.196 536.168C938.833 536.509 938.406 536.771 937.916 536.952C937.436 537.133 936.934 537.224 936.412 537.224C935.878 537.224 935.372 537.133 934.892 536.952C934.412 536.771 933.99 536.509 933.628 536.168C933.265 535.816 932.972 535.389 932.748 534.888C932.534 534.376 932.428 533.789 932.428 533.128V532.936C932.428 532.285 932.534 531.709 932.748 531.208C932.972 530.696 933.265 530.264 933.628 529.912C934.001 529.56 934.428 529.293 934.908 529.112C935.388 528.931 935.889 528.84 936.412 528.84C936.934 528.84 937.436 528.931 937.916 529.112C938.396 529.293 938.817 529.56 939.18 529.912C939.553 530.264 939.846 530.696 940.06 531.208C940.284 531.709 940.396 532.285 940.396 532.936V533.128ZM936.412 536.04C936.796 536.04 937.148 535.976 937.468 535.848C937.798 535.709 938.086 535.512 938.332 535.256C938.577 535 938.769 534.696 938.908 534.344C939.046 533.981 939.116 533.576 939.116 533.128V532.936C939.116 532.509 939.046 532.12 938.908 531.768C938.769 531.405 938.577 531.096 938.332 530.84C938.086 530.584 937.798 530.387 937.468 530.248C937.137 530.099 936.785 530.024 936.412 530.024C936.038 530.024 935.686 530.099 935.356 530.248C935.025 530.387 934.737 530.584 934.492 530.84C934.246 531.096 934.054 531.405 933.916 531.768C933.777 532.12 933.708 532.509 933.708 532.936V533.128C933.708 533.576 933.777 533.981 933.916 534.344C934.054 534.696 934.246 535 934.492 535.256C934.737 535.512 935.02 535.709 935.34 535.848C935.67 535.976 936.028 536.04 936.412 536.04ZM943.953 537H942.705V529.064H943.953V530.408H944.145C944.635 529.363 945.489 528.84 946.705 528.84C947.622 528.84 948.353 529.128 948.897 529.704C949.441 530.269 949.713 531.123 949.713 532.264V537H948.465V532.52C948.465 531.688 948.278 531.064 947.905 530.648C947.531 530.232 947.025 530.024 946.385 530.024C945.627 530.024 945.03 530.285 944.593 530.808C944.166 531.32 943.953 532.008 943.953 532.872V537ZM952.229 529.064H954.725V525.8H955.973V529.064H959.045V530.216H955.973V535.368C955.973 535.688 956.117 535.848 956.405 535.848H958.661V537H955.957C955.595 537 955.296 536.883 955.061 536.648C954.837 536.413 954.725 536.115 954.725 535.752V530.216H952.229V529.064ZM968.058 535.656H967.866C967.61 536.189 967.253 536.584 966.794 536.84C966.346 537.096 965.872 537.224 965.37 537.224C964.848 537.224 964.362 537.139 963.914 536.968C963.466 536.787 963.072 536.525 962.73 536.184C962.4 535.832 962.138 535.405 961.946 534.904C961.754 534.403 961.658 533.821 961.658 533.16V532.904C961.658 532.253 961.754 531.677 961.946 531.176C962.138 530.675 962.4 530.253 962.73 529.912C963.072 529.56 963.466 529.293 963.914 529.112C964.362 528.931 964.837 528.84 965.338 528.84C965.882 528.84 966.373 528.963 966.81 529.208C967.258 529.443 967.61 529.811 967.866 530.312H968.058V529.064H969.306V535.368C969.306 535.688 969.45 535.848 969.738 535.848H970.138V537H969.29C968.928 537 968.629 536.883 968.394 536.648C968.17 536.413 968.058 536.115 968.058 535.752V535.656ZM965.498 536.04C965.872 536.04 966.213 535.971 966.522 535.832C966.842 535.693 967.114 535.496 967.338 535.24C967.562 534.984 967.738 534.68 967.866 534.328C967.994 533.965 968.058 533.565 968.058 533.128V532.936C968.058 532.509 967.994 532.12 967.866 531.768C967.738 531.405 967.557 531.096 967.322 530.84C967.098 530.584 966.826 530.387 966.506 530.248C966.197 530.099 965.861 530.024 965.498 530.024C965.125 530.024 964.784 530.093 964.474 530.232C964.165 530.371 963.893 530.568 963.658 530.824C963.434 531.069 963.258 531.373 963.13 531.736C963.002 532.088 962.938 532.477 962.938 532.904V533.16C962.938 534.067 963.173 534.776 963.642 535.288C964.122 535.789 964.741 536.04 965.498 536.04ZM972.095 535.848H974.975V526.952H972.191V525.8H976.223V535.848H979.103V537H972.095V535.848Z" fill="black"/>
<line x1="1032" y1="607" x2="1032" y2="502" stroke="#FFC602" stroke-width="4"/>
<path d="M1031.15 492.383C1031.54 491.748 1032.46 491.748 1032.85 492.383L1037.99 500.726C1038.4 501.392 1037.92 502.25 1037.14 502.25H1026.86C1026.08 502.25 1025.6 501.392 1026.01 500.726L1031.15 492.383Z" fill="#FFC602"/>
<rect x="830" y="594" width="204" height="35" rx="2" fill="#FFC602"/>
<path d="M842.88 614.128C842.88 614.789 842.768 615.376 842.544 615.888C842.331 616.389 842.043 616.816 841.68 617.168C841.317 617.509 840.891 617.771 840.4 617.952C839.92 618.133 839.419 618.224 838.896 618.224C838.363 618.224 837.856 618.133 837.376 617.952C836.896 617.771 836.475 617.509 836.112 617.168C835.749 616.816 835.456 616.389 835.232 615.888C835.019 615.376 834.912 614.789 834.912 614.128V613.936C834.912 613.285 835.019 612.709 835.232 612.208C835.456 611.696 835.749 611.264 836.112 610.912C836.485 610.56 836.912 610.293 837.392 610.112C837.872 609.931 838.373 609.84 838.896 609.84C839.419 609.84 839.92 609.931 840.4 610.112C840.88 610.293 841.301 610.56 841.664 610.912C842.037 611.264 842.331 611.696 842.544 612.208C842.768 612.709 842.88 613.285 842.88 613.936V614.128ZM838.896 617.04C839.28 617.04 839.632 616.976 839.952 616.848C840.283 616.709 840.571 616.512 840.816 616.256C841.061 616 841.253 615.696 841.392 615.344C841.531 614.981 841.6 614.576 841.6 614.128V613.936C841.6 613.509 841.531 613.12 841.392 612.768C841.253 612.405 841.061 612.096 840.816 611.84C840.571 611.584 840.283 611.387 839.952 611.248C839.621 611.099 839.269 611.024 838.896 611.024C838.523 611.024 838.171 611.099 837.84 611.248C837.509 611.387 837.221 611.584 836.976 611.84C836.731 612.096 836.539 612.405 836.4 612.768C836.261 613.12 836.192 613.509 836.192 613.936V614.128C836.192 614.576 836.261 614.981 836.4 615.344C836.539 615.696 836.731 616 836.976 616.256C837.221 616.512 837.504 616.709 837.824 616.848C838.155 616.976 838.512 617.04 838.896 617.04ZM844.741 610.064H847.621V611.12H847.813C848.016 610.683 848.304 610.363 848.677 610.16C849.05 609.947 849.477 609.84 849.957 609.84C850.757 609.84 851.402 610.101 851.893 610.624C852.384 611.147 852.645 611.909 852.677 612.912L851.365 613.104C851.365 612.368 851.189 611.84 850.837 611.52C850.485 611.189 850.053 611.024 849.541 611.024C849.21 611.024 848.922 611.088 848.677 611.216C848.442 611.344 848.245 611.52 848.085 611.744C847.925 611.968 847.808 612.229 847.733 612.528C847.658 612.827 847.621 613.147 847.621 613.488V616.848H849.637V618H844.549V616.848H846.373V611.216H844.741V610.064ZM857.45 607.696C857.45 607.387 857.556 607.125 857.77 606.912C857.994 606.688 858.26 606.576 858.57 606.576C858.879 606.576 859.14 606.688 859.354 606.912C859.578 607.125 859.69 607.387 859.69 607.696C859.69 608.005 859.578 608.272 859.354 608.496C859.14 608.709 858.879 608.816 858.57 608.816C858.26 608.816 857.994 608.709 857.77 608.496C857.556 608.272 857.45 608.005 857.45 607.696ZM855.178 616.848H857.962V611.216H855.466V610.064H859.21V616.848H861.802V618H855.178V616.848ZM865.695 614.416C865.727 615.205 865.972 615.84 866.431 616.32C866.889 616.8 867.529 617.04 868.351 617.04C868.724 617.04 869.049 616.997 869.327 616.912C869.604 616.827 869.839 616.709 870.031 616.56C870.233 616.411 870.393 616.24 870.511 616.048C870.639 615.845 870.74 615.632 870.815 615.408L871.999 615.728C871.775 616.464 871.359 617.067 870.751 617.536C870.153 617.995 869.343 618.224 868.319 618.224C867.753 618.224 867.231 618.128 866.751 617.936C866.281 617.733 865.876 617.451 865.535 617.088C865.193 616.725 864.927 616.293 864.735 615.792C864.543 615.291 864.447 614.736 864.447 614.128V613.744C864.447 613.189 864.543 612.672 864.735 612.192C864.937 611.712 865.215 611.301 865.567 610.96C865.919 610.608 866.329 610.336 866.799 610.144C867.279 609.941 867.796 609.84 868.351 609.84C869.001 609.84 869.561 609.963 870.031 610.208C870.511 610.443 870.9 610.736 871.199 611.088C871.508 611.44 871.732 611.824 871.871 612.24C872.02 612.656 872.095 613.04 872.095 613.392V614.416H865.695ZM868.351 611.024C867.999 611.024 867.668 611.083 867.359 611.2C867.06 611.307 866.793 611.461 866.559 611.664C866.335 611.867 866.148 612.107 865.999 612.384C865.86 612.651 865.769 612.944 865.727 613.264H870.847C870.825 612.923 870.74 612.613 870.591 612.336C870.452 612.059 870.265 611.824 870.031 611.632C869.807 611.44 869.545 611.291 869.247 611.184C868.959 611.077 868.66 611.024 868.351 611.024ZM875.828 618H874.58V610.064H875.828V611.408H876.02C876.51 610.363 877.364 609.84 878.58 609.84C879.497 609.84 880.228 610.128 880.772 610.704C881.316 611.269 881.588 612.123 881.588 613.264V618H880.34V613.52C880.34 612.688 880.153 612.064 879.78 611.648C879.406 611.232 878.9 611.024 878.26 611.024C877.502 611.024 876.905 611.285 876.468 611.808C876.041 612.32 875.828 613.008 875.828 613.872V618ZM884.104 610.064H886.6V606.8H887.848V610.064H890.92V611.216H887.848V616.368C887.848 616.688 887.992 616.848 888.28 616.848H890.536V618H887.832C887.47 618 887.171 617.883 886.936 617.648C886.712 617.413 886.6 617.115 886.6 616.752V611.216H884.104V610.064ZM899.933 616.656H899.741C899.485 617.189 899.128 617.584 898.669 617.84C898.221 618.096 897.747 618.224 897.245 618.224C896.723 618.224 896.237 618.139 895.789 617.968C895.341 617.787 894.947 617.525 894.605 617.184C894.275 616.832 894.013 616.405 893.821 615.904C893.629 615.403 893.533 614.821 893.533 614.16V613.904C893.533 613.253 893.629 612.677 893.821 612.176C894.013 611.675 894.275 611.253 894.605 610.912C894.947 610.56 895.341 610.293 895.789 610.112C896.237 609.931 896.712 609.84 897.213 609.84C897.757 609.84 898.248 609.963 898.685 610.208C899.133 610.443 899.485 610.811 899.741 611.312H899.933V610.064H901.181V616.368C901.181 616.688 901.325 616.848 901.613 616.848H902.013V618H901.165C900.803 618 900.504 617.883 900.269 617.648C900.045 617.413 899.933 617.115 899.933 616.752V616.656ZM897.373 617.04C897.747 617.04 898.088 616.971 898.397 616.832C898.717 616.693 898.989 616.496 899.213 616.24C899.437 615.984 899.613 615.68 899.741 615.328C899.869 614.965 899.933 614.565 899.933 614.128V613.936C899.933 613.509 899.869 613.12 899.741 612.768C899.613 612.405 899.432 612.096 899.197 611.84C898.973 611.584 898.701 611.387 898.381 611.248C898.072 611.099 897.736 611.024 897.373 611.024C897 611.024 896.659 611.093 896.349 611.232C896.04 611.371 895.768 611.568 895.533 611.824C895.309 612.069 895.133 612.373 895.005 612.736C894.877 613.088 894.813 613.477 894.813 613.904V614.16C894.813 615.067 895.048 615.776 895.517 616.288C895.997 616.789 896.616 617.04 897.373 617.04ZM903.698 610.064H906.194V606.8H907.442V610.064H910.514V611.216H907.442V616.368C907.442 616.688 907.586 616.848 907.874 616.848H910.13V618H907.426C907.063 618 906.765 617.883 906.53 617.648C906.306 617.413 906.194 617.115 906.194 616.752V611.216H903.698V610.064ZM916.231 607.696C916.231 607.387 916.338 607.125 916.551 606.912C916.775 606.688 917.042 606.576 917.351 606.576C917.66 606.576 917.922 606.688 918.135 606.912C918.359 607.125 918.471 607.387 918.471 607.696C918.471 608.005 918.359 608.272 918.135 608.496C917.922 608.709 917.66 608.816 917.351 608.816C917.042 608.816 916.775 608.709 916.551 608.496C916.338 608.272 916.231 608.005 916.231 607.696ZM913.959 616.848H916.743V611.216H914.247V610.064H917.991V616.848H920.583V618H913.959V616.848ZM931.052 614.128C931.052 614.789 930.94 615.376 930.716 615.888C930.503 616.389 930.215 616.816 929.852 617.168C929.489 617.509 929.063 617.771 928.572 617.952C928.092 618.133 927.591 618.224 927.068 618.224C926.535 618.224 926.028 618.133 925.548 617.952C925.068 617.771 924.647 617.509 924.284 617.168C923.921 616.816 923.628 616.389 923.404 615.888C923.191 615.376 923.084 614.789 923.084 614.128V613.936C923.084 613.285 923.191 612.709 923.404 612.208C923.628 611.696 923.921 611.264 924.284 610.912C924.657 610.56 925.084 610.293 925.564 610.112C926.044 609.931 926.545 609.84 927.068 609.84C927.591 609.84 928.092 609.931 928.572 610.112C929.052 610.293 929.473 610.56 929.836 610.912C930.209 611.264 930.503 611.696 930.716 612.208C930.94 612.709 931.052 613.285 931.052 613.936V614.128ZM927.068 617.04C927.452 617.04 927.804 616.976 928.124 616.848C928.455 616.709 928.743 616.512 928.988 616.256C929.233 616 929.425 615.696 929.564 615.344C929.703 614.981 929.772 614.576 929.772 614.128V613.936C929.772 613.509 929.703 613.12 929.564 612.768C929.425 612.405 929.233 612.096 928.988 611.84C928.743 611.584 928.455 611.387 928.124 611.248C927.793 611.099 927.441 611.024 927.068 611.024C926.695 611.024 926.343 611.099 926.012 611.248C925.681 611.387 925.393 611.584 925.148 611.84C924.903 612.096 924.711 612.405 924.572 612.768C924.433 613.12 924.364 613.509 924.364 613.936V614.128C924.364 614.576 924.433 614.981 924.572 615.344C924.711 615.696 924.903 616 925.148 616.256C925.393 616.512 925.676 616.709 925.996 616.848C926.327 616.976 926.684 617.04 927.068 617.04ZM934.609 618H933.361V610.064H934.609V611.408H934.801C935.291 610.363 936.145 609.84 937.361 609.84C938.278 609.84 939.009 610.128 939.553 610.704C940.097 611.269 940.369 612.123 940.369 613.264V618H939.121V613.52C939.121 612.688 938.934 612.064 938.561 611.648C938.187 611.232 937.681 611.024 937.041 611.024C936.283 611.024 935.686 611.285 935.249 611.808C934.822 612.32 934.609 613.008 934.609 613.872V618ZM945.542 617.104C945.542 616.795 945.648 616.533 945.862 616.32C946.086 616.096 946.352 615.984 946.662 615.984C946.971 615.984 947.232 616.096 947.446 616.32C947.67 616.533 947.782 616.795 947.782 617.104C947.782 617.413 947.67 617.68 947.446 617.904C947.232 618.117 946.971 618.224 946.662 618.224C946.352 618.224 946.086 618.117 945.862 617.904C945.648 617.68 945.542 617.413 945.542 617.104ZM945.542 610.96C945.542 610.651 945.648 610.389 945.862 610.176C946.086 609.952 946.352 609.84 946.662 609.84C946.971 609.84 947.232 609.952 947.446 610.176C947.67 610.389 947.782 610.651 947.782 610.96C947.782 611.269 947.67 611.536 947.446 611.76C947.232 611.973 946.971 612.08 946.662 612.08C946.352 612.08 946.086 611.973 945.862 611.76C945.648 611.536 945.542 611.269 945.542 610.96ZM953.914 621.2H952.667V610.064H953.914V611.312H954.107C954.384 610.832 954.768 610.469 955.259 610.224C955.749 609.968 956.283 609.84 956.859 609.84C957.349 609.84 957.813 609.931 958.251 610.112C958.688 610.293 959.072 610.555 959.403 610.896C959.744 611.237 960.011 611.659 960.203 612.16C960.405 612.661 960.507 613.232 960.507 613.872V614.192C960.507 614.843 960.411 615.419 960.219 615.92C960.027 616.421 959.76 616.843 959.419 617.184C959.088 617.525 958.699 617.787 958.251 617.968C957.803 618.139 957.328 618.224 956.827 618.224C956.571 618.224 956.309 618.192 956.043 618.128C955.776 618.075 955.52 617.989 955.275 617.872C955.04 617.744 954.821 617.595 954.619 617.424C954.416 617.243 954.245 617.029 954.107 616.784H953.914V621.2ZM956.571 617.04C956.955 617.04 957.307 616.976 957.627 616.848C957.947 616.709 958.224 616.517 958.459 616.272C958.704 616.027 958.891 615.728 959.019 615.376C959.157 615.024 959.227 614.629 959.227 614.192V613.872C959.227 613.445 959.157 613.061 959.019 612.72C958.891 612.368 958.704 612.069 958.459 611.824C958.224 611.568 957.941 611.371 957.611 611.232C957.291 611.093 956.944 611.024 956.571 611.024C956.197 611.024 955.851 611.099 955.531 611.248C955.211 611.387 954.928 611.584 954.683 611.84C954.448 612.096 954.261 612.405 954.123 612.768C953.984 613.12 953.914 613.509 953.914 613.936V614.128C953.914 614.565 953.984 614.965 954.123 615.328C954.261 615.68 954.448 615.984 954.683 616.24C954.928 616.496 955.211 616.693 955.531 616.832C955.851 616.971 956.197 617.04 956.571 617.04ZM970.239 614.128C970.239 614.789 970.127 615.376 969.903 615.888C969.69 616.389 969.402 616.816 969.039 617.168C968.677 617.509 968.25 617.771 967.759 617.952C967.279 618.133 966.778 618.224 966.255 618.224C965.722 618.224 965.215 618.133 964.735 617.952C964.255 617.771 963.834 617.509 963.471 617.168C963.109 616.816 962.815 616.389 962.591 615.888C962.378 615.376 962.271 614.789 962.271 614.128V613.936C962.271 613.285 962.378 612.709 962.591 612.208C962.815 611.696 963.109 611.264 963.471 610.912C963.845 610.56 964.271 610.293 964.751 610.112C965.231 609.931 965.733 609.84 966.255 609.84C966.778 609.84 967.279 609.931 967.759 610.112C968.239 610.293 968.661 610.56 969.023 610.912C969.397 611.264 969.69 611.696 969.903 612.208C970.127 612.709 970.239 613.285 970.239 613.936V614.128ZM966.255 617.04C966.639 617.04 966.991 616.976 967.311 616.848C967.642 616.709 967.93 616.512 968.175 616.256C968.421 616 968.613 615.696 968.751 615.344C968.89 614.981 968.959 614.576 968.959 614.128V613.936C968.959 613.509 968.89 613.12 968.751 612.768C968.613 612.405 968.421 612.096 968.175 611.84C967.93 611.584 967.642 611.387 967.311 611.248C966.981 611.099 966.629 611.024 966.255 611.024C965.882 611.024 965.53 611.099 965.199 611.248C964.869 611.387 964.581 611.584 964.335 611.84C964.09 612.096 963.898 612.405 963.759 612.768C963.621 613.12 963.551 613.509 963.551 613.936V614.128C963.551 614.576 963.621 614.981 963.759 615.344C963.898 615.696 964.09 616 964.335 616.256C964.581 616.512 964.863 616.709 965.183 616.848C965.514 616.976 965.871 617.04 966.255 617.04ZM972.1 610.064H974.98V611.12H975.172C975.375 610.683 975.663 610.363 976.036 610.16C976.41 609.947 976.836 609.84 977.316 609.84C978.116 609.84 978.762 610.101 979.252 610.624C979.743 611.147 980.004 611.909 980.036 612.912L978.724 613.104C978.724 612.368 978.548 611.84 978.196 611.52C977.844 611.189 977.412 611.024 976.9 611.024C976.57 611.024 976.282 611.088 976.036 611.216C975.802 611.344 975.604 611.52 975.444 611.744C975.284 611.968 975.167 612.229 975.092 612.528C975.018 612.827 974.98 613.147 974.98 613.488V616.848H976.996V618H971.908V616.848H973.732V611.216H972.1V610.064ZM982.073 610.064H984.569V606.8H985.817V610.064H988.889V611.216H985.817V616.368C985.817 616.688 985.961 616.848 986.249 616.848H988.505V618H985.801C985.438 618 985.14 617.883 984.905 617.648C984.681 617.413 984.569 617.115 984.569 616.752V611.216H982.073V610.064ZM991.694 610.064H994.574V611.12H994.766C994.969 610.683 995.257 610.363 995.63 610.16C996.003 609.947 996.43 609.84 996.91 609.84C997.71 609.84 998.355 610.101 998.846 610.624C999.337 611.147 999.598 611.909 999.63 612.912L998.318 613.104C998.318 612.368 998.142 611.84 997.79 611.52C997.438 611.189 997.006 611.024 996.494 611.024C996.163 611.024 995.875 611.088 995.63 611.216C995.395 611.344 995.198 611.52 995.038 611.744C994.878 611.968 994.761 612.229 994.686 612.528C994.611 612.827 994.574 613.147 994.574 613.488V616.848H996.59V618H991.502V616.848H993.326V611.216H991.694V610.064ZM1007.7 616.656H1007.51C1007.25 617.189 1006.89 617.584 1006.43 617.84C1005.99 618.096 1005.51 618.224 1005.01 618.224C1004.49 618.224 1004 618.139 1003.55 617.968C1003.11 617.787 1002.71 617.525 1002.37 617.184C1002.04 616.832 1001.78 616.405 1001.59 615.904C1001.39 615.403 1001.3 614.821 1001.3 614.16V613.904C1001.3 613.253 1001.39 612.677 1001.59 612.176C1001.78 611.675 1002.04 611.253 1002.37 610.912C1002.71 610.56 1003.11 610.293 1003.55 610.112C1004 609.931 1004.48 609.84 1004.98 609.84C1005.52 609.84 1006.01 609.963 1006.45 610.208C1006.9 610.443 1007.25 610.811 1007.51 611.312H1007.7V610.064H1008.95V616.368C1008.95 616.688 1009.09 616.848 1009.38 616.848H1009.78V618H1008.93C1008.57 618 1008.27 617.883 1008.03 617.648C1007.81 617.413 1007.7 617.115 1007.7 616.752V616.656ZM1005.14 617.04C1005.51 617.04 1005.85 616.971 1006.16 616.832C1006.48 616.693 1006.75 616.496 1006.98 616.24C1007.2 615.984 1007.38 615.68 1007.51 615.328C1007.63 614.965 1007.7 614.565 1007.7 614.128V613.936C1007.7 613.509 1007.63 613.12 1007.51 612.768C1007.38 612.405 1007.2 612.096 1006.96 611.84C1006.74 611.584 1006.47 611.387 1006.15 611.248C1005.84 611.099 1005.5 611.024 1005.14 611.024C1004.77 611.024 1004.42 611.093 1004.11 611.232C1003.81 611.371 1003.53 611.568 1003.3 611.824C1003.07 612.069 1002.9 612.373 1002.77 612.736C1002.64 613.088 1002.58 613.477 1002.58 613.904V614.16C1002.58 615.067 1002.81 615.776 1003.28 616.288C1003.76 616.789 1004.38 617.04 1005.14 617.04ZM1014.2 607.696C1014.2 607.387 1014.31 607.125 1014.52 606.912C1014.74 606.688 1015.01 606.576 1015.32 606.576C1015.63 606.576 1015.89 606.688 1016.1 606.912C1016.33 607.125 1016.44 607.387 1016.44 607.696C1016.44 608.005 1016.33 608.272 1016.1 608.496C1015.89 608.709 1015.63 608.816 1015.32 608.816C1015.01 608.816 1014.74 608.709 1014.52 608.496C1014.31 608.272 1014.2 608.005 1014.2 607.696ZM1011.93 616.848H1014.71V611.216H1012.22V610.064H1015.96V616.848H1018.55V618H1011.93V616.848ZM1021.26 610.064H1023.76V606.8H1025V610.064H1028.08V611.216H1025V616.368C1025 616.688 1025.15 616.848 1025.44 616.848H1027.69V618H1024.99C1024.63 618 1024.33 617.883 1024.09 617.648C1023.87 617.413 1023.76 617.115 1023.76 616.752V611.216H1021.26V610.064Z" fill="black"/>
<line x1="297" y1="488" x2="297" y2="446" stroke="#FD94FF" stroke-width="4"/>
<path d="M296.149 436.383C296.539 435.748 297.461 435.748 297.851 436.383L302.989 444.726C303.4 445.392 302.92 446.25 302.138 446.25H291.862C291.08 446.25 290.6 445.392 291.011 444.726L296.149 436.383Z" fill="#FD94FF"/>
<rect x="295" y="479" width="307" height="35" rx="2" fill="#FD94FF"/>
<path d="M305.04 497.112C305.04 497.496 305.2 497.789 305.52 497.992C305.851 498.195 306.448 498.328 307.312 498.392C308.24 498.467 308.944 498.691 309.424 499.064C309.915 499.427 310.16 499.96 310.16 500.664V500.76C310.16 501.144 310.08 501.491 309.92 501.8C309.771 502.099 309.557 502.355 309.28 502.568C309.013 502.781 308.683 502.941 308.288 503.048C307.904 503.165 307.483 503.224 307.024 503.224C306.405 503.224 305.872 503.144 305.424 502.984C304.987 502.813 304.619 502.595 304.32 502.328C304.032 502.051 303.813 501.741 303.664 501.4C303.515 501.048 303.429 500.696 303.408 500.344L304.592 500.056C304.645 500.664 304.88 501.155 305.296 501.528C305.712 501.891 306.267 502.072 306.96 502.072C307.547 502.072 308.016 501.96 308.368 501.736C308.731 501.501 308.912 501.176 308.912 500.76C308.912 500.312 308.736 499.992 308.384 499.8C308.032 499.608 307.461 499.485 306.672 499.432C305.755 499.368 305.051 499.155 304.56 498.792C304.069 498.429 303.824 497.901 303.824 497.208V497.112C303.824 496.739 303.904 496.413 304.064 496.136C304.224 495.848 304.437 495.608 304.704 495.416C304.981 495.224 305.291 495.08 305.632 494.984C305.973 494.888 306.331 494.84 306.704 494.84C307.227 494.84 307.685 494.915 308.08 495.064C308.475 495.203 308.805 495.389 309.072 495.624C309.339 495.848 309.541 496.109 309.68 496.408C309.829 496.707 309.925 497.005 309.968 497.304L308.784 497.592C308.731 497.08 308.523 496.68 308.16 496.392C307.808 496.104 307.344 495.96 306.768 495.96C306.544 495.96 306.325 495.987 306.112 496.04C305.909 496.083 305.728 496.152 305.568 496.248C305.408 496.344 305.28 496.467 305.184 496.616C305.088 496.755 305.04 496.92 305.04 497.112ZM314.149 506.2H312.901V495.064H314.149V496.312H314.341C314.618 495.832 315.002 495.469 315.493 495.224C315.984 494.968 316.517 494.84 317.093 494.84C317.584 494.84 318.048 494.931 318.485 495.112C318.922 495.293 319.306 495.555 319.637 495.896C319.978 496.237 320.245 496.659 320.437 497.16C320.64 497.661 320.741 498.232 320.741 498.872V499.192C320.741 499.843 320.645 500.419 320.453 500.92C320.261 501.421 319.994 501.843 319.653 502.184C319.322 502.525 318.933 502.787 318.485 502.968C318.037 503.139 317.562 503.224 317.061 503.224C316.805 503.224 316.544 503.192 316.277 503.128C316.01 503.075 315.754 502.989 315.509 502.872C315.274 502.744 315.056 502.595 314.853 502.424C314.65 502.243 314.48 502.029 314.341 501.784H314.149V506.2ZM316.805 502.04C317.189 502.04 317.541 501.976 317.861 501.848C318.181 501.709 318.458 501.517 318.693 501.272C318.938 501.027 319.125 500.728 319.253 500.376C319.392 500.024 319.461 499.629 319.461 499.192V498.872C319.461 498.445 319.392 498.061 319.253 497.72C319.125 497.368 318.938 497.069 318.693 496.824C318.458 496.568 318.176 496.371 317.845 496.232C317.525 496.093 317.178 496.024 316.805 496.024C316.432 496.024 316.085 496.099 315.765 496.248C315.445 496.387 315.162 496.584 314.917 496.84C314.682 497.096 314.496 497.405 314.357 497.768C314.218 498.12 314.149 498.509 314.149 498.936V499.128C314.149 499.565 314.218 499.965 314.357 500.328C314.496 500.68 314.682 500.984 314.917 501.24C315.162 501.496 315.445 501.693 315.765 501.832C316.085 501.971 316.432 502.04 316.805 502.04ZM328.746 501.656H328.554C328.298 502.189 327.94 502.584 327.482 502.84C327.034 503.096 326.559 503.224 326.058 503.224C325.535 503.224 325.05 503.139 324.602 502.968C324.154 502.787 323.759 502.525 323.418 502.184C323.087 501.832 322.826 501.405 322.634 500.904C322.442 500.403 322.346 499.821 322.346 499.16V498.904C322.346 498.253 322.442 497.677 322.634 497.176C322.826 496.675 323.087 496.253 323.418 495.912C323.759 495.56 324.154 495.293 324.602 495.112C325.05 494.931 325.524 494.84 326.026 494.84C326.57 494.84 327.06 494.963 327.498 495.208C327.946 495.443 328.298 495.811 328.554 496.312H328.746V495.064H329.994V501.368C329.994 501.688 330.138 501.848 330.426 501.848H330.826V503H329.978C329.615 503 329.316 502.883 329.082 502.648C328.858 502.413 328.746 502.115 328.746 501.752V501.656ZM326.186 502.04C326.559 502.04 326.9 501.971 327.21 501.832C327.53 501.693 327.802 501.496 328.026 501.24C328.25 500.984 328.426 500.68 328.554 500.328C328.682 499.965 328.746 499.565 328.746 499.128V498.936C328.746 498.509 328.682 498.12 328.554 497.768C328.426 497.405 328.244 497.096 328.01 496.84C327.786 496.584 327.514 496.387 327.194 496.248C326.884 496.099 326.548 496.024 326.186 496.024C325.812 496.024 325.471 496.093 325.162 496.232C324.852 496.371 324.58 496.568 324.346 496.824C324.122 497.069 323.946 497.373 323.818 497.736C323.69 498.088 323.626 498.477 323.626 498.904V499.16C323.626 500.067 323.86 500.776 324.33 501.288C324.81 501.789 325.428 502.04 326.186 502.04ZM334.031 503H332.783V495.064H334.031V496.408H334.223C334.713 495.363 335.567 494.84 336.783 494.84C337.7 494.84 338.431 495.128 338.975 495.704C339.519 496.269 339.791 497.123 339.791 498.264V503H338.543V498.52C338.543 497.688 338.356 497.064 337.983 496.648C337.609 496.232 337.103 496.024 336.463 496.024C335.705 496.024 335.108 496.285 334.671 496.808C334.244 497.32 334.031 498.008 334.031 498.872V503ZM343.828 503H342.58V495.064H343.828V496.408H344.02C344.51 495.363 345.364 494.84 346.58 494.84C347.497 494.84 348.228 495.128 348.772 495.704C349.316 496.269 349.588 497.123 349.588 498.264V503H348.34V498.52C348.34 497.688 348.153 497.064 347.78 496.648C347.406 496.232 346.9 496.024 346.26 496.024C345.502 496.024 344.905 496.285 344.468 496.808C344.041 497.32 343.828 498.008 343.828 498.872V503ZM354.84 492.696C354.84 492.387 354.947 492.125 355.16 491.912C355.384 491.688 355.651 491.576 355.96 491.576C356.27 491.576 356.531 491.688 356.744 491.912C356.968 492.125 357.08 492.387 357.08 492.696C357.08 493.005 356.968 493.272 356.744 493.496C356.531 493.709 356.27 493.816 355.96 493.816C355.651 493.816 355.384 493.709 355.16 493.496C354.947 493.272 354.84 493.005 354.84 492.696ZM352.568 501.848H355.352V496.216H352.856V495.064H356.6V501.848H359.192V503H352.568V501.848ZM363.421 503H362.173V495.064H363.421V496.408H363.613C364.104 495.363 364.957 494.84 366.173 494.84C367.091 494.84 367.821 495.128 368.365 495.704C368.909 496.269 369.181 497.123 369.181 498.264V503H367.933V498.52C367.933 497.688 367.747 497.064 367.373 496.648C367 496.232 366.493 496.024 365.853 496.024C365.096 496.024 364.499 496.285 364.061 496.808C363.635 497.32 363.421 498.008 363.421 498.872V503ZM378.002 501.784H377.81C377.554 502.264 377.202 502.627 376.754 502.872C376.317 503.107 375.837 503.224 375.314 503.224C374.781 503.224 374.279 503.133 373.81 502.952C373.341 502.771 372.925 502.509 372.562 502.168C372.21 501.827 371.927 501.405 371.714 500.904C371.511 500.392 371.41 499.811 371.41 499.16V498.904C371.41 498.264 371.517 497.693 371.73 497.192C371.943 496.68 372.226 496.253 372.578 495.912C372.93 495.56 373.341 495.293 373.81 495.112C374.279 494.931 374.77 494.84 375.282 494.84C375.858 494.84 376.359 494.968 376.786 495.224C377.223 495.469 377.565 495.832 377.81 496.312H378.002V495.064H379.25V504.952C379.25 505.315 379.133 505.613 378.898 505.848C378.674 506.083 378.381 506.2 378.018 506.2H372.85V505.048H377.57C377.858 505.048 378.002 504.888 378.002 504.568V501.784ZM375.346 502.04C375.719 502.04 376.066 501.971 376.386 501.832C376.706 501.693 376.983 501.496 377.218 501.24C377.463 500.984 377.655 500.68 377.794 500.328C377.933 499.965 378.002 499.565 378.002 499.128V498.936C378.002 498.509 377.933 498.12 377.794 497.768C377.655 497.405 377.463 497.096 377.218 496.84C376.983 496.584 376.701 496.387 376.37 496.248C376.05 496.099 375.709 496.024 375.346 496.024C374.973 496.024 374.621 496.093 374.29 496.232C373.97 496.371 373.687 496.568 373.442 496.824C373.207 497.08 373.021 497.384 372.882 497.736C372.754 498.088 372.69 498.477 372.69 498.904V499.16C372.69 499.608 372.754 500.008 372.882 500.36C373.021 500.712 373.207 501.016 373.442 501.272C373.687 501.517 373.97 501.709 374.29 501.848C374.61 501.976 374.962 502.04 375.346 502.04ZM384.151 502.104C384.151 501.795 384.258 501.533 384.471 501.32C384.695 501.096 384.962 500.984 385.271 500.984C385.58 500.984 385.842 501.096 386.055 501.32C386.279 501.533 386.391 501.795 386.391 502.104C386.391 502.413 386.279 502.68 386.055 502.904C385.842 503.117 385.58 503.224 385.271 503.224C384.962 503.224 384.695 503.117 384.471 502.904C384.258 502.68 384.151 502.413 384.151 502.104ZM384.151 495.96C384.151 495.651 384.258 495.389 384.471 495.176C384.695 494.952 384.962 494.84 385.271 494.84C385.58 494.84 385.842 494.952 386.055 495.176C386.279 495.389 386.391 495.651 386.391 495.96C386.391 496.269 386.279 496.536 386.055 496.76C385.842 496.973 385.58 497.08 385.271 497.08C384.962 497.08 384.695 496.973 384.471 496.76C384.258 496.536 384.151 496.269 384.151 495.96ZM403.009 497.112C403.009 497.496 403.169 497.789 403.489 497.992C403.819 498.195 404.417 498.328 405.281 498.392C406.209 498.467 406.913 498.691 407.393 499.064C407.883 499.427 408.129 499.96 408.129 500.664V500.76C408.129 501.144 408.049 501.491 407.889 501.8C407.739 502.099 407.526 502.355 407.249 502.568C406.982 502.781 406.651 502.941 406.257 503.048C405.873 503.165 405.451 503.224 404.993 503.224C404.374 503.224 403.841 503.144 403.393 502.984C402.955 502.813 402.587 502.595 402.289 502.328C402.001 502.051 401.782 501.741 401.633 501.4C401.483 501.048 401.398 500.696 401.377 500.344L402.561 500.056C402.614 500.664 402.849 501.155 403.265 501.528C403.681 501.891 404.235 502.072 404.929 502.072C405.515 502.072 405.985 501.96 406.337 501.736C406.699 501.501 406.881 501.176 406.881 500.76C406.881 500.312 406.705 499.992 406.353 499.8C406.001 499.608 405.43 499.485 404.641 499.432C403.723 499.368 403.019 499.155 402.529 498.792C402.038 498.429 401.793 497.901 401.793 497.208V497.112C401.793 496.739 401.873 496.413 402.033 496.136C402.193 495.848 402.406 495.608 402.673 495.416C402.95 495.224 403.259 495.08 403.601 494.984C403.942 494.888 404.299 494.84 404.673 494.84C405.195 494.84 405.654 494.915 406.049 495.064C406.443 495.203 406.774 495.389 407.041 495.624C407.307 495.848 407.51 496.109 407.649 496.408C407.798 496.707 407.894 497.005 407.937 497.304L406.753 497.592C406.699 497.08 406.491 496.68 406.129 496.392C405.777 496.104 405.313 495.96 404.737 495.96C404.513 495.96 404.294 495.987 404.081 496.04C403.878 496.083 403.697 496.152 403.537 496.248C403.377 496.344 403.249 496.467 403.153 496.616C403.057 496.755 403.009 496.92 403.009 497.112ZM413.622 492.696C413.622 492.387 413.728 492.125 413.942 491.912C414.166 491.688 414.432 491.576 414.742 491.576C415.051 491.576 415.312 491.688 415.526 491.912C415.75 492.125 415.862 492.387 415.862 492.696C415.862 493.005 415.75 493.272 415.526 493.496C415.312 493.709 415.051 493.816 414.742 493.816C414.432 493.816 414.166 493.709 413.942 493.496C413.728 493.272 413.622 493.005 413.622 492.696ZM411.35 501.848H414.134V496.216H411.638V495.064H415.382V501.848H417.974V503H411.35V501.848ZM422.203 503H420.955V495.064H422.203V496.408H422.395C422.885 495.363 423.739 494.84 424.955 494.84C425.872 494.84 426.603 495.128 427.147 495.704C427.691 496.269 427.963 497.123 427.963 498.264V503H426.715V498.52C426.715 497.688 426.528 497.064 426.155 496.648C425.781 496.232 425.275 496.024 424.635 496.024C423.877 496.024 423.28 496.285 422.843 496.808C422.416 497.32 422.203 498.008 422.203 498.872V503ZM436.783 501.784H436.591C436.335 502.264 435.983 502.627 435.535 502.872C435.098 503.107 434.618 503.224 434.095 503.224C433.562 503.224 433.061 503.133 432.591 502.952C432.122 502.771 431.706 502.509 431.343 502.168C430.991 501.827 430.709 501.405 430.495 500.904C430.293 500.392 430.191 499.811 430.191 499.16V498.904C430.191 498.264 430.298 497.693 430.511 497.192C430.725 496.68 431.007 496.253 431.359 495.912C431.711 495.56 432.122 495.293 432.591 495.112C433.061 494.931 433.551 494.84 434.063 494.84C434.639 494.84 435.141 494.968 435.567 495.224C436.005 495.469 436.346 495.832 436.591 496.312H436.783V495.064H438.031V504.952C438.031 505.315 437.914 505.613 437.679 505.848C437.455 506.083 437.162 506.2 436.799 506.2H431.631V505.048H436.351C436.639 505.048 436.783 504.888 436.783 504.568V501.784ZM434.127 502.04C434.501 502.04 434.847 501.971 435.167 501.832C435.487 501.693 435.765 501.496 435.999 501.24C436.245 500.984 436.437 500.68 436.575 500.328C436.714 499.965 436.783 499.565 436.783 499.128V498.936C436.783 498.509 436.714 498.12 436.575 497.768C436.437 497.405 436.245 497.096 435.999 496.84C435.765 496.584 435.482 496.387 435.151 496.248C434.831 496.099 434.49 496.024 434.127 496.024C433.754 496.024 433.402 496.093 433.071 496.232C432.751 496.371 432.469 496.568 432.223 496.824C431.989 497.08 431.802 497.384 431.663 497.736C431.535 498.088 431.471 498.477 431.471 498.904V499.16C431.471 499.608 431.535 500.008 431.663 500.36C431.802 500.712 431.989 501.016 432.223 501.272C432.469 501.517 432.751 501.709 433.071 501.848C433.391 501.976 433.743 502.04 434.127 502.04ZM440.548 501.848H443.428V492.952H440.644V491.8H444.676V501.848H447.556V503H440.548V501.848ZM451.257 499.416C451.289 500.205 451.534 500.84 451.993 501.32C452.452 501.8 453.092 502.04 453.913 502.04C454.286 502.04 454.612 501.997 454.889 501.912C455.166 501.827 455.401 501.709 455.593 501.56C455.796 501.411 455.956 501.24 456.073 501.048C456.201 500.845 456.302 500.632 456.377 500.408L457.561 500.728C457.337 501.464 456.921 502.067 456.313 502.536C455.716 502.995 454.905 503.224 453.881 503.224C453.316 503.224 452.793 503.128 452.313 502.936C451.844 502.733 451.438 502.451 451.097 502.088C450.756 501.725 450.489 501.293 450.297 500.792C450.105 500.291 450.009 499.736 450.009 499.128V498.744C450.009 498.189 450.105 497.672 450.297 497.192C450.5 496.712 450.777 496.301 451.129 495.96C451.481 495.608 451.892 495.336 452.361 495.144C452.841 494.941 453.358 494.84 453.913 494.84C454.564 494.84 455.124 494.963 455.593 495.208C456.073 495.443 456.462 495.736 456.761 496.088C457.07 496.44 457.294 496.824 457.433 497.24C457.582 497.656 457.657 498.04 457.657 498.392V499.416H451.257ZM453.913 496.024C453.561 496.024 453.23 496.083 452.921 496.2C452.622 496.307 452.356 496.461 452.121 496.664C451.897 496.867 451.71 497.107 451.561 497.384C451.422 497.651 451.332 497.944 451.289 498.264H456.409C456.388 497.923 456.302 497.613 456.153 497.336C456.014 497.059 455.828 496.824 455.593 496.632C455.369 496.44 455.108 496.291 454.809 496.184C454.521 496.077 454.222 496.024 453.913 496.024ZM461.246 498.264H466.046V499.416H461.246V498.264ZM469.859 495.064H472.307V493.048C472.307 492.685 472.419 492.387 472.643 492.152C472.878 491.917 473.176 491.8 473.539 491.8H476.675V492.952H473.987C473.699 492.952 473.555 493.112 473.555 493.432V495.064H476.867V496.216H473.555V503H472.307V496.216H469.859V495.064ZM487.224 499.128C487.224 499.789 487.112 500.376 486.888 500.888C486.674 501.389 486.386 501.816 486.024 502.168C485.661 502.509 485.234 502.771 484.744 502.952C484.264 503.133 483.762 503.224 483.24 503.224C482.706 503.224 482.2 503.133 481.72 502.952C481.24 502.771 480.818 502.509 480.456 502.168C480.093 501.816 479.8 501.389 479.576 500.888C479.362 500.376 479.256 499.789 479.256 499.128V498.936C479.256 498.285 479.362 497.709 479.576 497.208C479.8 496.696 480.093 496.264 480.456 495.912C480.829 495.56 481.256 495.293 481.736 495.112C482.216 494.931 482.717 494.84 483.24 494.84C483.762 494.84 484.264 494.931 484.744 495.112C485.224 495.293 485.645 495.56 486.008 495.912C486.381 496.264 486.674 496.696 486.888 497.208C487.112 497.709 487.224 498.285 487.224 498.936V499.128ZM483.24 502.04C483.624 502.04 483.976 501.976 484.296 501.848C484.626 501.709 484.914 501.512 485.16 501.256C485.405 501 485.597 500.696 485.736 500.344C485.874 499.981 485.944 499.576 485.944 499.128V498.936C485.944 498.509 485.874 498.12 485.736 497.768C485.597 497.405 485.405 497.096 485.16 496.84C484.914 496.584 484.626 496.387 484.296 496.248C483.965 496.099 483.613 496.024 483.24 496.024C482.866 496.024 482.514 496.099 482.184 496.248C481.853 496.387 481.565 496.584 481.32 496.84C481.074 497.096 480.882 497.405 480.744 497.768C480.605 498.12 480.536 498.509 480.536 498.936V499.128C480.536 499.576 480.605 499.981 480.744 500.344C480.882 500.696 481.074 501 481.32 501.256C481.565 501.512 481.848 501.709 482.168 501.848C482.498 501.976 482.856 502.04 483.24 502.04ZM489.533 501.848H492.413V492.952H489.629V491.8H493.661V501.848H496.541V503H489.533V501.848ZM505.474 501.784H505.282C505.154 502.029 504.988 502.243 504.786 502.424C504.594 502.605 504.38 502.755 504.146 502.872C503.922 502.989 503.682 503.075 503.426 503.128C503.17 503.192 502.924 503.224 502.69 503.224C502.156 503.224 501.66 503.133 501.202 502.952C500.743 502.771 500.338 502.509 499.986 502.168C499.644 501.827 499.372 501.405 499.17 500.904C498.978 500.392 498.882 499.811 498.882 499.16V498.904C498.882 498.264 498.983 497.693 499.186 497.192C499.388 496.68 499.66 496.253 500.002 495.912C500.343 495.56 500.743 495.293 501.202 495.112C501.66 494.931 502.146 494.84 502.658 494.84C503.202 494.84 503.708 494.963 504.178 495.208C504.658 495.443 505.026 495.811 505.282 496.312H505.474V491.8H506.722V503H505.474V501.784ZM502.818 502.04C503.191 502.04 503.538 501.971 503.858 501.832C504.178 501.693 504.455 501.496 504.69 501.24C504.935 500.984 505.127 500.68 505.266 500.328C505.404 499.965 505.474 499.565 505.474 499.128V498.936C505.474 498.509 505.404 498.12 505.266 497.768C505.127 497.405 504.935 497.096 504.69 496.84C504.455 496.584 504.172 496.387 503.842 496.248C503.522 496.099 503.18 496.024 502.818 496.024C502.444 496.024 502.092 496.093 501.762 496.232C501.442 496.371 501.159 496.568 500.914 496.824C500.679 497.08 500.492 497.384 500.354 497.736C500.226 498.088 500.162 498.477 500.162 498.904V499.16C500.162 499.608 500.226 500.008 500.354 500.36C500.492 500.712 500.679 501.016 500.914 501.272C501.159 501.517 501.442 501.709 501.762 501.848C502.082 501.976 502.434 502.04 502.818 502.04ZM510.23 498.264H515.03V499.416H510.23V498.264ZM523.643 503H521.179L518.411 495.064H519.883L522.315 502.424H522.507L524.939 495.064H526.411L523.643 503ZM529.632 499.416C529.664 500.205 529.909 500.84 530.368 501.32C530.827 501.8 531.467 502.04 532.288 502.04C532.661 502.04 532.987 501.997 533.264 501.912C533.541 501.827 533.776 501.709 533.968 501.56C534.171 501.411 534.331 501.24 534.448 501.048C534.576 500.845 534.677 500.632 534.752 500.408L535.936 500.728C535.712 501.464 535.296 502.067 534.688 502.536C534.091 502.995 533.28 503.224 532.256 503.224C531.691 503.224 531.168 503.128 530.688 502.936C530.219 502.733 529.813 502.451 529.472 502.088C529.131 501.725 528.864 501.293 528.672 500.792C528.48 500.291 528.384 499.736 528.384 499.128V498.744C528.384 498.189 528.48 497.672 528.672 497.192C528.875 496.712 529.152 496.301 529.504 495.96C529.856 495.608 530.267 495.336 530.736 495.144C531.216 494.941 531.733 494.84 532.288 494.84C532.939 494.84 533.499 494.963 533.968 495.208C534.448 495.443 534.837 495.736 535.136 496.088C535.445 496.44 535.669 496.824 535.808 497.24C535.957 497.656 536.032 498.04 536.032 498.392V499.416H529.632ZM532.288 496.024C531.936 496.024 531.605 496.083 531.296 496.2C530.997 496.307 530.731 496.461 530.496 496.664C530.272 496.867 530.085 497.107 529.936 497.384C529.797 497.651 529.707 497.944 529.664 498.264H534.784C534.763 497.923 534.677 497.613 534.528 497.336C534.389 497.059 534.203 496.824 533.968 496.632C533.744 496.44 533.483 496.291 533.184 496.184C532.896 496.077 532.597 496.024 532.288 496.024ZM538.069 495.064H540.949V496.12H541.141C541.344 495.683 541.632 495.363 542.005 495.16C542.378 494.947 542.805 494.84 543.285 494.84C544.085 494.84 544.73 495.101 545.221 495.624C545.712 496.147 545.973 496.909 546.005 497.912L544.693 498.104C544.693 497.368 544.517 496.84 544.165 496.52C543.813 496.189 543.381 496.024 542.869 496.024C542.538 496.024 542.25 496.088 542.005 496.216C541.77 496.344 541.573 496.52 541.413 496.744C541.253 496.968 541.136 497.229 541.061 497.528C540.986 497.827 540.949 498.147 540.949 498.488V501.848H542.965V503H537.877V501.848H539.701V496.216H538.069V495.064ZM548.042 495.064H550.538V491.8H551.786V495.064H554.858V496.216H551.786V501.368C551.786 501.688 551.93 501.848 552.218 501.848H554.474V503H551.77C551.407 503 551.109 502.883 550.874 502.648C550.65 502.413 550.538 502.115 550.538 501.752V496.216H548.042V495.064ZM560.575 492.696C560.575 492.387 560.681 492.125 560.895 491.912C561.119 491.688 561.385 491.576 561.695 491.576C562.004 491.576 562.265 491.688 562.479 491.912C562.703 492.125 562.815 492.387 562.815 492.696C562.815 493.005 562.703 493.272 562.479 493.496C562.265 493.709 562.004 493.816 561.695 493.816C561.385 493.816 561.119 493.709 560.895 493.496C560.681 493.272 560.575 493.005 560.575 492.696ZM558.303 501.848H561.087V496.216H558.591V495.064H562.335V501.848H564.927V503H558.303V501.848ZM575.332 500.184C575.246 500.621 575.097 501.027 574.884 501.4C574.681 501.773 574.42 502.099 574.1 502.376C573.78 502.643 573.406 502.851 572.98 503C572.553 503.149 572.078 503.224 571.556 503.224C571.001 503.224 570.473 503.133 569.972 502.952C569.481 502.771 569.049 502.509 568.676 502.168C568.302 501.816 568.004 501.389 567.78 500.888C567.566 500.387 567.46 499.811 567.46 499.16V498.968C567.46 498.328 567.566 497.752 567.78 497.24C568.004 496.728 568.302 496.296 568.676 495.944C569.049 495.592 569.481 495.32 569.972 495.128C570.473 494.936 571.001 494.84 571.556 494.84C572.057 494.84 572.521 494.915 572.948 495.064C573.374 495.213 573.748 495.427 574.068 495.704C574.398 495.971 574.665 496.291 574.868 496.664C575.081 497.037 575.225 497.443 575.3 497.88L574.052 498.168C574.02 497.891 573.94 497.624 573.812 497.368C573.694 497.101 573.529 496.872 573.316 496.68C573.113 496.477 572.862 496.317 572.564 496.2C572.265 496.083 571.918 496.024 571.524 496.024C571.14 496.024 570.777 496.099 570.436 496.248C570.105 496.387 569.812 496.589 569.556 496.856C569.3 497.112 569.097 497.421 568.948 497.784C568.809 498.147 568.74 498.541 568.74 498.968V499.16C568.74 499.608 568.809 500.013 568.948 500.376C569.097 500.728 569.3 501.027 569.556 501.272C569.812 501.517 570.11 501.709 570.452 501.848C570.793 501.976 571.161 502.04 571.556 502.04C571.95 502.04 572.292 501.981 572.58 501.864C572.878 501.736 573.129 501.576 573.332 501.384C573.545 501.181 573.71 500.952 573.828 500.696C573.956 500.44 574.041 500.173 574.084 499.896L575.332 500.184ZM583.465 501.656H583.273C583.017 502.189 582.659 502.584 582.201 502.84C581.753 503.096 581.278 503.224 580.777 503.224C580.254 503.224 579.769 503.139 579.321 502.968C578.873 502.787 578.478 502.525 578.137 502.184C577.806 501.832 577.545 501.405 577.353 500.904C577.161 500.403 577.065 499.821 577.065 499.16V498.904C577.065 498.253 577.161 497.677 577.353 497.176C577.545 496.675 577.806 496.253 578.137 495.912C578.478 495.56 578.873 495.293 579.321 495.112C579.769 494.931 580.243 494.84 580.745 494.84C581.289 494.84 581.779 494.963 582.217 495.208C582.665 495.443 583.017 495.811 583.273 496.312H583.465V495.064H584.713V501.368C584.713 501.688 584.857 501.848 585.145 501.848H585.545V503H584.697C584.334 503 584.035 502.883 583.801 502.648C583.577 502.413 583.465 502.115 583.465 501.752V501.656ZM580.905 502.04C581.278 502.04 581.619 501.971 581.929 501.832C582.249 501.693 582.521 501.496 582.745 501.24C582.969 500.984 583.145 500.68 583.273 500.328C583.401 499.965 583.465 499.565 583.465 499.128V498.936C583.465 498.509 583.401 498.12 583.273 497.768C583.145 497.405 582.963 497.096 582.729 496.84C582.505 496.584 582.233 496.387 581.913 496.248C581.603 496.099 581.267 496.024 580.905 496.024C580.531 496.024 580.19 496.093 579.881 496.232C579.571 496.371 579.299 496.568 579.065 496.824C578.841 497.069 578.665 497.373 578.537 497.736C578.409 498.088 578.345 498.477 578.345 498.904V499.16C578.345 500.067 578.579 500.776 579.049 501.288C579.529 501.789 580.147 502.04 580.905 502.04ZM587.501 501.848H590.381V492.952H587.597V491.8H591.629V501.848H594.509V503H587.501V501.848Z" fill="black"/>
<line x1="32" y1="466" x2="32" y2="435" stroke="#FFC602" stroke-width="4"/>
<path d="M31.1485 425.383C31.5391 424.748 32.4609 424.748 32.8515 425.383L37.9894 433.726C38.3997 434.392 37.9204 435.25 37.1379 435.25H26.8621C26.0796 435.25 25.6003 434.392 26.0106 433.726L31.1485 425.383Z" fill="#FFC602"/>
<rect x="30" y="464" width="221" height="35" rx="2" fill="#FFC602"/>
<path d="M46.88 484.128C46.88 484.789 46.768 485.376 46.544 485.888C46.3307 486.389 46.0427 486.816 45.68 487.168C45.3173 487.509 44.8907 487.771 44.4 487.952C43.92 488.133 43.4187 488.224 42.896 488.224C42.3627 488.224 41.856 488.133 41.376 487.952C40.896 487.771 40.4747 487.509 40.112 487.168C39.7493 486.816 39.456 486.389 39.232 485.888C39.0187 485.376 38.912 484.789 38.912 484.128V483.936C38.912 483.285 39.0187 482.709 39.232 482.208C39.456 481.696 39.7493 481.264 40.112 480.912C40.4853 480.56 40.912 480.293 41.392 480.112C41.872 479.931 42.3733 479.84 42.896 479.84C43.4187 479.84 43.92 479.931 44.4 480.112C44.88 480.293 45.3013 480.56 45.664 480.912C46.0373 481.264 46.3307 481.696 46.544 482.208C46.768 482.709 46.88 483.285 46.88 483.936V484.128ZM42.896 487.04C43.28 487.04 43.632 486.976 43.952 486.848C44.2827 486.709 44.5707 486.512 44.816 486.256C45.0613 486 45.2533 485.696 45.392 485.344C45.5307 484.981 45.6 484.576 45.6 484.128V483.936C45.6 483.509 45.5307 483.12 45.392 482.768C45.2533 482.405 45.0613 482.096 44.816 481.84C44.5707 481.584 44.2827 481.387 43.952 481.248C43.6213 481.099 43.2693 481.024 42.896 481.024C42.5227 481.024 42.1707 481.099 41.84 481.248C41.5093 481.387 41.2213 481.584 40.976 481.84C40.7307 482.096 40.5387 482.405 40.4 482.768C40.2613 483.12 40.192 483.509 40.192 483.936V484.128C40.192 484.576 40.2613 484.981 40.4 485.344C40.5387 485.696 40.7307 486 40.976 486.256C41.2213 486.512 41.504 486.709 41.824 486.848C42.1547 486.976 42.512 487.04 42.896 487.04ZM48.7409 480.064H51.6209V481.12H51.8129C52.0155 480.683 52.3035 480.363 52.6769 480.16C53.0502 479.947 53.4769 479.84 53.9569 479.84C54.7569 479.84 55.4022 480.101 55.8929 480.624C56.3835 481.147 56.6449 481.909 56.6769 482.912L55.3649 483.104C55.3649 482.368 55.1889 481.84 54.8369 481.52C54.4849 481.189 54.0529 481.024 53.5409 481.024C53.2102 481.024 52.9222 481.088 52.6769 481.216C52.4422 481.344 52.2449 481.52 52.0849 481.744C51.9249 481.968 51.8075 482.229 51.7329 482.528C51.6582 482.827 51.6209 483.147 51.6209 483.488V486.848H53.6369V488H48.5489V486.848H50.3729V481.216H48.7409V480.064ZM61.4498 477.696C61.4498 477.387 61.5564 477.125 61.7698 476.912C61.9938 476.688 62.2604 476.576 62.5698 476.576C62.8791 476.576 63.1404 476.688 63.3538 476.912C63.5778 477.125 63.6898 477.387 63.6898 477.696C63.6898 478.005 63.5778 478.272 63.3538 478.496C63.1404 478.709 62.8791 478.816 62.5698 478.816C62.2604 478.816 61.9938 478.709 61.7698 478.496C61.5564 478.272 61.4498 478.005 61.4498 477.696ZM59.1778 486.848H61.9618V481.216H59.4658V480.064H63.2098V486.848H65.8018V488H59.1778V486.848ZM69.6946 484.416C69.7266 485.205 69.972 485.84 70.4306 486.32C70.8893 486.8 71.5293 487.04 72.3506 487.04C72.724 487.04 73.0493 486.997 73.3266 486.912C73.604 486.827 73.8386 486.709 74.0306 486.56C74.2333 486.411 74.3933 486.24 74.5106 486.048C74.6386 485.845 74.74 485.632 74.8146 485.408L75.9986 485.728C75.7746 486.464 75.3586 487.067 74.7506 487.536C74.1533 487.995 73.3426 488.224 72.3186 488.224C71.7533 488.224 71.2306 488.128 70.7506 487.936C70.2813 487.733 69.876 487.451 69.5346 487.088C69.1933 486.725 68.9266 486.293 68.7346 485.792C68.5426 485.291 68.4466 484.736 68.4466 484.128V483.744C68.4466 483.189 68.5426 482.672 68.7346 482.192C68.9373 481.712 69.2146 481.301 69.5666 480.96C69.9186 480.608 70.3293 480.336 70.7986 480.144C71.2786 479.941 71.796 479.84 72.3506 479.84C73.0013 479.84 73.5613 479.963 74.0306 480.208C74.5106 480.443 74.9 480.736 75.1986 481.088C75.508 481.44 75.732 481.824 75.8706 482.24C76.02 482.656 76.0946 483.04 76.0946 483.392V484.416H69.6946ZM72.3506 481.024C71.9986 481.024 71.668 481.083 71.3586 481.2C71.06 481.307 70.7933 481.461 70.5586 481.664C70.3346 481.867 70.148 482.107 69.9986 482.384C69.86 482.651 69.7693 482.944 69.7266 483.264H74.8466C74.8253 482.923 74.74 482.613 74.5906 482.336C74.452 482.059 74.2653 481.824 74.0306 481.632C73.8066 481.44 73.5453 481.291 73.2466 481.184C72.9586 481.077 72.66 481.024 72.3506 481.024ZM79.8275 488H78.5795V480.064H79.8275V481.408H80.0195C80.5102 480.363 81.3635 479.84 82.5795 479.84C83.4968 479.84 84.2275 480.128 84.7715 480.704C85.3155 481.269 85.5875 482.123 85.5875 483.264V488H84.3395V483.52C84.3395 482.688 84.1528 482.064 83.7795 481.648C83.4062 481.232 82.8995 481.024 82.2595 481.024C81.5022 481.024 80.9048 481.285 80.4675 481.808C80.0408 482.32 79.8275 483.008 79.8275 483.872V488ZM88.1044 480.064H90.6004V476.8H91.8484V480.064H94.9204V481.216H91.8484V486.368C91.8484 486.688 91.9924 486.848 92.2804 486.848H94.5364V488H91.8324C91.4697 488 91.171 487.883 90.9364 487.648C90.7124 487.413 90.6004 487.115 90.6004 486.752V481.216H88.1044V480.064ZM103.933 486.656H103.741C103.485 487.189 103.128 487.584 102.669 487.84C102.221 488.096 101.747 488.224 101.245 488.224C100.723 488.224 100.237 488.139 99.7893 487.968C99.3413 487.787 98.9466 487.525 98.6053 487.184C98.2746 486.832 98.0133 486.405 97.8213 485.904C97.6293 485.403 97.5333 484.821 97.5333 484.16V483.904C97.5333 483.253 97.6293 482.677 97.8213 482.176C98.0133 481.675 98.2746 481.253 98.6053 480.912C98.9466 480.56 99.3413 480.293 99.7893 480.112C100.237 479.931 100.712 479.84 101.213 479.84C101.757 479.84 102.248 479.963 102.685 480.208C103.133 480.443 103.485 480.811 103.741 481.312H103.933V480.064H105.181V486.368C105.181 486.688 105.325 486.848 105.613 486.848H106.013V488H105.165C104.803 488 104.504 487.883 104.269 487.648C104.045 487.413 103.933 487.115 103.933 486.752V486.656ZM101.373 487.04C101.747 487.04 102.088 486.971 102.397 486.832C102.717 486.693 102.989 486.496 103.213 486.24C103.437 485.984 103.613 485.68 103.741 485.328C103.869 484.965 103.933 484.565 103.933 484.128V483.936C103.933 483.509 103.869 483.12 103.741 482.768C103.613 482.405 103.432 482.096 103.197 481.84C102.973 481.584 102.701 481.387 102.381 481.248C102.072 481.099 101.736 481.024 101.373 481.024C101 481.024 100.659 481.093 100.349 481.232C100.04 481.371 99.7679 481.568 99.5333 481.824C99.3093 482.069 99.1333 482.373 99.0053 482.736C98.8773 483.088 98.8133 483.477 98.8133 483.904V484.16C98.8133 485.067 99.0479 485.776 99.5173 486.288C99.9973 486.789 100.616 487.04 101.373 487.04ZM107.698 480.064H110.194V476.8H111.442V480.064H114.514V481.216H111.442V486.368C111.442 486.688 111.586 486.848 111.874 486.848H114.13V488H111.426C111.063 488 110.765 487.883 110.53 487.648C110.306 487.413 110.194 487.115 110.194 486.752V481.216H107.698V480.064ZM120.231 477.696C120.231 477.387 120.338 477.125 120.551 476.912C120.775 476.688 121.042 476.576 121.351 476.576C121.66 476.576 121.922 476.688 122.135 476.912C122.359 477.125 122.471 477.387 122.471 477.696C122.471 478.005 122.359 478.272 122.135 478.496C121.922 478.709 121.66 478.816 121.351 478.816C121.042 478.816 120.775 478.709 120.551 478.496C120.338 478.272 120.231 478.005 120.231 477.696ZM117.959 486.848H120.743V481.216H118.247V480.064H121.991V486.848H124.583V488H117.959V486.848ZM135.052 484.128C135.052 484.789 134.94 485.376 134.716 485.888C134.503 486.389 134.215 486.816 133.852 487.168C133.489 487.509 133.063 487.771 132.572 487.952C132.092 488.133 131.591 488.224 131.068 488.224C130.535 488.224 130.028 488.133 129.548 487.952C129.068 487.771 128.647 487.509 128.284 487.168C127.921 486.816 127.628 486.389 127.404 485.888C127.191 485.376 127.084 484.789 127.084 484.128V483.936C127.084 483.285 127.191 482.709 127.404 482.208C127.628 481.696 127.921 481.264 128.284 480.912C128.657 480.56 129.084 480.293 129.564 480.112C130.044 479.931 130.545 479.84 131.068 479.84C131.591 479.84 132.092 479.931 132.572 480.112C133.052 480.293 133.473 480.56 133.836 480.912C134.209 481.264 134.503 481.696 134.716 482.208C134.94 482.709 135.052 483.285 135.052 483.936V484.128ZM131.068 487.04C131.452 487.04 131.804 486.976 132.124 486.848C132.455 486.709 132.743 486.512 132.988 486.256C133.233 486 133.425 485.696 133.564 485.344C133.703 484.981 133.772 484.576 133.772 484.128V483.936C133.772 483.509 133.703 483.12 133.564 482.768C133.425 482.405 133.233 482.096 132.988 481.84C132.743 481.584 132.455 481.387 132.124 481.248C131.793 481.099 131.441 481.024 131.068 481.024C130.695 481.024 130.343 481.099 130.012 481.248C129.681 481.387 129.393 481.584 129.148 481.84C128.903 482.096 128.711 482.405 128.572 482.768C128.433 483.12 128.364 483.509 128.364 483.936V484.128C128.364 484.576 128.433 484.981 128.572 485.344C128.711 485.696 128.903 486 129.148 486.256C129.393 486.512 129.676 486.709 129.996 486.848C130.327 486.976 130.684 487.04 131.068 487.04ZM138.609 488H137.361V480.064H138.609V481.408H138.801C139.291 480.363 140.145 479.84 141.361 479.84C142.278 479.84 143.009 480.128 143.553 480.704C144.097 481.269 144.369 482.123 144.369 483.264V488H143.121V483.52C143.121 482.688 142.934 482.064 142.561 481.648C142.187 481.232 141.681 481.024 141.041 481.024C140.283 481.024 139.686 481.285 139.249 481.808C138.822 482.32 138.609 483.008 138.609 483.872V488ZM149.542 487.104C149.542 486.795 149.648 486.533 149.862 486.32C150.086 486.096 150.352 485.984 150.662 485.984C150.971 485.984 151.232 486.096 151.446 486.32C151.67 486.533 151.782 486.795 151.782 487.104C151.782 487.413 151.67 487.68 151.446 487.904C151.232 488.117 150.971 488.224 150.662 488.224C150.352 488.224 150.086 488.117 149.862 487.904C149.648 487.68 149.542 487.413 149.542 487.104ZM149.542 480.96C149.542 480.651 149.648 480.389 149.862 480.176C150.086 479.952 150.352 479.84 150.662 479.84C150.971 479.84 151.232 479.952 151.446 480.176C151.67 480.389 151.782 480.651 151.782 480.96C151.782 481.269 151.67 481.536 151.446 481.76C151.232 481.973 150.971 482.08 150.662 482.08C150.352 482.08 150.086 481.973 149.862 481.76C149.648 481.536 149.542 481.269 149.542 480.96ZM156.955 486.848H159.835V477.952H157.051V476.8H161.083V486.848H163.963V488H156.955V486.848ZM172.511 486.656H172.319C172.063 487.189 171.706 487.584 171.247 487.84C170.799 488.096 170.325 488.224 169.823 488.224C169.301 488.224 168.815 488.139 168.367 487.968C167.919 487.787 167.525 487.525 167.183 487.184C166.853 486.832 166.591 486.405 166.399 485.904C166.207 485.403 166.111 484.821 166.111 484.16V483.904C166.111 483.253 166.207 482.677 166.399 482.176C166.591 481.675 166.853 481.253 167.183 480.912C167.525 480.56 167.919 480.293 168.367 480.112C168.815 479.931 169.29 479.84 169.791 479.84C170.335 479.84 170.826 479.963 171.263 480.208C171.711 480.443 172.063 480.811 172.319 481.312H172.511V480.064H173.759V486.368C173.759 486.688 173.903 486.848 174.191 486.848H174.591V488H173.743C173.381 488 173.082 487.883 172.847 487.648C172.623 487.413 172.511 487.115 172.511 486.752V486.656ZM169.951 487.04C170.325 487.04 170.666 486.971 170.975 486.832C171.295 486.693 171.567 486.496 171.791 486.24C172.015 485.984 172.191 485.68 172.319 485.328C172.447 484.965 172.511 484.565 172.511 484.128V483.936C172.511 483.509 172.447 483.12 172.319 482.768C172.191 482.405 172.01 482.096 171.775 481.84C171.551 481.584 171.279 481.387 170.959 481.248C170.65 481.099 170.314 481.024 169.951 481.024C169.578 481.024 169.237 481.093 168.927 481.232C168.618 481.371 168.346 481.568 168.111 481.824C167.887 482.069 167.711 482.373 167.583 482.736C167.455 483.088 167.391 483.477 167.391 483.904V484.16C167.391 485.067 167.626 485.776 168.095 486.288C168.575 486.789 169.194 487.04 169.951 487.04ZM177.796 488H176.548V480.064H177.796V481.408H177.988C178.479 480.363 179.332 479.84 180.548 479.84C181.466 479.84 182.196 480.128 182.74 480.704C183.284 481.269 183.556 482.123 183.556 483.264V488H182.308V483.52C182.308 482.688 182.122 482.064 181.748 481.648C181.375 481.232 180.868 481.024 180.228 481.024C179.471 481.024 178.874 481.285 178.436 481.808C178.01 482.32 177.796 483.008 177.796 483.872V488ZM192.489 486.784H192.297C192.169 487.029 192.004 487.243 191.801 487.424C191.609 487.605 191.396 487.755 191.161 487.872C190.937 487.989 190.697 488.075 190.441 488.128C190.185 488.192 189.94 488.224 189.705 488.224C189.172 488.224 188.676 488.133 188.217 487.952C187.758 487.771 187.353 487.509 187.001 487.168C186.66 486.827 186.388 486.405 186.185 485.904C185.993 485.392 185.897 484.811 185.897 484.16V483.904C185.897 483.264 185.998 482.693 186.201 482.192C186.404 481.68 186.676 481.253 187.017 480.912C187.358 480.56 187.758 480.293 188.217 480.112C188.676 479.931 189.161 479.84 189.673 479.84C190.217 479.84 190.724 479.963 191.193 480.208C191.673 480.443 192.041 480.811 192.297 481.312H192.489V476.8H193.737V488H192.489V486.784ZM189.833 487.04C190.206 487.04 190.553 486.971 190.873 486.832C191.193 486.693 191.47 486.496 191.705 486.24C191.95 485.984 192.142 485.68 192.281 485.328C192.42 484.965 192.489 484.565 192.489 484.128V483.936C192.489 483.509 192.42 483.12 192.281 482.768C192.142 482.405 191.95 482.096 191.705 481.84C191.47 481.584 191.188 481.387 190.857 481.248C190.537 481.099 190.196 481.024 189.833 481.024C189.46 481.024 189.108 481.093 188.777 481.232C188.457 481.371 188.174 481.568 187.929 481.824C187.694 482.08 187.508 482.384 187.369 482.736C187.241 483.088 187.177 483.477 187.177 483.904V484.16C187.177 484.608 187.241 485.008 187.369 485.36C187.508 485.712 187.694 486.016 187.929 486.272C188.174 486.517 188.457 486.709 188.777 486.848C189.097 486.976 189.449 487.04 189.833 487.04ZM197.79 482.112C197.79 482.496 197.95 482.789 198.27 482.992C198.601 483.195 199.198 483.328 200.062 483.392C200.99 483.467 201.694 483.691 202.174 484.064C202.665 484.427 202.91 484.96 202.91 485.664V485.76C202.91 486.144 202.83 486.491 202.67 486.8C202.521 487.099 202.307 487.355 202.03 487.568C201.763 487.781 201.433 487.941 201.038 488.048C200.654 488.165 200.233 488.224 199.774 488.224C199.155 488.224 198.622 488.144 198.174 487.984C197.737 487.813 197.369 487.595 197.07 487.328C196.782 487.051 196.563 486.741 196.414 486.4C196.265 486.048 196.179 485.696 196.158 485.344L197.342 485.056C197.395 485.664 197.63 486.155 198.046 486.528C198.462 486.891 199.017 487.072 199.71 487.072C200.297 487.072 200.766 486.96 201.118 486.736C201.481 486.501 201.662 486.176 201.662 485.76C201.662 485.312 201.486 484.992 201.134 484.8C200.782 484.608 200.211 484.485 199.422 484.432C198.505 484.368 197.801 484.155 197.31 483.792C196.819 483.429 196.574 482.901 196.574 482.208V482.112C196.574 481.739 196.654 481.413 196.814 481.136C196.974 480.848 197.187 480.608 197.454 480.416C197.731 480.224 198.041 480.08 198.382 479.984C198.723 479.888 199.081 479.84 199.454 479.84C199.977 479.84 200.435 479.915 200.83 480.064C201.225 480.203 201.555 480.389 201.822 480.624C202.089 480.848 202.291 481.109 202.43 481.408C202.579 481.707 202.675 482.005 202.718 482.304L201.534 482.592C201.481 482.08 201.273 481.68 200.91 481.392C200.558 481.104 200.094 480.96 199.518 480.96C199.294 480.96 199.075 480.987 198.862 481.04C198.659 481.083 198.478 481.152 198.318 481.248C198.158 481.344 198.03 481.467 197.934 481.616C197.838 481.755 197.79 481.92 197.79 482.112ZM213.363 485.184C213.278 485.621 213.128 486.027 212.915 486.4C212.712 486.773 212.451 487.099 212.131 487.376C211.811 487.643 211.438 487.851 211.011 488C210.584 488.149 210.11 488.224 209.587 488.224C209.032 488.224 208.504 488.133 208.003 487.952C207.512 487.771 207.08 487.509 206.707 487.168C206.334 486.816 206.035 486.389 205.811 485.888C205.598 485.387 205.491 484.811 205.491 484.16V483.968C205.491 483.328 205.598 482.752 205.811 482.24C206.035 481.728 206.334 481.296 206.707 480.944C207.08 480.592 207.512 480.32 208.003 480.128C208.504 479.936 209.032 479.84 209.587 479.84C210.088 479.84 210.552 479.915 210.979 480.064C211.406 480.213 211.779 480.427 212.099 480.704C212.43 480.971 212.696 481.291 212.899 481.664C213.112 482.037 213.256 482.443 213.331 482.88L212.083 483.168C212.051 482.891 211.971 482.624 211.843 482.368C211.726 482.101 211.56 481.872 211.347 481.68C211.144 481.477 210.894 481.317 210.595 481.2C210.296 481.083 209.95 481.024 209.555 481.024C209.171 481.024 208.808 481.099 208.467 481.248C208.136 481.387 207.843 481.589 207.587 481.856C207.331 482.112 207.128 482.421 206.979 482.784C206.84 483.147 206.771 483.541 206.771 483.968V484.16C206.771 484.608 206.84 485.013 206.979 485.376C207.128 485.728 207.331 486.027 207.587 486.272C207.843 486.517 208.142 486.709 208.483 486.848C208.824 486.976 209.192 487.04 209.587 487.04C209.982 487.04 210.323 486.981 210.611 486.864C210.91 486.736 211.16 486.576 211.363 486.384C211.576 486.181 211.742 485.952 211.859 485.696C211.987 485.44 212.072 485.173 212.115 484.896L213.363 485.184ZM221.496 486.656H221.304C221.048 487.189 220.69 487.584 220.232 487.84C219.784 488.096 219.309 488.224 218.808 488.224C218.285 488.224 217.8 488.139 217.352 487.968C216.904 487.787 216.509 487.525 216.168 487.184C215.837 486.832 215.576 486.405 215.384 485.904C215.192 485.403 215.096 484.821 215.096 484.16V483.904C215.096 483.253 215.192 482.677 215.384 482.176C215.576 481.675 215.837 481.253 216.168 480.912C216.509 480.56 216.904 480.293 217.352 480.112C217.8 479.931 218.274 479.84 218.776 479.84C219.32 479.84 219.81 479.963 220.248 480.208C220.696 480.443 221.048 480.811 221.304 481.312H221.496V480.064H222.744V486.368C222.744 486.688 222.888 486.848 223.176 486.848H223.576V488H222.728C222.365 488 222.066 487.883 221.832 487.648C221.608 487.413 221.496 487.115 221.496 486.752V486.656ZM218.936 487.04C219.309 487.04 219.65 486.971 219.96 486.832C220.28 486.693 220.552 486.496 220.776 486.24C221 485.984 221.176 485.68 221.304 485.328C221.432 484.965 221.496 484.565 221.496 484.128V483.936C221.496 483.509 221.432 483.12 221.304 482.768C221.176 482.405 220.994 482.096 220.76 481.84C220.536 481.584 220.264 481.387 219.944 481.248C219.634 481.099 219.298 481.024 218.936 481.024C218.562 481.024 218.221 481.093 217.912 481.232C217.602 481.371 217.33 481.568 217.096 481.824C216.872 482.069 216.696 482.373 216.568 482.736C216.44 483.088 216.376 483.477 216.376 483.904V484.16C216.376 485.067 216.61 485.776 217.08 486.288C217.56 486.789 218.178 487.04 218.936 487.04ZM226.493 491.2H225.245V480.064H226.493V481.312H226.685C226.962 480.832 227.346 480.469 227.837 480.224C228.327 479.968 228.861 479.84 229.437 479.84C229.927 479.84 230.391 479.931 230.829 480.112C231.266 480.293 231.65 480.555 231.981 480.896C232.322 481.237 232.589 481.659 232.781 482.16C232.983 482.661 233.085 483.232 233.085 483.872V484.192C233.085 484.843 232.989 485.419 232.797 485.92C232.605 486.421 232.338 486.843 231.997 487.184C231.666 487.525 231.277 487.787 230.829 487.968C230.381 488.139 229.906 488.224 229.405 488.224C229.149 488.224 228.887 488.192 228.621 488.128C228.354 488.075 228.098 487.989 227.853 487.872C227.618 487.744 227.399 487.595 227.197 487.424C226.994 487.243 226.823 487.029 226.685 486.784H226.493V491.2ZM229.149 487.04C229.533 487.04 229.885 486.976 230.205 486.848C230.525 486.709 230.802 486.517 231.037 486.272C231.282 486.027 231.469 485.728 231.597 485.376C231.735 485.024 231.805 484.629 231.805 484.192V483.872C231.805 483.445 231.735 483.061 231.597 482.72C231.469 482.368 231.282 482.069 231.037 481.824C230.802 481.568 230.519 481.371 230.189 481.232C229.869 481.093 229.522 481.024 229.149 481.024C228.775 481.024 228.429 481.099 228.109 481.248C227.789 481.387 227.506 481.584 227.261 481.84C227.026 482.096 226.839 482.405 226.701 482.768C226.562 483.12 226.493 483.509 226.493 483.936V484.128C226.493 484.565 226.562 484.965 226.701 485.328C226.839 485.68 227.026 485.984 227.261 486.24C227.506 486.496 227.789 486.693 228.109 486.832C228.429 486.971 228.775 487.04 229.149 487.04ZM236.242 484.416C236.274 485.205 236.519 485.84 236.978 486.32C237.436 486.8 238.076 487.04 238.898 487.04C239.271 487.04 239.596 486.997 239.874 486.912C240.151 486.827 240.386 486.709 240.578 486.56C240.78 486.411 240.94 486.24 241.058 486.048C241.186 485.845 241.287 485.632 241.362 485.408L242.546 485.728C242.322 486.464 241.906 487.067 241.298 487.536C240.7 487.995 239.89 488.224 238.866 488.224C238.3 488.224 237.778 488.128 237.298 487.936C236.828 487.733 236.423 487.451 236.082 487.088C235.74 486.725 235.474 486.293 235.282 485.792C235.09 485.291 234.993 484.736 234.993 484.128V483.744C234.993 483.189 235.09 482.672 235.282 482.192C235.484 481.712 235.762 481.301 236.114 480.96C236.466 480.608 236.876 480.336 237.346 480.144C237.826 479.941 238.343 479.84 238.898 479.84C239.548 479.84 240.108 479.963 240.578 480.208C241.058 480.443 241.447 480.736 241.746 481.088C242.055 481.44 242.279 481.824 242.418 482.24C242.567 482.656 242.642 483.04 242.642 483.392V484.416H236.242ZM238.898 481.024C238.546 481.024 238.215 481.083 237.906 481.2C237.607 481.307 237.34 481.461 237.106 481.664C236.882 481.867 236.695 482.107 236.546 482.384C236.407 482.651 236.316 482.944 236.274 483.264H241.394C241.372 482.923 241.287 482.613 241.138 482.336C240.999 482.059 240.812 481.824 240.578 481.632C240.354 481.44 240.092 481.291 239.794 481.184C239.506 481.077 239.207 481.024 238.898 481.024Z" fill="black"/>
</svg>
