<?xml version="1.0" encoding="utf-8"?>
<!-- Generator: Adobe Illustrator 25.0.1, SVG Export Plug-In . SVG Version: 6.00 Build 0)  -->
<svg version="1.1" id="Layer_1" xmlns="http://www.w3.org/2000/svg" xmlns:xlink="http://www.w3.org/1999/xlink" x="0px" y="0px"
	 viewBox="0 0 1069 652" style="enable-background:new 0 0 1069 652;" xml:space="preserve">
<style type="text/css">
	.st0{fill:#FFFFFF;}
	.st1{fill:#0E71F2;stroke:#0F2645;stroke-width:5;}
	.st2{fill:#FFFFFF;fill-opacity:0.99;}
	.st3{fill:#C8DFFC;}
	.st4{fill:#0E71F2;fill-opacity:0.22;}
	.st5{fill:none;stroke:#C8DFFC;stroke-width:2;}
	.st6{fill:none;stroke:#FC70FF;stroke-width:3;stroke-linejoin:round;stroke-dasharray:7,7;}
	.st7{fill:none;stroke:#FFC602;stroke-width:3;stroke-linejoin:round;stroke-dasharray:7,7;}
	.st8{fill:none;stroke:#FD94FF;stroke-width:3;stroke-linejoin:round;stroke-dasharray:7,7;}
	.st9{fill:none;stroke:#FD94FF;stroke-width:4;}
	.st10{fill:#FD94FF;}
	.st11{fill:none;stroke:#FFC602;stroke-width:4;}
	.st12{fill:#FFC602;}
</style>
<rect y="0" class="st0" width="1069" height="652"/>
<path class="st1" d="M31,74.5h250c1.9,0,3.5,1.6,3.5,3.5v348c0,1.9-1.6,3.5-3.5,3.5H31c-1.9,0-3.5-1.6-3.5-3.5V78
	C27.5,76.1,29.1,74.5,31,74.5z"/>
<path class="st1" d="M299,74.5h250c1.9,0,3.5,1.6,3.5,3.5v348c0,1.9-1.6,3.5-3.5,3.5H299c-1.9,0-3.5-1.6-3.5-3.5V78
	C295.5,76.1,297.1,74.5,299,74.5z"/>
<path class="st0" d="M410.6,277c-0.3,0-0.5-0.1-0.7-0.3c-0.2-0.2-0.3-0.4-0.3-0.7v-24.7c0-0.3,0.1-0.5,0.3-0.7
	c0.2-0.2,0.4-0.3,0.7-0.3h11.6c3.2,0,5.6,0.7,7.1,2c1.6,1.3,2.4,3.1,2.4,5.5c0,1.3-0.3,2.3-1,3.2c-0.6,0.9-1.4,1.5-2.2,1.9
	c1,0.5,1.9,1.3,2.6,2.3c0.7,1.1,1.1,2.3,1.1,3.6c0,2.5-0.8,4.5-2.5,5.9c-1.7,1.4-4.1,2.1-7.1,2.1H410.6z M421.4,261
	c1,0,1.8-0.3,2.3-0.8c0.5-0.5,0.8-1.2,0.8-2.1c0-0.8-0.3-1.5-0.8-2c-0.5-0.5-1.3-0.8-2.3-0.8h-4.9v5.6H421.4z M421.8,272.1
	c1,0,1.8-0.3,2.4-0.9c0.6-0.6,0.9-1.3,0.9-2.2c0-0.9-0.3-1.7-0.9-2.2c-0.6-0.6-1.4-0.9-2.4-0.9h-5.3v6.3H421.8z"/>
<rect x="30" y="77" class="st2" width="252" height="63"/>
<rect x="298" y="77" class="st2" width="252" height="63"/>
<path class="st3" d="M514,83h8c1.7,0,3,1.3,3,3v8c0,1.7-1.3,3-3,3h-8c-1.7,0-3-1.3-3-3v-8C511,84.3,512.3,83,514,83z"/>
<path class="st3" d="M533,83h8c1.7,0,3,1.3,3,3v8c0,1.7-1.3,3-3,3h-8c-1.7,0-3-1.3-3-3v-8C530,84.3,531.3,83,533,83z"/>
<path class="st4" d="M64,109c0-3.3,2.7-6,6-6h212v31H70c-3.3,0-6-2.7-6-6V109z"/>
<path class="st4" d="M298,103h240c3.3,0,6,2.7,6,6v19c0,3.3-2.7,6-6,6H298V103z"/>
<path class="st5" d="M45.2,124.6l-6.8-6.8l6.8-6.8"/>
<path class="st5" d="M53.8,117.8H38.4"/>
<path class="st0" d="M143.1,277c-0.2,0-0.4-0.1-0.6-0.2c-0.2-0.2-0.2-0.4-0.2-0.6c0-0.2,0-0.3,0-0.3l8.9-24.4
	c0.1-0.3,0.2-0.6,0.5-0.8c0.3-0.2,0.6-0.3,1-0.3h5.6c0.4,0,0.7,0.1,1,0.3c0.3,0.2,0.4,0.5,0.5,0.8l8.9,24.4l0.1,0.3
	c0,0.2-0.1,0.4-0.3,0.6c-0.2,0.2-0.3,0.2-0.6,0.2h-4.7c-0.6,0-1-0.3-1.2-0.8l-1.5-3.9h-10.1l-1.4,3.9c-0.2,0.5-0.6,0.8-1.3,0.8
	H143.1z M159.1,266.9l-3.5-10l-3.5,10H159.1z"/>
<path class="st1" d="M1037.5,34v221c0,1.9-1.6,3.5-3.5,3.5H696c-1.9,0-3.5-1.6-3.5-3.5V34c0-1.9,1.6-3.5,3.5-3.5h338
	C1035.9,30.5,1037.5,32.1,1037.5,34z"/>
<rect x="695" y="33" class="st2" width="341" height="63"/>
<path class="st3" d="M1000,39h8c1.7,0,3,1.3,3,3v8c0,1.7-1.3,3-3,3h-8c-1.7,0-3-1.3-3-3v-8C997,40.3,998.3,39,1000,39z"/>
<path class="st3" d="M1019,39h8c1.7,0,3,1.3,3,3v8c0,1.7-1.3,3-3,3h-8c-1.7,0-3-1.3-3-3v-8C1016,40.3,1017.3,39,1019,39z"/>
<path class="st4" d="M731,65c0-3.3,2.7-6,6-6h287c3.3,0,6,2.7,6,6v19c0,3.3-2.7,6-6,6H737c-3.3,0-6-2.7-6-6V65z"/>
<path class="st5" d="M712.2,80.6l-6.8-6.8l6.8-6.8"/>
<path class="st5" d="M720.8,73.8h-15.4"/>
<path class="st1" d="M1037.5,272v221c0,1.9-1.6,3.5-3.5,3.5H696c-1.9,0-3.5-1.6-3.5-3.5V272c0-1.9,1.6-3.5,3.5-3.5h338
	C1035.9,268.5,1037.5,270.1,1037.5,272z"/>
<path class="st0" d="M854.6,396c-0.3,0-0.5-0.1-0.7-0.3c-0.2-0.2-0.3-0.4-0.3-0.7v-24.7c0-0.3,0.1-0.5,0.3-0.7
	c0.2-0.2,0.4-0.3,0.7-0.3h11.6c3.2,0,5.6,0.7,7.1,2c1.6,1.3,2.4,3.1,2.4,5.5c0,1.3-0.3,2.3-1,3.2c-0.6,0.9-1.4,1.5-2.2,1.9
	c1,0.5,1.9,1.3,2.6,2.3s1.1,2.3,1.1,3.6c0,2.5-0.8,4.5-2.5,5.9c-1.7,1.4-4.1,2.1-7.1,2.1H854.6z M865.4,380c1,0,1.8-0.3,2.3-0.8
	c0.5-0.5,0.8-1.2,0.8-2.1c0-0.8-0.3-1.5-0.8-2c-0.5-0.5-1.3-0.8-2.3-0.8h-4.9v5.6H865.4z M865.8,391.1c1,0,1.8-0.3,2.4-0.9
	s0.9-1.3,0.9-2.2c0-0.9-0.3-1.7-0.9-2.2c-0.6-0.6-1.4-0.9-2.4-0.9h-5.3v6.3H865.8z"/>
<path class="st0" d="M852.1,188c-0.2,0-0.4-0.1-0.6-0.2c-0.2-0.2-0.2-0.4-0.2-0.6c0-0.2,0-0.3,0-0.3l8.9-24.4
	c0.1-0.3,0.2-0.6,0.5-0.8c0.3-0.2,0.6-0.3,1-0.3h5.6c0.4,0,0.7,0.1,1,0.3c0.3,0.2,0.4,0.5,0.5,0.8l8.9,24.4l0.1,0.3
	c0,0.2-0.1,0.4-0.3,0.6c-0.2,0.2-0.3,0.2-0.6,0.2h-4.7c-0.6,0-1-0.3-1.2-0.8l-1.5-3.9h-10.1l-1.4,3.9c-0.2,0.5-0.6,0.8-1.3,0.8
	H852.1z M868.1,177.9l-3.5-10l-3.5,10H868.1z"/>
<rect x="279.5" y="70.5" class="st6" width="21" height="363"/>
<rect x="33.5" y="144.5" class="st7" width="512" height="278"/>
<rect x="698.5" y="101.5" class="st7" width="333" height="389"/>
<rect x="687.5" y="253.5" class="st8" width="354" height="21"/>
<line class="st9" x1="662" y1="264" x2="662" y2="515"/>
<line class="st9" x1="660" y1="265" x2="676" y2="265"/>
<path class="st10" d="M685.6,264.1c0.6,0.4,0.6,1.3,0,1.7l-8.3,5.1c-0.7,0.4-1.5-0.1-1.5-0.9v-10.3c0-0.8,0.9-1.3,1.5-0.9
	L685.6,264.1z"/>
<path class="st10" d="M661.9,514h306.5c1,0,1.9,0.9,1.9,2v31c0,1.1-0.8,2-1.9,2H661.9c-1,0-1.9-0.9-1.9-2v-31
	C660,514.9,660.8,514,661.9,514z"/>
<line class="st11" x1="1032" y1="607" x2="1032" y2="502"/>
<path class="st12" d="M1031.2,492.4c0.4-0.6,1.3-0.6,1.7,0l5.1,8.3c0.4,0.7-0.1,1.5-0.8,1.5h-10.3c-0.8,0-1.3-0.9-0.8-1.5
	L1031.2,492.4z"/>
<path class="st12" d="M832,594h200c1.1,0,2,0.9,2,2v31c0,1.1-0.9,2-2,2H832c-1.1,0-2-0.9-2-2v-31C830,594.9,830.9,594,832,594z"/>
<path d="M842.9,614.1c0,0.7-0.1,1.2-0.3,1.8c-0.2,0.5-0.5,0.9-0.9,1.3c-0.4,0.3-0.8,0.6-1.3,0.8c-0.5,0.2-1,0.3-1.5,0.3
	c-0.5,0-1-0.1-1.5-0.3c-0.5-0.2-0.9-0.4-1.3-0.8c-0.4-0.4-0.7-0.8-0.9-1.3c-0.2-0.5-0.3-1.1-0.3-1.8v-0.2c0-0.7,0.1-1.2,0.3-1.7
	c0.2-0.5,0.5-0.9,0.9-1.3c0.4-0.4,0.8-0.6,1.3-0.8c0.5-0.2,1-0.3,1.5-0.3s1,0.1,1.5,0.3c0.5,0.2,0.9,0.4,1.3,0.8
	c0.4,0.4,0.7,0.8,0.9,1.3c0.2,0.5,0.3,1.1,0.3,1.7V614.1z M838.9,617c0.4,0,0.7-0.1,1.1-0.2c0.3-0.1,0.6-0.3,0.9-0.6
	c0.2-0.3,0.4-0.6,0.6-0.9c0.1-0.4,0.2-0.8,0.2-1.2v-0.2c0-0.4-0.1-0.8-0.2-1.2c-0.1-0.4-0.3-0.7-0.6-0.9c-0.2-0.3-0.5-0.5-0.9-0.6
	c-0.3-0.1-0.7-0.2-1.1-0.2s-0.7,0.1-1.1,0.2c-0.3,0.1-0.6,0.3-0.9,0.6c-0.2,0.3-0.4,0.6-0.6,0.9c-0.1,0.4-0.2,0.7-0.2,1.2v0.2
	c0,0.4,0.1,0.9,0.2,1.2c0.1,0.4,0.3,0.7,0.6,0.9c0.2,0.3,0.5,0.5,0.8,0.6C838.2,617,838.5,617,838.9,617z M844.7,610.1h2.9v1.1h0.2
	c0.2-0.4,0.5-0.8,0.9-1c0.4-0.2,0.8-0.3,1.3-0.3c0.8,0,1.4,0.3,1.9,0.8c0.5,0.5,0.8,1.3,0.8,2.3l-1.3,0.2c0-0.7-0.2-1.3-0.5-1.6
	c-0.4-0.3-0.8-0.5-1.3-0.5c-0.3,0-0.6,0.1-0.9,0.2c-0.2,0.1-0.4,0.3-0.6,0.5c-0.2,0.2-0.3,0.5-0.4,0.8c-0.1,0.3-0.1,0.6-0.1,1v3.4h2
	v1.2h-5.1v-1.2h1.8v-5.6h-1.6V610.1z M857.5,607.7c0-0.3,0.1-0.6,0.3-0.8c0.2-0.2,0.5-0.3,0.8-0.3c0.3,0,0.6,0.1,0.8,0.3
	c0.2,0.2,0.3,0.5,0.3,0.8c0,0.3-0.1,0.6-0.3,0.8c-0.2,0.2-0.5,0.3-0.8,0.3c-0.3,0-0.6-0.1-0.8-0.3
	C857.6,608.3,857.5,608,857.5,607.7z M855.2,616.8h2.8v-5.6h-2.5v-1.2h3.7v6.8h2.6v1.2h-6.6V616.8z M865.7,614.4
	c0,0.8,0.3,1.4,0.7,1.9c0.5,0.5,1.1,0.7,1.9,0.7c0.4,0,0.7,0,1-0.1c0.3-0.1,0.5-0.2,0.7-0.4c0.2-0.1,0.4-0.3,0.5-0.5
	c0.1-0.2,0.2-0.4,0.3-0.6l1.2,0.3c-0.2,0.7-0.6,1.3-1.2,1.8c-0.6,0.5-1.4,0.7-2.4,0.7c-0.6,0-1.1-0.1-1.6-0.3
	c-0.5-0.2-0.9-0.5-1.2-0.8c-0.3-0.4-0.6-0.8-0.8-1.3c-0.2-0.5-0.3-1.1-0.3-1.7v-0.4c0-0.6,0.1-1.1,0.3-1.6c0.2-0.5,0.5-0.9,0.8-1.2
	c0.4-0.4,0.8-0.6,1.2-0.8c0.5-0.2,1-0.3,1.6-0.3c0.6,0,1.2,0.1,1.7,0.4c0.5,0.2,0.9,0.5,1.2,0.9c0.3,0.4,0.5,0.7,0.7,1.2
	c0.1,0.4,0.2,0.8,0.2,1.2v1H865.7z M868.4,611c-0.4,0-0.7,0.1-1,0.2c-0.3,0.1-0.6,0.3-0.8,0.5c-0.2,0.2-0.4,0.4-0.6,0.7
	c-0.1,0.3-0.2,0.6-0.3,0.9h5.1c0-0.3-0.1-0.7-0.3-0.9c-0.1-0.3-0.3-0.5-0.6-0.7c-0.2-0.2-0.5-0.3-0.8-0.4
	C869,611.1,868.7,611,868.4,611z M875.8,618h-1.2v-7.9h1.2v1.3h0.2c0.5-1,1.3-1.6,2.6-1.6c0.9,0,1.6,0.3,2.2,0.9
	c0.5,0.6,0.8,1.4,0.8,2.6v4.7h-1.2v-4.5c0-0.8-0.2-1.5-0.6-1.9c-0.4-0.4-0.9-0.6-1.5-0.6c-0.8,0-1.4,0.3-1.8,0.8
	c-0.4,0.5-0.6,1.2-0.6,2.1V618z M884.1,610.1h2.5v-3.3h1.2v3.3h3.1v1.2h-3.1v5.2c0,0.3,0.1,0.5,0.4,0.5h2.3v1.2h-2.7
	c-0.4,0-0.7-0.1-0.9-0.4c-0.2-0.2-0.3-0.5-0.3-0.9v-5.5h-2.5V610.1z M899.9,616.7h-0.2c-0.3,0.5-0.6,0.9-1.1,1.2
	c-0.4,0.3-0.9,0.4-1.4,0.4c-0.5,0-1-0.1-1.5-0.3c-0.4-0.2-0.8-0.4-1.2-0.8c-0.3-0.4-0.6-0.8-0.8-1.3c-0.2-0.5-0.3-1.1-0.3-1.7v-0.3
	c0-0.7,0.1-1.2,0.3-1.7c0.2-0.5,0.5-0.9,0.8-1.3c0.3-0.4,0.7-0.6,1.2-0.8c0.4-0.2,0.9-0.3,1.4-0.3c0.5,0,1,0.1,1.5,0.4
	c0.4,0.2,0.8,0.6,1.1,1.1h0.2v-1.2h1.2v6.3c0,0.3,0.1,0.5,0.4,0.5h0.4v1.2h-0.8c-0.4,0-0.7-0.1-0.9-0.4
	C900,617.4,899.9,617.1,899.9,616.7L899.9,616.7z M897.4,617c0.4,0,0.7-0.1,1-0.2c0.3-0.1,0.6-0.3,0.8-0.6s0.4-0.6,0.5-0.9
	c0.1-0.4,0.2-0.8,0.2-1.2v-0.2c0-0.4-0.1-0.8-0.2-1.2c-0.1-0.4-0.3-0.7-0.5-0.9c-0.2-0.3-0.5-0.5-0.8-0.6c-0.3-0.1-0.6-0.2-1-0.2
	c-0.4,0-0.7,0.1-1,0.2c-0.3,0.1-0.6,0.3-0.8,0.6c-0.2,0.2-0.4,0.5-0.5,0.9c-0.1,0.4-0.2,0.7-0.2,1.2v0.3c0,0.9,0.2,1.6,0.7,2.1
	C896,616.8,896.6,617,897.4,617z M903.7,610.1h2.5v-3.3h1.2v3.3h3.1v1.2h-3.1v5.2c0,0.3,0.1,0.5,0.4,0.5h2.3v1.2h-2.7
	c-0.4,0-0.7-0.1-0.9-0.4c-0.2-0.2-0.3-0.5-0.3-0.9v-5.5h-2.5V610.1z M916.2,607.7c0-0.3,0.1-0.6,0.3-0.8c0.2-0.2,0.5-0.3,0.8-0.3
	c0.3,0,0.6,0.1,0.8,0.3c0.2,0.2,0.3,0.5,0.3,0.8c0,0.3-0.1,0.6-0.3,0.8c-0.2,0.2-0.5,0.3-0.8,0.3c-0.3,0-0.6-0.1-0.8-0.3
	C916.3,608.3,916.2,608,916.2,607.7z M914,616.8h2.8v-5.6h-2.5v-1.2h3.7v6.8h2.6v1.2H914V616.8z M931.1,614.1c0,0.7-0.1,1.2-0.3,1.8
	c-0.2,0.5-0.5,0.9-0.9,1.3c-0.4,0.3-0.8,0.6-1.3,0.8c-0.5,0.2-1,0.3-1.5,0.3c-0.5,0-1-0.1-1.5-0.3c-0.5-0.2-0.9-0.4-1.3-0.8
	c-0.4-0.4-0.7-0.8-0.9-1.3c-0.2-0.5-0.3-1.1-0.3-1.8v-0.2c0-0.7,0.1-1.2,0.3-1.7c0.2-0.5,0.5-0.9,0.9-1.3c0.4-0.4,0.8-0.6,1.3-0.8
	c0.5-0.2,1-0.3,1.5-0.3s1,0.1,1.5,0.3c0.5,0.2,0.9,0.4,1.3,0.8c0.4,0.4,0.7,0.8,0.9,1.3c0.2,0.5,0.3,1.1,0.3,1.7V614.1z M927.1,617
	c0.4,0,0.7-0.1,1.1-0.2c0.3-0.1,0.6-0.3,0.9-0.6c0.2-0.3,0.4-0.6,0.6-0.9c0.1-0.4,0.2-0.8,0.2-1.2v-0.2c0-0.4-0.1-0.8-0.2-1.2
	c-0.1-0.4-0.3-0.7-0.6-0.9c-0.2-0.3-0.5-0.5-0.9-0.6c-0.3-0.1-0.7-0.2-1.1-0.2s-0.7,0.1-1.1,0.2c-0.3,0.1-0.6,0.3-0.9,0.6
	c-0.2,0.3-0.4,0.6-0.6,0.9c-0.1,0.4-0.2,0.7-0.2,1.2v0.2c0,0.4,0.1,0.9,0.2,1.2c0.1,0.4,0.3,0.7,0.6,0.9c0.2,0.3,0.5,0.5,0.8,0.6
	C926.3,617,926.7,617,927.1,617z M934.6,618h-1.2v-7.9h1.2v1.3h0.2c0.5-1,1.3-1.6,2.6-1.6c0.9,0,1.6,0.3,2.2,0.9
	c0.5,0.6,0.8,1.4,0.8,2.6v4.7h-1.2v-4.5c0-0.8-0.2-1.5-0.6-1.9c-0.4-0.4-0.9-0.6-1.5-0.6c-0.8,0-1.4,0.3-1.8,0.8
	c-0.4,0.5-0.6,1.2-0.6,2.1V618z M945.5,617.1c0-0.3,0.1-0.6,0.3-0.8c0.2-0.2,0.5-0.3,0.8-0.3c0.3,0,0.6,0.1,0.8,0.3
	c0.2,0.2,0.3,0.5,0.3,0.8s-0.1,0.6-0.3,0.8c-0.2,0.2-0.5,0.3-0.8,0.3c-0.3,0-0.6-0.1-0.8-0.3C945.6,617.7,945.5,617.4,945.5,617.1z
	 M945.5,611c0-0.3,0.1-0.6,0.3-0.8c0.2-0.2,0.5-0.3,0.8-0.3c0.3,0,0.6,0.1,0.8,0.3c0.2,0.2,0.3,0.5,0.3,0.8c0,0.3-0.1,0.6-0.3,0.8
	c-0.2,0.2-0.5,0.3-0.8,0.3c-0.3,0-0.6-0.1-0.8-0.3C945.6,611.5,945.5,611.3,945.5,611z M953.9,621.2h-1.2v-11.1h1.2v1.2h0.2
	c0.3-0.5,0.7-0.8,1.2-1.1c0.5-0.3,1-0.4,1.6-0.4c0.5,0,1,0.1,1.4,0.3c0.4,0.2,0.8,0.4,1.2,0.8c0.3,0.3,0.6,0.8,0.8,1.3
	c0.2,0.5,0.3,1.1,0.3,1.7v0.3c0,0.7-0.1,1.2-0.3,1.7c-0.2,0.5-0.5,0.9-0.8,1.3c-0.3,0.3-0.7,0.6-1.2,0.8c-0.4,0.2-0.9,0.3-1.4,0.3
	c-0.3,0-0.5,0-0.8-0.1c-0.3-0.1-0.5-0.1-0.8-0.3c-0.2-0.1-0.5-0.3-0.7-0.4c-0.2-0.2-0.4-0.4-0.5-0.6h-0.2V621.2z M956.6,617
	c0.4,0,0.7-0.1,1.1-0.2c0.3-0.1,0.6-0.3,0.8-0.6c0.2-0.2,0.4-0.5,0.6-0.9c0.1-0.4,0.2-0.7,0.2-1.2v-0.3c0-0.4-0.1-0.8-0.2-1.2
	c-0.1-0.4-0.3-0.7-0.6-0.9c-0.2-0.3-0.5-0.5-0.8-0.6c-0.3-0.1-0.7-0.2-1-0.2c-0.4,0-0.7,0.1-1,0.2c-0.3,0.1-0.6,0.3-0.8,0.6
	c-0.2,0.3-0.4,0.6-0.6,0.9c-0.1,0.4-0.2,0.7-0.2,1.2v0.2c0,0.4,0.1,0.8,0.2,1.2c0.1,0.4,0.3,0.7,0.6,0.9c0.2,0.3,0.5,0.5,0.8,0.6
	C955.9,617,956.2,617,956.6,617z M970.2,614.1c0,0.7-0.1,1.2-0.3,1.8c-0.2,0.5-0.5,0.9-0.9,1.3c-0.4,0.3-0.8,0.6-1.3,0.8
	c-0.5,0.2-1,0.3-1.5,0.3c-0.5,0-1-0.1-1.5-0.3c-0.5-0.2-0.9-0.4-1.3-0.8c-0.4-0.4-0.7-0.8-0.9-1.3c-0.2-0.5-0.3-1.1-0.3-1.8v-0.2
	c0-0.7,0.1-1.2,0.3-1.7c0.2-0.5,0.5-0.9,0.9-1.3c0.4-0.4,0.8-0.6,1.3-0.8c0.5-0.2,1-0.3,1.5-0.3c0.5,0,1,0.1,1.5,0.3
	c0.5,0.2,0.9,0.4,1.3,0.8c0.4,0.4,0.7,0.8,0.9,1.3c0.2,0.5,0.3,1.1,0.3,1.7V614.1z M966.3,617c0.4,0,0.7-0.1,1.1-0.2
	c0.3-0.1,0.6-0.3,0.9-0.6c0.2-0.3,0.4-0.6,0.6-0.9c0.1-0.4,0.2-0.8,0.2-1.2v-0.2c0-0.4-0.1-0.8-0.2-1.2c-0.1-0.4-0.3-0.7-0.6-0.9
	c-0.2-0.3-0.5-0.5-0.9-0.6c-0.3-0.1-0.7-0.2-1.1-0.2c-0.4,0-0.7,0.1-1.1,0.2c-0.3,0.1-0.6,0.3-0.9,0.6c-0.2,0.3-0.4,0.6-0.6,0.9
	c-0.1,0.4-0.2,0.7-0.2,1.2v0.2c0,0.4,0.1,0.9,0.2,1.2c0.1,0.4,0.3,0.7,0.6,0.9c0.2,0.3,0.5,0.5,0.8,0.6
	C965.5,617,965.9,617,966.3,617z M972.1,610.1h2.9v1.1h0.2c0.2-0.4,0.5-0.8,0.9-1c0.4-0.2,0.8-0.3,1.3-0.3c0.8,0,1.4,0.3,1.9,0.8
	c0.5,0.5,0.8,1.3,0.8,2.3l-1.3,0.2c0-0.7-0.2-1.3-0.5-1.6c-0.4-0.3-0.8-0.5-1.3-0.5c-0.3,0-0.6,0.1-0.9,0.2
	c-0.2,0.1-0.4,0.3-0.6,0.5c-0.2,0.2-0.3,0.5-0.4,0.8c-0.1,0.3-0.1,0.6-0.1,1v3.4h2v1.2h-5.1v-1.2h1.8v-5.6h-1.6V610.1z M982.1,610.1
	h2.5v-3.3h1.2v3.3h3.1v1.2h-3.1v5.2c0,0.3,0.1,0.5,0.4,0.5h2.3v1.2h-2.7c-0.4,0-0.7-0.1-0.9-0.4c-0.2-0.2-0.3-0.5-0.3-0.9v-5.5h-2.5
	V610.1z M991.7,610.1h2.9v1.1h0.2c0.2-0.4,0.5-0.8,0.9-1c0.4-0.2,0.8-0.3,1.3-0.3c0.8,0,1.4,0.3,1.9,0.8c0.5,0.5,0.8,1.3,0.8,2.3
	l-1.3,0.2c0-0.7-0.2-1.3-0.5-1.6c-0.4-0.3-0.8-0.5-1.3-0.5c-0.3,0-0.6,0.1-0.9,0.2c-0.2,0.1-0.4,0.3-0.6,0.5
	c-0.2,0.2-0.3,0.5-0.4,0.8c-0.1,0.3-0.1,0.6-0.1,1v3.4h2v1.2h-5.1v-1.2h1.8v-5.6h-1.6V610.1z M1007.7,616.7h-0.2
	c-0.3,0.5-0.6,0.9-1.1,1.2c-0.4,0.3-0.9,0.4-1.4,0.4c-0.5,0-1-0.1-1.5-0.3c-0.4-0.2-0.8-0.4-1.2-0.8c-0.3-0.4-0.6-0.8-0.8-1.3
	c-0.2-0.5-0.3-1.1-0.3-1.7v-0.3c0-0.7,0.1-1.2,0.3-1.7c0.2-0.5,0.4-0.9,0.8-1.3c0.3-0.4,0.7-0.6,1.2-0.8c0.5-0.2,0.9-0.3,1.4-0.3
	c0.5,0,1,0.1,1.5,0.4c0.5,0.2,0.8,0.6,1.1,1.1h0.2v-1.2h1.2v6.3c0,0.3,0.1,0.5,0.4,0.5h0.4v1.2h-0.9c-0.4,0-0.7-0.1-0.9-0.4
	C1007.8,617.4,1007.7,617.1,1007.7,616.7L1007.7,616.7z M1005.1,617c0.4,0,0.7-0.1,1-0.2c0.3-0.1,0.6-0.3,0.8-0.6
	c0.2-0.3,0.4-0.6,0.5-0.9c0.1-0.4,0.2-0.8,0.2-1.2v-0.2c0-0.4-0.1-0.8-0.2-1.2c-0.1-0.4-0.3-0.7-0.5-0.9c-0.2-0.3-0.5-0.5-0.8-0.6
	c-0.3-0.1-0.7-0.2-1-0.2c-0.4,0-0.7,0.1-1,0.2c-0.3,0.1-0.6,0.3-0.8,0.6c-0.2,0.2-0.4,0.5-0.5,0.9c-0.1,0.4-0.2,0.7-0.2,1.2v0.3
	c0,0.9,0.2,1.6,0.7,2.1C1003.8,616.8,1004.4,617,1005.1,617z M1014.2,607.7c0-0.3,0.1-0.6,0.3-0.8c0.2-0.2,0.5-0.3,0.8-0.3
	s0.6,0.1,0.8,0.3c0.2,0.2,0.3,0.5,0.3,0.8c0,0.3-0.1,0.6-0.3,0.8c-0.2,0.2-0.5,0.3-0.8,0.3s-0.6-0.1-0.8-0.3
	C1014.3,608.3,1014.2,608,1014.2,607.7z M1011.9,616.8h2.8v-5.6h-2.5v-1.2h3.7v6.8h2.6v1.2h-6.6V616.8z M1021.3,610.1h2.5v-3.3h1.2
	v3.3h3.1v1.2h-3.1v5.2c0,0.3,0.2,0.5,0.4,0.5h2.2v1.2h-2.7c-0.4,0-0.7-0.1-0.9-0.4c-0.2-0.2-0.3-0.5-0.3-0.9v-5.5h-2.5V610.1z"/>
<line class="st9" x1="297" y1="488" x2="297" y2="446"/>
<path class="st10" d="M296.1,436.4c0.4-0.6,1.3-0.6,1.7,0l5.1,8.3c0.4,0.7-0.1,1.5-0.9,1.5h-10.3c-0.8,0-1.3-0.9-0.9-1.5
	L296.1,436.4z"/>
<path class="st10" d="M297.1,479h317.8c1.2,0,2.1,0.9,2.1,2v31c0,1.1-0.9,2-2.1,2H297.1c-1.2,0-2.1-0.9-2.1-2v-31
	C295,479.9,295.9,479,297.1,479z"/>
<line class="st11" x1="32" y1="466" x2="32" y2="435"/>
<path class="st12" d="M31.1,425.4c0.4-0.6,1.3-0.6,1.7,0l5.1,8.3c0.4,0.7-0.1,1.5-0.9,1.5H26.9c-0.8,0-1.3-0.9-0.9-1.5L31.1,425.4z"
	/>
<path class="st12" d="M32,464h217c1.1,0,2,0.9,2,2v31c0,1.1-0.9,2-2,2H32c-1.1,0-2-0.9-2-2v-31C30,464.9,30.9,464,32,464z"/>
<path d="M46.9,484.1c0,0.7-0.1,1.2-0.3,1.8c-0.2,0.5-0.5,0.9-0.9,1.3c-0.4,0.3-0.8,0.6-1.3,0.8c-0.5,0.2-1,0.3-1.5,0.3
	c-0.5,0-1-0.1-1.5-0.3s-0.9-0.4-1.3-0.8c-0.4-0.4-0.7-0.8-0.9-1.3c-0.2-0.5-0.3-1.1-0.3-1.8v-0.2c0-0.7,0.1-1.2,0.3-1.7
	c0.2-0.5,0.5-0.9,0.9-1.3c0.4-0.4,0.8-0.6,1.3-0.8c0.5-0.2,1-0.3,1.5-0.3s1,0.1,1.5,0.3c0.5,0.2,0.9,0.4,1.3,0.8
	c0.4,0.4,0.7,0.8,0.9,1.3c0.2,0.5,0.3,1.1,0.3,1.7V484.1z M42.9,487c0.4,0,0.7-0.1,1.1-0.2c0.3-0.1,0.6-0.3,0.9-0.6
	c0.2-0.3,0.4-0.6,0.6-0.9c0.1-0.4,0.2-0.8,0.2-1.2v-0.2c0-0.4-0.1-0.8-0.2-1.2c-0.1-0.4-0.3-0.7-0.6-0.9c-0.2-0.3-0.5-0.5-0.9-0.6
	c-0.3-0.1-0.7-0.2-1.1-0.2s-0.7,0.1-1.1,0.2c-0.3,0.1-0.6,0.3-0.9,0.6c-0.2,0.3-0.4,0.6-0.6,0.9c-0.1,0.4-0.2,0.7-0.2,1.2v0.2
	c0,0.4,0.1,0.9,0.2,1.2c0.1,0.4,0.3,0.7,0.6,0.9c0.2,0.3,0.5,0.5,0.8,0.6C42.2,487,42.5,487,42.9,487z M48.7,480.1h2.9v1.1h0.2
	c0.2-0.4,0.5-0.8,0.9-1c0.4-0.2,0.8-0.3,1.3-0.3c0.8,0,1.4,0.3,1.9,0.8c0.5,0.5,0.8,1.3,0.8,2.3l-1.3,0.2c0-0.7-0.2-1.3-0.5-1.6
	c-0.4-0.3-0.8-0.5-1.3-0.5c-0.3,0-0.6,0.1-0.9,0.2c-0.2,0.1-0.4,0.3-0.6,0.5s-0.3,0.5-0.4,0.8c-0.1,0.3-0.1,0.6-0.1,1v3.4h2v1.2
	h-5.1v-1.2h1.8v-5.6h-1.6V480.1z M61.4,477.7c0-0.3,0.1-0.6,0.3-0.8c0.2-0.2,0.5-0.3,0.8-0.3c0.3,0,0.6,0.1,0.8,0.3
	c0.2,0.2,0.3,0.5,0.3,0.8c0,0.3-0.1,0.6-0.3,0.8c-0.2,0.2-0.5,0.3-0.8,0.3c-0.3,0-0.6-0.1-0.8-0.3C61.6,478.3,61.4,478,61.4,477.7z
	 M59.2,486.8H62v-5.6h-2.5v-1.2h3.7v6.8h2.6v1.2h-6.6V486.8z M69.7,484.4c0,0.8,0.3,1.4,0.7,1.9c0.5,0.5,1.1,0.7,1.9,0.7
	c0.4,0,0.7,0,1-0.1c0.3-0.1,0.5-0.2,0.7-0.4c0.2-0.1,0.4-0.3,0.5-0.5c0.1-0.2,0.2-0.4,0.3-0.6l1.2,0.3c-0.2,0.7-0.6,1.3-1.2,1.8
	c-0.6,0.5-1.4,0.7-2.4,0.7c-0.6,0-1.1-0.1-1.6-0.3c-0.5-0.2-0.9-0.5-1.2-0.8c-0.3-0.4-0.6-0.8-0.8-1.3c-0.2-0.5-0.3-1.1-0.3-1.7
	v-0.4c0-0.6,0.1-1.1,0.3-1.6c0.2-0.5,0.5-0.9,0.8-1.2c0.4-0.4,0.8-0.6,1.2-0.8c0.5-0.2,1-0.3,1.6-0.3c0.7,0,1.2,0.1,1.7,0.4
	c0.5,0.2,0.9,0.5,1.2,0.9c0.3,0.4,0.5,0.7,0.7,1.2c0.1,0.4,0.2,0.8,0.2,1.2v1H69.7z M72.4,481c-0.4,0-0.7,0.1-1,0.2
	c-0.3,0.1-0.6,0.3-0.8,0.5c-0.2,0.2-0.4,0.4-0.6,0.7c-0.1,0.3-0.2,0.6-0.3,0.9h5.1c0-0.3-0.1-0.7-0.3-0.9c-0.1-0.3-0.3-0.5-0.6-0.7
	c-0.2-0.2-0.5-0.3-0.8-0.4C73,481.1,72.7,481,72.4,481z M79.8,488h-1.2v-7.9h1.2v1.3H80c0.5-1,1.3-1.6,2.6-1.6
	c0.9,0,1.6,0.3,2.2,0.9c0.5,0.6,0.8,1.4,0.8,2.6v4.7h-1.2v-4.5c0-0.8-0.2-1.5-0.6-1.9c-0.4-0.4-0.9-0.6-1.5-0.6
	c-0.8,0-1.4,0.3-1.8,0.8c-0.4,0.5-0.6,1.2-0.6,2.1V488z M88.1,480.1h2.5v-3.3h1.2v3.3h3.1v1.2h-3.1v5.2c0,0.3,0.1,0.5,0.4,0.5h2.3
	v1.2h-2.7c-0.4,0-0.7-0.1-0.9-0.4c-0.2-0.2-0.3-0.5-0.3-0.9v-5.5h-2.5V480.1z M103.9,486.7h-0.2c-0.3,0.5-0.6,0.9-1.1,1.2
	c-0.4,0.3-0.9,0.4-1.4,0.4c-0.5,0-1-0.1-1.5-0.3c-0.4-0.2-0.8-0.4-1.2-0.8c-0.3-0.4-0.6-0.8-0.8-1.3c-0.2-0.5-0.3-1.1-0.3-1.7v-0.3
	c0-0.7,0.1-1.2,0.3-1.7c0.2-0.5,0.5-0.9,0.8-1.3c0.3-0.4,0.7-0.6,1.2-0.8c0.4-0.2,0.9-0.3,1.4-0.3c0.5,0,1,0.1,1.5,0.4
	c0.4,0.2,0.8,0.6,1.1,1.1h0.2v-1.2h1.2v6.3c0,0.3,0.1,0.5,0.4,0.5h0.4v1.2h-0.8c-0.4,0-0.7-0.1-0.9-0.4
	C104,487.4,103.9,487.1,103.9,486.7L103.9,486.7z M101.4,487c0.4,0,0.7-0.1,1-0.2c0.3-0.1,0.6-0.3,0.8-0.6c0.2-0.3,0.4-0.6,0.5-0.9
	c0.1-0.4,0.2-0.8,0.2-1.2v-0.2c0-0.4-0.1-0.8-0.2-1.2c-0.1-0.4-0.3-0.7-0.5-0.9c-0.2-0.3-0.5-0.5-0.8-0.6c-0.3-0.1-0.6-0.2-1-0.2
	c-0.4,0-0.7,0.1-1,0.2c-0.3,0.1-0.6,0.3-0.8,0.6c-0.2,0.2-0.4,0.5-0.5,0.9c-0.1,0.4-0.2,0.7-0.2,1.2v0.3c0,0.9,0.2,1.6,0.7,2.1
	C100,486.8,100.6,487,101.4,487z M107.7,480.1h2.5v-3.3h1.2v3.3h3.1v1.2h-3.1v5.2c0,0.3,0.1,0.5,0.4,0.5h2.3v1.2h-2.7
	c-0.4,0-0.7-0.1-0.9-0.4c-0.2-0.2-0.3-0.5-0.3-0.9v-5.5h-2.5V480.1z M120.2,477.7c0-0.3,0.1-0.6,0.3-0.8c0.2-0.2,0.5-0.3,0.8-0.3
	c0.3,0,0.6,0.1,0.8,0.3c0.2,0.2,0.3,0.5,0.3,0.8c0,0.3-0.1,0.6-0.3,0.8c-0.2,0.2-0.5,0.3-0.8,0.3c-0.3,0-0.6-0.1-0.8-0.3
	C120.3,478.3,120.2,478,120.2,477.7z M118,486.8h2.8v-5.6h-2.5v-1.2h3.7v6.8h2.6v1.2H118V486.8z M135.1,484.1c0,0.7-0.1,1.2-0.3,1.8
	c-0.2,0.5-0.5,0.9-0.9,1.3c-0.4,0.3-0.8,0.6-1.3,0.8c-0.5,0.2-1,0.3-1.5,0.3c-0.5,0-1-0.1-1.5-0.3c-0.5-0.2-0.9-0.4-1.3-0.8
	c-0.4-0.4-0.7-0.8-0.9-1.3c-0.2-0.5-0.3-1.1-0.3-1.8v-0.2c0-0.7,0.1-1.2,0.3-1.7c0.2-0.5,0.5-0.9,0.9-1.3c0.4-0.4,0.8-0.6,1.3-0.8
	c0.5-0.2,1-0.3,1.5-0.3c0.5,0,1,0.1,1.5,0.3c0.5,0.2,0.9,0.4,1.3,0.8c0.4,0.4,0.7,0.8,0.9,1.3c0.2,0.5,0.3,1.1,0.3,1.7V484.1z
	 M131.1,487c0.4,0,0.7-0.1,1.1-0.2c0.3-0.1,0.6-0.3,0.9-0.6c0.2-0.3,0.4-0.6,0.6-0.9c0.1-0.4,0.2-0.8,0.2-1.2v-0.2
	c0-0.4-0.1-0.8-0.2-1.2c-0.1-0.4-0.3-0.7-0.6-0.9c-0.2-0.3-0.5-0.5-0.9-0.6c-0.3-0.1-0.7-0.2-1.1-0.2c-0.4,0-0.7,0.1-1.1,0.2
	c-0.3,0.1-0.6,0.3-0.9,0.6c-0.2,0.3-0.4,0.6-0.6,0.9c-0.1,0.4-0.2,0.7-0.2,1.2v0.2c0,0.4,0.1,0.9,0.2,1.2c0.1,0.4,0.3,0.7,0.6,0.9
	c0.2,0.3,0.5,0.5,0.8,0.6C130.3,487,130.7,487,131.1,487z M138.6,488h-1.2v-7.9h1.2v1.3h0.2c0.5-1,1.3-1.6,2.6-1.6
	c0.9,0,1.6,0.3,2.2,0.9c0.5,0.6,0.8,1.4,0.8,2.6v4.7h-1.2v-4.5c0-0.8-0.2-1.5-0.6-1.9c-0.4-0.4-0.9-0.6-1.5-0.6
	c-0.8,0-1.4,0.3-1.8,0.8c-0.4,0.5-0.6,1.2-0.6,2.1V488z M149.5,487.1c0-0.3,0.1-0.6,0.3-0.8c0.2-0.2,0.5-0.3,0.8-0.3
	c0.3,0,0.6,0.1,0.8,0.3c0.2,0.2,0.3,0.5,0.3,0.8s-0.1,0.6-0.3,0.8c-0.2,0.2-0.5,0.3-0.8,0.3c-0.3,0-0.6-0.1-0.8-0.3
	C149.6,487.7,149.5,487.4,149.5,487.1z M149.5,481c0-0.3,0.1-0.6,0.3-0.8c0.2-0.2,0.5-0.3,0.8-0.3c0.3,0,0.6,0.1,0.8,0.3
	c0.2,0.2,0.3,0.5,0.3,0.8c0,0.3-0.1,0.6-0.3,0.8c-0.2,0.2-0.5,0.3-0.8,0.3c-0.3,0-0.6-0.1-0.8-0.3
	C149.6,481.5,149.5,481.3,149.5,481z M157,486.8h2.9V478h-2.8v-1.2h4v10h2.9v1.2h-7V486.8z M172.5,486.7h-0.2
	c-0.3,0.5-0.6,0.9-1.1,1.2c-0.4,0.3-0.9,0.4-1.4,0.4c-0.5,0-1-0.1-1.5-0.3c-0.4-0.2-0.8-0.4-1.2-0.8c-0.3-0.4-0.6-0.8-0.8-1.3
	c-0.2-0.5-0.3-1.1-0.3-1.7v-0.3c0-0.7,0.1-1.2,0.3-1.7s0.5-0.9,0.8-1.3c0.3-0.4,0.7-0.6,1.2-0.8s0.9-0.3,1.4-0.3
	c0.5,0,1,0.1,1.5,0.4c0.4,0.2,0.8,0.6,1.1,1.1h0.2v-1.2h1.2v6.3c0,0.3,0.1,0.5,0.4,0.5h0.4v1.2h-0.8c-0.4,0-0.7-0.1-0.9-0.4
	C172.6,487.4,172.5,487.1,172.5,486.7L172.5,486.7z M170,487c0.4,0,0.7-0.1,1-0.2c0.3-0.1,0.6-0.3,0.8-0.6c0.2-0.3,0.4-0.6,0.5-0.9
	c0.1-0.4,0.2-0.8,0.2-1.2v-0.2c0-0.4-0.1-0.8-0.2-1.2c-0.1-0.4-0.3-0.7-0.5-0.9c-0.2-0.3-0.5-0.5-0.8-0.6c-0.3-0.1-0.6-0.2-1-0.2
	c-0.4,0-0.7,0.1-1,0.2c-0.3,0.1-0.6,0.3-0.8,0.6c-0.2,0.2-0.4,0.5-0.5,0.9c-0.1,0.4-0.2,0.7-0.2,1.2v0.3c0,0.9,0.2,1.6,0.7,2.1
	C168.6,486.8,169.2,487,170,487z M177.8,488h-1.2v-7.9h1.2v1.3h0.2c0.5-1,1.3-1.6,2.6-1.6c0.9,0,1.6,0.3,2.2,0.9
	c0.5,0.6,0.8,1.4,0.8,2.6v4.7h-1.2v-4.5c0-0.8-0.2-1.5-0.6-1.9c-0.4-0.4-0.9-0.6-1.5-0.6c-0.8,0-1.4,0.3-1.8,0.8
	c-0.4,0.5-0.6,1.2-0.6,2.1V488z M192.5,486.8h-0.2c-0.1,0.2-0.3,0.5-0.5,0.6c-0.2,0.2-0.4,0.3-0.6,0.4c-0.2,0.1-0.5,0.2-0.7,0.3
	c-0.3,0.1-0.5,0.1-0.7,0.1c-0.5,0-1-0.1-1.5-0.3s-0.9-0.4-1.2-0.8c-0.3-0.3-0.6-0.8-0.8-1.3c-0.2-0.5-0.3-1.1-0.3-1.7v-0.3
	c0-0.6,0.1-1.2,0.3-1.7c0.2-0.5,0.5-0.9,0.8-1.3c0.3-0.4,0.7-0.6,1.2-0.8s0.9-0.3,1.5-0.3c0.5,0,1.1,0.1,1.5,0.4
	c0.5,0.2,0.8,0.6,1.1,1.1h0.2v-4.5h1.2V488h-1.2V486.8z M189.8,487c0.4,0,0.7-0.1,1-0.2c0.3-0.1,0.6-0.3,0.8-0.6
	c0.2-0.3,0.4-0.6,0.6-0.9c0.1-0.4,0.2-0.8,0.2-1.2v-0.2c0-0.4-0.1-0.8-0.2-1.2c-0.1-0.4-0.3-0.7-0.6-0.9c-0.2-0.3-0.5-0.5-0.8-0.6
	c-0.3-0.1-0.7-0.2-1-0.2c-0.4,0-0.7,0.1-1.1,0.2c-0.3,0.1-0.6,0.3-0.8,0.6c-0.2,0.3-0.4,0.6-0.6,0.9c-0.1,0.4-0.2,0.7-0.2,1.2v0.3
	c0,0.4,0.1,0.8,0.2,1.2c0.1,0.4,0.3,0.7,0.6,0.9c0.2,0.2,0.5,0.4,0.8,0.6C189.1,487,189.4,487,189.8,487z M197.8,482.1
	c0,0.4,0.2,0.7,0.5,0.9c0.3,0.2,0.9,0.3,1.8,0.4c0.9,0.1,1.6,0.3,2.1,0.7c0.5,0.4,0.7,0.9,0.7,1.6v0.1c0,0.4-0.1,0.7-0.2,1
	c-0.1,0.3-0.4,0.6-0.6,0.8c-0.3,0.2-0.6,0.4-1,0.5c-0.4,0.1-0.8,0.2-1.3,0.2c-0.6,0-1.2-0.1-1.6-0.2c-0.4-0.2-0.8-0.4-1.1-0.7
	c-0.3-0.3-0.5-0.6-0.7-0.9c-0.1-0.4-0.2-0.7-0.3-1.1l1.2-0.3c0.1,0.6,0.3,1.1,0.7,1.5c0.4,0.4,1,0.5,1.7,0.5c0.6,0,1.1-0.1,1.4-0.3
	c0.4-0.2,0.5-0.6,0.5-1c0-0.4-0.2-0.8-0.5-1c-0.4-0.2-0.9-0.3-1.7-0.4c-0.9-0.1-1.6-0.3-2.1-0.6s-0.7-0.9-0.7-1.6v-0.1
	c0-0.4,0.1-0.7,0.2-1c0.2-0.3,0.4-0.5,0.6-0.7c0.3-0.2,0.6-0.3,0.9-0.4c0.3-0.1,0.7-0.1,1.1-0.1c0.5,0,1,0.1,1.4,0.2
	c0.4,0.1,0.7,0.3,1,0.6c0.3,0.2,0.5,0.5,0.6,0.8c0.1,0.3,0.2,0.6,0.3,0.9l-1.2,0.3c-0.1-0.5-0.3-0.9-0.6-1.2
	c-0.4-0.3-0.8-0.4-1.4-0.4c-0.2,0-0.4,0-0.7,0.1c-0.2,0-0.4,0.1-0.5,0.2c-0.2,0.1-0.3,0.2-0.4,0.4
	C197.8,481.8,197.8,481.9,197.8,482.1z M213.4,485.2c-0.1,0.4-0.2,0.8-0.4,1.2c-0.2,0.4-0.5,0.7-0.8,1c-0.3,0.3-0.7,0.5-1.1,0.6
	s-0.9,0.2-1.4,0.2c-0.6,0-1.1-0.1-1.6-0.3c-0.5-0.2-0.9-0.4-1.3-0.8c-0.4-0.4-0.7-0.8-0.9-1.3c-0.2-0.5-0.3-1.1-0.3-1.7V484
	c0-0.6,0.1-1.2,0.3-1.7c0.2-0.5,0.5-0.9,0.9-1.3s0.8-0.6,1.3-0.8c0.5-0.2,1-0.3,1.6-0.3c0.5,0,1,0.1,1.4,0.2
	c0.4,0.1,0.8,0.4,1.1,0.6c0.3,0.3,0.6,0.6,0.8,1c0.2,0.4,0.4,0.8,0.4,1.2l-1.2,0.3c0-0.3-0.1-0.5-0.2-0.8c-0.1-0.3-0.3-0.5-0.5-0.7
	c-0.2-0.2-0.5-0.4-0.8-0.5c-0.3-0.1-0.6-0.2-1-0.2c-0.4,0-0.7,0.1-1.1,0.2c-0.3,0.1-0.6,0.3-0.9,0.6c-0.3,0.3-0.5,0.6-0.6,0.9
	c-0.1,0.4-0.2,0.8-0.2,1.2v0.2c0,0.4,0.1,0.9,0.2,1.2c0.1,0.4,0.4,0.7,0.6,0.9c0.3,0.2,0.6,0.4,0.9,0.6c0.3,0.1,0.7,0.2,1.1,0.2
	c0.4,0,0.7-0.1,1-0.2c0.3-0.1,0.5-0.3,0.8-0.5c0.2-0.2,0.4-0.4,0.5-0.7c0.1-0.3,0.2-0.5,0.3-0.8L213.4,485.2z M221.5,486.7h-0.2
	c-0.3,0.5-0.6,0.9-1.1,1.2c-0.4,0.3-0.9,0.4-1.4,0.4c-0.5,0-1-0.1-1.5-0.3c-0.4-0.2-0.8-0.4-1.2-0.8c-0.3-0.4-0.6-0.8-0.8-1.3
	c-0.2-0.5-0.3-1.1-0.3-1.7v-0.3c0-0.7,0.1-1.2,0.3-1.7s0.5-0.9,0.8-1.3c0.3-0.4,0.7-0.6,1.2-0.8s0.9-0.3,1.4-0.3
	c0.5,0,1,0.1,1.5,0.4c0.4,0.2,0.8,0.6,1.1,1.1h0.2v-1.2h1.2v6.3c0,0.3,0.1,0.5,0.4,0.5h0.4v1.2h-0.8c-0.4,0-0.7-0.1-0.9-0.4
	C221.6,487.4,221.5,487.1,221.5,486.7L221.5,486.7z M218.9,487c0.4,0,0.7-0.1,1-0.2c0.3-0.1,0.6-0.3,0.8-0.6
	c0.2-0.3,0.4-0.6,0.5-0.9c0.1-0.4,0.2-0.8,0.2-1.2v-0.2c0-0.4-0.1-0.8-0.2-1.2c-0.1-0.4-0.3-0.7-0.5-0.9c-0.2-0.3-0.5-0.5-0.8-0.6
	c-0.3-0.1-0.6-0.2-1-0.2c-0.4,0-0.7,0.1-1,0.2c-0.3,0.1-0.6,0.3-0.8,0.6c-0.2,0.2-0.4,0.5-0.5,0.9c-0.1,0.4-0.2,0.7-0.2,1.2v0.3
	c0,0.9,0.2,1.6,0.7,2.1C217.6,486.8,218.2,487,218.9,487z M226.5,491.2h-1.2v-11.1h1.2v1.2h0.2c0.3-0.5,0.7-0.8,1.2-1.1
	c0.5-0.3,1-0.4,1.6-0.4c0.5,0,1,0.1,1.4,0.3c0.4,0.2,0.8,0.4,1.2,0.8c0.3,0.3,0.6,0.8,0.8,1.3c0.2,0.5,0.3,1.1,0.3,1.7v0.3
	c0,0.7-0.1,1.2-0.3,1.7c-0.2,0.5-0.5,0.9-0.8,1.3c-0.3,0.3-0.7,0.6-1.2,0.8c-0.4,0.2-0.9,0.3-1.4,0.3c-0.3,0-0.5,0-0.8-0.1
	c-0.3-0.1-0.5-0.1-0.8-0.3c-0.2-0.1-0.5-0.3-0.7-0.4c-0.2-0.2-0.4-0.4-0.5-0.6h-0.2V491.2z M229.1,487c0.4,0,0.7-0.1,1.1-0.2
	c0.3-0.1,0.6-0.3,0.8-0.6c0.2-0.2,0.4-0.5,0.6-0.9c0.1-0.4,0.2-0.7,0.2-1.2v-0.3c0-0.4-0.1-0.8-0.2-1.2c-0.1-0.4-0.3-0.7-0.6-0.9
	c-0.2-0.3-0.5-0.5-0.8-0.6c-0.3-0.1-0.7-0.2-1-0.2c-0.4,0-0.7,0.1-1,0.2c-0.3,0.1-0.6,0.3-0.8,0.6c-0.2,0.3-0.4,0.6-0.6,0.9
	c-0.1,0.4-0.2,0.7-0.2,1.2v0.2c0,0.4,0.1,0.8,0.2,1.2c0.1,0.4,0.3,0.7,0.6,0.9c0.2,0.3,0.5,0.5,0.8,0.6
	C228.4,487,228.8,487,229.1,487z M236.2,484.4c0,0.8,0.3,1.4,0.7,1.9c0.5,0.5,1.1,0.7,1.9,0.7c0.4,0,0.7,0,1-0.1
	c0.3-0.1,0.5-0.2,0.7-0.4c0.2-0.1,0.4-0.3,0.5-0.5c0.1-0.2,0.2-0.4,0.3-0.6l1.2,0.3c-0.2,0.7-0.6,1.3-1.2,1.8
	c-0.6,0.5-1.4,0.7-2.4,0.7c-0.6,0-1.1-0.1-1.6-0.3c-0.5-0.2-0.9-0.5-1.2-0.8c-0.3-0.4-0.6-0.8-0.8-1.3s-0.3-1.1-0.3-1.7v-0.4
	c0-0.6,0.1-1.1,0.3-1.6c0.2-0.5,0.5-0.9,0.8-1.2c0.4-0.4,0.8-0.6,1.2-0.8c0.5-0.2,1-0.3,1.6-0.3c0.7,0,1.2,0.1,1.7,0.4
	c0.5,0.2,0.9,0.5,1.2,0.9c0.3,0.4,0.5,0.7,0.7,1.2c0.1,0.4,0.2,0.8,0.2,1.2v1H236.2z M238.9,481c-0.4,0-0.7,0.1-1,0.2
	c-0.3,0.1-0.6,0.3-0.8,0.5c-0.2,0.2-0.4,0.4-0.6,0.7c-0.1,0.3-0.2,0.6-0.3,0.9h5.1c0-0.3-0.1-0.7-0.3-0.9c-0.1-0.3-0.3-0.5-0.6-0.7
	c-0.2-0.2-0.5-0.3-0.8-0.4C239.5,481.1,239.2,481,238.9,481z"/>
<g>
	<path d="M307,503v-12.6h1.5v5.8c0.4-0.7,0.9-1.2,1.5-1.6c0.6-0.4,1.2-0.6,1.8-0.6c0.5,0,0.9,0.1,1.4,0.4c0.4,0.3,0.7,0.6,0.9,0.9
		c0.1,0.3,0.2,0.6,0.3,0.9s0.1,0.9,0.1,1.9v4.9h-1.5v-5.1c0-0.8,0-1.4-0.1-1.7c-0.1-0.3-0.2-0.5-0.4-0.7c-0.2-0.2-0.5-0.3-0.7-0.3
		c-0.5,0-1.1,0.2-1.6,0.7s-1.1,1.1-1.4,1.8v5.1H307z"/>
	<path d="M320.2,503.2c-1.2,0-2.2-0.4-3-1.3c-0.7-0.9-1.1-2-1.1-3.3s0.4-2.4,1.1-3.3c0.7-0.9,1.7-1.3,3-1.3c1.2,0,2.2,0.4,3,1.3
		s1.1,2,1.1,3.3s-0.4,2.4-1.1,3.3S321.4,503.2,320.2,503.2z M320.2,502c0.8,0,1.4-0.3,1.8-0.9s0.7-1.4,0.7-2.5
		c0-1.1-0.2-1.9-0.7-2.5s-1.1-0.9-1.8-0.9c-0.8,0-1.4,0.3-1.9,0.9c-0.5,0.6-0.7,1.4-0.7,2.5c0,1.1,0.2,1.9,0.7,2.5
		C318.8,501.7,319.4,502,320.2,502z"/>
	<path d="M327,503v-8.7h1.5v1.9c0.5-0.7,1-1.3,1.6-1.6s1.2-0.5,2-0.5c0.5,0,1.1,0.1,1.6,0.2v3.1h-1.4v-2c-0.2,0-0.4-0.1-0.6-0.1
		c-0.5,0-1.1,0.2-1.6,0.6c-0.5,0.4-1,1.1-1.5,1.9v5.1H327z"/>
	<path d="M338.3,503v-7.5h-2.4v-1.2h3.9v7.5h2.4v1.2H338.3z M338,491.1c0-0.3,0.1-0.6,0.3-0.7s0.4-0.2,0.6-0.2
		c0.2,0,0.4,0.1,0.6,0.2s0.3,0.4,0.3,0.7c0,0.3-0.1,0.6-0.3,0.7s-0.4,0.2-0.6,0.2c-0.2,0-0.4-0.1-0.6-0.2S338,491.4,338,491.1z"/>
	<path d="M345.2,503v-1.3l5.3-6.2h-5.2v-1.2h7.1v1.2l-5.4,6.2h5.6v1.3H345.2z"/>
	<path d="M358.6,503.2c-1.2,0-2.2-0.4-3-1.3c-0.7-0.9-1.1-2-1.1-3.3s0.4-2.4,1.1-3.3c0.7-0.9,1.7-1.3,3-1.3c1.2,0,2.2,0.4,3,1.3
		s1.1,2,1.1,3.3s-0.4,2.4-1.1,3.3S359.8,503.2,358.6,503.2z M358.6,502c0.8,0,1.4-0.3,1.8-0.9s0.7-1.4,0.7-2.5
		c0-1.1-0.2-1.9-0.7-2.5s-1.1-0.9-1.8-0.9c-0.8,0-1.4,0.3-1.9,0.9c-0.5,0.6-0.7,1.4-0.7,2.5c0,1.1,0.2,1.9,0.7,2.5
		C357.2,501.7,357.8,502,358.6,502z"/>
	<path d="M364.6,503v-8.7h1.5v1.9c0.4-0.7,0.9-1.2,1.5-1.6c0.6-0.4,1.2-0.6,1.8-0.6c0.5,0,1,0.1,1.4,0.4s0.7,0.6,0.9,1.1
		c0.2,0.4,0.3,1.3,0.3,2.6v4.9h-1.5v-5.1c0-0.8,0-1.4-0.1-1.7c-0.1-0.3-0.2-0.5-0.4-0.7c-0.2-0.2-0.5-0.3-0.7-0.3
		c-0.5,0-1.1,0.2-1.6,0.7s-1.1,1.1-1.4,1.8v5.1H364.6z"/>
	<path d="M381.5,502.6c-0.7,0.3-1.2,0.5-1.5,0.5c-0.3,0.1-0.6,0.1-0.9,0.1c-0.6,0-1.2-0.1-1.7-0.4c-0.5-0.2-0.9-0.6-1.1-1
		s-0.4-1.2-0.4-2.1v-3.5h-2.2V495h2.2v-3.5h1.5v3.5h3.9v1.2h-3.9v3.5c0,0.7,0.1,1.2,0.2,1.5c0.2,0.3,0.4,0.5,0.7,0.6
		c0.3,0.1,0.6,0.2,1,0.2c0.7,0,1.4-0.2,2.2-0.7V502.6z"/>
	<path d="M389.6,501c-0.4,0.7-1,1.3-1.6,1.6s-1.2,0.6-1.7,0.6c-0.7,0-1.4-0.3-2-0.9c-0.6-0.6-0.9-1.6-0.9-2.9c0-1,0.2-1.9,0.6-2.7
		c0.4-0.8,0.9-1.4,1.5-1.9s1.4-0.7,2.4-0.7c0.3,0,0.7,0,1.2,0.1c0.1,0,0.2,0,0.4,0h1.5v6.2c0,1.1,0.1,1.9,0.3,2.6h-1.5
		C389.7,502.5,389.6,501.9,389.6,501z M389.6,499.3v-3.7c-0.5-0.1-1-0.2-1.4-0.2c-0.9,0-1.6,0.3-2.2,1c-0.6,0.7-0.9,1.6-0.9,2.8
		c0,0.9,0.2,1.5,0.5,2s0.7,0.7,1.1,0.7c0.5,0,1-0.2,1.5-0.7S389.1,500.1,389.6,499.3z"/>
	<path d="M395.8,503v-11.4h-2.6v-1.2h4.1v11.4h2.7v1.2H395.8z"/>
	<path d="M403.6,498.7v-1.2h6.1v1.2H403.6z"/>
	<path d="M415.5,503l-3.8-8.7h1.6l3,6.9l3-6.9h1.5l-3.8,8.7H415.5z"/>
	<path d="M424.7,503v-7.5h-2.4v-1.2h3.9v7.5h2.4v1.2H424.7z M424.4,491.1c0-0.3,0.1-0.6,0.3-0.7s0.4-0.2,0.6-0.2
		c0.2,0,0.4,0.1,0.6,0.2s0.3,0.4,0.3,0.7c0,0.3-0.1,0.6-0.3,0.7s-0.4,0.2-0.6,0.2c-0.2,0-0.4-0.1-0.6-0.2S424.4,491.4,424.4,491.1z"
		/>
	<path d="M439.1,502.4c-1.2,0.5-2.3,0.8-3.3,0.8c-0.8,0-1.5-0.2-2.1-0.6c-0.6-0.4-1.1-0.9-1.5-1.7c-0.4-0.7-0.6-1.5-0.6-2.3
		c0-0.8,0.2-1.6,0.5-2.3c0.4-0.7,0.8-1.3,1.5-1.7c0.6-0.4,1.3-0.6,2.1-0.6c1,0,1.9,0.4,2.5,1.1c0.6,0.7,0.9,1.9,0.9,3.4v0.3h-6
		c0,0.6,0.1,1.2,0.4,1.7c0.3,0.5,0.6,0.9,1,1.1c0.4,0.3,0.9,0.4,1.4,0.4c0.9,0,2-0.3,3.1-0.9V502.4z M433.3,497.8h4.4v-0.2
		c0-0.7-0.2-1.3-0.5-1.7c-0.3-0.4-0.8-0.6-1.4-0.6c-0.6,0-1.1,0.2-1.5,0.6S433.5,496.9,433.3,497.8z"/>
	<path d="M441.8,503l-1.4-8.7h1.4l0.8,5.3l0.2,1.2l0.2-1.2l1.4-5.3h1.3l1.6,5.3l0.3,1.2l0.2-1.2l0.8-5.3h1.1l-1.4,8.7h-1.4l-1.7-5.6
		l-0.3-1.2h0l-0.2,1.2l-1.5,5.6H441.8z"/>
	<path d="M452.4,496.2c0.4-0.7,1-1.3,1.6-1.6c0.6-0.4,1.2-0.6,1.7-0.6c0.7,0,1.4,0.3,2,0.9c0.6,0.6,0.9,1.6,0.9,2.9
		c0,1-0.2,1.9-0.6,2.7c-0.4,0.8-0.9,1.4-1.6,1.9c-0.6,0.5-1.4,0.7-2.4,0.7c-0.3,0-0.7,0-1.2-0.1c-0.1,0-0.2,0-0.4,0v3.4h-1.5v-12.1
		h1.5V496.2z M452.4,498v3.7c0.5,0.1,1,0.2,1.5,0.2c0.9,0,1.6-0.3,2.2-1c0.6-0.7,0.9-1.6,0.9-2.8c0-0.9-0.2-1.5-0.5-2
		c-0.3-0.4-0.7-0.7-1.1-0.7c-0.5,0-1,0.2-1.5,0.7C453.3,496.6,452.8,497.2,452.4,498z"/>
	<path d="M464.2,503.2c-1.2,0-2.2-0.4-3-1.3c-0.7-0.9-1.1-2-1.1-3.3s0.4-2.4,1.1-3.3c0.7-0.9,1.7-1.3,3-1.3c1.2,0,2.2,0.4,3,1.3
		s1.1,2,1.1,3.3s-0.4,2.4-1.1,3.3S465.5,503.2,464.2,503.2z M464.2,502c0.8,0,1.4-0.3,1.8-0.9s0.7-1.4,0.7-2.5
		c0-1.1-0.2-1.9-0.7-2.5s-1.1-0.9-1.8-0.9c-0.8,0-1.4,0.3-1.9,0.9c-0.5,0.6-0.7,1.4-0.7,2.5c0,1.1,0.2,1.9,0.7,2.5
		C462.8,501.7,463.4,502,464.2,502z"/>
	<path d="M471,503v-8.7h1.5v1.9c0.5-0.7,1-1.3,1.6-1.6s1.2-0.5,2-0.5c0.5,0,1.1,0.1,1.6,0.2v3.1h-1.4v-2c-0.2,0-0.4-0.1-0.6-0.1
		c-0.5,0-1.1,0.2-1.6,0.6c-0.5,0.4-1,1.1-1.5,1.9v5.1H471z"/>
	<path d="M487.1,502.6c-0.7,0.3-1.2,0.5-1.5,0.5c-0.3,0.1-0.6,0.1-0.9,0.1c-0.6,0-1.2-0.1-1.7-0.4c-0.5-0.2-0.9-0.6-1.1-1
		s-0.4-1.2-0.4-2.1v-3.5h-2.2V495h2.2v-3.5h1.5v3.5h3.9v1.2H483v3.5c0,0.7,0.1,1.2,0.2,1.5c0.2,0.3,0.4,0.5,0.7,0.6
		c0.3,0.1,0.6,0.2,1,0.2c0.7,0,1.4-0.2,2.2-0.7V502.6z"/>
	<path d="M490,498.7v-1.2h6.1v1.2H490z"/>
	<path d="M499.1,502.5V501c0.6,0.4,1.2,0.6,1.9,0.8c0.7,0.2,1.2,0.2,1.7,0.2c0.7,0,1.3-0.1,1.6-0.4c0.3-0.2,0.5-0.5,0.5-0.9
		c0-0.2-0.1-0.4-0.2-0.6c-0.2-0.2-0.5-0.4-1.1-0.6l-0.5-0.2l-1-0.4c-1.1-0.4-1.8-0.8-2-1.2c-0.3-0.4-0.4-0.8-0.4-1.3
		c0-0.7,0.3-1.3,0.8-1.8s1.5-0.7,2.7-0.7c0.9,0,1.8,0.1,2.7,0.4v1.3c-1-0.3-1.9-0.5-2.7-0.5c-0.6,0-1.1,0.1-1.4,0.3
		c-0.3,0.2-0.5,0.5-0.5,0.8c0,0.3,0.2,0.6,0.5,0.8c0.3,0.2,0.8,0.4,1.5,0.6l1,0.4c0.9,0.3,1.5,0.7,1.9,1.1s0.5,0.9,0.5,1.4
		c0,0.8-0.3,1.4-0.9,1.9c-0.6,0.5-1.5,0.7-2.8,0.7C501.5,503.2,500.3,503,499.1,502.5z"/>
	<path d="M515.9,502.4c-1.2,0.5-2.3,0.8-3.3,0.8c-0.8,0-1.5-0.2-2.1-0.6c-0.6-0.4-1.1-0.9-1.5-1.7c-0.4-0.7-0.6-1.5-0.6-2.3
		c0-0.8,0.2-1.6,0.5-2.3c0.4-0.7,0.8-1.3,1.5-1.7c0.6-0.4,1.3-0.6,2.1-0.6c1,0,1.9,0.4,2.5,1.1c0.6,0.7,0.9,1.9,0.9,3.4v0.3h-6
		c0,0.6,0.1,1.2,0.4,1.7c0.3,0.5,0.6,0.9,1,1.1c0.4,0.3,0.9,0.4,1.4,0.4c0.9,0,2-0.3,3.1-0.9V502.4z M510.1,497.8h4.4v-0.2
		c0-0.7-0.2-1.3-0.5-1.7c-0.3-0.4-0.8-0.6-1.4-0.6c-0.6,0-1.1,0.2-1.5,0.6S510.3,496.9,510.1,497.8z"/>
	<path d="M524.1,501c-0.4,0.7-1,1.3-1.6,1.6c-0.6,0.4-1.2,0.6-1.7,0.6c-0.7,0-1.4-0.3-2-0.9s-0.9-1.6-0.9-2.9c0-1,0.2-1.9,0.6-2.7
		c0.4-0.8,0.9-1.4,1.5-1.9s1.4-0.7,2.4-0.7c0.3,0,0.7,0,1.2,0.1c0.1,0,0.2,0,0.4,0h1.5v6.2c0,1.5,0,2.4-0.1,2.7c0,0.3-0.1,0.7-0.2,1
		c-0.2,0.8-0.7,1.4-1.4,1.8c-0.7,0.4-1.6,0.7-2.7,0.7c-1.1,0-2.1-0.3-3.2-0.8v-1.5c0.4,0.3,0.9,0.5,1.5,0.7c0.6,0.2,1.2,0.3,1.7,0.3
		c0.4,0,0.9-0.1,1.3-0.2s0.7-0.3,1-0.6s0.4-0.6,0.5-0.9c0.1-0.4,0.1-0.8,0.1-1.4V501z M524.1,499.3v-3.7c-0.5-0.1-1-0.2-1.4-0.2
		c-0.9,0-1.6,0.3-2.2,1c-0.6,0.7-0.9,1.6-0.9,2.8c0,0.9,0.2,1.5,0.5,2s0.7,0.7,1.1,0.7c0.5,0,1-0.2,1.5-0.7S523.6,500.1,524.1,499.3
		z"/>
	<path d="M527.2,503v-8.7h1.3v2c0.4-0.8,0.8-1.4,1.1-1.8c0.3-0.3,0.7-0.5,1.1-0.5c0.4,0,0.8,0.2,1,0.5s0.4,0.8,0.4,1.4v0.5
		c0.2-0.5,0.4-1,0.6-1.3s0.5-0.6,0.8-0.8c0.3-0.2,0.6-0.3,0.9-0.3c0.4,0,0.7,0.2,1,0.5s0.4,1,0.4,1.9v6.6h-1.3v-6c0-0.5,0-0.8,0-1
		s-0.1-0.3-0.2-0.4s-0.2-0.1-0.3-0.1c-0.3,0-0.6,0.2-0.9,0.6c-0.3,0.4-0.6,1.1-0.9,2.1v4.8h-1.2v-6c0-0.8-0.1-1.2-0.2-1.4
		c-0.2-0.1-0.3-0.2-0.4-0.2c-0.3,0-0.6,0.2-0.9,0.7s-0.6,1.1-0.9,1.8v5H527.2z"/>
	<path d="M544.7,502.4c-1.2,0.5-2.3,0.8-3.3,0.8c-0.8,0-1.5-0.2-2.1-0.6c-0.6-0.4-1.1-0.9-1.5-1.7s-0.6-1.5-0.6-2.3
		c0-0.8,0.2-1.6,0.5-2.3s0.8-1.3,1.5-1.7c0.6-0.4,1.3-0.6,2.1-0.6c1,0,1.9,0.4,2.5,1.1s0.9,1.9,0.9,3.4v0.3h-6
		c0,0.6,0.1,1.2,0.4,1.7c0.3,0.5,0.6,0.9,1,1.1s0.9,0.4,1.4,0.4c0.9,0,2-0.3,3.1-0.9V502.4z M538.9,497.8h4.4v-0.2
		c0-0.7-0.2-1.3-0.5-1.7s-0.8-0.6-1.4-0.6c-0.6,0-1.1,0.2-1.5,0.6S539.1,496.9,538.9,497.8z"/>
	<path d="M547,503v-8.7h1.5v1.9c0.4-0.7,0.9-1.2,1.5-1.6s1.2-0.6,1.8-0.6c0.5,0,1,0.1,1.4,0.4s0.7,0.6,0.9,1.1s0.3,1.3,0.3,2.6v4.9
		h-1.5v-5.1c0-0.8,0-1.4-0.1-1.7s-0.2-0.5-0.4-0.7s-0.5-0.3-0.7-0.3c-0.5,0-1.1,0.2-1.6,0.7s-1.1,1.1-1.4,1.8v5.1H547z"/>
	<path d="M563.9,502.6c-0.7,0.3-1.2,0.5-1.5,0.5s-0.6,0.1-0.9,0.1c-0.6,0-1.2-0.1-1.7-0.4s-0.9-0.6-1.1-1s-0.4-1.2-0.4-2.1v-3.5
		h-2.2V495h2.2v-3.5h1.5v3.5h3.9v1.2h-3.9v3.5c0,0.7,0.1,1.2,0.2,1.5s0.4,0.5,0.7,0.6s0.6,0.2,1,0.2c0.7,0,1.4-0.2,2.2-0.7V502.6z"
		/>
	<path d="M566.4,502.5V501c0.6,0.4,1.2,0.6,1.9,0.8s1.2,0.2,1.7,0.2c0.7,0,1.3-0.1,1.6-0.4s0.5-0.5,0.5-0.9c0-0.2-0.1-0.4-0.2-0.6
		s-0.5-0.4-1.1-0.6l-0.5-0.2l-1-0.4c-1.1-0.4-1.8-0.8-2-1.2c-0.3-0.4-0.4-0.8-0.4-1.3c0-0.7,0.3-1.3,0.8-1.8s1.5-0.7,2.7-0.7
		c0.9,0,1.8,0.1,2.7,0.4v1.3c-1-0.3-1.9-0.5-2.7-0.5c-0.6,0-1.1,0.1-1.4,0.3s-0.5,0.5-0.5,0.8c0,0.3,0.2,0.6,0.5,0.8
		c0.3,0.2,0.8,0.4,1.5,0.6l1,0.4c0.9,0.3,1.5,0.7,1.9,1.1s0.5,0.9,0.5,1.4c0,0.8-0.3,1.4-0.9,1.9s-1.5,0.7-2.8,0.7
		C568.7,503.2,567.5,503,566.4,502.5z"/>
	<path d="M579.4,496.6c-0.3,0-0.6-0.1-0.9-0.4s-0.4-0.5-0.4-0.9c0-0.4,0.1-0.7,0.4-0.9s0.6-0.4,0.9-0.4s0.6,0.1,0.9,0.4
		s0.4,0.5,0.4,0.9c0,0.3-0.1,0.6-0.4,0.9S579.8,496.6,579.4,496.6z M579.4,503.4c-0.3,0-0.6-0.1-0.9-0.4s-0.4-0.5-0.4-0.9
		c0-0.4,0.1-0.7,0.4-0.9s0.6-0.4,0.9-0.4s0.6,0.1,0.9,0.4s0.4,0.5,0.4,0.9c0,0.3-0.1,0.6-0.4,0.9S579.8,503.4,579.4,503.4z"/>
	<path d="M602.3,503H595v-1.3c0-0.3,0.1-0.7,0.2-1.1s0.4-0.8,0.8-1.3c0.4-0.5,0.8-1,1.3-1.4l0.8-0.8c0.2-0.2,0.5-0.6,1.1-1.2
		s0.9-1.1,1.1-1.4c0.2-0.3,0.3-0.7,0.3-1c0-0.5-0.2-0.9-0.6-1.2s-0.9-0.4-1.4-0.4c-0.3,0-0.6,0-1,0.1c-0.4,0.1-0.7,0.1-1,0.2
		s-0.7,0.3-1.3,0.6v-1.3c0.7-0.3,1.3-0.5,2-0.6s1.2-0.2,1.6-0.2c0.6,0,1.2,0.1,1.7,0.3s0.9,0.5,1.2,1s0.4,0.9,0.4,1.4
		c0,0.5-0.2,1.1-0.5,1.7c-0.3,0.6-1,1.3-1.9,2.2l-0.9,0.9l-0.7,0.7c-0.5,0.5-0.9,0.9-1.1,1.4s-0.5,1-0.5,1.6h5.8V503z"/>
</g>
<g>
	<path d="M677.4,536.9l-3.8-8.7h1.6l3,6.9l3-6.9h1.5l-3.8,8.7H677.4z"/>
	<path d="M691.4,536.3c-1.2,0.5-2.3,0.8-3.3,0.8c-0.8,0-1.5-0.2-2.1-0.6c-0.6-0.4-1.1-0.9-1.5-1.7c-0.4-0.7-0.6-1.5-0.6-2.3
		c0-0.8,0.2-1.6,0.5-2.3c0.4-0.7,0.8-1.3,1.5-1.7c0.6-0.4,1.3-0.6,2.1-0.6c1,0,1.9,0.4,2.5,1.1c0.6,0.7,0.9,1.9,0.9,3.4v0.3h-6
		c0,0.6,0.1,1.2,0.4,1.7c0.3,0.5,0.6,0.9,1,1.1c0.4,0.3,0.9,0.4,1.4,0.4c0.9,0,2-0.3,3.1-0.9V536.3z M685.6,531.7h4.4v-0.2
		c0-0.7-0.2-1.3-0.5-1.7c-0.3-0.4-0.8-0.6-1.4-0.6c-0.6,0-1.1,0.2-1.5,0.6S685.8,530.9,685.6,531.7z"/>
	<path d="M694.5,536.9v-8.7h1.5v1.9c0.5-0.7,1-1.3,1.6-1.6s1.2-0.5,2-0.5c0.5,0,1.1,0.1,1.6,0.2v3.1h-1.4v-2c-0.2,0-0.4-0.1-0.6-0.1
		c-0.5,0-1.1,0.2-1.6,0.6c-0.5,0.4-1,1.1-1.5,1.9v5.1H694.5z"/>
	<path d="M710.6,536.6c-0.7,0.3-1.2,0.5-1.5,0.5c-0.3,0.1-0.6,0.1-0.9,0.1c-0.6,0-1.2-0.1-1.7-0.4c-0.5-0.2-0.9-0.6-1.1-1
		s-0.4-1.2-0.4-2.1v-3.5h-2.2v-1.2h2.2v-3.5h1.5v3.5h3.9v1.2h-3.9v3.5c0,0.7,0.1,1.2,0.2,1.5c0.2,0.3,0.4,0.5,0.7,0.6
		c0.3,0.1,0.6,0.2,1,0.2c0.7,0,1.4-0.2,2.2-0.7V536.6z"/>
	<path d="M715.4,536.9v-7.5H713v-1.2h3.9v7.5h2.4v1.2H715.4z M715.1,525c0-0.3,0.1-0.6,0.3-0.7c0.2-0.2,0.4-0.2,0.6-0.2
		c0.2,0,0.4,0.1,0.6,0.2c0.2,0.2,0.3,0.4,0.3,0.7c0,0.3-0.1,0.6-0.3,0.7c-0.2,0.2-0.4,0.2-0.6,0.2c-0.2,0-0.4-0.1-0.6-0.2
		C715.3,525.6,715.1,525.4,715.1,525z"/>
	<path d="M729.9,536.7c-1,0.3-1.9,0.5-2.8,0.5c-0.9,0-1.7-0.2-2.3-0.6s-1.2-1-1.6-1.6c-0.4-0.7-0.6-1.5-0.6-2.4
		c0-1.3,0.4-2.4,1.3-3.3c0.9-0.9,1.9-1.3,3.1-1.3c0.9,0,1.9,0.2,2.9,0.5v1.4c-1-0.5-1.9-0.7-2.7-0.7c-0.5,0-1,0.1-1.5,0.4
		s-0.8,0.7-1.1,1.2c-0.3,0.6-0.4,1.1-0.4,1.7c0,0.8,0.2,1.5,0.7,2.2s1.3,1.1,2.3,1.1c0.3,0,0.6,0,0.9-0.1c0.3,0,0.9-0.2,1.7-0.5
		V536.7z"/>
	<path d="M737.9,535c-0.4,0.7-1,1.3-1.6,1.6c-0.6,0.4-1.2,0.6-1.7,0.6c-0.7,0-1.4-0.3-2-0.9c-0.6-0.6-0.9-1.6-0.9-2.9
		c0-1,0.2-1.9,0.6-2.7c0.4-0.8,0.9-1.4,1.5-1.9s1.4-0.7,2.4-0.7c0.3,0,0.7,0,1.2,0.1c0.1,0,0.2,0,0.4,0h1.5v6.2
		c0,1.1,0.1,1.9,0.3,2.6h-1.5C738,536.4,737.9,535.8,737.9,535z M737.9,533.2v-3.7c-0.5-0.1-1-0.2-1.4-0.2c-0.9,0-1.6,0.3-2.2,1
		c-0.6,0.7-0.9,1.6-0.9,2.8c0,0.9,0.2,1.5,0.5,2s0.7,0.7,1.1,0.7c0.5,0,1-0.2,1.5-0.7C737,534.6,737.4,534,737.9,533.2z"/>
	<path d="M744.1,536.9v-11.4h-2.6v-1.2h4.1v11.4h2.7v1.2H744.1z"/>
	<path d="M751.9,532.6v-1.2h6.1v1.2H751.9z"/>
	<path d="M763.8,536.9l-3.8-8.7h1.6l3,6.9l3-6.9h1.5l-3.8,8.7H763.8z"/>
	<path d="M773,536.9v-7.5h-2.4v-1.2h3.9v7.5h2.4v1.2H773z M772.8,525c0-0.3,0.1-0.6,0.3-0.7c0.2-0.2,0.4-0.2,0.6-0.2
		c0.2,0,0.4,0.1,0.6,0.2c0.2,0.2,0.3,0.4,0.3,0.7c0,0.3-0.1,0.6-0.3,0.7c-0.2,0.2-0.4,0.2-0.6,0.2c-0.2,0-0.4-0.1-0.6-0.2
		C772.9,525.6,772.8,525.4,772.8,525z"/>
	<path d="M787.4,536.3c-1.2,0.5-2.3,0.8-3.3,0.8c-0.8,0-1.5-0.2-2.1-0.6c-0.6-0.4-1.1-0.9-1.5-1.7c-0.4-0.7-0.6-1.5-0.6-2.3
		c0-0.8,0.2-1.6,0.5-2.3c0.4-0.7,0.8-1.3,1.5-1.7c0.6-0.4,1.3-0.6,2.1-0.6c1,0,1.9,0.4,2.5,1.1c0.6,0.7,0.9,1.9,0.9,3.4v0.3h-6
		c0,0.6,0.1,1.2,0.4,1.7c0.3,0.5,0.6,0.9,1,1.1c0.4,0.3,0.9,0.4,1.4,0.4c0.9,0,2-0.3,3.1-0.9V536.3z M781.6,531.7h4.4v-0.2
		c0-0.7-0.2-1.3-0.5-1.7c-0.3-0.4-0.8-0.6-1.4-0.6c-0.6,0-1.1,0.2-1.5,0.6S781.8,530.9,781.6,531.7z"/>
	<path d="M790.1,536.9l-1.4-8.7h1.4l0.8,5.3l0.2,1.2l0.2-1.2l1.4-5.3h1.3l1.6,5.3l0.3,1.2l0.2-1.2l0.8-5.3h1.1l-1.4,8.7h-1.4
		l-1.7-5.6l-0.3-1.2h0l-0.2,1.2l-1.5,5.6H790.1z"/>
	<path d="M800.7,530.2c0.4-0.7,1-1.3,1.6-1.6c0.6-0.4,1.2-0.6,1.7-0.6c0.7,0,1.4,0.3,2,0.9c0.6,0.6,0.9,1.6,0.9,2.9
		c0,1-0.2,1.9-0.6,2.7c-0.4,0.8-0.9,1.4-1.6,1.9c-0.6,0.5-1.4,0.7-2.4,0.7c-0.3,0-0.7,0-1.2-0.1c-0.1,0-0.2,0-0.4,0v3.4h-1.5v-12.1
		h1.5V530.2z M800.7,531.9v3.7c0.5,0.1,1,0.2,1.5,0.2c0.9,0,1.6-0.3,2.2-1c0.6-0.7,0.9-1.6,0.9-2.8c0-0.9-0.2-1.5-0.5-2
		c-0.3-0.4-0.7-0.7-1.1-0.7c-0.5,0-1,0.2-1.5,0.7C801.6,530.5,801.1,531.1,800.7,531.9z"/>
	<path d="M812.5,537.2c-1.2,0-2.2-0.4-3-1.3s-1.1-2-1.1-3.3s0.4-2.4,1.1-3.3s1.7-1.3,3-1.3c1.2,0,2.2,0.4,3,1.3s1.1,2,1.1,3.3
		s-0.4,2.4-1.1,3.3S813.8,537.2,812.5,537.2z M812.5,536c0.8,0,1.4-0.3,1.8-0.9s0.7-1.4,0.7-2.5c0-1.1-0.2-1.9-0.7-2.5
		s-1.1-0.9-1.8-0.9c-0.8,0-1.4,0.3-1.9,0.9s-0.7,1.4-0.7,2.5c0,1.1,0.2,1.9,0.7,2.5S811.8,536,812.5,536z"/>
	<path d="M819.3,536.9v-8.7h1.5v1.9c0.5-0.7,1-1.3,1.6-1.6s1.2-0.5,2-0.5c0.5,0,1.1,0.1,1.6,0.2v3.1h-1.4v-2c-0.2,0-0.4-0.1-0.6-0.1
		c-0.5,0-1.1,0.2-1.6,0.6c-0.5,0.4-1,1.1-1.5,1.9v5.1H819.3z"/>
	<path d="M835.4,536.6c-0.7,0.3-1.2,0.5-1.5,0.5c-0.3,0.1-0.6,0.1-0.9,0.1c-0.6,0-1.2-0.1-1.7-0.4c-0.5-0.2-0.9-0.6-1.1-1
		s-0.4-1.2-0.4-2.1v-3.5h-2.2v-1.2h2.2v-3.5h1.5v3.5h3.9v1.2h-3.9v3.5c0,0.7,0.1,1.2,0.2,1.5c0.2,0.3,0.4,0.5,0.7,0.6
		c0.3,0.1,0.6,0.2,1,0.2c0.7,0,1.4-0.2,2.2-0.7V536.6z"/>
	<path d="M838.3,532.6v-1.2h6.1v1.2H838.3z"/>
	<path d="M847.5,536.5v-1.5c0.6,0.4,1.2,0.6,1.9,0.8c0.7,0.2,1.2,0.2,1.7,0.2c0.7,0,1.3-0.1,1.6-0.4c0.3-0.2,0.5-0.5,0.5-0.9
		c0-0.2-0.1-0.4-0.2-0.6c-0.2-0.2-0.5-0.4-1.1-0.6l-0.5-0.2l-1-0.4c-1.1-0.4-1.8-0.8-2-1.2c-0.3-0.4-0.4-0.8-0.4-1.3
		c0-0.7,0.3-1.3,0.8-1.8s1.5-0.7,2.7-0.7c0.9,0,1.8,0.1,2.7,0.4v1.3c-1-0.3-1.9-0.5-2.7-0.5c-0.6,0-1.1,0.1-1.4,0.3
		s-0.5,0.5-0.5,0.8c0,0.3,0.2,0.6,0.5,0.8c0.3,0.2,0.8,0.4,1.5,0.6l1,0.4c0.9,0.3,1.5,0.7,1.9,1.1s0.5,0.9,0.5,1.4
		c0,0.8-0.3,1.4-0.9,1.9c-0.6,0.5-1.5,0.7-2.8,0.7C849.8,537.2,848.6,536.9,847.5,536.5z"/>
	<path d="M864.2,536.3c-1.2,0.5-2.3,0.8-3.3,0.8c-0.8,0-1.5-0.2-2.1-0.6c-0.6-0.4-1.1-0.9-1.5-1.7c-0.4-0.7-0.6-1.5-0.6-2.3
		c0-0.8,0.2-1.6,0.5-2.3c0.4-0.7,0.8-1.3,1.5-1.7c0.6-0.4,1.3-0.6,2.1-0.6c1,0,1.9,0.4,2.5,1.1c0.6,0.7,0.9,1.9,0.9,3.4v0.3h-6
		c0,0.6,0.1,1.2,0.4,1.7c0.3,0.5,0.6,0.9,1,1.1c0.4,0.3,0.9,0.4,1.4,0.4c0.9,0,2-0.3,3.1-0.9V536.3z M858.4,531.7h4.4v-0.2
		c0-0.7-0.2-1.3-0.5-1.7c-0.3-0.4-0.8-0.6-1.4-0.6c-0.6,0-1.1,0.2-1.5,0.6S858.6,530.9,858.4,531.7z"/>
	<path d="M872.4,535c-0.4,0.7-1,1.3-1.6,1.6c-0.6,0.4-1.2,0.6-1.7,0.6c-0.7,0-1.4-0.3-2-0.9s-0.9-1.6-0.9-2.9c0-1,0.2-1.9,0.6-2.7
		c0.4-0.8,0.9-1.4,1.5-1.9s1.4-0.7,2.4-0.7c0.3,0,0.7,0,1.2,0.1c0.1,0,0.2,0,0.4,0h1.5v6.2c0,1.5,0,2.4-0.1,2.7c0,0.3-0.1,0.7-0.2,1
		c-0.2,0.8-0.7,1.4-1.4,1.8c-0.7,0.4-1.6,0.7-2.7,0.7c-1.1,0-2.1-0.3-3.2-0.8v-1.5c0.4,0.3,0.9,0.5,1.5,0.7c0.6,0.2,1.2,0.3,1.7,0.3
		c0.4,0,0.9-0.1,1.3-0.2s0.7-0.3,1-0.6s0.4-0.6,0.5-0.9c0.1-0.4,0.1-0.8,0.1-1.4V535z M872.4,533.2v-3.7c-0.5-0.1-1-0.2-1.4-0.2
		c-0.9,0-1.6,0.3-2.2,1c-0.6,0.7-0.9,1.6-0.9,2.8c0,0.9,0.2,1.5,0.5,2s0.7,0.7,1.1,0.7c0.5,0,1-0.2,1.5-0.7
		C871.5,534.6,872,534,872.4,533.2z"/>
	<path d="M875.5,536.9v-8.7h1.3v2c0.4-0.8,0.8-1.4,1.1-1.8c0.3-0.3,0.7-0.5,1.1-0.5c0.4,0,0.8,0.2,1,0.5s0.4,0.8,0.4,1.4v0.5
		c0.2-0.5,0.4-1,0.6-1.3s0.5-0.6,0.8-0.8c0.3-0.2,0.6-0.3,0.9-0.3c0.4,0,0.7,0.2,1,0.5s0.4,1,0.4,1.9v6.6h-1.3v-6c0-0.5,0-0.8,0-1
		s-0.1-0.3-0.2-0.4s-0.2-0.1-0.3-0.1c-0.3,0-0.6,0.2-0.9,0.6c-0.3,0.4-0.6,1.1-0.9,2.1v4.8h-1.2v-6c0-0.8-0.1-1.2-0.2-1.4
		s-0.3-0.2-0.4-0.2c-0.3,0-0.6,0.2-0.9,0.7s-0.6,1.1-0.9,1.8v5H875.5z"/>
	<path d="M893,536.3c-1.2,0.5-2.3,0.8-3.3,0.8c-0.8,0-1.5-0.2-2.1-0.6c-0.6-0.4-1.1-0.9-1.5-1.7c-0.4-0.7-0.6-1.5-0.6-2.3
		c0-0.8,0.2-1.6,0.5-2.3c0.4-0.7,0.8-1.3,1.5-1.7c0.6-0.4,1.3-0.6,2.1-0.6c1,0,1.9,0.4,2.5,1.1c0.6,0.7,0.9,1.9,0.9,3.4v0.3h-6
		c0,0.6,0.1,1.2,0.4,1.7c0.3,0.5,0.6,0.9,1,1.1c0.4,0.3,0.9,0.4,1.4,0.4c0.9,0,2-0.3,3.1-0.9V536.3z M887.2,531.7h4.4v-0.2
		c0-0.7-0.2-1.3-0.5-1.7c-0.3-0.4-0.8-0.6-1.4-0.6c-0.6,0-1.1,0.2-1.5,0.6S887.4,530.9,887.2,531.7z"/>
	<path d="M895.4,536.9v-8.7h1.5v1.9c0.4-0.7,0.9-1.2,1.5-1.6c0.6-0.4,1.2-0.6,1.8-0.6c0.5,0,1,0.1,1.4,0.4s0.7,0.6,0.9,1.1
		c0.2,0.4,0.3,1.3,0.3,2.6v4.9h-1.5v-5.1c0-0.8,0-1.4-0.1-1.7c-0.1-0.3-0.2-0.5-0.4-0.7c-0.2-0.2-0.5-0.3-0.7-0.3
		c-0.5,0-1.1,0.2-1.6,0.7s-1.1,1.1-1.4,1.8v5.1H895.4z"/>
	<path d="M912.3,536.6c-0.7,0.3-1.2,0.5-1.5,0.5c-0.3,0.1-0.6,0.1-0.9,0.1c-0.6,0-1.2-0.1-1.7-0.4c-0.5-0.2-0.9-0.6-1.1-1
		s-0.4-1.2-0.4-2.1v-3.5h-2.2v-1.2h2.2v-3.5h1.5v3.5h3.9v1.2h-3.9v3.5c0,0.7,0.1,1.2,0.2,1.5c0.2,0.3,0.4,0.5,0.7,0.6
		c0.3,0.1,0.6,0.2,1,0.2c0.7,0,1.4-0.2,2.2-0.7V536.6z"/>
	<path d="M914.7,536.5v-1.5c0.6,0.4,1.2,0.6,1.9,0.8c0.7,0.2,1.2,0.2,1.7,0.2c0.7,0,1.3-0.1,1.6-0.4c0.3-0.2,0.5-0.5,0.5-0.9
		c0-0.2-0.1-0.4-0.2-0.6c-0.2-0.2-0.5-0.4-1.1-0.6l-0.5-0.2l-1-0.4c-1.1-0.4-1.8-0.8-2-1.2c-0.3-0.4-0.4-0.8-0.4-1.3
		c0-0.7,0.3-1.3,0.8-1.8s1.5-0.7,2.7-0.7c0.9,0,1.8,0.1,2.7,0.4v1.3c-1-0.3-1.9-0.5-2.7-0.5c-0.6,0-1.1,0.1-1.4,0.3
		s-0.5,0.5-0.5,0.8c0,0.3,0.2,0.6,0.5,0.8c0.3,0.2,0.8,0.4,1.5,0.6l1,0.4c0.9,0.3,1.5,0.7,1.9,1.1s0.5,0.9,0.5,1.4
		c0,0.8-0.3,1.4-0.9,1.9c-0.6,0.5-1.5,0.7-2.8,0.7C917,537.2,915.8,536.9,914.7,536.5z"/>
	<path d="M927.8,530.5c-0.3,0-0.6-0.1-0.9-0.4s-0.4-0.5-0.4-0.9c0-0.4,0.1-0.7,0.4-0.9c0.3-0.2,0.6-0.4,0.9-0.4s0.6,0.1,0.9,0.4
		c0.3,0.2,0.4,0.5,0.4,0.9c0,0.3-0.1,0.6-0.4,0.9S928.1,530.5,927.8,530.5z M927.8,537.3c-0.3,0-0.6-0.1-0.9-0.4s-0.4-0.5-0.4-0.9
		c0-0.4,0.1-0.7,0.4-0.9c0.3-0.2,0.6-0.4,0.9-0.4s0.6,0.1,0.9,0.4c0.3,0.2,0.4,0.5,0.4,0.9c0,0.3-0.1,0.6-0.4,0.9
		S928.1,537.3,927.8,537.3z"/>
	<path d="M950.7,536.9h-7.3v-1.3c0-0.3,0.1-0.7,0.2-1.1s0.4-0.8,0.8-1.3c0.4-0.5,0.8-1,1.3-1.4l0.8-0.8c0.2-0.2,0.5-0.6,1.1-1.2
		c0.6-0.6,0.9-1.1,1.1-1.4c0.2-0.3,0.3-0.7,0.3-1c0-0.5-0.2-0.9-0.6-1.2s-0.9-0.4-1.4-0.4c-0.3,0-0.6,0-1,0.1
		c-0.4,0.1-0.7,0.1-1,0.2s-0.7,0.3-1.3,0.6v-1.3c0.7-0.3,1.3-0.5,2-0.6c0.7-0.1,1.2-0.2,1.6-0.2c0.6,0,1.2,0.1,1.7,0.3
		c0.5,0.2,0.9,0.5,1.2,1s0.4,0.9,0.4,1.4c0,0.5-0.2,1.1-0.5,1.7c-0.3,0.6-1,1.3-1.9,2.2l-0.9,0.9l-0.7,0.7c-0.5,0.5-0.9,0.9-1.1,1.4
		s-0.5,1-0.5,1.6h5.8V536.9z"/>
</g>
</svg>
