<svg width="1917" height="962" viewBox="0 0 1917 962" fill="none" xmlns="http://www.w3.org/2000/svg">
<rect width="1917" height="962" fill="white"/>
<rect x="189" y="77" width="600" height="800" rx="8" fill="#EEEEEE" stroke="black" stroke-width="10"/>
<rect x="194" y="82" width="590" height="100" fill="#999999"/>
<rect x="194" y="608" width="590" height="264" fill="#999999"/>
<rect x="254" y="619" width="38" height="46" rx="4" fill="white"/>
<rect x="686" y="619" width="38" height="46" rx="4" fill="white"/>
<rect x="632" y="619" width="38" height="46" rx="4" fill="white"/>
<rect x="578" y="619" width="38" height="46" rx="4" fill="white"/>
<rect x="524" y="619" width="38" height="46" rx="4" fill="white"/>
<rect x="470" y="619" width="38" height="46" rx="4" fill="white"/>
<rect x="416" y="619" width="38" height="46" rx="4" fill="white"/>
<rect x="362" y="619" width="38" height="46" rx="4" fill="white"/>
<rect x="308" y="619" width="38" height="46" rx="4" fill="white"/>
<rect x="281" y="684" width="38" height="46" rx="4" fill="white"/>
<rect x="659" y="684" width="38" height="46" rx="4" fill="white"/>
<rect x="605" y="684" width="38" height="46" rx="4" fill="white"/>
<rect x="551" y="684" width="38" height="46" rx="4" fill="white"/>
<rect x="497" y="684" width="38" height="46" rx="4" fill="white"/>
<rect x="443" y="684" width="38" height="46" rx="4" fill="white"/>
<rect x="389" y="684" width="38" height="46" rx="4" fill="white"/>
<rect x="335" y="684" width="38" height="46" rx="4" fill="white"/>
<rect x="335" y="749" width="38" height="46" rx="4" fill="white"/>
<rect x="254" y="754" width="54" height="46" rx="4" fill="#DDDDDD"/>
<rect x="670" y="754" width="54" height="46" rx="4" fill="#DDDDDD"/>
<rect x="605" y="814" width="119" height="46" rx="4" fill="#DDDDDD"/>
<rect x="325" y="814" width="48" height="46" rx="4" fill="#DDDDDD"/>
<rect x="254" y="814" width="54" height="46" rx="4" fill="#DDDDDD"/>
<rect x="605" y="749" width="38" height="46" rx="4" fill="white"/>
<rect x="551" y="749" width="38" height="46" rx="4" fill="white"/>
<rect x="497" y="749" width="38" height="46" rx="4" fill="white"/>
<rect x="443" y="749" width="38" height="46" rx="4" fill="white"/>
<rect x="389" y="814" width="200" height="46" rx="4" fill="white"/>
<rect x="389" y="749" width="38" height="46" rx="4" fill="white"/>
<rect x="286" y="125" width="488" height="45" fill="#C4C4C4"/>
<rect x="754" y="93" width="20" height="23" fill="#C4C4C4"/>
<rect x="724" y="93" width="20" height="23" fill="#C4C4C4"/>
<path d="M273.5 145.5H220M220 145.5L231 159.5M220 145.5L231 134" stroke="#C4C4C4" stroke-width="4" stroke-linecap="round" stroke-linejoin="round"/>
<rect x="193" y="254" width="591" height="618" fill="white"/>
<path d="M310.5 182V874.5M434 182V874.5" stroke="black"/>
<path d="M673 182V875M553 182V875" stroke="black"/>
<path d="M193 214H784M193 254H784" stroke="black"/>
<path d="M193 291H784M193 331H784" stroke="black"/>
<path d="M193 566H784M193 526H784" stroke="black"/>
<path d="M193 726H784M193 686H784" stroke="black"/>
<path d="M193 846H784M193 806H784" stroke="black"/>
<path d="M193 806H784M193 766H784" stroke="black"/>
<path d="M193 766H784M193 726H784" stroke="black"/>
<path d="M193 686H784M193 646H784" stroke="black"/>
<path d="M193 646H784M193 606H784" stroke="black"/>
<path d="M193 606H784M193 566H784" stroke="black"/>
<path d="M193 487H784M193 447H784" stroke="black"/>
<path d="M193 408H784M193 368H784" stroke="black"/>
<rect x="193" y="182" width="591" height="72" fill="#139CFF"/>
<rect x="415" y="200" width="362" height="35" rx="3" fill="white" stroke="black" stroke-width="2"/>
<rect x="434" y="726" width="119" height="40" fill="white" stroke="#139CFF" stroke-width="4"/>
<path d="M452.047 745.258H441.57V742.492H452.047V745.258ZM452.047 750.332H441.57V747.566H452.047V750.332ZM496.93 744.449H501.16V747.508H496.93V752.289H493.707V747.508H489.465V744.449H493.707V739.867H496.93V744.449Z" fill="black"/>
<path d="M461.211 754V736.938H467.188C469.258 736.938 470.828 737.336 471.898 738.133C472.969 738.922 473.504 740.082 473.504 741.613C473.504 742.449 473.289 743.188 472.859 743.828C472.43 744.461 471.832 744.926 471.066 745.223C471.941 745.441 472.629 745.883 473.129 746.547C473.637 747.211 473.891 748.023 473.891 748.984C473.891 750.625 473.367 751.867 472.32 752.711C471.273 753.555 469.781 753.984 467.844 754H461.211ZM464.727 746.57V751.176H467.738C468.566 751.176 469.211 750.98 469.672 750.59C470.141 750.191 470.375 749.645 470.375 748.949C470.375 747.387 469.566 746.594 467.949 746.57H464.727ZM464.727 744.086H467.328C469.102 744.055 469.988 743.348 469.988 741.965C469.988 741.191 469.762 740.637 469.309 740.301C468.863 739.957 468.156 739.785 467.188 739.785H464.727V744.086ZM487.871 754H476.176V751.68L481.695 745.797C482.453 744.969 483.012 744.246 483.371 743.629C483.738 743.012 483.922 742.426 483.922 741.871C483.922 741.113 483.73 740.52 483.348 740.09C482.965 739.652 482.418 739.434 481.707 739.434C480.941 739.434 480.336 739.699 479.891 740.23C479.453 740.754 479.234 741.445 479.234 742.305H475.836C475.836 741.266 476.082 740.316 476.574 739.457C477.074 738.598 477.777 737.926 478.684 737.441C479.59 736.949 480.617 736.703 481.766 736.703C483.523 736.703 484.887 737.125 485.855 737.969C486.832 738.812 487.32 740.004 487.32 741.543C487.32 742.387 487.102 743.246 486.664 744.121C486.227 744.996 485.477 746.016 484.414 747.18L480.535 751.27H487.871V754Z" fill="#DC2424"/>
<path d="M516.816 748.316C516.684 750.152 516.004 751.598 514.777 752.652C513.559 753.707 511.949 754.234 509.949 754.234C507.762 754.234 506.039 753.5 504.781 752.031C503.531 750.555 502.906 748.531 502.906 745.961V744.918C502.906 743.277 503.195 741.832 503.773 740.582C504.352 739.332 505.176 738.375 506.246 737.711C507.324 737.039 508.574 736.703 509.996 736.703C511.965 736.703 513.551 737.23 514.754 738.285C515.957 739.34 516.652 740.82 516.84 742.727H513.324C513.238 741.625 512.93 740.828 512.398 740.336C511.875 739.836 511.074 739.586 509.996 739.586C508.824 739.586 507.945 740.008 507.359 740.852C506.781 741.688 506.484 742.988 506.469 744.754V746.043C506.469 747.887 506.746 749.234 507.301 750.086C507.863 750.938 508.746 751.363 509.949 751.363C511.035 751.363 511.844 751.117 512.375 750.625C512.914 750.125 513.223 749.355 513.301 748.316H516.816ZM526.684 747.18C525.801 748.047 524.77 748.48 523.59 748.48C522.082 748.48 520.875 747.965 519.969 746.934C519.062 745.895 518.609 744.496 518.609 742.738C518.609 741.621 518.852 740.598 519.336 739.668C519.828 738.73 520.512 738.004 521.387 737.488C522.262 736.965 523.246 736.703 524.34 736.703C525.465 736.703 526.465 736.984 527.34 737.547C528.215 738.109 528.895 738.918 529.379 739.973C529.863 741.027 530.109 742.234 530.117 743.594V744.848C530.117 747.691 529.41 749.926 527.996 751.551C526.582 753.176 524.578 754.043 521.984 754.152L521.152 754.164V751.34L521.902 751.328C524.848 751.195 526.441 749.812 526.684 747.18ZM524.422 745.891C524.969 745.891 525.438 745.75 525.828 745.469C526.227 745.188 526.527 744.848 526.73 744.449V743.055C526.73 741.906 526.512 741.016 526.074 740.383C525.637 739.75 525.051 739.434 524.316 739.434C523.637 739.434 523.078 739.746 522.641 740.371C522.203 740.988 521.984 741.766 521.984 742.703C521.984 743.633 522.195 744.398 522.617 745C523.047 745.594 523.648 745.891 524.422 745.891Z" fill="#790D9F"/>
<rect x="311" y="291" width="123" height="40" fill="white" stroke="#DC2424" stroke-width="4"/>
<rect x="434" y="566" width="119" height="40" fill="white" stroke="#790D9F" stroke-width="4"/>
<path d="M512.098 594H508.711V580.945L504.668 582.199V579.445L511.734 576.914H512.098V594ZM529.348 594H517.652V591.68L523.172 585.797C523.93 584.969 524.488 584.246 524.848 583.629C525.215 583.012 525.398 582.426 525.398 581.871C525.398 581.113 525.207 580.52 524.824 580.09C524.441 579.652 523.895 579.434 523.184 579.434C522.418 579.434 521.812 579.699 521.367 580.23C520.93 580.754 520.711 581.445 520.711 582.305H517.312C517.312 581.266 517.559 580.316 518.051 579.457C518.551 578.598 519.254 577.926 520.16 577.441C521.066 576.949 522.094 576.703 523.242 576.703C525 576.703 526.363 577.125 527.332 577.969C528.309 578.812 528.797 580.004 528.797 581.543C528.797 582.387 528.578 583.246 528.141 584.121C527.703 584.996 526.953 586.016 525.891 587.18L522.012 591.27H529.348V594ZM541.453 587.578H543.387V590.309H541.453V594H538.066V590.309H531.07L530.918 588.176L538.031 576.938H541.453V587.578ZM534.293 587.578H538.066V581.555L537.844 581.941L534.293 587.578Z" fill="black"/>
<path d="M410.328 303.836L403.73 319H400.156L406.766 304.68H398.281V301.938H410.328V303.836ZM413.012 310.609L413.996 301.938H423.559V304.762H416.773L416.352 308.43C417.156 308 418.012 307.785 418.918 307.785C420.543 307.785 421.816 308.289 422.738 309.297C423.66 310.305 424.121 311.715 424.121 313.527C424.121 314.629 423.887 315.617 423.418 316.492C422.957 317.359 422.293 318.035 421.426 318.52C420.559 318.996 419.535 319.234 418.355 319.234C417.324 319.234 416.367 319.027 415.484 318.613C414.602 318.191 413.902 317.602 413.387 316.844C412.879 316.086 412.609 315.223 412.578 314.254H415.93C416 314.965 416.246 315.52 416.668 315.918C417.098 316.309 417.656 316.504 418.344 316.504C419.109 316.504 419.699 316.23 420.113 315.684C420.527 315.129 420.734 314.348 420.734 313.34C420.734 312.371 420.496 311.629 420.02 311.113C419.543 310.598 418.867 310.34 417.992 310.34C417.188 310.34 416.535 310.551 416.035 310.973L415.707 311.277L413.012 310.609Z" fill="black"/>
<path d="M432.047 216.258H421.57V213.492H432.047V216.258ZM432.047 221.332H421.57V218.566H432.047V221.332ZM476.93 215.449H481.16V218.508H476.93V223.289H473.707V218.508H469.465V215.449H473.707V210.867H476.93V215.449Z" fill="black"/>
<path d="M441.211 225V207.938H447.188C449.258 207.938 450.828 208.336 451.898 209.133C452.969 209.922 453.504 211.082 453.504 212.613C453.504 213.449 453.289 214.188 452.859 214.828C452.43 215.461 451.832 215.926 451.066 216.223C451.941 216.441 452.629 216.883 453.129 217.547C453.637 218.211 453.891 219.023 453.891 219.984C453.891 221.625 453.367 222.867 452.32 223.711C451.273 224.555 449.781 224.984 447.844 225H441.211ZM444.727 217.57V222.176H447.738C448.566 222.176 449.211 221.98 449.672 221.59C450.141 221.191 450.375 220.645 450.375 219.949C450.375 218.387 449.566 217.594 447.949 217.57H444.727ZM444.727 215.086H447.328C449.102 215.055 449.988 214.348 449.988 212.965C449.988 212.191 449.762 211.637 449.309 211.301C448.863 210.957 448.156 210.785 447.188 210.785H444.727V215.086ZM467.871 225H456.176V222.68L461.695 216.797C462.453 215.969 463.012 215.246 463.371 214.629C463.738 214.012 463.922 213.426 463.922 212.871C463.922 212.113 463.73 211.52 463.348 211.09C462.965 210.652 462.418 210.434 461.707 210.434C460.941 210.434 460.336 210.699 459.891 211.23C459.453 211.754 459.234 212.445 459.234 213.305H455.836C455.836 212.266 456.082 211.316 456.574 210.457C457.074 209.598 457.777 208.926 458.684 208.441C459.59 207.949 460.617 207.703 461.766 207.703C463.523 207.703 464.887 208.125 465.855 208.969C466.832 209.812 467.32 211.004 467.32 212.543C467.32 213.387 467.102 214.246 466.664 215.121C466.227 215.996 465.477 217.016 464.414 218.18L460.535 222.27H467.871V225Z" fill="#DC2424"/>
<path d="M496.816 219.316C496.684 221.152 496.004 222.598 494.777 223.652C493.559 224.707 491.949 225.234 489.949 225.234C487.762 225.234 486.039 224.5 484.781 223.031C483.531 221.555 482.906 219.531 482.906 216.961V215.918C482.906 214.277 483.195 212.832 483.773 211.582C484.352 210.332 485.176 209.375 486.246 208.711C487.324 208.039 488.574 207.703 489.996 207.703C491.965 207.703 493.551 208.23 494.754 209.285C495.957 210.34 496.652 211.82 496.84 213.727H493.324C493.238 212.625 492.93 211.828 492.398 211.336C491.875 210.836 491.074 210.586 489.996 210.586C488.824 210.586 487.945 211.008 487.359 211.852C486.781 212.688 486.484 213.988 486.469 215.754V217.043C486.469 218.887 486.746 220.234 487.301 221.086C487.863 221.938 488.746 222.363 489.949 222.363C491.035 222.363 491.844 222.117 492.375 221.625C492.914 221.125 493.223 220.355 493.301 219.316H496.816ZM506.684 218.18C505.801 219.047 504.77 219.48 503.59 219.48C502.082 219.48 500.875 218.965 499.969 217.934C499.062 216.895 498.609 215.496 498.609 213.738C498.609 212.621 498.852 211.598 499.336 210.668C499.828 209.73 500.512 209.004 501.387 208.488C502.262 207.965 503.246 207.703 504.34 207.703C505.465 207.703 506.465 207.984 507.34 208.547C508.215 209.109 508.895 209.918 509.379 210.973C509.863 212.027 510.109 213.234 510.117 214.594V215.848C510.117 218.691 509.41 220.926 507.996 222.551C506.582 224.176 504.578 225.043 501.984 225.152L501.152 225.164V222.34L501.902 222.328C504.848 222.195 506.441 220.812 506.684 218.18ZM504.422 216.891C504.969 216.891 505.438 216.75 505.828 216.469C506.227 216.188 506.527 215.848 506.73 215.449V214.055C506.73 212.906 506.512 212.016 506.074 211.383C505.637 210.75 505.051 210.434 504.316 210.434C503.637 210.434 503.078 210.746 502.641 211.371C502.203 211.988 501.984 212.766 501.984 213.703C501.984 214.633 502.195 215.398 502.617 216C503.047 216.594 503.648 216.891 504.422 216.891Z" fill="#790D9F"/>
<rect x="1130" y="77" width="600" height="800" rx="8" fill="#EEEEEE" stroke="black" stroke-width="10"/>
<rect x="1135" y="82" width="590" height="100" fill="#999999"/>
<rect x="1135" y="608" width="590" height="264" fill="#999999"/>
<rect x="1195" y="619" width="38" height="46" rx="4" fill="white"/>
<rect x="1627" y="619" width="38" height="46" rx="4" fill="white"/>
<rect x="1573" y="619" width="38" height="46" rx="4" fill="white"/>
<rect x="1519" y="619" width="38" height="46" rx="4" fill="white"/>
<rect x="1465" y="619" width="38" height="46" rx="4" fill="white"/>
<rect x="1411" y="619" width="38" height="46" rx="4" fill="white"/>
<rect x="1357" y="619" width="38" height="46" rx="4" fill="white"/>
<rect x="1303" y="619" width="38" height="46" rx="4" fill="white"/>
<rect x="1249" y="619" width="38" height="46" rx="4" fill="white"/>
<rect x="1222" y="684" width="38" height="46" rx="4" fill="white"/>
<rect x="1600" y="684" width="38" height="46" rx="4" fill="white"/>
<rect x="1546" y="684" width="38" height="46" rx="4" fill="white"/>
<rect x="1492" y="684" width="38" height="46" rx="4" fill="white"/>
<rect x="1438" y="684" width="38" height="46" rx="4" fill="white"/>
<rect x="1384" y="684" width="38" height="46" rx="4" fill="white"/>
<rect x="1330" y="684" width="38" height="46" rx="4" fill="white"/>
<rect x="1276" y="684" width="38" height="46" rx="4" fill="white"/>
<rect x="1276" y="749" width="38" height="46" rx="4" fill="white"/>
<rect x="1195" y="754" width="54" height="46" rx="4" fill="#DDDDDD"/>
<rect x="1611" y="754" width="54" height="46" rx="4" fill="#DDDDDD"/>
<rect x="1546" y="814" width="119" height="46" rx="4" fill="#DDDDDD"/>
<rect x="1266" y="814" width="48" height="46" rx="4" fill="#DDDDDD"/>
<rect x="1195" y="814" width="54" height="46" rx="4" fill="#DDDDDD"/>
<rect x="1546" y="749" width="38" height="46" rx="4" fill="white"/>
<rect x="1492" y="749" width="38" height="46" rx="4" fill="white"/>
<rect x="1438" y="749" width="38" height="46" rx="4" fill="white"/>
<rect x="1384" y="749" width="38" height="46" rx="4" fill="white"/>
<rect x="1330" y="814" width="200" height="46" rx="4" fill="white"/>
<rect x="1330" y="749" width="38" height="46" rx="4" fill="white"/>
<rect x="1227" y="125" width="488" height="45" fill="#C4C4C4"/>
<rect x="1695" y="93" width="20" height="23" fill="#C4C4C4"/>
<rect x="1665" y="93" width="20" height="23" fill="#C4C4C4"/>
<path d="M1214.5 145.5H1161M1161 145.5L1172 159.5M1161 145.5L1172 134" stroke="#C4C4C4" stroke-width="4" stroke-linecap="round" stroke-linejoin="round"/>
<rect x="1134" y="182" width="591" height="72" fill="#139CFF"/>
<rect x="1356" y="200" width="362" height="35" rx="3" fill="white" stroke="black" stroke-width="2"/>
<path d="M1373.05 216.258H1362.57V213.492H1373.05V216.258ZM1373.05 221.332H1362.57V218.566H1373.05V221.332ZM1417.93 215.449H1422.16V218.508H1417.93V223.289H1414.71V218.508H1410.46V215.449H1414.71V210.867H1417.93V215.449Z" fill="black"/>
<path d="M1382.21 225V207.938H1388.19C1390.26 207.938 1391.83 208.336 1392.9 209.133C1393.97 209.922 1394.5 211.082 1394.5 212.613C1394.5 213.449 1394.29 214.188 1393.86 214.828C1393.43 215.461 1392.83 215.926 1392.07 216.223C1392.94 216.441 1393.63 216.883 1394.13 217.547C1394.64 218.211 1394.89 219.023 1394.89 219.984C1394.89 221.625 1394.37 222.867 1393.32 223.711C1392.27 224.555 1390.78 224.984 1388.84 225H1382.21ZM1385.73 217.57V222.176H1388.74C1389.57 222.176 1390.21 221.98 1390.67 221.59C1391.14 221.191 1391.38 220.645 1391.38 219.949C1391.38 218.387 1390.57 217.594 1388.95 217.57H1385.73ZM1385.73 215.086H1388.33C1390.1 215.055 1390.99 214.348 1390.99 212.965C1390.99 212.191 1390.76 211.637 1390.31 211.301C1389.86 210.957 1389.16 210.785 1388.19 210.785H1385.73V215.086ZM1408.87 225H1397.18V222.68L1402.7 216.797C1403.45 215.969 1404.01 215.246 1404.37 214.629C1404.74 214.012 1404.92 213.426 1404.92 212.871C1404.92 212.113 1404.73 211.52 1404.35 211.09C1403.96 210.652 1403.42 210.434 1402.71 210.434C1401.94 210.434 1401.34 210.699 1400.89 211.23C1400.45 211.754 1400.23 212.445 1400.23 213.305H1396.84C1396.84 212.266 1397.08 211.316 1397.57 210.457C1398.07 209.598 1398.78 208.926 1399.68 208.441C1400.59 207.949 1401.62 207.703 1402.77 207.703C1404.52 207.703 1405.89 208.125 1406.86 208.969C1407.83 209.812 1408.32 211.004 1408.32 212.543C1408.32 213.387 1408.1 214.246 1407.66 215.121C1407.23 215.996 1406.48 217.016 1405.41 218.18L1401.54 222.27H1408.87V225Z" fill="#DC2424"/>
<path d="M1437.82 219.316C1437.68 221.152 1437 222.598 1435.78 223.652C1434.56 224.707 1432.95 225.234 1430.95 225.234C1428.76 225.234 1427.04 224.5 1425.78 223.031C1424.53 221.555 1423.91 219.531 1423.91 216.961V215.918C1423.91 214.277 1424.2 212.832 1424.77 211.582C1425.35 210.332 1426.18 209.375 1427.25 208.711C1428.32 208.039 1429.57 207.703 1431 207.703C1432.96 207.703 1434.55 208.23 1435.75 209.285C1436.96 210.34 1437.65 211.82 1437.84 213.727H1434.32C1434.24 212.625 1433.93 211.828 1433.4 211.336C1432.88 210.836 1432.07 210.586 1431 210.586C1429.82 210.586 1428.95 211.008 1428.36 211.852C1427.78 212.688 1427.48 213.988 1427.47 215.754V217.043C1427.47 218.887 1427.75 220.234 1428.3 221.086C1428.86 221.938 1429.75 222.363 1430.95 222.363C1432.04 222.363 1432.84 222.117 1433.38 221.625C1433.91 221.125 1434.22 220.355 1434.3 219.316H1437.82ZM1447.68 218.18C1446.8 219.047 1445.77 219.48 1444.59 219.48C1443.08 219.48 1441.88 218.965 1440.97 217.934C1440.06 216.895 1439.61 215.496 1439.61 213.738C1439.61 212.621 1439.85 211.598 1440.34 210.668C1440.83 209.73 1441.51 209.004 1442.39 208.488C1443.26 207.965 1444.25 207.703 1445.34 207.703C1446.46 207.703 1447.46 207.984 1448.34 208.547C1449.21 209.109 1449.89 209.918 1450.38 210.973C1450.86 212.027 1451.11 213.234 1451.12 214.594V215.848C1451.12 218.691 1450.41 220.926 1449 222.551C1447.58 224.176 1445.58 225.043 1442.98 225.152L1442.15 225.164V222.34L1442.9 222.328C1445.85 222.195 1447.44 220.812 1447.68 218.18ZM1445.42 216.891C1445.97 216.891 1446.44 216.75 1446.83 216.469C1447.23 216.188 1447.53 215.848 1447.73 215.449V214.055C1447.73 212.906 1447.51 212.016 1447.07 211.383C1446.64 210.75 1446.05 210.434 1445.32 210.434C1444.64 210.434 1444.08 210.746 1443.64 211.371C1443.2 211.988 1442.98 212.766 1442.98 213.703C1442.98 214.633 1443.2 215.398 1443.62 216C1444.05 216.594 1444.65 216.891 1445.42 216.891Z" fill="#790D9F"/>
<rect x="1134" y="609" width="591" height="264" fill="#999999"/>
<rect x="1194.1" y="620" width="38.0644" height="46" rx="4" fill="white"/>
<rect x="1626.83" y="620" width="38.0644" height="46" rx="4" fill="white"/>
<rect x="1572.74" y="620" width="38.0644" height="46" rx="4" fill="white"/>
<rect x="1518.65" y="620" width="38.0644" height="46" rx="4" fill="white"/>
<rect x="1464.56" y="620" width="38.0644" height="46" rx="4" fill="white"/>
<rect x="1410.47" y="620" width="38.0644" height="46" rx="4" fill="white"/>
<rect x="1356.38" y="620" width="38.0644" height="46" rx="4" fill="white"/>
<rect x="1302.28" y="620" width="38.0644" height="46" rx="4" fill="white"/>
<rect x="1248.19" y="620" width="38.0644" height="46" rx="4" fill="white"/>
<rect x="1221.15" y="685" width="38.0644" height="46" rx="4" fill="white"/>
<rect x="1599.79" y="685" width="38.0644" height="46" rx="4" fill="white"/>
<rect x="1545.7" y="685" width="38.0644" height="46" rx="4" fill="white"/>
<rect x="1491.6" y="685" width="38.0644" height="46" rx="4" fill="white"/>
<rect x="1437.51" y="685" width="38.0644" height="46" rx="4" fill="white"/>
<rect x="1383.42" y="685" width="38.0644" height="46" rx="4" fill="white"/>
<rect x="1329.33" y="685" width="38.0644" height="46" rx="4" fill="white"/>
<rect x="1275.24" y="685" width="38.0644" height="46" rx="4" fill="white"/>
<rect x="1275.24" y="750" width="38.0644" height="46" rx="4" fill="white"/>
<rect x="1194.1" y="755" width="54.0915" height="46" rx="4" fill="#DDDDDD"/>
<rect x="1610.81" y="755" width="54.0915" height="46" rx="4" fill="#DDDDDD"/>
<rect x="1545.7" y="815" width="119.202" height="46" rx="4" fill="#DDDDDD"/>
<rect x="1265.22" y="815" width="48.0814" height="46" rx="4" fill="#DDDDDD"/>
<rect x="1194.1" y="815" width="54.0915" height="46" rx="4" fill="#DDDDDD"/>
<rect x="1545.7" y="750" width="38.0644" height="46" rx="4" fill="white"/>
<rect x="1491.6" y="750" width="38.0644" height="46" rx="4" fill="white"/>
<rect x="1437.51" y="750" width="38.0644" height="46" rx="4" fill="white"/>
<rect x="1383.42" y="750" width="38.0644" height="46" rx="4" fill="white"/>
<rect x="1329.33" y="815" width="200.339" height="46" rx="4" fill="white"/>
<rect x="1329.33" y="750" width="38.0644" height="46" rx="4" fill="white"/>
<mask id="mask0" mask-type="alpha" maskUnits="userSpaceOnUse" x="1104" y="254" width="651" height="355">
<rect x="1104" y="254" width="651" height="355" fill="#C4C4C4"/>
</mask>
<g mask="url(#mask0)">
<rect x="1134" y="74" width="591" height="618" fill="white"/>
<path d="M1251.5 2V694.5M1375 2V694.5" stroke="black"/>
<path d="M1614 2V695M1494 2V695" stroke="black"/>
<path d="M1134 386H1725M1134 346H1725" stroke="black"/>
<path d="M1134 546H1725M1134 506H1725" stroke="black"/>
<path d="M1134 626H1725M1134 586H1725" stroke="black"/>
<path d="M1134 586H1725M1134 546H1725" stroke="black"/>
<path d="M1134 506H1725M1134 466H1725" stroke="black"/>
<path d="M1134 466H1725M1134 426H1725" stroke="black"/>
<path d="M1134 426H1725M1134 386H1725" stroke="black"/>
<path d="M1134 307H1725M1134 267H1725" stroke="black"/>
<rect x="1375" y="546" width="119" height="40" fill="white" stroke="#139CFF" stroke-width="4"/>
<path d="M1393.05 565.258H1382.57V562.492H1393.05V565.258ZM1393.05 570.332H1382.57V567.566H1393.05V570.332ZM1437.93 564.449H1442.16V567.508H1437.93V572.289H1434.71V567.508H1430.46V564.449H1434.71V559.867H1437.93V564.449Z" fill="black"/>
<path d="M1402.21 574V556.938H1408.19C1410.26 556.938 1411.83 557.336 1412.9 558.133C1413.97 558.922 1414.5 560.082 1414.5 561.613C1414.5 562.449 1414.29 563.188 1413.86 563.828C1413.43 564.461 1412.83 564.926 1412.07 565.223C1412.94 565.441 1413.63 565.883 1414.13 566.547C1414.64 567.211 1414.89 568.023 1414.89 568.984C1414.89 570.625 1414.37 571.867 1413.32 572.711C1412.27 573.555 1410.78 573.984 1408.84 574H1402.21ZM1405.73 566.57V571.176H1408.74C1409.57 571.176 1410.21 570.98 1410.67 570.59C1411.14 570.191 1411.38 569.645 1411.38 568.949C1411.38 567.387 1410.57 566.594 1408.95 566.57H1405.73ZM1405.73 564.086H1408.33C1410.1 564.055 1410.99 563.348 1410.99 561.965C1410.99 561.191 1410.76 560.637 1410.31 560.301C1409.86 559.957 1409.16 559.785 1408.19 559.785H1405.73V564.086ZM1428.87 574H1417.18V571.68L1422.7 565.797C1423.45 564.969 1424.01 564.246 1424.37 563.629C1424.74 563.012 1424.92 562.426 1424.92 561.871C1424.92 561.113 1424.73 560.52 1424.35 560.09C1423.96 559.652 1423.42 559.434 1422.71 559.434C1421.94 559.434 1421.34 559.699 1420.89 560.23C1420.45 560.754 1420.23 561.445 1420.23 562.305H1416.84C1416.84 561.266 1417.08 560.316 1417.57 559.457C1418.07 558.598 1418.78 557.926 1419.68 557.441C1420.59 556.949 1421.62 556.703 1422.77 556.703C1424.52 556.703 1425.89 557.125 1426.86 557.969C1427.83 558.812 1428.32 560.004 1428.32 561.543C1428.32 562.387 1428.1 563.246 1427.66 564.121C1427.23 564.996 1426.48 566.016 1425.41 567.18L1421.54 571.27H1428.87V574Z" fill="#DC2424"/>
<path d="M1457.82 568.316C1457.68 570.152 1457 571.598 1455.78 572.652C1454.56 573.707 1452.95 574.234 1450.95 574.234C1448.76 574.234 1447.04 573.5 1445.78 572.031C1444.53 570.555 1443.91 568.531 1443.91 565.961V564.918C1443.91 563.277 1444.2 561.832 1444.77 560.582C1445.35 559.332 1446.18 558.375 1447.25 557.711C1448.32 557.039 1449.57 556.703 1451 556.703C1452.96 556.703 1454.55 557.23 1455.75 558.285C1456.96 559.34 1457.65 560.82 1457.84 562.727H1454.32C1454.24 561.625 1453.93 560.828 1453.4 560.336C1452.88 559.836 1452.07 559.586 1451 559.586C1449.82 559.586 1448.95 560.008 1448.36 560.852C1447.78 561.688 1447.48 562.988 1447.47 564.754V566.043C1447.47 567.887 1447.75 569.234 1448.3 570.086C1448.86 570.938 1449.75 571.363 1450.95 571.363C1452.04 571.363 1452.84 571.117 1453.38 570.625C1453.91 570.125 1454.22 569.355 1454.3 568.316H1457.82ZM1467.68 567.18C1466.8 568.047 1465.77 568.48 1464.59 568.48C1463.08 568.48 1461.88 567.965 1460.97 566.934C1460.06 565.895 1459.61 564.496 1459.61 562.738C1459.61 561.621 1459.85 560.598 1460.34 559.668C1460.83 558.73 1461.51 558.004 1462.39 557.488C1463.26 556.965 1464.25 556.703 1465.34 556.703C1466.46 556.703 1467.46 556.984 1468.34 557.547C1469.21 558.109 1469.89 558.918 1470.38 559.973C1470.86 561.027 1471.11 562.234 1471.12 563.594V564.848C1471.12 567.691 1470.41 569.926 1469 571.551C1467.58 573.176 1465.58 574.043 1462.98 574.152L1462.15 574.164V571.34L1462.9 571.328C1465.85 571.195 1467.44 569.812 1467.68 567.18ZM1465.42 565.891C1465.97 565.891 1466.44 565.75 1466.83 565.469C1467.23 565.188 1467.53 564.848 1467.73 564.449V563.055C1467.73 561.906 1467.51 561.016 1467.07 560.383C1466.64 559.75 1466.05 559.434 1465.32 559.434C1464.64 559.434 1464.08 559.746 1463.64 560.371C1463.2 560.988 1462.98 561.766 1462.98 562.703C1462.98 563.633 1463.2 564.398 1463.62 565C1464.05 565.594 1464.65 565.891 1465.42 565.891Z" fill="#790D9F"/>
<rect x="1375" y="386" width="119" height="40" fill="white" stroke="#790D9F" stroke-width="4"/>
<path d="M1453.1 414H1449.71V400.945L1445.67 402.199V399.445L1452.73 396.914H1453.1V414ZM1470.35 414H1458.65V411.68L1464.17 405.797C1464.93 404.969 1465.49 404.246 1465.85 403.629C1466.21 403.012 1466.4 402.426 1466.4 401.871C1466.4 401.113 1466.21 400.52 1465.82 400.09C1465.44 399.652 1464.89 399.434 1464.18 399.434C1463.42 399.434 1462.81 399.699 1462.37 400.23C1461.93 400.754 1461.71 401.445 1461.71 402.305H1458.31C1458.31 401.266 1458.56 400.316 1459.05 399.457C1459.55 398.598 1460.25 397.926 1461.16 397.441C1462.07 396.949 1463.09 396.703 1464.24 396.703C1466 396.703 1467.36 397.125 1468.33 397.969C1469.31 398.812 1469.8 400.004 1469.8 401.543C1469.8 402.387 1469.58 403.246 1469.14 404.121C1468.7 404.996 1467.95 406.016 1466.89 407.18L1463.01 411.27H1470.35V414ZM1482.45 407.578H1484.39V410.309H1482.45V414H1479.07V410.309H1472.07L1471.92 408.176L1479.03 396.938H1482.45V407.578ZM1475.29 407.578H1479.07V401.555L1478.84 401.941L1475.29 407.578Z" fill="black"/>
<path d="M1480 553V579" stroke="black" stroke-width="2"/>
</g>
</svg>
