<svg xmlns="http://www.w3.org/2000/svg" xmlns:xlink="http://www.w3.org/1999/xlink" viewBox="0 0 960 400">
  <defs>
    <radialGradient id="e" cx="50.003%" cy="49.901%" r="53.589%" fx="50.003%" fy="49.901%" gradientTransform="matrix(.93242 0 0 1 .034 0)">
      <stop offset="51.3%" stop-color="#2B6AB0"/>
      <stop offset="67.5%" stop-color="#2867AD"/>
      <stop offset="81.3%" stop-color="#205FA2"/>
      <stop offset="94.2%" stop-color="#135190"/>
      <stop offset="100%" stop-color="#0B4986"/>
    </radialGradient>
    <radialGradient id="f" cx="50.001%" cy="50.071%" r="69.783%" fx="50.001%" fy="50.071%" gradientTransform="matrix(1 0 0 .82012 0 .09)">
      <stop offset="3.9%" stop-color="#037CD5"/>
      <stop offset="60.2%" stop-color="#0C88DA"/>
      <stop offset="92.8%" stop-color="#0870B6"/>
    </radialGradient>
    <radialGradient id="g" cx="28.292%" cy="42.553%" r="125.966%" fx="28.292%" fy="42.553%" gradientTransform="matrix(.6645 0 0 1 .095 0)">
      <stop offset="41.4%" stop-color="#2FC2E0"/>
      <stop offset="57.1%" stop-color="#32C4A4"/>
      <stop offset="74%" stop-color="#35C669"/>
      <stop offset="82%" stop-color="#36C752"/>
    </radialGradient>
    <path id="a" d="M0 0h960v400H0z"/>
    <path id="c" d="M34.292 10.647S26.156 21.68 16.677 32.863A23.888 23.888 0 01.92 21.644L15.377.75l18.915 9.897z"/>
  </defs>
  <g fill="none" fill-rule="evenodd">
    <mask id="b" fill="#fff">
      <use xlink:href="#a"/>
    </mask>
    <g mask="url(#b)">
      <path fill="#0F6D5B" fill-rule="nonzero" d="M623.584 359.084h323.145a2.536 2.536 0 110 5.071H623.584a2.536 2.536 0 010-5.071"/>
      <path fill="#505050" fill-rule="nonzero" d="M809.754 338.677l.981-22.222h1.333v-4.412h.954v-28.429h7.825v15.2h6.183a7.631 7.631 0 017.622 7.623v1.963a16.854 16.854 0 012.909 7.633.807.807 0 01-.8.87H830.1a.809.809 0 01-.806-.87 16.862 16.862 0 012.906-7.633v-1.967a5.177 5.177 0 00-5.172-5.171h-6.183v10.782h.954v4.412h1.333l.98 22.222H821.8v12.581h-9.733v-12.582h-2.313z"/>
      <path fill="#B2B2B2" fill-rule="nonzero" d="M817.083 337.374s31 .9 49.4 7.807a2.689 2.689 0 011.645 3.26l-.8 2.817h-8.5V349.6a253.756 253.756 0 00-41.748-3.483l.003-8.743z"/>
      <path fill="#282828" fill-rule="nonzero" d="M858.83 352.719v-1.461h8.5v8.5h-2.935a5.716 5.716 0 11-5.561-7.037M766.84 352.719v-1.461h8.5v8.5h-2.94a5.716 5.716 0 11-5.56-7.037"/>
      <path fill="#D2D2D2" fill-rule="nonzero" d="M767.681 345.181c18.4-6.91 49.4-7.807 49.4-7.807l12.561 5.647a3.967 3.967 0 012.264 4.39l-.528 2.656h-7.987v-1.75l-6.31-2.206a253.615 253.615 0 00-41.746 3.484v1.663h-8.5l-.805-2.817a2.694 2.694 0 011.646-3.26"/>
      <path fill="#282828" fill-rule="nonzero" d="M823.393 352.719v-2.651h8.071v2.651h1.963v11.438h-11.841v-11.438z"/>
      <path fill="#DB9C94" fill-rule="nonzero" d="M750.92 197.643l-10.386 15.223 10.386 9.314 13.426-15.508-3.878-11.127z"/>
      <path fill="#9E9E9E" fill-rule="nonzero" d="M715.584 364.156h5.342l2.609-87.974-3.374-8.255-6.848 19.608z"/>
      <path fill="#EDEDED" fill-rule="nonzero" d="M721.804 341.743l-5.998 10.25h19.738l5.685-11.641-15.563-1.961z"/>
      <path fill="#B2B2B2" fill-rule="nonzero" d="M789.169 244.155h-18.827a8.677 8.677 0 00-8.678 8.677V283.4a10.7 10.7 0 004.146 8.46l1.008.78a.982.982 0 01-.6 1.758h-4l-3.277-2.538a10.7 10.7 0 01-4.146-8.46v-32.039a8.677 8.677 0 018.677-8.677h32.564a7.6 7.6 0 017.6 7.687l-.032 4.169a1.047 1.047 0 01-1.047 1.035h-4.72a1.1 1.1 0 01-1.1-1.113l.03-2.62a7.6 7.6 0 00-7.6-7.687"/>
      <path fill="#737373" fill-rule="nonzero" d="M801.673 251.842l-.026 2.872a.851.851 0 00.851.861h-6.793a.93.93 0 01-.931-.943l.032-2.79a7.6 7.6 0 00-7.6-7.687h6.869a7.6 7.6 0 017.6 7.687"/>
      <path fill="#D2D2D2" fill-rule="nonzero" d="M761.511 242.683h6.868a8.678 8.678 0 00-8.678 8.678v33.019a10.7 10.7 0 004.147 8.459l2.011 1.558h-6.127c-.48 0-.947-.159-1.326-.453l-1.427-1.105a10.7 10.7 0 01-4.145-8.459v-33.019a8.678 8.678 0 018.677-8.678"/>
      <path fill="#B2B2B2" fill-rule="nonzero" d="M734.888 350.067a62.1 62.1 0 012.625 14.089H694.1s1.321-10.2 11.887-10.2 12.49-10.233 12.49-10.233a9.457 9.457 0 015.235 5.79l.178.556 10.998-.002z"/>
      <path fill="#FFF" fill-rule="nonzero" d="M853.272 262.788l8.884-75.54a4.23 4.23 0 00-1.108-3.369l-.372-.4a7.1 7.1 0 00-6.133-2.2 208.944 208.944 0 01-58.945-.489l-17.484 108.58h70.427a10.83 10.83 0 009.859-15.31l-5.128-11.272z"/>
      <path fill="#D2D2D2" fill-rule="nonzero" d="M784.48 260.483v-1.961h64.993a103.047 103.047 0 01.328-15.641c-5.192.114-17.87.352-32.755.352-9.765 0-20.476-.1-30.633-.412l.06-1.959c25.841.787 55.249.236 63.514.053l1.664-15.119c-4.938.407-19.9 1.521-35.9 1.521a203.975 203.975 0 01-28.474-1.675l.287-1.939c22.518 3.33 57.173.706 64.3.108l1.517-13.776c-3.945.34-19.517 1.583-36.287 1.583a202.65 202.65 0 01-28.347-1.674l.287-1.939c23.459 3.468 59.659.475 64.567.043l1.446-13.146c-4.8.418-18.8 1.507-34.048 1.507a198.087 198.087 0 01-27.836-1.673l.287-1.939c22.4 3.311 54.868.733 61.816.117l1.277-11.612a5.913 5.913 0 014.633 2.311 4.234 4.234 0 011.018 3.271l-5.021 58.826c-.72 8.45-.15 16.96 1.691 25.239l2.029 9.118a10.17 10.17 0 01-9.926 12.378h-36.92c-3.826 0-7.6.892-11.019 2.608l-1.729.87a3.2 3.2 0 01-3.741-.647 2.957 2.957 0 01.56-4.538 31.64 31.64 0 0117.025-4.971h1.94v-.186l32.084.311a4 4 0 003.938-4.907l-.885-3.823h-64.8V275.2h64.362a103.294 103.294 0 01-2.169-14.719l-65.133.002z"/>
      <path fill="#4C2E25" fill-rule="nonzero" d="M775.388 264.081l-28.04 18.747a12.354 12.354 0 00-5.176 7.492c-2.383 10.341-12.691 31.6-20.367 51.423 3.371 3.45 15.707 9.586 15.707 9.586 11.594-22.373 22.241-45.807 22.241-45.807l5.592-1.8a104.463 104.463 0 0049.1-33.658l-14.094-24.682-24.963 18.699z"/>
      <path fill="#613D30" fill-rule="nonzero" d="M805.857 254.694l32.548-6.373 6.106 12.746a26.442 26.442 0 01-19.364 25.476l-34.778 10.469c10.419 21.506 16.858 48.216 16.858 48.216s-3.787 4.337-14 4.337c-8.752-14.509-22.143-34.818-33.516-50.925-3.683-5.215-3.719-12.1 1.106-16.285 15.787-13.683 45.035-27.661 45.035-27.661"/>
      <path fill="#EDAC28" fill-rule="nonzero" d="M765.375 176.75a17.974 17.974 0 0110.357-7.576l17.516-4.817 6.555 1.177c20.731 3.723 36.638 17.346 41.54 47.248l4.822 53.061s-18.564-13.279-40.721-4.779a56.339 56.339 0 01-31.533 2.525l3.624-16.576a28.673 28.673 0 00-.847-15.289l-8.378-24.809c-1.45-2.367-1.887.812-2.436 1.461a21.256 21.256 0 01-14.958-10.735l14.459-20.891z"/>
      <path fill="#C48C00" fill-rule="nonzero" d="M770.925 180.212l4.031-8.247 4.658 7.242 2.416 10.453-7.608-6.472c-1.4 1.667-3.3 4.024-5.008 6.472-.612-4.006 1.511-9.448 1.511-9.448M814.755 214.5h-2.019a4.806 4.806 0 01-3.906-2l-1.55-2.161 7.23-4.889.245 9.05z"/>
      <path fill="#F0BEB4" fill-rule="nonzero" d="M814.51 208.862l-14.183 19.155h-48.569l1.091-8.944 36.54-4.819 5.384-13.731 8.588-2.109 9.719 5.143zM776.92 117.715c11.266-.919 21.144 7.469 22.063 18.735l.373 4.586a3.807 3.807 0 011.93-.726 3.848 3.848 0 014.162 3.859l-.027 4.457a5.978 5.978 0 01-5.074 5.872c-.23 10.485-8.347 19.1-18.8 19.952l-4.654.379c-8.695.708-16.317-5.765-17.029-14.459l-1.679-20.592c-.919-11.266 7.468-21.143 18.734-22.063"/>
      <path fill="#DB9C94" fill-rule="nonzero" d="M762.593 142.806a5.665 5.665 0 015.737 6.008l-.371 8.174a2.139 2.139 0 002.269 2.268l4.206-.344s-3.316 9.544 2.46 15.918l4.655-.38a20.427 20.427 0 0016.188-10.423l.012.012-2.152 8.468-11.815 9.15-1.752 8-3.752-8.492-5.578-6.565a15.787 15.787 0 01-12.834-14.229l-1.422-17.427 4.149-.138z"/>
      <path fill="#FFB900" fill-rule="nonzero" d="M796.664 165.736a20.587 20.587 0 002.119-3.823 16.525 16.525 0 002.669 3.95s.325 16.406-9.8 27.189c-3.463-9.351-7.865-11.394-7.865-11.394s9.47-8.417 12.882-15.922"/>
      <path fill="#043C40" fill-rule="nonzero" d="M780.507 147.8a2.2 2.2 0 104.385-.359 2.2 2.2 0 00-4.385.359M761.18 149.43a2.2 2.2 0 104.385-.358 2.2 2.2 0 00-4.385.358"/>
      <path fill="#FFF" fill-rule="nonzero" d="M782.031 163.223l-13.6 1.109 2.782 1.263a8.368 8.368 0 007.906-.539l2.912-1.833z"/>
      <path fill="#665042" fill-rule="nonzero" d="M762.394 123.476l.37-.176-1.369-3.73 3.978.024a18.818 18.818 0 006.909-1.286 27.117 27.117 0 017.576-1.569c7.458-.607 19.219 2.849 20.365 16.887l.553 6.778a3.838 3.838 0 00-3.01 4.1l.42 4.445-3.46.282.462-12.528a4.811 4.811 0 00-1.757-3.9l-2.592-2.123a8.986 8.986 0 00-10.043-.912l-5.215 2.885a5.349 5.349 0 01-2.146.648l-2.9.236a11.111 11.111 0 01-9.294-3.793l-4.817-5.566a9.4 9.4 0 005.97-.709"/>
      <path fill="#665042" fill-rule="nonzero" d="M786.789 143.705a.911.911 0 00.569-1.623c-.156-.124-3.856-3.021-8.078-1.374a.913.913 0 10.664 1.7c3.25-1.271 6.246 1.076 6.276 1.1.161.13.362.2.569.2M766.064 144.383a.911.911 0 00.492-1.678c-3.811-2.447-8.01-.335-8.187-.243a.911.911 0 00.832 1.621c.055-.029 3.466-1.71 6.371.156a.916.916 0 00.492.144"/>
      <path fill="#DB9C94" fill-rule="nonzero" d="M798.952 150.748a2.025 2.025 0 00-.369-2.959l-.431-.306-.11.116-.173-1.845a2.877 2.877 0 115.741-.253l-.02 3.331a4.472 4.472 0 01-4.106 4.431l-.9.073-.1-1.088a2.02 2.02 0 01.472-1.5"/>
      <path fill="#C48C00" fill-rule="nonzero" d="M785.906 194.037a1.716 1.716 0 11-3.432 0 1.716 1.716 0 013.432 0"/>
      <path fill="#FFB900" fill-rule="nonzero" d="M796.936 194.9c3.112-8.219 8.681-21.237 17.361-20.658 5.177 0 9.56 3.821 10.268 8.95 1.815 5.851-1.979 15.784-5.364 22.892-2.312-4.441-8.6-12.919-22.265-11.184"/>
      <path fill="#FFB900" fill-rule="nonzero" d="M796.351 196.458c14.528-2.222 20.388 7.642 22.035 11.3-1.978 3.984-3.631 6.743-3.631 6.743s-2.041-15.448-19.982-13.976c.4-.86.92-2.3 1.578-4.065"/>
      <g transform="translate(750 176)">
        <mask id="d" fill="#fff">
          <use xlink:href="#c"/>
        </mask>
        <path fill="#C48C00" fill-rule="nonzero" d="M1.793 17.4l1.292-.7a27.277 27.277 0 008.653 8.977 65.505 65.505 0 012.318-7.642l4.241 12.9-1.621 1.927a23.136 23.136 0 01-5.738-1.927c.068-1.238.225-2.47.469-3.685-3.229-2.132-7.218-5.432-9.614-9.848" mask="url(#d)"/>
      </g>
      <path fill="#EDAC28" fill-rule="nonzero" d="M806.381 251.589l-8.087 4.741a23.528 23.528 0 01-22.192.859l-.765-.372 31.044-5.228z"/>
      <path fill="#4C2E25" fill-rule="nonzero" d="M790.369 297.012a51.573 51.573 0 00-7.895-8.252c7.9-1.062 8.63 5.475 7.895 8.252"/>
      <path fill="#B2B2B2" fill-rule="nonzero" d="M839.7 244.155h-18.83a8.678 8.678 0 00-8.678 8.677V283.4a10.7 10.7 0 004.146 8.46l1.008.78a.981.981 0 01-.6 1.758h-4l-3.277-2.538a10.7 10.7 0 01-4.146-8.46v-32.039a8.677 8.677 0 018.677-8.677h32.564a7.6 7.6 0 017.6 7.687l-.031 4.169a1.048 1.048 0 01-1.048 1.035h-4.72a1.1 1.1 0 01-1.1-1.113l.03-2.62a7.6 7.6 0 00-7.6-7.687"/>
      <path fill="#D2D2D2" fill-rule="nonzero" d="M733.385 107.653c-2.47-.002-4.899.62-7.062 1.811 11.234-19.832 8.9-44.567-5.847-61.947-14.746-17.38-38.771-23.71-60.168-15.855-21.396 7.856-35.617 28.228-35.615 51.021 0 1.752.091 3.483.252 5.193a25.435 25.435 0 10-9.186 49.153h117.626c8.112 0 14.688-6.576 14.688-14.688 0-8.112-6.576-14.688-14.688-14.688"/>
      <path fill="#FFF" fill-rule="nonzero" d="M726.385 107.653c-2.47-.002-4.899.62-7.062 1.811 11.234-19.832 8.898-44.566-5.848-61.945-14.747-17.38-38.771-23.71-60.167-15.855S617.69 59.89 617.692 82.683c0 1.752.092 3.483.253 5.193a25.435 25.435 0 10-9.186 49.153h117.626c8.112 0 14.688-6.576 14.688-14.688 0-8.112-6.576-14.688-14.688-14.688"/>
      <path fill="#D2D2D2" fill-rule="nonzero" d="M852.2 251.842l-.026 2.872a.852.852 0 00.851.861h-6.793a.931.931 0 01-.931-.943l.032-2.79a7.6 7.6 0 00-7.6-7.687h6.867a7.6 7.6 0 017.6 7.687M812.04 242.683h6.867a8.678 8.678 0 00-8.677 8.678v33.019a10.7 10.7 0 004.146 8.459l2.011 1.558h-6.127c-.48 0-.947-.159-1.326-.453l-1.426-1.105a10.7 10.7 0 01-4.146-8.459v-33.019a8.678 8.678 0 018.678-8.678"/>
      <path fill="#613D30" fill-rule="nonzero" d="M741.674 344.38a180.864 180.864 0 01-17.681-10.655l-3.523 8.792a128.034 128.034 0 0016.725 10.2l4.479-8.337z"/>
      <path fill="#B6B7B7" fill-rule="nonzero" d="M810.4 364.156l-.093-2.359a17.377 17.377 0 00-2.334-8.042c-1.54-2.655-3.644-6.174-5.417-8.779l-.407-.6H789.4l-2.226 19.775 23.226.005z"/>
      <path fill="#774E45" fill-rule="nonzero" d="M807.449 342.457s-10.1-2.428-19.867-.206a71.81 71.81 0 01.692 8.666 48.879 48.879 0 0119.764 1.5l-.589-9.96z"/>
      <path fill="#C2C2C2" fill-rule="nonzero" d="M810.4 364.156h-25.22V361.9c-.003-.326.036-.65.118-.966a9.409 9.409 0 019.072-6.916h5.252a9.41 9.41 0 018.491 5.356l2.287 4.782z"/>
      <path fill="#737373" fill-rule="nonzero" d="M712.15 248.321l1.162 39.214 10.222-11.353.826-27.861z"/>
      <path fill="#939393" fill-rule="nonzero" d="M608.67 230.675h218.626v17.646H608.67z"/>
      <path fill="#B2B2B2" fill-rule="nonzero" d="M827.296 230.675h93.026v17.646h-93.026z"/>
      <path fill="#E6E6E6" fill-rule="nonzero" d="M798.337 364.156h5.342l3.435-115.835h-12.211z"/>
      <path fill="#B2B2B2" fill-rule="nonzero" d="M890.498 364.156h5.342l3.434-115.835h-12.211z"/>
      <path fill="#E6E6E6" fill-rule="nonzero" d="M633.235 364.156h5.342l3.434-115.835h-12.21z"/>
      <path fill="#B2B2B2" fill-rule="nonzero" d="M677.2 186.878a6.522 6.522 0 013.573-1.064h65.708a6.455 6.455 0 016.015 4.118l14 35.53a2.228 2.228 0 002.077 1.424h38.092v3.789H764.3l-75.046-4.561-.6-1.544-12.422-37.06.968-.632z"/>
      <path fill="#D2D2D2" fill-rule="nonzero" d="M762.523 226.113l.431 1.109a5.415 5.415 0 005.046 3.453h-76.974l-1.774-4.562h73.271zM677.068 187.322h66.815a5.194 5.194 0 014.843 3.314l13.2 33.934h-73.275l-13.433-34.546a1.984 1.984 0 011.85-2.7"/>
      <path fill="#FFF" fill-rule="nonzero" d="M716.873 207.378l-1.122-2.827h4.219l1.123 2.827zM715.797 207.378h-3.822l-1.123-2.827h3.822zM717.271 208.377h4.22l1.121 2.827h-4.218zM716.195 208.377l1.122 2.827h-3.822l-1.123-2.827z"/>
      <path fill="#FFF" fill-rule="nonzero" d="M667.029 136.572v110.1c.03 27.148 22.03 49.149 49.178 49.18h13.274c27.148-.03 49.149-22.032 49.179-49.18v-11.321a4.51 4.51 0 014.5-4.5h12.863a1.471 1.471 0 100-2.941h-12.859a7.452 7.452 0 00-7.445 7.445v11.326c-.029 25.525-20.713 46.21-46.238 46.238h-13.274c-25.524-.03-46.208-20.714-46.237-46.238v-110.1"/>
      <path fill="#737373" fill-rule="nonzero" d="M899.274 248.321l-11.858 11.86-.352-11.86z"/>
      <path fill="#FFF" fill-rule="nonzero" d="M825.053 136.842a18.012 18.012 0 0111 11.676 18.013 18.013 0 0111-11.676 18.007 18.007 0 01-11-11.675 18.006 18.006 0 01-11 11.675"/>
      <path fill="#ADBC17" fill-rule="nonzero" d="M515.269 204.064a2.933 2.933 0 105.866-.002 2.933 2.933 0 00-5.866.002"/>
      <path fill="#FDA84C" fill-rule="nonzero" d="M730.742 27.264a2.934 2.934 0 105.868.002 2.934 2.934 0 00-5.868-.002"/>
      <path fill="#C6381C" fill-rule="nonzero" d="M511.975 16.145a4.494 4.494 0 108.988 0 4.494 4.494 0 00-8.988 0"/>
      <path fill="#FFF" fill-rule="nonzero" d="M687.364 148.4a2.055 2.055 0 104.11.002 2.055 2.055 0 00-4.11-.002"/>
      <path fill="#FDA84C" fill-rule="nonzero" d="M859.265 47.119a4.276 4.276 0 10-8.067 2.84 4.276 4.276 0 008.067-2.84"/>
      <path fill="#FFF" fill-rule="nonzero" d="M710.011 168.433a2.934 2.934 0 10-5.535 1.95 2.934 2.934 0 005.535-1.95"/>
      <path fill="#C6381C" fill-rule="nonzero" d="M570.518 26.6a2.934 2.934 0 105.455 2.163 2.934 2.934 0 00-5.455-2.163"/>
      <path fill="#FDA84C" fill-rule="nonzero" d="M854.744 97.923a2.054 2.054 0 103.818 1.515 2.054 2.054 0 00-3.818-1.515"/>
      <path fill="#FFB900" fill-rule="nonzero" d="M916.359 58.933a2.054 2.054 0 103.818 1.517 2.054 2.054 0 00-3.818-1.517"/>
      <path fill="#004B50" fill-rule="nonzero" d="M474.751 101.476a2.054 2.054 0 103.818 1.515 2.054 2.054 0 00-3.818-1.515M473.333 71.85a2.934 2.934 0 10.532-5.844 2.934 2.934 0 00-.532 5.844"/>
      <path fill="#FDA84C" fill-rule="nonzero" d="M797.8 105.109a2.054 2.054 0 10.373-4.091 2.054 2.054 0 00-.373 4.091"/>
      <path fill="#FFF" fill-rule="nonzero" d="M648.714 132.7a2.054 2.054 0 10.371-4.091 2.054 2.054 0 00-.371 4.091"/>
      <path fill="#FDA84C" fill-rule="nonzero" d="M836.679 91.893a2.933 2.933 0 10-2.065-5.49 2.933 2.933 0 002.064 5.49"/>
      <path fill="#004B50" fill-rule="nonzero" d="M427.755 144.926a2.054 2.054 0 102.642 3.146 2.054 2.054 0 00-2.642-3.146"/>
      <path fill="#FFF" fill-rule="nonzero" d="M339.082 208.77a2.054 2.054 0 102.64 3.147 2.054 2.054 0 00-2.64-3.147"/>
      <path fill="#ADBC17" fill-rule="nonzero" d="M544.7 192.468a2.933 2.933 0 10.105-5.865 2.933 2.933 0 00-.105 5.865"/>
      <path fill="#C6381C" fill-rule="nonzero" d="M581.989 52.685a2.054 2.054 0 10.075-4.107 2.054 2.054 0 00-.075 4.107"/>
      <path fill="#FFF" fill-rule="nonzero" d="M330.279 267.05a2.055 2.055 0 10-2.975 2.836 2.055 2.055 0 002.975-2.836"/>
      <g fill-rule="nonzero">
        <path fill="#C6381C" d="M573.222 60.893a31.533 31.533 0 11-22.732-38.365c16.87 4.318 27.048 21.494 22.732 38.365"/>
        <path fill="#FFF" d="M550.024 66.116l-4.1-13.908a3.852 3.852 0 01.019-1.836l1.491-5.825.331.085a1.088 1.088 0 00.54-2.108l-4.61-1.18a1.089 1.089 0 00-.54 2.109l.332.084L542 49.362a3.857 3.857 0 01-.865 1.62l-10.28 10.229a1.108 1.108 0 00.551 1.814l17.263 4.418a1.109 1.109 0 001.355-1.327"/>
        <path fill="#F0AE00" d="M547.829 38.665l-1.8-.46a.859.859 0 00-1.046.619L544.3 41.5l3.464.886.684-2.676a.859.859 0 00-.62-1.045"/>
      </g>
      <g fill-rule="nonzero">
        <path fill="#FFB900" d="M851.876 48.908c0 20.473-16.597 37.07-37.07 37.07s-37.07-16.597-37.07-37.07 16.597-37.07 37.07-37.07 37.07 16.597 37.07 37.07"/>
        <path fill="#FFF" d="M829.777 40.735A14.972 14.972 0 10804.41 51.5a13.731 13.731 0 014.1 9.9v.27h12.59v-.27a14.266 14.266 0 014.284-10.077 14.916 14.916 0 004.4-10.592"/>
        <path fill="#D2D2D2" d="M812.842 43.912l-.042-1.172-.092-2.7a2.869 2.869 0 00-5.738 0v.119a2.861 2.861 0 001.767 2.649l.076.031c.924.384 1.883.678 2.864.877l.742 21.67 1.156-.039-.734-21.439.001.004zm-3.585-2.137l-.075-.032a1.707 1.707 0 01-1.055-1.58v-.119a1.713 1.713 0 113.425.019l.084 2.466a14.415 14.415 0 01-2.379-.754M819.82 37.174h-.048a2.868 2.868 0 00-2.869 2.849l-.093 2.726a14.768 14.768 0 01-3.173.082l.055 1.163c1.026.074 2.057.05 3.078-.073l-.734 21.43 1.156.039.742-21.657.04-1.19.086-2.5c0-.945.767-1.711 1.712-1.712h.048c.945 0 1.711.767 1.711 1.712v.128a1.706 1.706 0 01-1.047 1.577c-.5.21-1.012.39-1.532.542l-.053 1.215a15.183 15.183 0 002.035-.69 2.863 2.863 0 001.755-2.644v-.128a2.872 2.872 0 00-2.869-2.869"/>
        <path fill="#665042" d="M808.513 61.4v7.133a1.874 1.874 0 001.875 1.874h2.572v1.641h3.84v-1.637h2.573a1.875 1.875 0 001.875-1.874V61.4h-12.735z"/>
        <path fill="#C48C00" d="M808.513 63.429h10.03v1.428h-10.03zM808.513 66.612h10.03v1.427h-10.03z"/>
      </g>
      <g fill-rule="nonzero">
        <path fill="#ADBC17" d="M557.435 143.559a35.736 35.736 0 10-23.765 44.6c18.878-5.754 29.518-25.722 23.765-44.6"/>
        <path fill="#09538F" d="M541.755 160.146l-28.776 8.771a2.111 2.111 0 01-2.634-1.4l-5.432-17.824a2.109 2.109 0 011.4-2.633l28.776-8.77a2.108 2.108 0 012.632 1.4l5.432 17.824a2.107 2.107 0 01-1.4 2.632"/>
        <path fill="#FFF" d="M518.226 161.766l-1.905-1.014 3.158-5.926-5.926-3.158 1.014-1.905 7.83 4.174zM526.133 157.435l8.201-2.5.63 2.065-8.201 2.5zM534.925 136.814l-29.292 8.928a1.841 1.841 0 00-1.223 2.3l.739 2.425 32.812-10-.739-2.425a1.841 1.841 0 00-2.3-1.224"/>
      </g>
      <path fill="#1296FF" fill-rule="nonzero" d="M473.326 273.6a39.315 39.315 0 11-48.08-27.922c20.987-5.566 42.513 6.935 48.08 27.922"/>
      <path fill="#FFF" d="M453.087 297.645l-29.337 7.781-7.779-29.33 6.937-11.08 20.111-5.334z"/>
      <path fill="#09538F" d="M425.198 273.649l-9.227 2.447 6.937-11.081z"/>
      <path fill="#D2D2D2" fill-rule="nonzero" d="M421.125 278.596l20.946-5.556.534 2.017-20.945 5.555zM422.205 282.641l20.955-5.547.534 2.017-20.955 5.548zM423.13 286.152l20.946-5.555.534 2.016-20.946 5.556zM424.132 289.93l20.946-5.555.534 2.016-20.946 5.556zM425.165 293.821l20.955-5.547.534 2.017-20.955 5.548z"/>
      <g fill-rule="nonzero">
        <path fill="#004B50" d="M469.1 118.183c-7.139 17.09-26.779 25.156-43.868 18.017-17.09-7.138-25.156-26.779-18.018-43.868 7.139-17.09 26.779-25.156 43.868-18.018a33.534 33.534 0 0118.018 43.869"/>
        <path fill="#D2D2D2" d="M448.452 121.633l-28.17-11.767 7.678-18.383 10.822 13.697 17.349-1.931z"/>
        <path fill="#D2D2D2" d="M420.281 109.866l15.412-5.33a4.655 4.655 0 015.717 2.388l7.042 14.709-28.171-11.767z"/>
        <path fill="#FFF" d="M452.62 105.952l-11.38 1.571a6.241 6.241 0 01-5.853-2.445l-6.883-9.2a4.468 4.468 0 01-.545-4.4l28.171 11.772a4.465 4.465 0 01-3.51 2.7"/>
      </g>
      <g fill-rule="nonzero">
        <path fill="#1CBE1C" d="M647.281 233.434c-3.994 20.128-23.548 33.207-43.676 29.213-20.127-3.993-33.207-23.547-29.213-43.675 3.993-20.128 23.547-33.207 43.675-29.214 20.128 3.994 33.207 23.548 29.214 43.676"/>
        <path fill="#F3F3F3" d="M591.534 236.796l5.268-26.551 32.044 6.358-5.268 26.551z"/>
        <path fill="#D2D2D2" d="M599.853 213.162l.928-4.676 2.172.431-.928 4.676zM604.43 214.071l.928-4.676 2.172.431-.928 4.676zM609.009 214.979l.928-4.676 2.171.431-.927 4.676zM613.586 215.888l.928-4.676 2.172.43-.928 4.677zM618.164 216.796l.928-4.676 2.172.43-.928 4.676zM622.741 217.703l.928-4.676 2.172.431-.928 4.676zM598.883 223.743l.909-4.578 4.577.908-.908 4.578zM608.038 225.56l.908-4.579 4.578.909-.908 4.577zM617.194 227.376l.909-4.578 4.577.909-.908 4.577zM597.202 232.212l.909-4.578 4.577.908-.908 4.578zM606.359 234.029l.908-4.578 4.578.908-.908 4.578zM615.514 235.845l.908-4.577 4.578.908-.908 4.578z"/>
      </g>
      <g fill-rule="nonzero">
        <path fill="#12856F" d="M336.422 61.574v49.869c0 4.232-2.257 8.142-5.922 10.257l-43.185 24.93a11.84 11.84 0 01-11.84 0l-43.188-24.93a11.84 11.84 0 01-5.919-10.253V61.574c0-4.23 2.256-8.138 5.919-10.253l43.188-24.935a11.84 11.84 0 0111.84 0L330.5 51.321a11.838 11.838 0 015.92 10.253"/>
        <path fill="#F0AE00" d="M349.89 54v49.869c0 4.23-2.257 8.138-5.92 10.253l-43.187 24.934a11.835 11.835 0 01-11.84 0l-43.188-24.934a11.84 11.84 0 01-5.919-10.253V54c0-4.23 2.256-8.138 5.919-10.253l43.188-24.935a11.84 11.84 0 0111.84 0l43.187 24.935A11.838 11.838 0 01349.89 54"/>
        <path fill="#E6E6E6" d="M312.751 52.866L309.272 52s-3.492 9.325 1.606 15.383c-1.032-6.97 1.873-14.52 1.873-14.52"/>
        <path fill="#C6381C" d="M255.123 119.531c.769-9.323 2.1-23.206 3.894-33.2 2.378-13.268 12.1-18.353 20.209-18.914 7.009-.485 27.258 1.562 35.418 4.162a19.227 19.227 0 0113.117 15.316l5.169 33.6-32.149 18.561a11.836 11.836 0 01-11.838 0l-33.82-19.525z"/>
        <path fill="#99280D" d="M272.6 98.335c.59 16.521 6.165 20.547 8.872 27.675a19.147 19.147 0 01.956 9.285l-13.458-7.77a272.807 272.807 0 013.63-29.19"/>
        <path fill="#E04110" d="M314.645 71.576a19.226 19.226 0 0113.116 15.316l5.169 33.6-14.15 8.169-.106-2.576a10.385 10.385 0 011.272-5.429l1.935-3.525a18.792 18.792 0 00.236-17.64l-1.425-2.768a19.3 19.3 0 01-2.139-8.828 15.8 15.8 0 00-8.731-14.131l.49-3.333c1.616.362 3.085.744 4.333 1.141"/>
        <path fill="#93766A" d="M292.754 15.331a20.466 20.466 0 0122.985 17.592l-.052 10.493c-2.31 11.6-4.014 19.236-11.252 21.118.152 1.47.356 3.1.622 4.5 1.952.45 3.918.961 5.859 1.543l-1.094 3.2a15.486 15.486 0 01-29.91-2.384l-.686-3.97c.638-.068 3.1-.309 4.964-.477l1.931-4.265a20.435 20.435 0 01-9.31-12.748c-.16-.673-1.944-1.193-2.037-1.893l-2-8.4c-1.489-11.205 8.771-22.813 19.976-24.3"/>
        <path fill="#7A5F52" d="M301.8 64.969c-.055 2.22.41 4.422 1.358 6.43.82 1.846 6.665 2.369 6.665 2.369l1.094-3.2s-2.5-.7-4.815-1.285a1.734 1.734 0 01-1.29-1.442 32.242 32.242 0 01-.225-3.318c-1.54.249-1.976.345-2.787.441M286.088 62.652a20.375 20.375 0 0013.327 2.8c.415-.024.814-.061 1.2-.1-1.4 2.451-6.332 8.723-19.427 6.171 1.888-1.609 3.855-6.183 4.9-8.871M308.746 43.441l-2.444-2.9a3.624 3.624 0 012.294-5.926l3.42-.454c1.419-.188 2.55 1.838 3.735 2.442l.129 2.957c.064 9.772-.646 18.235-8.05 23.418a14.211 14.211 0 00-2.63-12.729 2.236 2.236 0 011.43-3.633l.934-.124a1.866 1.866 0 001.181-3.051"/>
        <path fill="#FFF" d="M311.149 51.12a9.565 9.565 0 01-16.209 2.154l16.209-2.154z"/>
        <path fill="#93766A" d="M291.815 55.936a3.989 3.989 0 014.317-5.64l-4.317 5.64z"/>
        <path fill="#B2B2B2" d="M291.427 127.234L302.1 94.67h50.754l-11.908 36.324h-75.281v-2.844h24.5c.576 0 1.086-.37 1.266-.916"/>
        <path fill="#939393" d="M305.412 94.67h50.755l-11.907 36.323H291.7a2.492 2.492 0 002.367-1.715l11.345-34.608z"/>
        <path fill="#FFF" d="M322.987 111.017h5.17l-1.472 4.489h-5.169z"/>
        <path fill="#7A5F52" d="M325.893 130.266a1.9 1.9 0 012.477-2.726l4.793 2.508-1.939-2.384a1.916 1.916 0 012.721-2.692l6.255 5.628a.1.1 0 00.149-.115l-2.575-4.973a1.986 1.986 0 013.406-2.028l3.474 6.091 1.95-5.725c.655.914.797 2.1.375 3.142l-.943 3.646-.327 1.2a2.348 2.348 0 01-3.126 1.57l-2-.784-.064.078a3.335 3.335 0 01-5.082.135l-.839-1.032-.022.08a2.27 2.27 0 01-3.2 1.416l-.693-.347h-3.592a2.243 2.243 0 01-2.243-2.243v-.379l1.045-.066z"/>
        <path fill="#000" d="M309.312 38.765a1.766 1.766 0 103.532 0 1.766 1.766 0 00-3.532.001M290.624 41.142a1.765 1.765 0 103.53 0 1.765 1.765 0 00-3.53 0M315.447 35.047a.804.804 0 01-1.1 1.173c-.146-.136-3.624-3.31-7.137-.051a.803.803 0 11-1.092-1.178 6.688 6.688 0 019.325.056"/>
        <path fill="#000" d="M271.168 34.217a10.887 10.887 0 119.8-18.506 31.927 31.927 0 019.071-3.528c21.191-5.044 28.624 16.652 26.183 20.62a59.12 59.12 0 01-14.5-7.869 23.445 23.445 0 01-8.612 10.922 7.7 7.7 0 013.334 1.259.803.803 0 01-.922 1.315c-.164-.115-4.066-2.757-7.077.934a.8.8 0 01-1.13.115.781.781 0 01-.23-.341 33.154 33.154 0 01-4.785 1.512 4.022 4.022 0 00-7.973 1.04c-.339.013-.667.034-1.013.04a48.924 48.924 0 01-.535-2.1 6.555 6.555 0 01-7.648 4.837c5.861-1.52 6.04-7.933 6.038-10.253"/>
        <path fill="#000" d="M277.624 37.33a4.11 4.11 0 00-.829.242c.082-.36.164-.683.238-.948.263-.942.84-.488 1.534.653a4.069 4.069 0 00-.943.053M276.117 37.93a4.025 4.025 0 00-1.736 4.145l.732 3.7a4.771 4.771 0 005.11 3.824l1.149-.1a1.94 1.94 0 001.634-1.241c.21 1.752.855 8.39-1.1 10.963 0 0-9.7-6.425-10.11-24.888l4.321 3.597z"/>
        <path fill="#FFF" d="M282.79 50.938a3.581 3.581 0 00-4.4 2.94c-.5 3.263-.488 7.994 2.53 11.581-1.033-6.971 1.872-14.521 1.872-14.521"/>
      </g>
      <g fill-rule="nonzero">
        <path fill="#0F6D5B" d="M115 384.56h219.482a4.947 4.947 0 000-9.893H115a4.947 4.947 0 100 9.893"/>
        <path fill="#575756" d="M181.627 323.326v-2.076a8.048 8.048 0 018.04-8.037h6.521v-16.026h8.252v29.984h1.006v4.653h1.407l1.033 23.435h-2.44v13.27h-10.265v-13.27h-2.44l1.036-23.435h1.4v-4.653h1.007V315.8h-6.521a5.462 5.462 0 00-5.456 5.453v2.075a17.779 17.779 0 013.071 8.05.852.852 0 01-.85.918h-7.024a.852.852 0 01-.849-.918 17.782 17.782 0 013.068-8.049"/>
        <path fill="#DF6C47" d="M286.847 367.273l-.993-13.388 16.383-1.318 1.217 19.136-14.196 1.601z"/>
        <path fill="#CE9C5F" d="M235.42 212.82l9.825 38.268 20.605 13.948-3.859 8.295-29.517-12.035-1.035-44.442z"/>
        <path fill="#B2B2B2" d="M200.157 353.885s-32.7.946-52.1 8.234a2.839 2.839 0 00-1.734 3.438l.847 2.972a250.619 250.619 0 0152.99-5.428l-.003-9.216z"/>
        <path fill="#B2B2B2" d="M147.167 368.529h8.962V363.1l-7.755 2.714z"/>
        <path fill="#737373" d="M147.167 368.529h8.96v1.54a6.032 6.032 0 11-5.854 7.42h-3.106v-8.96z"/>
        <path fill="#E6E6E6" d="M253.148 368.529h-8.962V363.1l7.755 2.714z"/>
        <path fill="#737373" d="M244.186 368.529h8.96v1.54a6.032 6.032 0 11-5.853 7.42h-3.107v-8.96z"/>
        <path fill="#FFF" d="M286.847 367.273a65.445 65.445 0 00-2.768 14.858h45.786s-1.394-10.758-12.538-10.758-13.172-10.793-13.172-10.793a9.981 9.981 0 00-5.522 6.106l-.186.587h-11.6z"/>
        <path fill="#737373" d="M161.99 275.223l-7.779-74.723c-.149-1.3 0-11.8 6.44-11.241a220.4 220.4 0 0058.831-.035c.633 5.216 4.069 3.165 4.069 3.165l17.707 110.871h-74.277a11.421 11.421 0 01-10.4-16.151l5.409-11.886z"/>
        <path fill="#505050" d="M196.022 205.215c9.815.102 19.626-.488 29.358-1.765l-.3-2.046c-26.454 3.91-66.211.034-66.609-.006l-.206 2.057c.267.027 18.033 1.76 37.757 1.76M200.142 221.254c9.996.11 19.987-.479 29.9-1.765l-.3-2.046c-26.454 3.912-68.264.033-68.683-.006l-.194 2.058c.281.027 18.955 1.759 39.284 1.759M201.559 237.81a215.172 215.172 0 0030.029-1.765l-.3-2.045c-26.45 3.91-68.779.031-69.2-.007l-.192 2.059c.284.026 19.185 1.758 39.666 1.758M200.2 254.6c10.3 0 21.593-.109 32.308-.433l-.062-2.068c-31.919.971-69.02.01-69.391 0l-.055 2.066c.247 0 16.761.433 37.2.433M165.095 270.723h69.449v2.068h-69.449zM161.989 288.313h69.449v2.068h-69.449z"/>
        <path fill="#C2C2C2" d="M152.577 195.167a4.463 4.463 0 011.073-3.45 6.237 6.237 0 014.885-2.436l6.984 63.457a108.949 108.949 0 01-2.156 36.5l-1.2 5.172a4.222 4.222 0 004.155 5.175l33.836-.326s15.561-.392 20.9 3.018c1.659 1.059 1.052 5.783-.307 7.206a3.369 3.369 0 01-3.944.682l-1.825-.916a25.911 25.911 0 00-11.622-2.753h-38.94a10.724 10.724 0 01-10.468-13.053l2.14-9.617a88.02 88.02 0 001.782-26.619l-5.293-62.04z"/>
        <path fill="#E6E6E6" d="M186.909 359.842l13.248-5.957s32.7.947 52.1 8.235a2.838 2.838 0 011.743 3.438l-.848 2.971a250.563 250.563 0 00-52.99-5.429l-6.655 2.326v1.846h-8.424l-.556-2.8a4.182 4.182 0 012.387-4.631"/>
        <path fill="#737373" d="M184.99 370.069v-2.797h8.512v2.797h1.905v12.063H182.92v-12.063z"/>
        <path fill="#005291" d="M303.454 355.26l-2.88-56.987a12.438 12.438 0 00-9.053-11.345l-42.877-12.256-4.7-11.205-36.557-.3 11.258 24.721a26.782 26.782 0 0019.464 15.229l39.732 7.405 6.685 47.515 18.928-2.777z"/>
        <path fill="#0078D7" d="M225.128 280.668l14.155 6.469a15.768 15.768 0 018.635 18.562L232.3 359.2l-20.092-3.181 7.25-53.451-18.868-1.968a13.067 13.067 0 01-11.7-12.25l-.338-5.9 19.331-32.1 17.245 30.318z"/>
        <path fill="#004B50" d="M228.419 193.776c-7.11-4.851-15.86-2.918-15.86-2.918l-8.774-1.584c-16.409 1.7-27.545 17.111-25.447 31.578l10.32 71.167 1.273-1.02a83.011 83.011 0 0154.774-18.248l8.193.275-12.8-25.139c-4.675-12.865 3.885-43.492-11.676-54.111"/>
        <path fill="#DBAB77" d="M187.872 162.251a3.8 3.8 0 012.052-.019l-1.3-4.391c-3.187-10.792 2.978-22.124 13.77-25.311 10.792-3.187 22.124 2.978 25.311 13.77l5.822 19.725c2.361 8.013-1.96 16.472-9.836 19.255a9.236 9.236 0 00-1.573 4.051l-.866 6.654c-.266 2.038-2.361 3.99-6.189 4.415a11.216 11.216 0 01-9.678-3.12 10.972 10.972 0 01-3.018-9.354l.429-2.782a20.3 20.3 0 01-8.971-10.079 5.935 5.935 0 01-6.812-3.613l-1.622-4.13a3.831 3.831 0 012.481-5.075"/>
        <path fill="#BA8C57" d="M219.477 169.9l4.029-1.19a2.129 2.129 0 001.294-2.918l-3.276-7.459a5.638 5.638 0 013.176-7.633l3.9-1.36 4.927 16.692c2.457 8.327-2.3 17.07-10.627 19.53 3.079-7.989-3.422-15.663-3.422-15.663"/>
        <path fill="#043C40" d="M206.48 162.09a2.191 2.191 0 11-4.202 1.243 2.191 2.191 0 014.202-1.243M229.59 155.268a2.191 2.191 0 11-4.202 1.243 2.191 2.191 0 014.202-1.243"/>
        <path fill="#FFF" d="M213.968 176.626l13.025-3.845-2.129 2.168a8.326 8.326 0 01-7.535 2.334l-3.361-.657z"/>
        <path fill="#000" d="M198.761 161.48a.769.769 0 00.665-.379c.021-.033 2.018-3.342 5.531-3.342h.027a.77.77 0 10-.031-1.54c-4.41 0-6.761 3.937-6.859 4.1a.771.771 0 00.664 1.158M222.376 152.394a.768.768 0 00.532-.213c2.567-2.452 6.292-1.4 6.328-1.394a.77.77 0 10.431-1.479c-.183-.054-4.62-1.3-7.823 1.759a.77.77 0 00.532 1.327"/>
        <path fill="#DF6C47" d="M230.656 357.732l-2.588 11.219-15.316-1.678 1.87-13.388z"/>
        <path fill="#FFF" d="M206.255 379.644c.121-2.993.97-5.91 2.475-8.5.958-1.648 2.916-4.777 4.363-7.072a5.98 5.98 0 015.062-2.793h5.91a4.746 4.746 0 014.716 4.218l.967 8.575a9.856 9.856 0 012.882 4.662c.087.333.13.675.125 1.019v2.385h-26.6l.1-2.494z"/>
        <path fill="#409AE1" d="M212.305 350.645a59.545 59.545 0 0122.567 1.27c-.614 3.418-2.067 8.479-2.067 8.479s-17.326-1.2-21.649-.52l1.149-9.229z"/>
        <path fill="#0078D7" d="M283.54 359.196l20.537-2.829-.622-10.449-21.34 4.198z"/>
        <path fill="#DBAB77" d="M180.609 221.5c6.174 3.8 21.632 0 21.632 0l-6.633 37.178 30.492 13.745 11.915-3.335a5.731 5.731 0 016.532 2.692l2.47 4.349-5.756 8.1-19.647-1.719-.219-1.281-38.976-9.787a5.445 5.445 0 01-4.115-5.578c.556-10.277 1.9-35.343 2.308-44.369"/>
        <path fill="#E6E6E6" d="M315.078 256.429a5.284 5.284 0 00-2.8-1.087l-52.83-4.237a5.2 5.2 0 00-5.1 2.923L240.8 281.693a1.8 1.8 0 01-1.762 1.01l-30.624-2.457-.245 3.047 34.058 2.732 55.522 4.454L315.814 257l-.736-.571z"/>
        <path fill="#C2C2C2" d="M315.152 256.794l-53.722-4.309a4.19 4.19 0 00-4.106 2.352l-13.8 28.5a4.372 4.372 0 01-4.282 2.451l-3.823-.308 65.712 5.271 15.331-31.663a1.6 1.6 0 00-1.311-2.293"/>
        <path fill="#D2D2D2" d="M303.448 285.995l-58.924-4.725-.581 1.202 58.924 4.726z"/>
        <path fill="#FFF" d="M281.854 270.352l1.085-2.201-3.393-.271-1.086 2.199zM282.719 270.421l3.074.246 1.083-2.2-3.072-.247zM281.469 271.13l-3.392-.272-1.084 2.201 3.391.273zM282.334 271.2l-1.085 2.201 3.074.246 1.085-2.201z"/>
        <path fill="#3C3C3B" d="M329.912 384.317h-45.639v-2.185h45.639zM233.536 384.317h-27.675v-2.185h27.675z"/>
        <path fill="#DADADA" d="M286.847 367.273a65.445 65.445 0 00-2.768 14.858l14.521-15.292c-1.555 1.779 12.983 8.33 20.392 6.8 5.942-1.23 10.877 8.495 10.877 8.495s-1.394-10.758-12.538-10.758-13.172-10.793-13.172-10.793a9.981 9.981 0 00-5.522 6.106l-.186.587-11.604-.003zM207.318 374.121s4.328-7.759 5.775-10.054a5.98 5.98 0 015.062-2.793h5.91a4.746 4.746 0 014.716 4.218l.967 8.575c1.345 1.233-7.622-10.142-22.43.054z"/>
        <path fill="#000" d="M222.994 138.2s3.178-3.547 1.158-6.577a7.433 7.433 0 00-3.744-2.66s1.158-2.71.1-4.828c-1.058-2.118-4.927-2.266-4.927-2.266a5.533 5.533 0 00-3.547-4.434c-3.177-1.059-5.813 1.478-5.813 1.478a9.825 9.825 0 00-5.418-1.675c-3.178 0-6.01 3.843-6.01 3.843a10.388 10.388 0 00-10.444 1.872c-5.3 4.236-4.04 7.783-4.04 7.783a7.085 7.085 0 00-5.32 5.025 6.608 6.608 0 001.478 6.5s-6.675 3.818-5.616 11.232c1.059 7.414 5.025 7.685 5.025 7.685s-.392.91 0 4.236c.394 3.35 3.842 4.434 3.842 4.434s-1.889 4.976 1.478 9.064c4.138 5.025 13 3.843 13 3.843l4.434-.641a26.551 26.551 0 01-2.843-3.633 23.218 23.218 0 01-1.935-3.559 5.092 5.092 0 01-6.306-2.71 24.373 24.373 0 01-1.5-3.571 2.994 2.994 0 012.734-.567c1.478.247 1.971 1.183 4.631.493 2.66-.69 1.65-2.66 1.65-2.66s-2.167-9.688-2.881-12.784c-.887-3.842 3.861-11.154 17.439-14.483 11.454-2.803 13.375-.44 13.375-.44z"/>
      </g>
      <path fill="#FFF" fill-rule="nonzero" d="M338.942 47.554a18.011 18.011 0 0111 11.675 18.007 18.007 0 0111-11.675 18.006 18.006 0 01-11-11.676 18.01 18.01 0 01-11 11.676M881.334 180.524a2.054 2.054 0 103.818 1.517 2.054 2.054 0 00-3.818-1.517"/>
      <path fill="#1296FF" fill-rule="nonzero" d="M423.321 233.229a2.054 2.054 0 102.64 3.147 2.054 2.054 0 00-2.64-3.147"/>
      <path fill="#FFF" fill-rule="nonzero" d="M286.4 216.751a18.008 18.008 0 0111 11.676 18.009 18.009 0 0111-11.676 18.006 18.006 0 01-11-11.676 18.005 18.005 0 01-11 11.676M304.037 242.938a10.455 10.455 0 016.388 6.779 10.459 10.459 0 016.389-6.779 10.453 10.453 0 01-6.389-6.778 10.449 10.449 0 01-6.388 6.778M319.211 92.548a12.633 12.633 0 017.719 8.19 12.632 12.632 0 017.718-8.19 12.632 12.632 0 01-7.718-8.19 12.633 12.633 0 01-7.719 8.19"/>
      <g stroke="#FFF" stroke-linecap="round" stroke-width="3" opacity=".3">
        <path d="M316.027 279.708l72.712 3.547M638.424 112.285l-64.097-39.45M324.894 253.107l156.064-76.259M396.719 106.797l-36.355 1.773M778.75 81.082l-75.861 33.715M625.495 182.168l23.812-50.627"/>
      </g>
      <path fill="#FFF" fill-rule="nonzero" d="M725.712 187.046a10.457 10.457 0 016.389 6.778 10.453 10.453 0 016.388-6.778 10.453 10.453 0 01-6.388-6.779 10.456 10.456 0 01-6.389 6.779M319 190.223a10.456 10.456 0 016.385 6.777 10.457 10.457 0 016.388-6.779 10.455 10.455 0 01-6.388-6.779 10.454 10.454 0 01-6.385 6.781"/>
      <path fill="#1CBE1C" fill-rule="nonzero" d="M592.156 269.407a2.054 2.054 0 102.65 3.14 2.054 2.054 0 00-2.65-3.14M578.743 250.3a3.6 3.6 0 104.635 5.51 3.6 3.6 0 00-4.635-5.51"/>
      <path fill="#ADBC17" fill-rule="nonzero" d="M567.858 136.059a2.933 2.933 0 105.866-.002 2.933 2.933 0 00-5.866.002"/>
      <path fill="#1CBE1C" fill-rule="nonzero" d="M636.313 188.046a4.935 4.935 0 106.347 7.559 4.935 4.935 0 00-6.347-7.559"/>
      <path fill="#1296FF" fill-rule="nonzero" d="M483.27 275.331a4.365 4.365 0 105.61 6.688 4.365 4.365 0 00-5.61-6.688M396.719 323.158a4.365 4.365 0 105.61 6.688 4.365 4.365 0 00-5.61-6.688M418 325.818a2.054 2.054 0 102.639 3.148 2.054 2.054 0 00-2.639-3.148M427.859 338.8a3.2 3.2 0 104.105 4.91 3.2 3.2 0 00-4.105-4.91"/>
      <path fill="#FFF" fill-rule="nonzero" d="M704.184 84.353a2.054 2.054 0 103.82 1.515 2.054 2.054 0 00-3.82-1.516M777.609 80.116a2.054 2.054 0 103.818 1.516 2.054 2.054 0 00-3.818-1.516M571.386 71.649a2.054 2.054 0 103.819 1.514 2.054 2.054 0 00-3.819-1.514M623.688 181.8a2.054 2.054 0 103.818 1.517 2.054 2.054 0 00-3.818-1.517M479.643 175.44a2.054 2.054 0 103.818 1.517 2.054 2.054 0 00-3.818-1.517M386.437 282.415a2.054 2.054 0 103.818 1.516 2.054 2.054 0 00-3.818-1.516M396.561 105.832a2.054 2.054 0 103.818 1.515 2.054 2.054 0 00-3.818-1.515"/>
      <path fill="#1CBE1C" fill-rule="nonzero" d="M600.949 290.737a2.054 2.054 0 102.648 3.14 2.054 2.054 0 00-2.648-3.14"/>
      <path fill="#1296FF" fill-rule="nonzero" d="M391.547 307.37a2.054 2.054 0 102.64 3.147 2.054 2.054 0 00-2.64-3.147"/>
      <path fill="#ADBC17" fill-rule="nonzero" d="M482.066 155.123a2.933 2.933 0 105.864 0 2.933 2.933 0 00-5.863 0M527.61 207.562a2.413 2.413 0 104.826-.002 2.413 2.413 0 00-4.826.002"/>
      <path fill="#C6381C" fill-rule="nonzero" d="M537.91 84.363a4.495 4.495 0 108.99.002 4.495 4.495 0 00-8.99-.002"/>
      <path fill="url(#e)" fill-rule="nonzero" d="M691.874 96.1a.469.469 0 01.609.583c-1.018 3.1-9.919 13.873-24.56 13.873-.579 0-14.1-4.114-13.452-17.871.648-13.757 10.607-17.614 10.607-17.614a6.725 6.725 0 00-3.969 4.436c-1.013 3.375-.724 8.967 7.312 15.042 8.167 6.451 20.736 2.543 23.453 1.551z"/>
      <path fill="url(#f)" fill-rule="nonzero" d="M675.557 82.01s-.268-7.076-7.329-7.457c-6.541-.354-13.307 9-13.307 17.164 0 17.357 16.373 18.522 18.506 18.305a26.231 26.231 0 01-5.448.53c-4.564.129-28.117-2.394-28.567-29.458.675-16.393 22.388-16.57 29.447-12.159 6.722 4.2 6.698 13.075 6.698 13.075z"/>
      <path fill="url(#g)" fill-rule="nonzero" d="M682.275 91.267c.8 0 14.753.1 14.753-14.175s-14.85-24.107-27.964-24.107a29.14 29.14 0 00-20.828 8.293 27.753 27.753 0 00-8.824 19.7s1.559-14.464 19.238-14.014c16.264 1.093 16.778 13.4 16.778 14.464 0 4.564-2.507 4.886-2.507 6.364 0 1.289 3.086 3.475 9.354 3.475z"/>
      <path fill="#D2D2D2" fill-rule="nonzero" d="M661.315 124.106h14.357v8.824h-5.691v-3.982a1.471 1.471 0 00-2.941 0v3.982h-5.725v-8.824z"/>
      <path fill="#FFF" fill-rule="nonzero" d="M369.211 72.548a12.631 12.631 0 017.719 8.19 12.633 12.633 0 017.719-8.19 12.635 12.635 0 01-7.719-8.191 12.632 12.632 0 01-7.719 8.191"/>
    </g>
  </g>
</svg>
